<?xml version="1.0" encoding="iso-8859-1"?>
<!-- Generator: Adobe Illustrator 23.0.3, SVG Export Plug-In . SVG Version: 6.00 Build 0)  -->
<svg version="1.1" id="Capa_1" xmlns="http://www.w3.org/2000/svg" xmlns:xlink="http://www.w3.org/1999/xlink" x="0px" y="0px"
	 viewBox="0 0 512 512" style="enable-background:new 0 0 512 512;" xml:space="preserve">
<g>
	<g>
		<g>
			<path style="fill:#E19A77;" d="M501.651,456.595H149.618c-5.715,0-10.349-4.633-10.349-10.349V140.316
				c0-5.715,4.633-10.349,10.349-10.349h352.033c5.715,0,10.349,4.633,10.349,10.349v305.931
				C512,451.962,507.367,456.595,501.651,456.595z"/>
			<path style="fill:#D77F4F;" d="M512,140.316v305.933c0,5.718-4.636,10.343-10.353,10.343h-31.173
				c5.717,0,10.353-4.625,10.353-10.343V140.316c0-5.718-4.636-10.353-10.353-10.353h31.173
				C507.364,129.962,512,134.598,512,140.316z"/>
			<path style="fill:#52CC61;" d="M170.315,419.368V167.194c0-3.414,2.767-6.181,6.181-6.181h298.277
				c3.414,0,6.181,2.767,6.181,6.181v252.174c0,3.414-2.767,6.181-6.181,6.181H176.496
				C173.083,425.549,170.315,422.782,170.315,419.368z"/>
		</g>
		<g>
			<path style="fill:#FFF5F5;" d="M306.614,242.15h6.463v6.464c0,4.267,3.459,7.726,7.726,7.726c4.267,0,7.726-3.459,7.726-7.726
				v-6.464h6.464c4.267,0,7.726-3.459,7.726-7.726s-3.459-7.726-7.726-7.726h-6.464v-6.463c0-4.267-3.459-7.726-7.726-7.726
				c-4.267,0-7.726,3.459-7.726,7.726v6.463h-6.463c-4.267,0-7.726,3.459-7.726,7.726S302.347,242.15,306.614,242.15z"/>
			<path style="fill:#FFF5F5;" d="M336.3,281.38c-3.017-3.017-7.909-3.017-10.927,0l-4.57,4.57l-4.57-4.57
				c-3.017-3.017-7.909-3.017-10.927,0c-3.018,3.017-3.018,7.909,0,10.927l4.57,4.57l-4.57,4.57c-3.018,3.017-3.018,7.909,0,10.927
				c1.509,1.509,3.486,2.263,5.463,2.263s3.955-0.755,5.463-2.263l4.57-4.57l4.57,4.57c1.509,1.509,3.486,2.263,5.463,2.263
				c1.977,0,3.955-0.755,5.463-2.263c3.018-3.017,3.018-7.909,0-10.927l-4.57-4.57l4.57-4.57
				C339.318,289.29,339.318,284.397,336.3,281.38z"/>
			<path style="fill:#FFF5F5;" d="M374.494,242.15h28.38c4.267,0,7.726-3.459,7.726-7.726s-3.459-7.726-7.726-7.726h-28.38
				c-4.267,0-7.726,3.459-7.726,7.726S370.227,242.15,374.494,242.15z"/>
			<path style="fill:#FFF5F5;" d="M404.182,281.38c-3.017-3.017-7.909-3.017-10.927,0l-20.067,20.067
				c-3.018,3.017-3.018,7.909,0,10.927c1.509,1.509,3.486,2.263,5.463,2.263s3.955-0.755,5.463-2.263l20.067-20.067
				C407.199,289.29,407.199,284.397,404.182,281.38z"/>
			<path style="fill:#FFF5F5;" d="M373.708,289.627c1.977,0,3.955-0.755,5.463-2.263c3.018-3.017,3.018-7.909,0-10.927l-0.064-0.064
				c-3.017-3.018-7.877-2.985-10.895,0.032c-3.017,3.018-2.985,7.942,0.032,10.959C369.753,288.872,371.73,289.627,373.708,289.627z
				"/>
			<path style="fill:#FFF5F5;" d="M403.725,319.644c1.977,0,3.955-0.755,5.463-2.263c3.018-3.017,3.018-7.909,0-10.927l-0.064-0.064
				c-3.017-3.018-7.877-2.985-10.895,0.032c-3.017,3.018-2.985,7.942,0.032,10.959C399.771,318.89,401.748,319.644,403.725,319.644z
				"/>
			<path style="fill:#FFF5F5;" d="M436.968,352.221H270.482c-4.267,0-7.726,3.459-7.726,7.726c0,4.267,3.459,7.726,7.726,7.726
				h166.486c4.267,0,7.726-3.459,7.726-7.726C444.695,355.681,441.235,352.221,436.968,352.221z"/>
		</g>
	</g>
	<g>
		<path style="fill:#B6DCFF;" d="M233.913,319.407v145.328c0,5.748-4.667,10.405-10.405,10.405H10.405
			C4.656,475.14,0,470.483,0,464.735V319.407c0-35.861,22.334-66.498,53.858-78.757c9.498-3.698,19.821-5.728,30.617-5.728h64.953
			c10.807,0,21.139,2.029,30.627,5.728C211.579,252.909,233.913,283.547,233.913,319.407z"/>
		<path style="fill:#65BAFC;" d="M180.055,240.65c-15.185,18.121-37.972,29.504-63.099,29.504s-47.914-11.384-63.099-29.504
			c9.498-3.698,19.821-5.728,30.617-5.728h64.953C160.234,234.922,170.567,236.951,180.055,240.65z"/>
		<path style="fill:#65BAFC;" d="M233.908,319.404v145.333c0,5.741-4.66,10.401-10.401,10.401h-12.18V319.404
			c0-46.659-37.818-84.477-84.477-84.477h22.581C196.09,234.927,233.908,272.745,233.908,319.404z"/>
		<path style="fill:#65BAFC;" d="M194.344,358.647V475.14h-15.453V358.647c0-4.265,3.461-7.726,7.726-7.726
			C190.882,350.92,194.344,354.382,194.344,358.647z"/>
		<path style="fill:#65BAFC;" d="M55.022,358.647V475.14H39.569V358.647c0-4.265,3.451-7.726,7.726-7.726
			C51.561,350.92,55.022,354.382,55.022,358.647z"/>
		<g>
			<path style="fill:#CDBFBB;" d="M260.718,159.379c-8.005,6.531-17.688,9.653-27.269,9.529c-12.146-0.134-24.147-5.45-32.43-15.607
				c-14.804-18.162-12.084-44.895,6.078-59.699c3.966-3.235,8.344-5.625,12.908-7.211c16.359-5.666,35.212-0.907,46.791,13.289
				C281.6,117.842,278.88,144.565,260.718,159.379z"/>
			<path style="fill:#B9ACAC;" d="M234.129,162.129c0,2.318-0.237,4.584-0.68,6.779c-12.146-0.134-24.147-5.45-32.43-15.607
				c-14.804-18.162-12.084-44.895,6.078-59.699c3.966-3.235,8.344-5.625,12.908-7.211c4.358,15.494,4.296,32.131-0.525,47.873
				C228.319,140.382,234.129,150.581,234.129,162.129z"/>
			<path style="fill:#B9ACAC;" d="M206.962,131.381c-0.264,0-0.531-0.013-0.799-0.041c-4.245-0.432-7.33-4.258-6.898-8.503
				c0.683-6.713,5.643-12.351,13.968-15.877c6.528-2.765,14.537-3.917,21.967-3.16c4.245,0.432,7.337,4.224,6.904,8.469
				c-0.432,4.246-4.229,7.334-8.469,6.904c-10.061-1.022-18.353,3.278-19.01,5.296C214.221,128.447,210.874,131.381,206.962,131.381
				z"/>
			<circle style="fill:#FDD1A7;" cx="200.283" cy="162.127" r="21.488"/>
			<g>
				<circle style="fill:#FDD1A7;" cx="33.628" cy="162.127" r="21.488"/>
			</g>
			<g>
				<path style="fill:#006AC3;" d="M116.977,223.642v53.384c0,4.687-3.163,8.736-7.675,10.003
					c-12.908,3.616-22.417,12.136-28.67,19.687c-3.08,3.709-9.127,1.483-9.127-3.338v-79.736H116.977z"/>
				<path style="fill:#0057A1;" d="M116.977,234.922v35.232c-0.01,0-0.01,0-0.021,0c-16.699,0-32.368-5.027-45.452-13.722v-20.511
					c4.224-0.659,8.561-0.999,12.97-0.999H116.977z"/>
				<path style="fill:#1475CC;" d="M162.398,223.642v79.736c0,4.821-6.047,7.047-9.117,3.338
					c-6.253-7.551-15.762-16.071-28.67-19.687c-4.512-1.267-7.685-5.316-7.685-10.003v-53.384H162.398z"/>
				<path style="fill:#006AC3;" d="M162.398,235.911v20.521c-13.083,8.695-28.742,13.722-45.441,13.722h-0.031v-35.232h32.502
					C153.837,234.922,158.164,235.262,162.398,235.911z"/>
			</g>
			<path style="fill:#FFE5C4;" d="M70.128,110.175c-17.603,0-31.238,15.402-29.104,32.875l6.508,53.287
				c4.285,35.086,34.076,61.46,69.423,61.46l0,0c35.347,0,65.138-26.374,69.423-61.46l6.509-53.287
				c2.134-17.473-11.501-32.875-29.104-32.875H70.128z"/>
			<g>
				<line style="fill:#F69583;" x1="165.558" y1="191.626" x2="165.558" y2="191.716"/>
			</g>
			<g>
				<path style="fill:#DAEDFF;" d="M93.988,194.731h-45.94c-5.715,0-10.349-4.633-10.349-10.349v-32.259
					c0-5.715,4.633-10.349,10.349-10.349h45.94c5.715,0,10.349,4.633,10.349,10.349v32.259
					C104.337,190.097,99.703,194.731,93.988,194.731z"/>
				<path style="fill:#5B5555;" d="M77.484,178.047c-4.267,0-7.726-3.459-7.726-7.726s3.459-7.771,7.726-7.771
					c4.267,0,7.726,3.414,7.726,7.682v0.09C85.21,174.587,81.751,178.047,77.484,178.047z"/>
			</g>
			<g>
				<path style="fill:#DAEDFF;" d="M140.353,194.731h45.94c5.715,0,10.349-4.633,10.349-10.349v-32.259
					c0-5.715-4.633-10.349-10.349-10.349h-45.94c-5.715,0-10.349,4.633-10.349,10.349v32.259
					C130.004,190.097,134.638,194.731,140.353,194.731z"/>
				<path style="fill:#5B5555;" d="M156.857,178.047c-4.267,0-7.726-3.459-7.726-7.726s3.459-7.771,7.726-7.771
					s7.726,3.414,7.726,7.682v0.09C164.583,174.587,161.124,178.047,156.857,178.047z"/>
			</g>
			<path style="fill:#F69583;" d="M116.956,226.154c-12.799,0-24.209-8.594-27.747-20.898c-1.179-4.101,1.189-8.381,5.29-9.561
				c4.102-1.179,8.381,1.189,9.561,5.29c1.645,5.72,6.948,9.716,12.896,9.716s11.251-3.995,12.896-9.716
				c1.18-4.101,5.461-6.469,9.561-5.29c4.101,1.18,6.469,5.46,5.29,9.561C141.164,217.56,129.754,226.154,116.956,226.154z"/>
			<path style="fill:#756F6F;" d="M186.293,134.048h-45.94c-9.967,0-18.075,8.108-18.075,18.075v6.659h-10.215v-6.659
				c0-9.967-8.108-18.075-18.075-18.075h-45.94c-9.967,0-18.075,8.108-18.075,18.075v32.259c0,9.967,8.108,18.075,18.075,18.075
				h45.94c9.967,0,18.075-8.108,18.075-18.075v-10.147h10.215v10.147c0,9.967,8.108,18.075,18.075,18.075h45.94
				c9.967,0,18.075-8.108,18.075-18.075v-32.259C204.368,142.156,196.26,134.048,186.293,134.048z M96.61,184.382
				c0,1.446-1.177,2.622-2.622,2.622h-45.94c-1.446,0-2.622-1.177-2.622-2.622v-32.259c0-1.446,1.177-2.622,2.622-2.622h45.94
				c1.446,0,2.622,1.177,2.622,2.622V184.382z M188.915,184.382c0,1.446-1.177,2.622-2.622,2.622h-45.94
				c-1.446,0-2.622-1.177-2.622-2.622v-32.259c0-1.446,1.177-2.622,2.622-2.622h45.94c1.446,0,2.622,1.177,2.622,2.622V184.382z"/>
			<path style="fill:#CDBFBB;" d="M44.303,58.101c-22.365,22.365-27.061,55.7-14.099,82.68c26.973,12.968,60.314,8.267,82.68-14.099
				c22.372-22.372,27.074-55.713,14.105-82.686C100.009,31.034,66.675,35.729,44.303,58.101z"/>
			<path style="fill:#E0D3CE;" d="M189.606,58.101c22.365,22.365,27.061,55.7,14.099,82.68
				c-26.973,12.968-60.314,8.267-82.68-14.099c-17.917-17.917-24.5-42.869-19.751-65.951c2.307-11.214,11.166-20.07,22.38-22.377
				C146.739,33.604,171.688,40.183,189.606,58.101z"/>
			<path style="fill:#CDBFBB;" d="M203.708,140.784c-6.964,3.348-14.361,5.522-21.881,6.511
				c14.567-23.663,14.793-54.672-1.947-79.056c-12.094-17.647-30.607-28.258-50.263-30.854c21.345-2.565,43.608,4.337,59.987,20.717
				C211.97,80.467,216.668,113.804,203.708,140.784z"/>
		</g>
		<path style="fill:#1475CC;" d="M116.954,362.849c-4.267,0-7.726-3.459-7.726-7.726c0-4.267,3.459-7.771,7.726-7.771
			c4.267,0,7.726,3.414,7.726,7.682v0.09C124.681,359.389,121.221,362.849,116.954,362.849z"/>
		<path style="fill:#1475CC;" d="M116.954,407.369c-4.267,0-7.726-3.459-7.726-7.726c0-4.267,3.459-7.772,7.726-7.772
			c4.267,0,7.726,3.414,7.726,7.682v0.09C124.681,403.909,121.221,407.369,116.954,407.369z"/>
	</g>
</g>
<g>
</g>
<g>
</g>
<g>
</g>
<g>
</g>
<g>
</g>
<g>
</g>
<g>
</g>
<g>
</g>
<g>
</g>
<g>
</g>
<g>
</g>
<g>
</g>
<g>
</g>
<g>
</g>
<g>
</g>
</svg>
