<?xml version="1.0" encoding="iso-8859-1"?>
<!-- Generator: Adobe Illustrator 23.0.3, SVG Export Plug-In . SVG Version: 6.00 Build 0)  -->
<svg version="1.1" id="Capa_1" xmlns="http://www.w3.org/2000/svg" xmlns:xlink="http://www.w3.org/1999/xlink" x="0px" y="0px"
	 viewBox="0 0 512 512" style="enable-background:new 0 0 512 512;" xml:space="preserve">
<g>
	<g>
		<g>
			<g>
				<g>
					<g>
						<g>
							<g>
								<g>
									<path style="fill:#52CC61;" d="M156.048,14.74C99.539,13.953,53.485,59.525,53.485,115.852
										c0,60.75,54.684,95.692,83.626,122.524c6.668,6.182,17.496,1.462,17.496-7.631l0-13.77
										c56.328,0,101.899-46.054,101.113-102.562C254.962,59.948,210.512,15.498,156.048,14.74z"/>
								</g>
								<g>
									<path style="fill:#00B232;" d="M255.72,114.408c0.729,52.418-38.413,95.826-89.035,101.847
										c37.874-14.987,64.532-52.164,63.93-95.509c-0.76-54.456-45.204-98.91-99.671-99.671
										c-4.573-0.063-9.083,0.179-13.508,0.708c11.924-4.721,24.968-7.235,38.613-7.045
										C210.516,15.498,254.96,59.952,255.72,114.408z"/>
								</g>
							</g>
						</g>
					</g>
				</g>
			</g>
		</g>
		<g>
			<path style="fill:#FFF5F5;" d="M141.997,93.356h-30.882c-4.268,0-7.726-3.459-7.726-7.726c0-4.267,3.459-7.726,7.726-7.726
				h30.882c4.268,0,7.726,3.459,7.726,7.726C149.723,89.896,146.265,93.356,141.997,93.356z"/>
			<path style="fill:#FFF5F5;" d="M198.108,135.68h-86.993c-4.268,0-7.726-3.459-7.726-7.726c0-4.267,3.459-7.726,7.726-7.726
				h86.993c4.268,0,7.726,3.459,7.726,7.726C205.834,132.221,202.375,135.68,198.108,135.68z"/>
			<path style="fill:#FFF5F5;" d="M198.108,166.245h-86.993c-4.268,0-7.726-3.459-7.726-7.726s3.459-7.726,7.726-7.726h86.993
				c4.268,0,7.726,3.459,7.726,7.726S202.375,166.245,198.108,166.245z"/>
		</g>
	</g>
	<g>
		<g>
			<g>
				<g>
					<g>
						<g>
							<path style="fill:#E84649;" d="M512,326.907v161.038c0,5.151-4.183,9.323-9.323,9.323H198.372
								c-5.141,0-9.323-4.172-9.323-9.323V326.907c0-31.688,19.1-58.926,46.399-70.835c9.447-4.121,19.882-6.408,30.844-6.408
								h168.476c4.214,0,8.365,0.34,12.403,0.999c6.449,1.04,12.62,2.874,18.43,5.408C492.911,267.981,512,295.219,512,326.907z"/>
							<g>
								<path style="fill:#D73337;" d="M464.941,355.485v141.784h-15.453V355.485c0-4.275,3.451-7.726,7.726-7.726
									C461.48,347.758,464.941,351.209,464.941,355.485z"/>
							</g>
							<path style="fill:#D73337;" d="M251.57,355.485v141.784h-15.453V355.485c0-4.275,3.451-7.726,7.726-7.726
								C248.109,347.758,251.57,351.209,251.57,355.485z"/>
							<path style="fill:#D73337;" d="M431.883,249.664c-16.617,27.681-46.925,46.059-81.353,46.059
								c-34.439,0-64.747-18.379-81.353-46.059H431.883z"/>
							<path style="fill:#FFBC8A;" d="M383.578,255.258v36.551c0,18.255-14.804,33.058-33.048,33.058
								c-18.255,0-33.059-14.804-33.059-33.058v-36.551H383.578z"/>
							<path style="fill:#F5A871;" d="M383.578,255.258V289.8c-10.302,3.832-21.438,5.924-33.048,5.924s-22.757-2.091-33.059-5.924
								v-34.542H383.578z"/>
							<path style="fill:#D73337;" d="M512,326.902v161.045c0,5.145-4.176,9.321-9.321,9.321h-21.486
								c5.145,0,9.321-4.176,9.321-9.321V326.902c0-31.683-19.09-58.93-46.402-70.833c-5.807-2.535-11.978-4.372-18.428-5.406
								c-4.036-0.662-8.184-0.997-12.407-0.997h21.486c4.223,0,8.371,0.336,12.407,0.997c6.45,1.035,12.621,2.871,18.428,5.406
								C492.91,267.972,512,295.218,512,326.902z"/>
							<rect x="189.049" y="371.864" style="fill:#FFF5F5;" width="322.951" height="89.214"/>
							<g>
								<rect x="449.489" y="371.864" style="fill:#E0D3CE;" width="15.453" height="89.214"/>
							</g>
							<rect x="236.117" y="371.864" style="fill:#E0D3CE;" width="15.453" height="89.214"/>
							<rect x="490.517" y="371.862" style="fill:#E0D3CE;" width="21.479" height="89.214"/>
						</g>
						<g>
							<g>
								<g>
									<circle style="fill:#9E9797;" cx="445.347" cy="169.981" r="28.691"/>
								</g>
								<g>
									<path style="fill:#756F6F;" d="M474.038,169.98c0,15.844-12.846,28.691-28.69,28.691c-2.318,0-4.574-0.278-6.727-0.803
										c12.599-3.029,21.953-14.361,21.953-27.887c0-13.526-9.354-24.858-21.953-27.887c2.153-0.525,4.409-0.803,6.727-0.803
										C461.191,141.289,474.038,154.136,474.038,169.98z"/>
								</g>
								<g>
									<circle style="fill:#FFBC8A;" cx="255.705" cy="169.981" r="21.567"/>
								</g>
							</g>
							<path style="fill:#FDD1A7;" d="M350.526,283.364L350.526,283.364c-43.877,0-80.073-34.351-82.367-78.168l-5.595-106.88
								h175.923l-5.595,106.88C430.599,249.012,394.403,283.364,350.526,283.364z"/>
							<g>
								<path style="fill:#9E552E;" d="M350.526,138.584c0,0,62.226-29.043,83.558,12.327c1.464,2.839,5.271,3.441,7.594,1.249
									l27.229-25.691l-15.846-45.053H350.526V138.584z"/>
								<path style="fill:#C86D3D;" d="M350.526,73.648c0,0,19.277-27.964,67.897-27.964c44.455,0,73.469,46.757,54.968,87.781
									c-1.793,3.976-7.544,3.613-8.747-0.579c-4.372-15.234-16.983-39.663-52.908-39.663c-52.2,0-61.21,45.361-61.21,45.361
									V73.648z"/>
								<path style="fill:#9E552E;" d="M350.526,138.584c0,0-62.226-29.043-83.558,12.327c-1.464,2.839-5.271,3.441-7.594,1.249
									l-27.229-25.691l15.846-45.053h102.535V138.584z"/>
								<path style="fill:#C86D3D;" d="M350.526,73.648c0,0-19.277-27.964-67.897-27.964c-44.455,0-73.469,46.757-54.968,87.781
									c1.793,3.976,7.544,3.613,8.747-0.579c4.372-15.234,16.983-39.663,52.908-39.663c52.2,0,61.21,45.361,61.21,45.361V73.648z"
									/>
							</g>
							<g>
								<g>
									<g>
										<path style="fill:#9E552E;" d="M313.846,203.288c-4.268,0-7.726-3.459-7.726-7.726s3.459-7.772,7.726-7.772
											s7.726,3.414,7.726,7.681v0.091C321.572,199.828,318.114,203.288,313.846,203.288z"/>
										<path style="fill:#9E552E;" d="M387.207,203.288c-4.268,0-7.726-3.459-7.726-7.726s3.459-7.772,7.726-7.772
											s7.726,3.414,7.726,7.681v0.091C394.934,199.828,391.475,203.288,387.207,203.288z"/>
									</g>
								</g>
								<path style="fill:#F5A871;" d="M350.527,248.678c-12.879,0-24.361-8.647-27.923-21.029c-1.179-4.101,1.189-8.382,5.29-9.561
									c4.099-1.176,8.381,1.189,9.561,5.29c1.668,5.798,7.043,9.848,13.071,9.848s11.403-4.049,13.07-9.847
									c1.179-4.101,5.46-6.47,9.56-5.291c4.102,1.179,6.47,5.46,5.291,9.56C374.888,240.03,363.406,248.678,350.527,248.678z"/>
							</g>
						</g>
					</g>
				</g>
			</g>
		</g>
		<path style="fill:#FFF5F5;" d="M424.455,348.328h-19.326c-4.268,0-7.726-3.459-7.726-7.726c0-4.267,3.459-7.726,7.726-7.726
			h19.326c4.268,0,7.726,3.459,7.726,7.726C432.181,344.869,428.722,348.328,424.455,348.328z"/>
		<path style="fill:#CDBFBB;" d="M429.119,283.049c-4.552,0-9.124-0.914-13.451-2.768c-0.138-0.059-0.274-0.122-0.407-0.189
			l-35.135-17.529c-3.818-1.905-5.369-6.544-3.464-10.363c1.903-3.818,6.539-5.371,10.363-3.464l34.918,17.42
			c5.819,2.424,12.164,1.823,17.438-1.656c5.332-3.516,8.389-9.196,8.389-15.582V190.84c0-4.267,3.459-7.726,7.726-7.726
			s7.726,3.459,7.726,7.726v58.079c0,11.502-5.732,22.149-15.334,28.482C442.215,281.142,435.689,283.049,429.119,283.049z"/>
	</g>
	<g>
		<rect x="30.768" y="340.129" style="fill:#756F6F;" width="158.285" height="64.544"/>
		<path style="fill:#CDBFBB;" d="M210.07,497.272H9.751c-6.427,0-11.094-6.112-9.401-12.312l22.463-82.257
			c1.157-4.238,5.008-7.178,9.401-7.178h155.394c4.393,0,8.244,2.94,9.401,7.178l22.463,82.257
			C221.164,491.16,216.497,497.272,210.07,497.272z"/>
		<path style="fill:#9E9797;" d="M210.072,497.272h-18.039c6.429,0,11.092-6.115,9.399-12.313l-22.461-82.26
			c-1.156-4.237-5.005-7.179-9.399-7.179h18.039c4.394,0,8.243,2.942,9.399,7.179l22.461,82.26
			C221.163,491.157,216.501,497.272,210.072,497.272z"/>
		<path style="fill:#CDBFBB;" d="M217.604,345.072v17.045c0,5.382-4.363,9.745-9.745,9.745h-25.026
			c-5.382,0-9.745-4.363-9.745-9.745v-13H46.723v13c0,5.382-4.363,9.745-9.745,9.745H11.962c-5.382,0-9.745-4.363-9.745-9.745
			v-17.054c0-19.064,15.454-34.518,34.518-34.518h146.343C202.146,310.545,217.604,326.003,217.604,345.072z"/>
		<path style="fill:#9E9797;" d="M217.602,345.075v17.04c0,5.384-4.357,9.751-9.741,9.751h-18.039c5.384,0,9.741-4.367,9.741-9.751
			v-17.04c0-19.076-15.458-34.534-34.525-34.534h18.039C202.143,310.541,217.602,325.999,217.602,345.075z"/>
		<g>
			<g>
				<circle style="fill:#5B5555;" cx="109.91" cy="418.642" r="46.781"/>
			</g>
			<g>
				<circle style="fill:#CDBFBB;" cx="109.91" cy="418.642" r="20.401"/>
			</g>
		</g>
	</g>
</g>
<g>
</g>
<g>
</g>
<g>
</g>
<g>
</g>
<g>
</g>
<g>
</g>
<g>
</g>
<g>
</g>
<g>
</g>
<g>
</g>
<g>
</g>
<g>
</g>
<g>
</g>
<g>
</g>
<g>
</g>
</svg>
