<?xml version="1.0" encoding="iso-8859-1"?>
<!-- Generator: Adobe Illustrator 23.0.3, SVG Export Plug-In . SVG Version: 6.00 Build 0)  -->
<svg version="1.1" id="Capa_1" xmlns="http://www.w3.org/2000/svg" xmlns:xlink="http://www.w3.org/1999/xlink" x="0px" y="0px"
	 viewBox="0 0 512 512" style="enable-background:new 0 0 512 512;" xml:space="preserve">
<g>
	<g>
		<g>
			<g>
				<path style="fill:#0057A1;" d="M426.716,473.588h-86.482c-4.267,0-7.726-3.459-7.726-7.726c0-4.267,3.459-7.726,7.726-7.726
					h86.482c4.267,0,7.726,3.459,7.726,7.726C434.443,470.128,430.983,473.588,426.716,473.588z"/>
				<path style="fill:#0057A1;" d="M436.987,447.941H327.613c-4.267,0-7.726-3.459-7.726-7.726c0-4.267,3.459-7.726,7.726-7.726
					h109.374c4.267,0,7.726,3.459,7.726,7.726C444.713,444.482,441.254,447.941,436.987,447.941z"/>
			</g>
		</g>
		<g>
			<path style="fill:#FDD1A7;" d="M323.396,302.212v178.12c0,5.697-4.615,10.312-10.312,10.312H13.638
				c-5.687,0-10.312-4.615-10.312-10.312v-178.12c0-35.047,21.119-65.17,51.314-78.346c4.759-2.071,9.735-3.729,14.896-4.904
				c6.181-1.422,12.61-2.174,19.213-2.174h149.223c4.667,0,9.261,0.371,13.722,1.102c1.854,0.299,3.678,0.649,5.491,1.061
				c5.161,1.185,10.137,2.843,14.896,4.914C302.277,237.042,323.396,267.165,323.396,302.212z"/>
			<path style="fill:#FFBC8A;" d="M323.396,302.215v178.12c0,5.692-4.619,10.311-10.311,10.311h-23.767
				c5.692,0,10.311-4.619,10.311-10.311v-178.12c0-35.047-21.117-65.175-51.317-78.342c-6.424-2.805-13.249-4.836-20.385-5.98
				c-4.465-0.732-9.053-1.103-13.724-1.103h23.766c4.671,0,9.259,0.371,13.724,1.103c7.135,1.144,13.961,3.176,20.384,5.98
				C302.28,237.04,323.396,267.168,323.396,302.215z"/>
		</g>
		<g>
			<g>
				<g>
					<circle style="fill:#FFBC8A;" cx="268.237" cy="134.554" r="23.854"/>
				</g>
				<g>
					<circle style="fill:#FFBC8A;" cx="58.487" cy="134.554" r="23.854"/>
				</g>
			</g>
			<path style="fill:#FFBC8A;" d="M257.185,218.952c-16.565,35.366-52.468,59.627-93.819,59.627s-77.244-24.261-93.83-59.617
				c6.181-1.422,12.61-2.174,19.213-2.174h149.223c4.667,0,9.261,0.371,13.722,1.102C253.549,218.19,255.372,218.54,257.185,218.952
				z"/>
			<path style="fill:#FDD1A7;" d="M163.362,266.223L163.362,266.223c-48.529,0-88.564-37.994-91.101-86.457l-3.475-66.385
				c-1.475-28.175,20.973-51.828,49.186-51.828h90.78c28.213,0,50.661,23.653,49.186,51.828l-3.475,66.385
				C251.926,228.229,211.891,266.223,163.362,266.223z"/>
			<g>
				<g>
					<g>
						<g>
							<g>
								<line style="fill:#0057A1;" x1="216.431" y1="171.076" x2="216.431" y2="171.174"/>
							</g>
						</g>
					</g>
				</g>
			</g>
			<g>
				<g>
					<path style="fill:#0057A1;" d="M120.837,173.081c-4.267,0-7.726-3.459-7.726-7.726v-0.105c0-4.267,3.459-7.726,7.726-7.726
						c4.267,0,7.726,3.459,7.726,7.726v0.105C128.563,169.622,125.104,173.081,120.837,173.081z"/>
					<path style="fill:#0057A1;" d="M205.887,173.081c-4.267,0-7.726-3.459-7.726-7.726v-0.105c0-4.267,3.459-7.726,7.726-7.726
						c4.267,0,7.726,3.459,7.726,7.726v0.105C213.613,169.622,210.154,173.081,205.887,173.081z"/>
				</g>
			</g>
			<path style="fill:#F5A871;" d="M163.362,225.703c-14.385,0-27.21-9.66-31.188-23.49c-1.179-4.101,1.189-8.381,5.29-9.561
				c4.1-1.182,8.381,1.189,9.561,5.29c2.084,7.247,8.802,12.308,16.337,12.308c7.535,0,14.253-5.061,16.337-12.308
				c1.18-4.1,5.46-6.468,9.561-5.29c4.101,1.18,6.469,5.46,5.29,9.561C190.573,216.043,177.747,225.703,163.362,225.703z"/>
			<path style="fill:#1475CC;" d="M249.313,96.87H77.411c-6.156,0-10.971-5.362-10.249-11.486
				c4.351-36.841,29.376-67.34,63.144-79.6C140.616,2.042,151.752,0,163.362,0c11.61,0,22.746,2.042,33.057,5.784
				c33.768,12.26,58.792,42.759,63.144,79.6C260.284,91.509,255.468,96.87,249.313,96.87z"/>
			<path style="fill:#0057A1;" d="M249.313,96.874h-23.766c6.156,0,10.971-5.362,10.249-11.486
				c-4.351-36.841-29.376-67.34-63.144-79.6c-6.733-2.444-13.827-4.166-21.168-5.063c3.887-0.474,7.857-0.722,11.878-0.722
				c11.61,0,22.746,2.042,33.057,5.784c33.768,12.26,58.792,42.759,63.144,79.6C260.284,91.513,255.469,96.874,249.313,96.874z"/>
			<path style="fill:#BDEB73;" d="M196.418,5.788v25.349c0,2.697-1.072,5.284-2.979,7.191l-22.889,22.881
				c-3.971,3.969-10.407,3.969-14.377,0l-22.889-22.881c-1.908-1.907-2.979-4.494-2.979-7.191V5.788
				c6.733-2.444,13.827-4.166,21.178-5.063c3.887-0.474,7.857-0.722,11.878-0.722C174.972,0.004,186.108,2.046,196.418,5.788z"/>
			<path style="fill:#8EC737;" d="M196.418,5.788v12.62c-7.228-5.248-15.219-9.517-23.766-12.62
				c-6.733-2.444-13.827-4.166-21.168-5.063c3.887-0.474,7.857-0.722,11.878-0.722C174.972,0.004,186.108,2.046,196.418,5.788z"/>
		</g>
		<path style="fill:#FFBC8A;" d="M128.431,436.255h-22.155c-4.267,0-7.726-3.459-7.726-7.726c0-4.267,3.459-7.726,7.726-7.726
			h22.155c4.267,0,7.726,3.459,7.726,7.726C136.157,432.796,132.698,436.255,128.431,436.255z"/>
		<path style="fill:#FFBC8A;" d="M220.448,436.255h-22.155c-4.267,0-7.726-3.459-7.726-7.726c0-4.267,3.459-7.726,7.726-7.726
			h22.155c4.267,0,7.726,3.459,7.726,7.726C228.174,432.796,224.715,436.255,220.448,436.255z"/>
		<path style="fill:#FFBC8A;" d="M128.431,466.744h-22.155c-4.267,0-7.726-3.459-7.726-7.726c0-4.267,3.459-7.726,7.726-7.726
			h22.155c4.267,0,7.726,3.459,7.726,7.726C136.157,463.285,132.698,466.744,128.431,466.744z"/>
		<path style="fill:#FFBC8A;" d="M220.448,466.744h-22.155c-4.267,0-7.726-3.459-7.726-7.726c0-4.267,3.459-7.726,7.726-7.726
			h22.155c4.267,0,7.726,3.459,7.726,7.726C228.174,463.285,224.715,466.744,220.448,466.744z"/>
		<g>
			<path style="fill:#FFBC8A;" d="M272.082,358.687c-4.265,0-7.726,3.461-7.726,7.726v124.231h15.453V366.414
				C279.808,362.149,276.347,358.687,272.082,358.687z"/>
			<path style="fill:#FFBC8A;" d="M54.64,358.687c-4.265,0-7.726,3.461-7.726,7.726v124.231h15.453V366.414
				C62.366,362.149,58.915,358.687,54.64,358.687z"/>
			<path style="fill:#FFBC8A;" d="M242.513,346.314c-4.267,0-7.726,3.459-7.726,7.726c0,8.03-6.532,14.563-14.562,14.563h-48.7
				v-36.216c0-4.275-3.461-7.726-7.726-7.726s-7.726,3.451-7.726,7.726v36.216h-49.573c-8.03,0-14.562-6.533-14.562-14.563
				c0-4.267-3.459-7.726-7.726-7.726s-7.726,3.459-7.726,7.726c0,16.55,13.464,30.015,30.015,30.015h49.573v106.588h15.453V384.056
				h48.7c16.55,0,30.015-13.465,30.015-30.015C250.24,349.773,246.78,346.314,242.513,346.314z"/>
		</g>
		<g>
			<ellipse style="fill:#1475CC;" cx="312.891" cy="465.861" rx="54.885" ry="46.139"/>
			<path style="fill:#52CC61;" d="M342.267,465.859c0,12.497-13.157,22.632-29.376,22.632c-7.084,0-13.6-1.938-18.673-5.166
				c-6.537-4.145-10.703-10.435-10.703-17.467c0-12.497,13.157-22.622,29.376-22.622c6.393,0,12.321,1.578,17.147,4.269
				C337.442,451.599,342.267,458.291,342.267,465.859z"/>
			<path style="fill:#93DD96;" d="M342.267,465.859c0,12.497-13.157,22.632-29.376,22.632c-7.084,0-13.6-1.938-18.673-5.166
				l35.82-35.82C337.442,451.599,342.267,458.291,342.267,465.859z"/>
		</g>
		<g>
			<ellipse style="fill:#1475CC;" cx="453.789" cy="465.861" rx="54.885" ry="46.139"/>
			<path style="fill:#52CC61;" d="M483.165,465.859c0,12.497-13.157,22.632-29.376,22.632c-4.949,0-9.61-0.938-13.693-2.609
				c-6.434-2.619-11.455-7.011-13.951-12.342c-1.124-2.402-1.732-4.99-1.732-7.682c0-12.497,13.157-22.622,29.376-22.622
				c0.866,0,1.722,0.031,2.567,0.093c7.517,0.495,14.229,3.176,19.054,7.238C480.226,454.569,483.165,459.951,483.165,465.859z"/>
			<path style="fill:#93DD96;" d="M475.411,450.568l-35.315,35.315c-6.434-2.619-11.455-7.011-13.951-12.342l30.211-30.211
				C463.873,443.825,470.586,446.506,475.411,450.568z"/>
		</g>
	</g>
	<g>
		<g>
			<g>
				<g>
					<path style="fill:#B6DCFF;" d="M480.386,215.336c-1.793,2.709-4.873,4.564-8.489,4.564h-33.79
						c-3.616,0-6.696-1.854-8.489-4.564c-1.628-2.442-2.215-5.594-1.205-8.705c4.234-13.083,14.546-22.324,26.589-22.324
						s22.355,9.241,26.589,22.324C482.601,209.742,482.014,212.895,480.386,215.336z"/>
				</g>
				<g>
					<path style="fill:#65BAFC;" d="M480.386,215.336c-1.793,2.709-4.873,4.564-8.489,4.564h-33.79
						c-3.616,0-6.696-1.854-8.489-4.564c7.046-6.48,15.885-10.168,25.384-10.168C464.511,205.168,473.35,208.857,480.386,215.336z"
						/>
					<path style="fill:#B6DCFF;" d="M480.736,248.539c-1.793,2.72-4.873,4.574-8.489,4.574h-33.801
						c-3.626,0-6.706-1.865-8.489-4.574c-1.628-2.442-2.205-5.594-1.205-8.695c4.244-13.083,14.546-22.314,26.589-22.314
						c12.053,0,22.355,9.231,26.589,22.314C482.941,242.956,482.364,246.098,480.736,248.539z"/>
				</g>
				<g>
					<path style="fill:#65BAFC;" d="M480.736,248.539c-1.793,2.72-4.873,4.574-8.489,4.574h-33.801
						c-3.626,0-6.706-1.865-8.489-4.574c7.036-6.47,15.875-10.158,25.384-10.158C464.851,238.382,473.7,242.07,480.736,248.539z"/>
					<path style="fill:#B6DCFF;" d="M438.448,286.331c-6.888,0-11.812-6.716-9.69-13.27c4.234-13.082,14.544-22.318,26.589-22.318
						c12.046,0,22.355,9.236,26.589,22.318c2.121,6.554-2.802,13.27-9.69,13.27H438.448z"/>
				</g>
			</g>
			<path style="fill:#CDBFBB;" d="M455.347,322.475c-4.267,0-7.726-3.459-7.726-7.726v-30.703c0-4.267,3.459-7.726,7.726-7.726
				c4.267,0,7.726,3.459,7.726,7.726v30.703C463.073,319.016,459.614,322.475,455.347,322.475z"/>
			<path style="fill:#1475CC;" d="M478.675,335.831H434.84c-16.067,0-31.484-6.34-42.903-17.643l0,0
				c-3.6-3.564-1.077-9.701,3.989-9.701h82.748c5.894,0,10.671,4.778,10.671,10.671v6.001
				C489.346,331.054,484.569,335.831,478.675,335.831z"/>
		</g>
		<g>
			<g>
				<g>
					<path style="fill:#B6DCFF;" d="M389.74,209.825c-4.234,13.083-14.546,22.324-26.589,22.324
						c-12.053,0-22.355-9.241-26.589-22.324c-1.01-3.111-0.433-6.253,1.195-8.695c1.793-2.72,4.873-4.574,8.489-4.574h33.8
						c3.616,0,6.696,1.854,8.489,4.564C390.162,203.561,390.749,206.714,389.74,209.825z"/>
					<path style="fill:#65BAFC;" d="M388.534,201.12c-7.036,6.48-15.875,10.168-25.384,10.168c-9.509,0-18.348-3.688-25.394-10.158
						c1.793-2.72,4.873-4.574,8.489-4.574h33.8C383.662,196.556,386.742,198.41,388.534,201.12z"/>
					<path style="fill:#B6DCFF;" d="M380.046,163.342c6.888,0,11.812,6.716,9.69,13.27c-4.234,13.082-14.544,22.318-26.589,22.318
						c-12.046,0-22.355-9.236-26.589-22.318c-2.121-6.554,2.802-13.27,9.69-13.27H380.046z"/>
				</g>
				<g>
					<path style="fill:#B6DCFF;" d="M389.74,243.048c-4.234,13.073-14.546,22.314-26.589,22.314
						c-12.053,0-22.355-9.241-26.589-22.314c-1.01-3.111-0.433-6.253,1.195-8.695c1.793-2.72,4.863-4.584,8.489-4.584h33.8
						c3.626,0,6.707,1.854,8.499,4.574C390.172,236.785,390.749,239.937,389.74,243.048z"/>
				</g>
				<g>
					<path style="fill:#65BAFC;" d="M388.545,234.343c-7.036,6.47-15.885,10.168-25.394,10.168c-9.509,0-18.348-3.688-25.394-10.158
						c1.793-2.72,4.863-4.584,8.489-4.584h33.8C383.672,229.769,386.752,231.624,388.545,234.343z"/>
				</g>
			</g>
			<path style="fill:#CDBFBB;" d="M363.147,173.354c-4.267,0-7.726-3.459-7.726-7.726v-27.613c0-4.267,3.459-7.726,7.726-7.726
				c4.267,0,7.726,3.459,7.726,7.726v27.613C370.874,169.895,367.414,173.354,363.147,173.354z"/>
			<path style="fill:#1475CC;" d="M339.819,113.842h43.835c16.067,0,31.484,6.34,42.903,17.643l0,0
				c3.6,3.564,1.077,9.701-3.989,9.701h-82.748c-5.894,0-10.671-4.778-10.671-10.671v-6.001
				C329.148,118.62,333.926,113.842,339.819,113.842z"/>
		</g>
	</g>
</g>
<g>
</g>
<g>
</g>
<g>
</g>
<g>
</g>
<g>
</g>
<g>
</g>
<g>
</g>
<g>
</g>
<g>
</g>
<g>
</g>
<g>
</g>
<g>
</g>
<g>
</g>
<g>
</g>
<g>
</g>
</svg>
