<?xml version="1.0" encoding="iso-8859-1"?>
<!-- Generator: Adobe Illustrator 23.0.3, SVG Export Plug-In . SVG Version: 6.00 Build 0)  -->
<svg version="1.1" id="Capa_1" xmlns="http://www.w3.org/2000/svg" xmlns:xlink="http://www.w3.org/1999/xlink" x="0px" y="0px"
	 viewBox="0 0 512 512" style="enable-background:new 0 0 512 512;" xml:space="preserve">
<g>
	<g>
		<g>
			<g>
				<path style="fill:#FF872A;" d="M130.645,488.323H25.102C11.239,488.323,0,477.084,0,463.221V155.079
					c0-7.854,3.738-15.238,10.067-19.888l0.537-0.394c40.258-29.575,95.103-29.417,135.19,0.39l0,0
					c6.262,4.656,9.953,12,9.953,19.803v308.231C155.747,477.084,144.509,488.323,130.645,488.323z"/>
				<path style="fill:#F36717;" d="M155.75,154.991v308.229c0,13.864-11.239,25.102-25.102,25.102h-2.293V154.991
					c0-3.905-0.927-7.696-2.627-11.086c-1.7-3.39-4.193-6.388-7.325-8.716c-16.289-12.106-34.999-19.328-54.183-21.636
					c28.282-3.431,57.573,3.791,81.579,21.636c3.132,2.328,5.615,5.327,7.325,8.716C154.833,147.295,155.75,151.087,155.75,154.991z
					"/>
				<g>
					<rect y="186.951" style="fill:#756F6F;" width="155.747" height="67.955"/>
					<rect x="128.354" y="186.951" style="fill:#5B5555;" width="27.396" height="67.957"/>
				</g>
				<g>
					<rect y="373.098" style="fill:#756F6F;" width="155.747" height="52.503"/>
				</g>
				<path style="fill:#756F6F;" d="M77.874,134.932L77.874,134.932c-8.503,0-15.396-6.893-15.396-15.396V60.437
					c0-5.69,4.613-10.303,10.303-10.303h10.186c5.69,0,10.303,4.613,10.303,10.303v59.099
					C93.27,128.039,86.377,134.932,77.874,134.932z"/>
				<g>
					<g>
						<g>
							<path style="fill:#1475CC;" d="M416.801,315.933v180.477c0,5.769-4.677,10.456-10.456,10.456H102.925
								c-5.769,0-10.446-4.687-10.446-10.456V315.933c0-35.521,21.397-66.045,51.993-79.386c2.874-1.247,5.821-2.349,8.849-3.286
								c8.128-2.534,16.761-3.894,25.713-3.894h151.2c4.739,0,9.385,0.381,13.907,1.123c2.132,0.34,4.234,0.762,6.315,1.257
								c4.965,1.185,9.746,2.792,14.34,4.801C395.404,249.888,416.801,280.413,416.801,315.933z"/>
							<path style="fill:#0057A1;" d="M262.367,322.063v184.804h-15.453V322.063c0-4.275,3.451-7.726,7.726-7.726
								C258.905,314.336,262.367,317.788,262.367,322.063z"/>
							<rect x="144.483" y="399.955" style="fill:#FF872A;" width="220.315" height="73.946"/>
							<rect x="246.914" y="399.955" style="fill:#F36717;" width="15.453" height="73.946"/>
							<rect x="144.483" y="399.955" style="fill:#93DD96;" width="220.315" height="47.254"/>
							<rect x="246.914" y="399.955" style="fill:#52CC61;" width="15.453" height="47.254"/>
							<path style="fill:#0057A1;" d="M416.797,315.932v180.485c0,5.767-4.681,10.448-10.448,10.448h-24.082
								c5.767,0,10.448-4.681,10.448-10.448V315.932c0-35.512-21.397-66.04-51.998-79.382c-6.509-2.842-13.425-4.9-20.655-6.06
								c-4.524-0.742-9.173-1.118-13.906-1.118h24.082c4.733,0,9.382,0.376,13.906,1.118c7.23,1.16,14.146,3.218,20.655,6.06
								C395.4,249.891,416.797,280.42,416.797,315.932z"/>
							<path style="fill:#0057A1;" d="M364.797,380.979v125.888h-15.453V380.979c0-4.265,3.461-7.726,7.726-7.726
								C361.336,373.253,364.797,376.714,364.797,380.979z"/>
							<path style="fill:#0057A1;" d="M160.12,380.989v125.878h-15.453V380.989c0-4.275,3.451-7.726,7.726-7.726
								C156.659,373.263,160.12,376.714,160.12,380.989z"/>
						</g>
						<g>
							<path style="fill:#0057A1;" d="M350.457,231.747c-16.73,38.209-54.847,64.654-98.908,64.654
								c-43.484,0-81.178-25.744-98.228-63.14c8.128-2.534,16.761-3.894,25.713-3.894h151.2c4.739,0,9.385,0.381,13.907,1.123
								C346.275,230.83,348.376,231.252,350.457,231.747z"/>
							<path style="fill:#FDD1A7;" d="M350.632,123.918l-1.494,28.546l-2.153,41.001c-0.628,11.93-3.42,23.251-7.984,33.594
								c-14.866,33.677-48.552,56.979-87.452,56.979s-72.587-23.303-87.462-56.979c-4.564-10.343-7.356-21.665-7.984-33.594
								l-2.143-41.001l-1.494-28.546c-1.545-29.515,21.974-54.301,51.53-54.301h95.106
								C328.659,69.617,352.178,94.403,350.632,123.918z"/>
							<g>
								<path style="fill:#1475CC;" d="M341.594,106.618H161.502c-6.449,0-11.493-5.617-10.737-12.034
									c4.559-38.596,30.775-70.548,66.152-83.392c10.802-3.921,22.468-6.06,34.631-6.06c12.163,0,23.829,2.139,34.631,6.06
									c35.377,12.844,61.593,44.796,66.152,83.392C353.087,101.001,348.043,106.618,341.594,106.618z"/>
								<path style="fill:#0057A1;" d="M341.594,106.623h-24.899c6.449,0,11.493-5.617,10.737-12.034
									c-4.558-38.596-30.775-70.548-66.152-83.392c-7.054-2.56-14.486-4.364-22.177-5.304c4.072-0.497,8.231-0.756,12.444-0.756
									c12.163,0,23.829,2.139,34.631,6.06c35.377,12.844,61.593,44.796,66.152,83.392
									C353.087,101.006,348.043,106.623,341.594,106.623z"/>
							</g>
						</g>
						<g>
							<path style="fill:#FFBC8A;" d="M349.139,152.464l-2.153,41.001c-0.628,11.93-3.42,23.251-7.984,33.594
								c-4.708,1.566-9.735,2.421-14.958,2.421h-38.106c-12.857,0-24.601-7.057-30.638-18.42c-1.463-2.74-2.545-5.697-3.224-8.787
								l-0.536-2.4l-0.525,2.4c-3.534,16.019-17.462,27.207-33.862,27.207h-38.106c-5.11,0-10.137-0.814-14.958-2.421
								c-4.564-10.343-7.356-21.665-7.984-33.594l-2.143-41.001H349.139z"/>
							<path style="fill:#52CC61;" d="M359.044,145.788v36.328c0,19.328-15.671,34.999-34.999,34.999h-38.111
								c-8.407,0-15.918-4.708-19.72-11.859c-0.927-1.741-1.628-3.637-2.071-5.646l-5.79-26.273
								c-0.35-1.597-1.236-2.978-2.442-3.946c-1.205-0.968-2.73-1.535-4.368-1.535c-0.783,0-1.535,0.134-2.246,0.371
								c-2.019,0.69-3.647,2.277-4.348,4.348c-0.082,0.247-0.154,0.505-0.216,0.762l-5.79,26.273
								c-2.256,10.221-11.313,17.505-21.791,17.505h-38.111c-3.895,0-7.655-0.639-11.158-1.813
								c-7.717-2.596-14.239-7.81-18.483-14.589c-3.39-5.388-5.347-11.756-5.347-18.586v-36.339c0-6.171,5.007-11.179,11.179-11.179
								h192.624C354.037,134.61,359.044,139.617,359.044,145.788z"/>
							<path style="fill:#93DD96;" d="M282.916,134.61l-33.619,33.619c-2.019,0.69-3.647,2.277-4.348,4.348l-44.54,44.54h-16.99
								l82.506-82.506H282.916z"/>
							<path style="fill:#93DD96;" d="M248.566,134.61l-80.682,80.693c-7.717-2.596-14.239-7.81-18.483-14.589l66.104-66.104
								H248.566z"/>
							<path style="fill:#93DD96;" d="M359.044,145.788v7.295l-64.033,64.033h-9.077c-8.407,0-15.918-4.708-19.72-11.859
								l70.647-70.647h10.993C354.037,134.61,359.044,139.617,359.044,145.788z"/>
						</g>
					</g>
					<g>
						<path style="fill:#FF872A;" d="M295.755,284.047c0,7.495-2.007,14.504-5.52,20.558c-7.09,12.286-20.38,20.542-35.597,20.542
							s-28.507-8.256-35.597-20.542c-3.513-6.054-5.52-13.063-5.52-20.558c0-22.711,18.405-41.117,41.117-41.117
							S295.755,261.336,295.755,284.047z"/>
						<path style="fill:#F36717;" d="M295.755,284.049c0,7.489-2.009,14.505-5.522,20.552c-7.088,12.29-20.377,20.542-35.593,20.542
							c-3.018,0-5.975-0.33-8.808-0.958c11.435-2.483,21.098-9.735,26.774-19.584c3.513-6.047,5.522-13.063,5.522-20.552
							c0-19.687-13.825-36.128-32.296-40.167c2.833-0.618,5.779-0.948,8.808-0.948C277.345,242.935,295.755,261.334,295.755,284.049
							z"/>
						<path style="fill:#52CC61;" d="M290.233,304.601c-7.088,12.29-20.377,20.542-35.593,20.542c-3.018,0-5.975-0.33-8.808-0.958
							c-11.445-2.483-21.108-9.735-26.795-19.584c7.098-12.28,20.387-20.552,35.603-20.552c8.478,0,16.349,2.565,22.891,6.974
							C282.733,294.506,287.091,299.162,290.233,304.601z"/>
						<path style="fill:#00B232;" d="M290.233,304.601c-7.088,12.29-20.377,20.542-35.593,20.542c-3.018,0-5.975-0.33-8.808-0.958
							c11.435-2.483,21.098-9.735,26.774-19.584c2.4-4.121,4.09-8.705,4.924-13.578
							C282.733,294.506,287.091,299.162,290.233,304.601z"/>
					</g>
					<g>
						<path style="fill:#93DD96;" d="M226.704,357.721h-46.872c-36.297,0-65.827-29.53-65.827-65.827V111.042
							c0-13.812-11.237-25.05-25.05-25.05h-32.29c-4.267,0-7.726-3.459-7.726-7.726s3.459-7.726,7.726-7.726h32.29
							c22.333,0,40.503,18.17,40.503,40.503v180.852c0,27.777,22.598,50.374,50.374,50.374h46.872
							c11.143,0,20.209-9.066,20.209-20.209c0-4.267,3.459-7.726,7.726-7.726c4.267,0,7.726,3.459,7.726,7.726
							C262.366,341.723,246.368,357.721,226.704,357.721z"/>
					</g>
				</g>
			</g>
			<path style="fill:#E0D3CE;" d="M39.087,400.072c-4.267,0-7.726-3.459-7.726-7.726v-47.234c0-4.267,3.459-7.726,7.726-7.726
				s7.726,3.459,7.726,7.726v47.234C46.813,396.613,43.354,400.072,39.087,400.072z"/>
			<path style="fill:#E0D3CE;" d="M39.087,213.049c-4.267,0-7.726-3.459-7.726-7.726v-31.779c0-4.267,3.459-7.726,7.726-7.726
				s7.726,3.459,7.726,7.726v31.779C46.813,209.59,43.354,213.049,39.087,213.049z"/>
		</g>
		<g>
			<path style="fill:#FF872A;" d="M485.043,429.365h-68.115l-26.732-175.271c-1.784-11.694,7.268-22.231,19.097-22.231h83.384
				c11.83,0,20.881,10.536,19.097,22.231L485.043,429.365z"/>
			<path style="fill:#F36717;" d="M511.771,254.096l-26.726,175.274h-22.12l26.736-175.274c1.782-11.694-7.274-22.234-19.102-22.234
				h22.12C504.507,231.862,513.563,242.402,511.771,254.096z"/>
			<g>
				<path style="fill:#756F6F;" d="M437.102,415c-3.919,0-7.277-2.969-7.678-6.952l-3.046-30.202
					c-0.429-4.245,2.667-8.034,6.912-8.462c4.242-0.428,8.034,2.666,8.462,6.912l3.046,30.202c0.428,4.245-2.667,8.034-6.912,8.462
					C437.623,414.987,437.361,415,437.102,415z"/>
				<path style="fill:#756F6F;" d="M464.87,415c-0.259,0-0.521-0.013-0.784-0.04c-4.245-0.428-7.341-4.217-6.912-8.462l3.046-30.202
					c0.428-4.246,4.213-7.345,8.462-6.912c4.245,0.428,7.341,4.217,6.912,8.462l-3.046,30.202
					C472.146,412.031,468.788,415,464.87,415z"/>
			</g>
			<circle style="fill:#E0D3CE;" cx="450.986" cy="444.707" r="43.615"/>
			<circle style="fill:#756F6F;" cx="450.986" cy="460.391" r="27.932"/>
			<path style="fill:#5B5555;" d="M478.921,460.396c0,15.422-12.506,27.928-27.939,27.928c-2.73,0-5.367-0.391-7.86-1.133
				c11.6-3.389,20.068-14.103,20.068-26.795c0-12.702-8.468-23.416-20.068-26.805c2.493-0.742,5.13-1.133,7.86-1.133
				C466.414,432.457,478.921,444.963,478.921,460.396z"/>
			<g>
				<path style="fill:#F36717;" d="M427.929,262.782c-4.267,0-7.726-3.459-7.726-7.726v-23.917c0-4.267,3.459-7.726,7.726-7.726
					s7.726,3.459,7.726,7.726v23.917C435.655,259.322,432.196,262.782,427.929,262.782z"/>
				<path style="fill:#F36717;" d="M474.042,262.782c-4.267,0-7.726-3.459-7.726-7.726v-23.917c0-4.267,3.459-7.726,7.726-7.726
					c4.267,0,7.726,3.459,7.726,7.726v23.917C481.769,259.322,478.309,262.782,474.042,262.782z"/>
			</g>
		</g>
	</g>
	<rect x="349.345" y="447.209" style="fill:#F36717;" width="15.453" height="26.692"/>
	<rect x="349.345" y="399.955" style="fill:#52CC61;" width="15.453" height="47.254"/>
	<rect x="144.668" y="447.209" style="fill:#F36717;" width="15.453" height="26.692"/>
	<rect x="144.668" y="399.955" style="fill:#52CC61;" width="15.453" height="47.254"/>
</g>
<g>
</g>
<g>
</g>
<g>
</g>
<g>
</g>
<g>
</g>
<g>
</g>
<g>
</g>
<g>
</g>
<g>
</g>
<g>
</g>
<g>
</g>
<g>
</g>
<g>
</g>
<g>
</g>
<g>
</g>
</svg>
