<?xml version="1.0" encoding="iso-8859-1"?>
<!-- Generator: Adobe Illustrator 23.0.3, SVG Export Plug-In . SVG Version: 6.00 Build 0)  -->
<svg version="1.1" id="Capa_1" xmlns="http://www.w3.org/2000/svg" xmlns:xlink="http://www.w3.org/1999/xlink" x="0px" y="0px"
	 viewBox="0 0 512 512" style="enable-background:new 0 0 512 512;" xml:space="preserve">
<g>
	<path style="fill:#52CC61;" d="M507.129,187.318V364.56c0,5.584-4.523,10.106-10.106,10.106H207.645V177.212h289.378
		C502.607,177.212,507.129,181.734,507.129,187.318z"/>
	<g>
		<path style="fill:#FFF5F5;" d="M433.08,208.519c-4.265,0-7.726,3.461-7.726,7.726v119.388c0,4.265,3.461,7.726,7.726,7.726h74.049
			v-15.453h-66.323V223.972h66.323v-15.453H433.08z"/>
		<path style="fill:#FFF5F5;" d="M469.723,250.499v50.881c0,4.265,3.462,7.726,7.726,7.726h29.68v-15.453h-21.953v-35.428h21.953
			v-15.453h-29.68C473.185,242.772,469.723,246.224,469.723,250.499z"/>
		<path style="fill:#FFF5F5;" d="M344.546,228.855v-51.643h-15.453v51.643c-22.643,3.709-39.992,23.406-39.992,47.079
			c0,23.684,17.348,43.381,39.992,47.079v51.653h15.453v-51.653c22.643-3.698,39.992-23.395,39.992-47.079
			C384.538,252.26,367.189,232.563,344.546,228.855z M329.093,307.251c-14.072-3.472-24.539-16.184-24.539-31.318
			c0-15.123,10.467-27.846,24.539-31.317V307.251z M344.546,307.251v-62.635c14.072,3.472,24.539,16.194,24.539,31.317
			C369.085,291.067,358.618,303.78,344.546,307.251z"/>
	</g>
	<g>
		<path style="fill:#E84649;" d="M354.992,327.289v174.595c0,5.584-4.523,10.116-10.106,10.116H14.981
			c-5.584,0-10.106-4.533-10.106-10.116V327.289c0-46.245,37.488-83.733,83.733-83.733h182.651
			C317.504,243.555,354.992,281.044,354.992,327.289z"/>
		<path style="fill:#D73337;" d="M354.989,327.289v174.599c0,5.578-4.517,10.106-10.106,10.106h-21.677
			c5.578,0,10.106-4.527,10.106-10.106V327.289c0-46.244-37.493-83.737-83.737-83.737h21.677
			C317.506,243.552,354.989,281.044,354.989,327.289z"/>
		<path style="fill:#FFF5F5;" d="M292.903,246.378c-15.061,96.744-112.97,116.534-112.97,116.534s-97.919-19.79-112.97-116.544
			c6.902-1.834,14.155-2.823,21.644-2.823h182.651c4.584,0,9.076,0.371,13.454,1.082
			C287.495,245.08,290.235,245.657,292.903,246.378z"/>
		<g>
			<path style="fill:#FDD1A7;" d="M286.503,411.045v100.946h58.386c5.582,0,10.107-4.525,10.107-10.107v-90.84H286.503z"/>
			<path style="fill:#FFBC8A;" d="M354.989,411.046v90.842c0,5.578-4.517,10.106-10.106,10.106h-21.677
				c5.578,0,10.106-4.527,10.106-10.106v-90.842H354.989z"/>
			<path style="fill:#FDD1A7;" d="M4.871,411.045v90.84c0,5.582,4.525,10.107,10.107,10.107h58.386V411.045H4.871z"/>
		</g>
	</g>
	<g>
		<g>
			<path style="fill:#FFF5F5;" d="M472.711,433.315c0,5.347-0.536,10.58-1.556,15.628c-0.639,3.204-1.484,6.336-2.503,9.385
				c-0.855,2.555-1.844,5.048-2.946,7.479c-2.071,4.584-4.584,8.932-7.469,12.991c-1.102,1.556-2.256,3.07-3.472,4.543
				c-2.256,2.74-4.698,5.326-7.304,7.737c-8.458,7.819-18.636,13.815-29.896,17.338c-1.411,0.443-2.843,0.845-4.296,1.205
				c-1.514,0.381-3.049,0.711-4.595,1.02c-2.297,0.433-4.636,0.762-7.005,0.989c-2.514,0.237-5.058,0.361-7.634,0.361
				c-2.441,0-4.862-0.113-7.263-0.33c-2.359-0.216-4.687-0.536-6.985-0.948c-2.998-0.546-5.944-1.267-8.808-2.143
				c-11.445-3.513-21.778-9.56-30.349-17.492c-2.606-2.411-5.048-4.996-7.314-7.737c-1.144-1.38-2.236-2.812-3.286-4.275
				c-2.915-4.069-5.45-8.427-7.551-13.032c-1.144-2.493-2.163-5.068-3.049-7.706c-0.804-2.4-1.504-4.862-2.071-7.366
				c-1.308-5.666-1.999-11.579-1.999-17.647c0-6.057,0.69-11.971,1.999-17.647c0.567-2.503,1.267-4.955,2.071-7.366
				c0.886-2.637,1.906-5.202,3.049-7.706c2.102-4.595,4.636-8.952,7.541-13.021c1.051-1.463,2.153-2.895,3.297-4.286
				c2.256-2.74,4.698-5.316,7.304-7.726c8.571-7.932,18.904-13.98,30.349-17.482c2.874-0.876,5.81-1.597,8.818-2.153
				c2.287-0.412,4.615-0.731,6.974-0.958c2.4-0.216,4.821-0.33,7.273-0.33c2.575,0,5.12,0.124,7.634,0.371
				c2.369,0.227,4.708,0.567,7.005,0.999c3.029,0.567,5.996,1.308,8.891,2.215c11.27,3.523,21.438,9.519,29.896,17.338
				c2.606,2.411,5.048,4.986,7.304,7.726c1.422,1.72,2.771,3.503,4.028,5.347c2.658,3.832,4.976,7.912,6.913,12.197
				c1.113,2.421,2.091,4.914,2.946,7.469c1.02,3.06,1.865,6.191,2.503,9.395C472.175,422.745,472.711,427.968,472.711,433.315z"/>
			<path style="fill:#EFE2DD;" d="M471.155,417.697c-0.639-3.204-1.484-6.336-2.503-9.395c-0.855-2.555-1.834-5.048-2.946-7.469
				c-1.927,0.505-3.667,1.751-4.739,3.606l-12.208,21.15h-21.191l-9.983-17.286l9.983-17.286h25.651c2.194,0,4.172-0.917,5.573-2.38
				c-1.257-1.844-2.606-3.626-4.028-5.347c-2.256-2.74-4.698-5.316-7.304-7.726h-19.893l-10.003-17.338
				c-2.895-0.907-5.862-1.648-8.891-2.215c-2.297-0.433-4.636-0.773-7.005-0.999c-1.03,2.205-0.999,4.862,0.309,7.129l12.208,21.15
				l-9.983,17.286h-19.955l-9.982-17.286l12.208-21.15c1.319-2.277,1.339-4.955,0.288-7.17c-2.359,0.227-4.687,0.546-6.974,0.958
				c-3.008,0.556-5.944,1.277-8.818,2.153l-10.085,17.482h-20.264c-2.606,2.411-5.048,4.986-7.304,7.726
				c-1.144,1.391-2.246,2.823-3.297,4.286c1.391,2.071,3.76,3.441,6.439,3.441h24.426l9.982,17.286l-9.982,17.286H340.93
				l-12.218-21.15c-1.35-2.328-3.729-3.698-6.233-3.843c-1.144,2.503-2.163,5.069-3.049,7.706c-0.804,2.411-1.504,4.862-2.071,7.366
				l10.188,17.647l-10.188,17.647c0.567,2.503,1.267,4.965,2.071,7.366c0.886,2.637,1.906,5.213,3.049,7.706
				c2.503-0.144,4.883-1.504,6.233-3.843l12.218-21.15h19.955l9.982,17.297l-9.982,17.286h-24.426c-2.678,0-5.048,1.37-6.428,3.441
				c1.051,1.463,2.143,2.895,3.286,4.275c2.266,2.74,4.708,5.326,7.314,7.737h20.253l10.096,17.492
				c2.864,0.876,5.81,1.597,8.808,2.143c2.297,0.412,4.626,0.731,6.985,0.948c1.04-2.215,1.02-4.883-0.299-7.16l-12.208-21.15
				l9.982-17.286h19.955l9.983,17.286l-12.208,21.15c-1.308,2.266-1.339,4.924-0.309,7.129c2.369-0.227,4.708-0.556,7.005-0.989
				c1.545-0.309,3.08-0.639,4.595-1.02c1.453-0.361,2.885-0.762,4.296-1.205l10.003-17.338h19.893
				c2.606-2.411,5.048-4.996,7.304-7.737c1.216-1.473,2.369-2.987,3.472-4.543c-1.401-1.926-3.678-3.173-6.243-3.173h-24.426
				l-9.983-17.286l9.983-17.297h21.191l12.208,21.16c1.071,1.854,2.812,3.101,4.739,3.606c1.102-2.431,2.091-4.924,2.946-7.479
				c1.02-3.049,1.865-6.181,2.503-9.385l-9.014-15.628L471.155,417.697z M404.204,450.611h-19.955l-9.982-17.297l9.982-17.286
				h19.955l9.983,17.286L404.204,450.611z"/>
			<path style="fill:#756F6F;" d="M379.79,355.927v1.149c0,0.79-0.208,1.565-0.603,2.249l-12.54,21.719
				c-0.804,1.392-2.289,2.249-3.896,2.249h-29.438C344.875,369.277,361.185,359.333,379.79,355.927z"/>
			<path style="fill:#756F6F;" d="M379.79,508.364v2.345c-18.605-3.406-34.916-13.35-46.477-27.367h29.438
				c1.607,0,3.093,0.858,3.896,2.25L379.79,508.364z"/>
			<path style="fill:#756F6F;" d="M335.168,435.567l-11.844,20.513c-0.804,1.392-2.289,2.249-3.896,2.249l0,0
				c-2.638-7.852-4.063-16.27-4.063-25.012c0-8.742,1.425-17.16,4.063-25.012l0,0c1.607,0,3.092,0.857,3.896,2.249l11.844,20.513
				C335.971,432.461,335.971,434.176,335.168,435.567z"/>
			<path style="fill:#EFE2DD;" d="M472.714,433.316c0,43.455-35.219,78.684-78.674,78.684c-4.224,0-8.378-0.333-12.42-0.98
				c37.543-5.952,66.244-38.483,66.244-77.704s-28.701-71.742-66.244-77.694c4.042-0.647,8.196-0.98,12.42-0.98
				C437.495,354.641,472.714,389.87,472.714,433.316z"/>
			<path style="fill:#5B5555;" d="M454.766,383.294h-29.054c-1.607,0-3.092-0.857-3.896-2.249l-12.54-21.719
				c-0.395-0.684-0.603-1.46-0.603-2.249v-1.068C427.116,359.474,443.285,369.378,454.766,383.294z"/>
			<path style="fill:#5B5555;" d="M454.766,483.342c-10.52,12.754-24.972,22.132-41.495,26.275
				c-1.516,0.384-3.052,0.718-4.598,1.021v-1.069c0-0.789,0.208-1.565,0.602-2.249l12.54-21.729c0.804-1.392,2.289-2.25,3.896-2.25
				H454.766z"/>
			<path style="fill:#5B5555;" d="M472.714,433.318c0,8.742-1.425,17.16-4.063,25.012h-0.99l-13.143-22.763
				c-0.804-1.392-0.804-3.107,0-4.499l13.143-22.763h0.99C471.289,416.158,472.714,424.577,472.714,433.318z"/>
		</g>
		<path style="fill:#756F6F;" d="M406.072,408.306h-23.688c-1.607,0-3.092,0.857-3.896,2.249l-11.844,20.515
			c-0.804,1.392-0.804,3.107,0,4.499l11.844,20.515c0.804,1.392,2.289,2.249,3.896,2.249h23.688c1.607,0,3.092-0.857,3.896-2.249
			l11.844-20.515c0.804-1.392,0.804-3.107,0-4.499l-11.844-20.515C409.164,409.164,407.679,408.306,406.072,408.306z"/>
	</g>
	<path style="fill:#D73337;" d="M88.814,362.716V512H73.361V362.716c0-4.265,3.461-7.726,7.726-7.726
		C85.352,354.99,88.814,358.452,88.814,362.716z"/>
	<path style="fill:#D73337;" d="M286.505,362.716V512h-15.453V362.716c0-4.265,3.451-7.726,7.726-7.726
		C283.044,354.99,286.505,358.452,286.505,362.716z"/>
	<circle style="fill:#FFF5F5;" cx="245.013" cy="408.782" r="17.949"/>
	<path style="fill:#FAC574;" d="M252.367,469.244h-141.33c-4.267,0-7.726-3.459-7.726-7.726c0-4.267,3.459-7.726,7.726-7.726h141.33
		c4.267,0,7.726,3.459,7.726,7.726C260.092,465.785,256.634,469.244,252.367,469.244z"/>
	<g>
		<g>
			<circle style="fill:#FFBC8A;" cx="282.734" cy="162.526" r="23.383"/>
		</g>
		<g>
			<circle style="fill:#FFBC8A;" cx="77.132" cy="162.526" r="23.383"/>
		</g>
		<path style="fill:#E0D3CE;" d="M270.023,243.545c-17.101,32.43-51.128,54.342-90.089,54.342
			c-38.961,0-72.988-21.912-90.089-54.342H270.023z"/>
		<path style="fill:#FDD1A7;" d="M179.933,285.528L179.933,285.528c-47.57,0-86.813-37.243-89.299-84.747L84.568,84.905h190.73
			l-6.066,115.875C266.746,248.285,227.503,285.528,179.933,285.528z"/>
		<g>
			<g>
				<g>
					<g>
						<g>
							<line style="fill:none;" x1="231.953" y1="198.326" x2="231.953" y2="198.422"/>
						</g>
					</g>
				</g>
			</g>
		</g>
		<g>
			<g>
				<g>
					<path style="fill:#904D29;" d="M138.249,200.444c-4.267,0-7.726-3.459-7.726-7.726v-0.103c0-4.267,3.459-7.726,7.726-7.726
						s7.726,3.459,7.726,7.726v0.103C145.976,196.985,142.516,200.444,138.249,200.444z"/>
					<path style="fill:#904D29;" d="M221.617,200.444c-4.267,0-7.726-3.459-7.726-7.726v-0.103c0-4.267,3.459-7.726,7.726-7.726
						s7.726,3.459,7.726,7.726v0.103C229.343,196.985,225.884,200.444,221.617,200.444z"/>
				</g>
			</g>
			<path style="fill:#F5A871;" d="M179.933,252.025c-14.169,0-26.8-9.514-30.718-23.135c-1.179-4.101,1.189-8.381,5.29-9.561
				c4.101-1.182,8.381,1.189,9.561,5.29c2.024,7.038,8.549,11.953,15.867,11.953c7.318,0,13.843-4.915,15.867-11.954
				c1.18-4.101,5.461-6.468,9.561-5.29c4.101,1.18,6.469,5.46,5.289,9.561C206.733,242.512,194.101,252.025,179.933,252.025z"/>
		</g>
		<path style="fill:#DB885D;" d="M219.73,42.18l-23.79,84.852h47.222c5.74,0,10.432,4.636,10.426,10.375
			c-0.013,11.616,3.413,28.833,23.835,28.833c0,0,21.643-31.116,17.474-79.673c-2.095-24.407-22.204-43.336-46.696-43.822
			L219.73,42.18z"/>
		<path style="fill:#C86D3D;" d="M277.426,166.242c-7.003,0-12.006-2.021-15.563-5.154c5.811-10.722,17.584-37.574,14.411-74.521
			c-2.092-24.406-22.203-43.334-46.689-43.819l-9.954-0.202l0.101-0.364l28.468,0.566c24.497,0.485,44.607,19.413,46.699,43.819
			C299.063,135.126,277.426,166.242,277.426,166.242z"/>
		<path style="fill:#DB885D;" d="M139.119,42.18l23.79,84.852h-47.222c-5.74,0-10.432,4.636-10.426,10.375
			c0.013,11.616-3.413,28.833-23.835,28.833c0,0-21.643-31.116-17.474-79.673c2.095-24.407,22.204-43.336,46.696-43.822
			L139.119,42.18z"/>
		<path style="fill:#AC5E33;" d="M257.156,71.309c-0.134,2.256-0.34,4.44-0.598,6.531c-2.071,16.751-10.765,31.214-23.231,41.042
			c-5.47,4.306-11.662,7.716-18.348,10.044c-3.152,1.102-6.418,1.957-9.766,2.545c-3.606,0.639-7.304,0.968-11.064,0.968h-28.608
			c-98.31,0-90.213-94.828-85.392-124.003C80.954,3.564,85.177,0,90.112,0h102.235C242.671,0,258.536,47.677,257.156,71.309z"/>
		<path style="fill:#904D29;" d="M257.154,71.307c-0.131,2.264-0.333,4.436-0.596,6.539c-3.86,31.298-30.863,54.592-62.404,54.592
			h-19.201c31.54,0,58.543-23.294,62.404-54.592c0.263-2.102,0.465-4.275,0.596-6.539C239.337,47.68,223.471,0,173.144,0h19.201
			C242.672,0,258.538,47.68,257.154,71.307z"/>
		<path style="fill:#904D29;" d="M233.328,118.883c-5.47,4.306-11.662,7.716-18.348,10.044c2.905-8.149,15.267-49.521-23.189-74.049
			c-3.606-2.297-4.656-7.077-2.359-10.673c2.287-3.595,7.067-4.656,10.662-2.359c27.702,17.668,34.017,42.516,34.439,60.255
			C234.677,108.262,234.131,113.969,233.328,118.883z"/>
		<path style="fill:#904D29;" d="M205.214,131.472c-3.606,0.639-7.304,0.968-11.064,0.968h-5.553
			c2.462-5.717,7.191-21.376-5.676-37.54c-2.658-3.338-2.102-8.19,1.236-10.848c3.338-2.658,8.2-2.112,10.858,1.226
			C209.16,103.059,208.14,120.572,205.214,131.472z"/>
	</g>
</g>
<g>
</g>
<g>
</g>
<g>
</g>
<g>
</g>
<g>
</g>
<g>
</g>
<g>
</g>
<g>
</g>
<g>
</g>
<g>
</g>
<g>
</g>
<g>
</g>
<g>
</g>
<g>
</g>
<g>
</g>
</svg>
