<?xml version="1.0" encoding="iso-8859-1"?>
<!-- Generator: Adobe Illustrator 23.0.3, SVG Export Plug-In . SVG Version: 6.00 Build 0)  -->
<svg version="1.1" id="Capa_1" xmlns="http://www.w3.org/2000/svg" xmlns:xlink="http://www.w3.org/1999/xlink" x="0px" y="0px"
	 viewBox="0 0 512 512" style="enable-background:new 0 0 512 512;" xml:space="preserve">
<g>
	<g>
		<g>
			<g>
				<g>
					<g>
						<path style="fill:#D77F4F;" d="M512,173.843v181.024c0,5.697-4.626,10.322-10.323,10.322h-295.55V163.52h295.55
							C507.374,163.52,512,168.146,512,173.843z"/>
						<path style="fill:#2EA8FC;" d="M409.287,264.354L409.287,264.354c0,35.061,28.422,63.483,63.483,63.483H512V200.872h-39.23
							C437.709,200.872,409.287,229.294,409.287,264.354z"/>
						<path style="fill:#FFF5F5;" d="M409.287,264.354L409.287,264.354c0,14.804,12.001,26.805,26.805,26.805H512v-53.61h-75.908
							C421.288,237.549,409.287,249.55,409.287,264.354z"/>
						<path style="fill:#E84649;" d="M436.092,291.159c14.804,0,26.805-12.001,26.805-26.805v0
							c0-14.804-12.001-26.805-26.805-26.805V291.159z"/>
						<rect x="330.327" y="163.52" style="fill:#FFF5F5;" width="15.453" height="201.669"/>
						<circle style="fill:#2EA8FC;" cx="338.056" cy="264.354" r="40.839"/>
					</g>
					<g>
						<g>
							<path style="fill:#FF872A;" d="M491.303,421.994c0,2.606-0.123,5.182-0.371,7.726c-1.885,19.862-11.023,37.622-24.724,50.592
								c-3.812,3.626-7.984,6.871-12.455,9.694c-10.343,6.521-22.273,10.755-35.078,11.971c-2.545,0.247-5.12,0.371-7.726,0.371
								c-2.606,0-5.182-0.124-7.726-0.371c-12.805-1.216-24.735-5.45-35.078-11.971c-4.481-2.823-8.664-6.088-12.486-9.715
								c-13.691-12.98-22.808-30.72-24.694-50.572c-0.247-2.545-0.371-5.12-0.371-7.726c0-2.606,0.124-5.182,0.371-7.726
								c1.875-19.707,10.879-37.344,24.405-50.294c3.904-3.74,8.18-7.098,12.774-9.993c10.343-6.521,22.273-10.755,35.078-11.971
								c2.545-0.247,5.12-0.371,7.726-0.371c2.606,0,5.182,0.124,7.726,0.371c12.805,1.216,24.735,5.45,35.078,11.971
								c4.471,2.823,8.654,6.068,12.465,9.694c13.701,12.98,22.829,30.73,24.714,50.592
								C491.18,416.812,491.303,419.388,491.303,421.994z"/>
							<path style="fill:#F36717;" d="M491.299,421.991c0,44.382-35.97,80.362-80.352,80.362c-4.314,0-8.556-0.341-12.685-1.001
								c38.344-6.079,67.656-39.304,67.656-79.361s-29.312-73.271-67.656-79.35c4.129-0.661,8.371-1.001,12.685-1.001
								C455.329,341.639,491.299,377.62,491.299,421.991z"/>
						</g>
					</g>
				</g>
			</g>
			<g>
				<g>
					<path style="fill:#E8B76B;" d="M198.212,265.011H80.708c-35.132,0-63.613-28.48-63.613-63.613v-69.893
						c0-67.302,54.559-121.861,121.861-121.861h1.009c67.302,0,121.861,54.559,121.861,121.861v69.893
						C261.825,236.531,233.345,265.011,198.212,265.011z"/>
					<path style="fill:#C99D5C;" d="M261.829,131.501v69.899c0,35.134-28.48,63.614-63.614,63.614h-19.992
						c35.134,0,63.614-28.48,63.614-63.614v-69.899c0-64.106-49.507-116.648-112.373-121.487c3.137-0.246,6.295-0.369,9.493-0.369
						h1.005C207.267,9.645,261.829,64.206,261.829,131.501z"/>
				</g>
				<path style="fill:#FDD1A7;" d="M278.92,312.62v179.34c0,5.74-4.64,10.39-10.37,10.39H10.37C4.64,502.35,0,497.7,0,491.96V312.62
					c0-31.98,17.45-59.89,43.35-74.71c2.68-1.54,5.46-2.93,8.32-4.18c10.52-4.59,22.13-7.13,34.34-7.13h106.91
					c0.47,0,0.95,0,1.42,0.02c4.2,0.06,8.35,0.42,12.39,1.08c7.19,1.16,14.05,3.2,20.53,6.03c4.16,1.82,8.17,3.97,11.97,6.4
					C263.1,255.41,278.92,282.17,278.92,312.62z"/>
				<path style="fill:#FFBC8A;" d="M278.929,312.617v179.352c0,5.731-4.651,10.382-10.382,10.382h-23.931
					c5.731,0,10.382-4.651,10.382-10.382V312.617c0-35.289-21.263-65.626-51.672-78.884c-6.468-2.824-13.341-4.869-20.526-6.022
					c-4.495-0.737-9.116-1.111-13.819-1.111h23.931c4.703,0,9.323,0.374,13.819,1.111c7.184,1.152,14.057,3.198,20.525,6.022
					C257.666,246.991,278.929,277.328,278.929,312.617z"/>
				<path style="fill:#FFF5F5;" d="M239.228,240.132v262.224H43.35V237.913c2.684-1.538,5.46-2.931,8.319-4.18
					c10.517-4.593,22.129-7.132,34.339-7.132h106.908c4.696,0,9.32,0.372,13.81,1.104c7.194,1.156,14.058,3.2,20.529,6.028
					C231.425,235.549,235.43,237.696,239.228,240.132z"/>
				<g>
					<path style="fill:#2EA8FC;" d="M185.021,442.491l-38.482,22.797c-3.238,1.918-7.264,1.918-10.501,0l-38.482-22.797
						c-3.131-1.855-5.051-5.224-5.051-8.863v-45.646h97.567v45.646C190.072,437.267,188.152,440.636,185.021,442.491z"/>
				</g>
				<path style="fill:#FAC574;" d="M239.228,240.132v123.554l-92.521,57.206c-3.32,2.053-7.515,2.053-10.835,0L43.35,363.686
					V237.913c2.684-1.538,5.46-2.931,8.319-4.18c10.517-4.593,22.129-7.132,34.339-7.132h106.908c4.696,0,9.32,0.372,13.81,1.104
					c7.194,1.156,14.058,3.2,20.529,6.028C231.425,235.549,235.43,237.696,239.228,240.132z"/>
				<path style="fill:#ED6264;" d="M239.227,240.135v87.288l-92.522,57.205c-3.32,2.053-7.515,2.053-10.835,0l-92.522-57.205V237.91
					c2.689-1.535,5.46-2.926,8.324-4.183c1.679-0.731,3.389-1.411,5.13-2.029c9.117-3.307,18.945-5.099,29.206-5.099H192.92
					c4.687,0,9.313,0.371,13.804,1.102c5.316,0.865,10.457,2.205,15.391,3.987c1.741,0.618,3.451,1.308,5.141,2.04
					C231.429,235.551,235.426,237.694,239.227,240.135z"/>
				<path style="fill:#E84649;" d="M222.116,231.688c-13.125,33.203-45.503,56.228-82.652,56.228
					c-37.138,0-69.527-23.025-82.662-56.217c9.117-3.307,18.945-5.099,29.206-5.099H192.92c4.687,0,9.313,0.371,13.804,1.102
					C212.04,228.566,217.181,229.905,222.116,231.688z"/>
				<g>
					<path style="fill:#FFBC8A;" d="M194.34,226.62v42.74c0,29.53-23.93,53.46-53.45,53.46c-28.94,0-52.52-23.01-53.43-51.74
						c-0.02-0.56-0.03-1.14-0.03-1.72V226.6h105.49C193.39,226.6,193.87,226.6,194.34,226.62z"/>
				</g>
				<path style="fill:#F5A871;" d="M194.34,226.62v42.29c-15.18,11.94-34.3,19.01-54.88,19.01c-19.29,0-37.3-6.22-52-16.84
					c-0.02-0.56-0.03-1.14-0.03-1.72V226.6h105.49C193.39,226.6,193.87,226.6,194.34,226.62z"/>
				<g>
					<g>
						<path style="fill:#FDD1A7;" d="M104.674,114.101c-27.985,0-49.662,24.486-46.269,52.264l5.126,41.971
							c4.687,38.374,37.269,67.219,75.928,67.219l0,0c38.659,0,71.241-28.845,75.928-67.219l8.99-73.605
							c1.339-10.965-7.217-20.63-18.264-20.63H104.674z"/>
						<line style="fill:#F69583;" x1="192.616" y1="203.184" x2="192.616" y2="203.282"/>
						<g>
							<path style="fill:#F69583;" d="M89.716,218.403c-4.619,0-8.363-3.744-8.363-8.363c0-4.619,3.744-8.412,8.363-8.412
								c4.619,0,8.363,3.695,8.363,8.314v0.099C98.079,214.659,94.335,218.403,89.716,218.403z"/>
						</g>
						<g>
							<path style="fill:#F69583;" d="M189.204,218.403c-4.619,0-8.363-3.744-8.363-8.363c0-4.619,3.744-8.412,8.363-8.412
								s8.363,3.695,8.363,8.314v0.099C197.567,214.659,193.822,218.403,189.204,218.403z"/>
						</g>
						<g>
							<path style="fill:#904D29;" d="M99.685,191.004c-4.268,0-7.726-3.459-7.726-7.726c0-4.267,3.459-7.776,7.726-7.776
								s7.726,3.41,7.726,7.677v0.099C107.411,187.545,103.952,191.004,99.685,191.004z"/>
							<path style="fill:#904D29;" d="M179.234,191.004c-4.268,0-7.726-3.459-7.726-7.726c0-4.267,3.459-7.776,7.726-7.776
								c4.268,0,7.726,3.41,7.726,7.677v0.099C186.961,187.545,183.502,191.004,179.234,191.004z"/>
						</g>
						<path style="fill:#F69583;" d="M139.46,240.223c-13.677,0-25.87-9.184-29.651-22.333c-1.179-4.101,1.189-8.381,5.291-9.56
							c4.099-1.179,8.381,1.189,9.56,5.291c1.887,6.565,7.974,11.15,14.8,11.15c6.826,0,12.913-4.586,14.801-11.151
							c1.181-4.101,5.464-6.469,9.561-5.29c4.101,1.18,6.469,5.46,5.29,9.561C165.329,231.04,153.136,240.223,139.46,240.223z"/>
					</g>
					<path style="fill:#E8B76B;" d="M234.324,126.777c0-32.388-25.418-59.579-57.79-60.606c-0.777-0.025-45.865-0.037-45.865-0.037
						v16.029c0,31.143,25.246,56.389,56.389,56.389h47.266V126.777z"/>
					<path style="fill:#C99D5C;" d="M234.01,146.278h-46.953c-35.353,0-64.115-28.762-64.115-64.115
						c0-4.267,3.459-7.726,7.726-7.726c4.268,0,7.726,3.459,7.726,7.726c0,26.833,21.83,48.662,48.662,48.662h46.953
						c4.268,0,7.726,3.459,7.726,7.726C241.737,142.818,238.278,146.278,234.01,146.278z"/>
				</g>
			</g>
		</g>
		<path style="fill:#F36717;" d="M418.675,429.72v16.153c11.816,2.019,22.561,8.592,29.7,18.451c0.948,1.298,1.957,2.555,3.029,3.75
			c3.492,3.915,7.624,7.242,12.146,9.776c1.113,0.618,2.009,1.473,2.658,2.462c-3.812,3.626-7.984,6.871-12.455,9.694
			c-4.543-2.802-8.757-6.222-12.476-10.116c-1.947-2.05-3.771-4.224-5.419-6.511c-4.224-5.831-10.353-9.931-17.184-11.724v40.322
			c-2.545,0.247-5.12,0.371-7.726,0.371c-2.606,0-5.182-0.124-7.726-0.371v-40.322c-6.83,1.793-12.96,5.893-17.183,11.724
			c-4.811,6.645-10.961,12.352-17.894,16.627c-4.481-2.823-8.664-6.088-12.486-9.715c0.659-0.968,1.556-1.813,2.648-2.421
			c5.924-3.307,11.188-7.994,15.216-13.547c7.139-9.859,17.884-16.431,29.7-18.451V429.72h-72.257
			c-0.247-2.545-0.371-5.12-0.371-7.726c0-2.606,0.124-5.182,0.371-7.726h72.257v-16.143c-11.816-2.019-22.561-8.602-29.7-18.451
			c-4.203-5.8-9.725-10.632-15.968-13.959c-0.855-0.453-1.587-1.051-2.184-1.741c3.904-3.74,8.18-7.098,12.774-9.993
			c6.943,4.286,13.073,9.972,17.894,16.627c4.224,5.831,10.353,9.941,17.183,11.724V342.01c2.545-0.247,5.12-0.371,7.726-0.371
			c2.606,0,5.182,0.124,7.726,0.371v40.322c6.83-1.782,12.96-5.893,17.184-11.724c1.648-2.287,3.472-4.461,5.429-6.511
			c3.709-3.894,7.922-7.314,12.465-10.116c4.471,2.823,8.654,6.068,12.465,9.694c-0.659,0.999-1.556,1.854-2.668,2.472
			c-4.522,2.524-8.653,5.851-12.146,9.766c-1.071,1.205-2.081,2.462-3.029,3.76c-7.139,9.849-17.884,16.431-29.7,18.451v16.143
			h72.257c0.247,2.545,0.371,5.12,0.371,7.726c0,2.606-0.123,5.182-0.371,7.726H418.675z"/>
		<path style="fill:#E0530B;" d="M410.949,341.639c2.606,0,5.182,0.124,7.726,0.371v6.748c-4.904-2.225-10.075-3.966-15.453-5.172
			v-1.576C405.767,341.763,408.343,341.639,410.949,341.639z"/>
		<path style="fill:#E0530B;" d="M466.208,480.313c-3.812,3.626-7.984,6.871-12.455,9.694c-4.543-2.802-8.757-6.222-12.476-10.116
			c3.74-3.585,7.139-7.551,10.127-11.816c3.492,3.915,7.624,7.242,12.146,9.776C464.663,478.469,465.559,479.324,466.208,480.313z"
			/>
		<path style="fill:#E0530B;" d="M451.404,375.914c-2.987-4.265-6.377-8.221-10.116-11.816c3.709-3.894,7.922-7.314,12.465-10.116
			c4.471,2.823,8.654,6.068,12.465,9.694c-0.659,0.999-1.556,1.854-2.668,2.472C459.028,368.672,454.897,371.999,451.404,375.914z"
			/>
		<path style="fill:#E0530B;" d="M491.303,421.994c0,2.606-0.123,5.182-0.371,7.726h-25.384c0.247-2.545,0.371-5.12,0.371-7.726
			c0-2.606-0.124-5.182-0.371-7.726h25.384C491.18,416.812,491.303,419.388,491.303,421.994z"/>
	</g>
	<path style="fill:#E0530B;" d="M403.222,500.402c5.378-1.205,10.549-2.946,15.453-5.172v6.748c-2.545,0.247-5.12,0.371-7.726,0.371
		c-2.606,0-5.182-0.124-7.726-0.371V500.402z"/>
</g>
<g>
</g>
<g>
</g>
<g>
</g>
<g>
</g>
<g>
</g>
<g>
</g>
<g>
</g>
<g>
</g>
<g>
</g>
<g>
</g>
<g>
</g>
<g>
</g>
<g>
</g>
<g>
</g>
<g>
</g>
</svg>
