<?xml version="1.0" encoding="iso-8859-1"?>
<!-- Generator: Adobe Illustrator 23.0.3, SVG Export Plug-In . SVG Version: 6.00 Build 0)  -->
<svg version="1.1" id="Capa_1" xmlns="http://www.w3.org/2000/svg" xmlns:xlink="http://www.w3.org/1999/xlink" x="0px" y="0px"
	 viewBox="0 0 512 512" style="enable-background:new 0 0 512 512;" xml:space="preserve">
<g>
	<g>
		<g>
			<g>
				<g>
					<g>
						<g>
							<path style="fill:#C47A4A;" d="M442.17,498.255h-58.426V372.805h68.711V487.97
								C452.455,493.651,447.85,498.255,442.17,498.255z"/>
							<path style="fill:#AA613C;" d="M452.458,372.806v115.164c0,5.677-4.608,10.285-10.285,10.285h-19.809
								c5.677,0,10.285-4.608,10.285-10.285V372.806H452.458z"/>
						</g>
						<g>
							<path style="fill:#C47A4A;" d="M128.256,498.255H69.83c-5.68,0-10.285-4.605-10.285-10.285V372.805h68.711V498.255z"/>
						</g>
					</g>
					<path style="fill:#006AC3;" d="M493.642,346.687c0,19.79-7.685,31.369-20.367,38.106c-2.204,1.185-4.564,2.215-7.057,3.111
						c-2.504,0.907-5.141,1.679-7.901,2.339c-13.197,3.163-29.216,3.76-46.482,3.76c-0.773,0-1.545-0.01-2.318-0.031
						c-5.295-0.144-10.456-0.773-15.442-1.823v95.817c0,5.687-4.605,10.292-10.292,10.292H128.216
						c-5.687,0-10.291-4.605-10.291-10.292v-95.817c-4.986,1.051-10.147,1.679-15.442,1.823c-0.773,0.021-1.545,0.031-2.318,0.031
						c-17.266,0-33.285-0.598-46.482-3.76c-2.761-0.659-5.398-1.432-7.902-2.339c-2.493-0.896-4.852-1.926-7.057-3.111
						c-12.682-6.737-20.367-18.317-20.367-38.106c0-43.185,0-109.065,81.807-109.065c8.829,0,17.328,1.339,25.291,3.822
						c11.466,3.564,23.869,1.669,34.192-4.481c12.733-7.582,27.619-11.94,43.515-11.94h105.676c15.896,0,30.782,4.358,43.515,11.94
						c10.322,6.15,22.726,8.046,34.192,4.481c7.953-2.483,16.462-3.822,25.291-3.822
						C493.642,237.622,493.642,303.502,493.642,346.687z"/>
					<path style="fill:#0057A1;" d="M493.64,346.681c0,23.234-10.594,35.155-27.42,41.223c-14.451,5.215-33.509,6.099-54.378,6.099
						c-2.057,0-4.094-0.072-6.109-0.226c14.831-0.483,28.264-1.965,39.104-5.873c16.826-6.068,27.431-17.989,27.431-41.223
						c0-40.966,0-102.338-69.816-108.54c3.075-0.339,6.212-0.514,9.39-0.514C493.64,237.627,493.64,303.494,493.64,346.681z"/>
					<g>
						<g>
							<g>
								<path style="fill:#E84649;" d="M493.642,346.687c0,23.231-10.59,35.15-27.423,41.217l-6.397-8.581l-28.289-37.921
									c-9.694-13.001-24.951-20.655-41.177-20.655H121.644c-16.225,0-31.482,7.654-41.176,20.655l-34.686,46.502
									c-16.833-6.068-27.423-17.987-27.423-41.217c0-43.185,0-109.055,81.796-109.055c8.839,0,17.348,1.339,25.312,3.812
									c10.971,3.41,22.808,1.823,32.852-3.719c0.453-0.237,0.896-0.494,1.339-0.752c4.049-2.411,8.314-4.492,12.754-6.212
									c9.539-3.709,19.913-5.738,30.761-5.738h105.655c10.848,0,21.222,2.029,30.761,5.738c4.44,1.72,8.705,3.801,12.754,6.212
									c0.443,0.258,0.886,0.515,1.339,0.752c10.044,5.542,21.881,7.129,32.852,3.719c5.11-1.576,10.426-2.709,15.916-3.297
									c3.08-0.34,6.212-0.515,9.395-0.515C493.642,237.632,493.642,303.502,493.642,346.687z"/>
								<path style="fill:#D73337;" d="M308.828,225.022H203.172c-10.848,0-21.222,2.029-30.761,5.738
									c1.143,1.731,2.349,3.441,3.595,5.11c4.935,41.496,4.965,41.702,5.048,42.186c3.286,19.594,20.295,33.811,40.445,33.811
									h69.002c20.15,0,37.159-14.216,40.435-33.769c0.093-0.525,0.123-0.742,5.058-42.227c1.246-1.669,2.452-3.379,3.596-5.11
									C330.049,227.052,319.676,225.022,308.828,225.022z"/>
								<path style="fill:#D73337;" d="M493.64,346.681c0,23.234-10.594,35.155-27.42,41.223l-6.398-8.578
									c7.889-7.045,12.445-17.413,12.445-32.645c0-40.966,0-102.338-69.816-108.54c3.075-0.339,6.212-0.514,9.39-0.514
									C493.64,237.627,493.64,303.494,493.64,346.681z"/>
								<path style="fill:#FFF5F5;" d="M473.275,384.793c-2.204,1.185-4.564,2.215-7.057,3.111
									c-2.504,0.907-5.141,1.679-7.901,2.339l-32.976-44.226c-8.2-10.992-21.273-17.554-34.985-17.554H121.644
									c-13.712,0-26.785,6.562-34.985,17.554l-32.976,44.226c-2.761-0.659-5.398-1.432-7.902-2.339
									c-2.493-0.896-4.852-1.926-7.057-3.111c0.216-0.525,0.515-1.03,0.865-1.504l34.676-46.513
									c11.105-14.876,28.814-23.766,47.378-23.766h268.712c18.564,0,36.273,8.89,47.368,23.766l34.686,46.513
									C472.76,383.763,473.059,384.268,473.275,384.793z"/>
								<path style="fill:#FFF5F5;" d="M473.28,384.79c-2.21,1.19-4.57,2.22-7.06,3.11c-2.5,0.91-5.14,1.68-7.9,2.34l-4.75-6.37
									l-28.23-37.85c-8.2-10.99-21.27-17.56-34.98-17.56H121.64c-13.71,0-26.78,6.57-34.98,17.56l-32.98,44.22
									c-2.76-0.66-5.4-1.43-7.9-2.34c-2.49-0.89-4.85-1.92-7.06-3.11c0.22-0.52,0.52-1.03,0.87-1.5l34.68-46.51
									c11.1-14.88,28.81-23.77,47.37-23.77h268.72c18.56,0,36.27,8.89,47.36,23.77l27.34,36.66l7.35,9.85
									C472.76,383.76,473.06,384.27,473.28,384.79z"/>
								<path style="fill:#E0D3CE;" d="M473.28,384.79c-2.21,1.19-4.57,2.22-7.06,3.11c-2.5,0.91-5.14,1.68-7.9,2.34l-4.75-6.37
									c4.6-2.71,8.48-6.12,11.49-10.43l7.35,9.85C472.76,383.76,473.06,384.27,473.28,384.79z"/>
							</g>
						</g>
					</g>
					<path style="fill:#FFF5F5;" d="M352.972,128.02H159.028c0,0-6.304,133.737,96.855,133.943v0.005
						c0.04,0,0.077-0.002,0.117-0.002c0.04,0,0.077,0.002,0.117,0.002v-0.005C359.276,261.757,352.972,128.02,352.972,128.02z"/>
					<path style="fill:#E0D3CE;" d="M339.053,205.81c-12.743,29.463-36.984,56.062-82.94,56.155h-0.227
						c-2.771-0.01-5.46-0.103-8.077-0.299c40.764-3.008,62.882-28.165,74.853-55.856c15.855-36.674,13.918-77.789,13.918-77.789
						h16.39C352.971,128.021,354.908,169.135,339.053,205.81z"/>
					<g>
						<path style="fill:#C47A4A;" d="M332.501,104.017l-1.875,37.725c-0.886,17.894-7.397,36.819-17.647,49.902
							c-14.268,1.154-32.883,1.978-56.979,1.978s-42.711-0.824-56.979-1.978c-10.25-13.083-16.761-32.008-17.647-49.902
							l-1.875-37.725H332.501z"/>
					</g>
					<g>
						<g>
							<g>
								<g>
									<g>
										<line style="fill:#F69583;" x1="308.95" y1="180.698" x2="308.95" y2="180.796"/>
									</g>
								</g>
								<g>
									<g>
										<g>
											<path style="fill:#904D29;" d="M216.379,168.596c-4.268,0-7.726-3.459-7.726-7.726s3.459-7.775,7.726-7.775
												s7.726,3.41,7.726,7.677v0.098C224.106,165.137,220.647,168.596,216.379,168.596z"/>
											<path style="fill:#904D29;" d="M295.621,168.596c-4.268,0-7.726-3.459-7.726-7.726s3.459-7.775,7.726-7.775
												s7.726,3.41,7.726,7.677v0.098C303.347,165.137,299.888,168.596,295.621,168.596z"/>
										</g>
									</g>
								</g>
							</g>
						</g>
					</g>
					<path style="fill:#E84649;" d="M357.765,101.765v20.341c0,4.441-2.841,8.386-7.061,9.77c-8.887,2.915-27.426,7.197-62.473,8.89
						c-9.485,0.463-20.185,0.73-32.231,0.73s-22.746-0.267-32.231-0.73c-35.039-1.693-53.582-5.976-62.472-8.891
						c-4.221-1.384-7.062-5.329-7.062-9.77v-20.339c0-50.626,36.963-92.62,85.377-100.449C244.951,0.453,250.424,0,256,0
						s11.049,0.453,16.388,1.317c21.543,3.477,40.811,13.724,55.574,28.486C346.377,48.228,357.765,73.66,357.765,101.765z"/>
					<path style="fill:#D73337;" d="M357.762,101.762v20.344c0,4.443-2.839,8.382-7.056,9.771
						c-4.803,1.574-12.435,3.548-23.954,5.307c3.24-0.782,5.852-1.533,7.94-2.222c4.227-1.388,7.066-5.328,7.066-9.771v-20.344
						c0-28.099-11.386-53.535-29.807-71.955c-14.759-14.77-34.034-25.014-55.571-28.49c-5.338-0.864-10.81-1.317-16.395-1.317
						c-3.826,0-7.611,0.216-11.334,0.638c3.579-0.998,7.241-1.8,10.964-2.407C244.954,0.452,250.425,0,256,0
						c5.574,0,11.046,0.452,16.384,1.317c21.547,3.476,40.812,13.72,55.581,28.49C346.376,48.227,357.762,73.663,357.762,101.762z"
						/>
					<path style="fill:#1475CC;" d="M272.388,1.317v113.668h-32.776V1.317C244.951,0.453,250.424,0,256,0
						S267.049,0.453,272.388,1.317z"/>
					<path style="fill:#FFF5F5;" d="M288.231,107.444v33.322c-9.485,0.463-20.185,0.73-32.231,0.73s-22.746-0.267-32.231-0.73
						v-33.322c0-5.682,4.606-10.288,10.288-10.288h43.887C283.625,97.157,288.231,101.763,288.231,107.444z"/>
				</g>
				<g>
					<path style="fill:#C86D3D;" d="M302.771,479.814c-30.875,30.875-75.543,39.537-114.159,25.985
						c-2.502-0.878-4.477-2.853-5.356-5.355c-13.558-38.61-4.902-83.284,25.979-114.166c30.875-30.875,75.549-39.53,114.159-25.973
						c2.502,0.878,4.477,2.854,5.355,5.356C342.3,404.278,333.639,448.946,302.771,479.814z"/>
					<path style="fill:#AC5E33;" d="M302.767,479.818c-30.87,30.87-75.538,39.531-114.153,25.983
						c-2.503-0.878-4.478-2.854-5.357-5.356c-1.02-2.901-1.912-5.835-2.678-8.799c36.451,9.452,76.8-0.103,105.362-28.665
						c28.552-28.552,38.107-68.901,28.655-105.352c2.963,0.766,5.897,1.658,8.799,2.678c2.502,0.879,4.478,2.854,5.356,5.357
						C342.298,404.279,333.637,448.948,302.767,479.818z"/>
					<path style="fill:#FFF5F5;" d="M289.218,420.783l-5.012-5.012l3.557-3.557c3.017-3.017,3.017-7.909,0-10.927
						c-3.018-3.017-7.909-3.017-10.928,0l-3.556,3.556l-5.011-5.011c-3.018-3.017-7.909-3.017-10.928,0
						c-3.017,3.017-3.017,7.909,0,10.927l5.012,5.012l-6.352,6.353l-5.011-5.011c-3.018-3.017-7.909-3.017-10.928,0
						c-3.017,3.017-3.017,7.909,0,10.927l5.012,5.012l-6.352,6.353l-5.012-5.011c-3.018-3.017-7.909-3.017-10.928,0
						c-3.017,3.017-3.017,7.909,0,10.927l5.012,5.012l-3.556,3.556c-3.017,3.017-3.017,7.909,0,10.927
						c1.509,1.509,3.487,2.263,5.464,2.263c1.977,0,3.955-0.755,5.464-2.263l3.556-3.556l5.011,5.011
						c1.509,1.509,3.487,2.263,5.464,2.263c1.977,0,3.955-0.755,5.464-2.263c3.017-3.018,3.017-7.909,0-10.927l-5.012-5.012
						l6.352-6.353l5.012,5.012c1.509,1.509,3.487,2.263,5.464,2.263s3.955-0.755,5.464-2.263c3.017-3.017,3.017-7.909,0-10.927
						l-5.012-5.012l6.353-6.353l5.012,5.012c1.509,1.509,3.487,2.263,5.464,2.263c1.977,0,3.955-0.755,5.464-2.263
						C292.235,428.692,292.235,423.8,289.218,420.783z"/>
				</g>
			</g>
		</g>
		<path style="fill:#0057A1;" d="M117.925,392.149c-4.986,1.051-10.147,1.679-15.442,1.823v-28.68c0-4.275,3.451-7.726,7.726-7.726
			c4.265,0,7.726,3.451,7.726,7.726L117.925,392.149z"/>
		<path style="fill:#0057A1;" d="M394.065,365.292c0-4.275,3.461-7.726,7.726-7.726c4.275,0,7.726,3.451,7.726,7.726v28.68
			c-5.295-0.144-10.456-0.773-15.442-1.823L394.065,365.292z"/>
	</g>
	<path style="fill:#B9ACAC;" d="M363.487,185.093c-1.31-4.062-5.669-6.292-9.723-4.984c-0.18,0.058-20.147,5.792-97.764,5.792
		c-76.836,0-97.317-5.666-97.837-5.815c-4.034-1.257-8.348,0.97-9.65,5.008c-1.309,4.062,0.924,8.415,4.985,9.724
		c0.49,0.158,7.835,2.418,30.592,4.237c9.069,76.427,9.117,76.722,9.158,76.961c2.282,13.612,14.165,23.492,28.256,23.492h68.992
		c14.091,0,25.974-9.88,28.255-23.483c0.042-0.248,0.091-0.543,9.159-76.97c22.757-1.819,30.102-4.079,30.592-4.237
		C362.563,193.508,364.796,189.154,363.487,185.093z M248.274,201.333v10.422c-17.757-0.182-33.647-0.999-47.403-2.438
		c-0.384-3.238-0.753-6.342-1.096-9.242C212.485,200.744,228.415,201.232,248.274,201.333z M208.511,273.593
		c-0.267-2.181-3.058-25.669-5.776-48.559c13.452,1.277,28.703,2.006,45.538,2.176v56.845h-26.77
		C215.147,284.054,209.589,279.57,208.511,273.593z M290.496,284.054h-26.77V227.21c16.83-0.169,32.091-0.897,45.537-2.173
		c-2.719,22.898-5.51,46.392-5.776,48.558C302.415,279.567,296.855,284.054,290.496,284.054z M311.129,209.323
		c-13.751,1.437-29.653,2.252-47.403,2.434v-10.423c19.859-0.101,35.788-0.589,48.5-1.257
		C311.882,202.978,311.514,206.083,311.129,209.323z"/>
</g>
<g>
</g>
<g>
</g>
<g>
</g>
<g>
</g>
<g>
</g>
<g>
</g>
<g>
</g>
<g>
</g>
<g>
</g>
<g>
</g>
<g>
</g>
<g>
</g>
<g>
</g>
<g>
</g>
<g>
</g>
</svg>
