<?xml version="1.0" encoding="iso-8859-1"?>
<!-- Generator: Adobe Illustrator 23.0.3, SVG Export Plug-In . SVG Version: 6.00 Build 0)  -->
<svg version="1.1" id="Capa_1" xmlns="http://www.w3.org/2000/svg" xmlns:xlink="http://www.w3.org/1999/xlink" x="0px" y="0px"
	 viewBox="0 0 512 512" style="enable-background:new 0 0 512 512;" xml:space="preserve">
<g>
	<g>
		<g>
			<g>
				<path style="fill:#FF9846;" d="M405.901,300.606v166.683c0,5.328-4.32,9.648-9.648,9.648H116.038
					c-5.328,0-9.648-4.32-9.648-9.648V300.606c0-32.798,19.763-60.991,48.022-73.313c9.772-4.263,20.571-6.622,31.913-6.622h139.641
					c4.367,0,8.659,0.343,12.836,1.028c6.68,1.075,13.064,2.978,19.077,5.595c0.029,0.009,0.048,0.019,0.076,0.038
					C386.177,239.663,405.901,267.836,405.901,300.606z"/>
				<path style="fill:#FF771C;" d="M405.903,300.609V467.29c0,5.326-4.323,9.649-9.649,9.649h-22.24
					c5.326,0,9.649-4.323,9.649-9.649V300.609c0-32.796-19.76-60.989-48.021-73.311c-6.011-2.624-12.399-4.525-19.075-5.596
					c-4.178-0.685-8.471-1.032-12.842-1.032h22.24c4.371,0,8.665,0.347,12.842,1.032c6.677,1.071,13.064,2.972,19.075,5.596
					C386.142,239.62,405.903,267.814,405.903,300.609z"/>
				<path style="fill:#BDEB73;" d="M357.957,227.33v249.603H154.414V227.289c4.409-1.926,9.014-3.451,13.804-4.553
					c5.82-1.35,11.888-2.06,18.111-2.06H325.97c4.368,0,8.653,0.34,12.836,1.02c1.772,0.288,3.534,0.628,5.264,1.03
					c4.78,1.113,9.395,2.648,13.804,4.564C357.906,227.299,357.926,227.309,357.957,227.33z"/>
				<path style="fill:#9AD63B;" d="M357.951,227.334v249.604h-18.72V221.772c6.528,1.079,12.768,2.961,18.648,5.52
					C357.91,227.303,357.931,227.314,357.951,227.334z"/>
				<g>
					<rect x="202.297" y="246.821" style="fill:#FF9846;" width="107.695" height="97.95"/>
				</g>
			</g>
			<g>
				<path style="fill:#9AD63B;" d="M315.706,455.862c-4.267,0-7.726-3.459-7.726-7.726v-13.207H196.585
					c-4.267,0-7.726-3.459-7.726-7.726c0-4.267,3.459-7.726,7.726-7.726h119.121c4.267,0,7.726,3.459,7.726,7.726v20.933
					C323.432,452.402,319.973,455.862,315.706,455.862z"/>
			</g>
			<g>
				<g>
					<path style="fill:#9AD63B;" d="M353.93,344.769h-42.078c-5.255,0-9.515-4.26-9.515-9.515v-18.868
						c0-5.255,4.26-9.515,9.515-9.515h42.078c5.255,0,9.515,4.26,9.515,9.515v18.868
						C363.445,340.509,359.185,344.769,353.93,344.769z"/>
					<path style="fill:#8EC737;" d="M363.441,316.382v18.874c0,5.253-4.256,9.509-9.509,9.509h-20.386
						c5.263,0,9.52-4.256,9.52-9.509v-18.874c0-5.253-4.256-9.509-9.52-9.509h20.386
						C359.185,306.872,363.441,311.128,363.441,316.382z"/>
					<path style="fill:#83B832;" d="M353.931,352.495h-42.078c-9.507,0-17.241-7.734-17.241-17.241v-18.868
						c0-9.507,7.734-17.241,17.241-17.241h42.078c9.507,0,17.241,7.734,17.241,17.241v18.868
						C371.172,344.761,363.437,352.495,353.931,352.495z M311.852,314.598c-0.986,0-1.789,0.802-1.789,1.789v18.868
						c0,0.986,0.802,1.789,1.789,1.789h42.078c0.986,0,1.788-0.802,1.788-1.789v-18.868c0-0.986-0.802-1.789-1.788-1.789H311.852z"
						/>
				</g>
				<g>
					<path style="fill:#9AD63B;" d="M200.439,344.769h-42.078c-5.255,0-9.515-4.26-9.515-9.515v-18.868
						c0-5.255,4.26-9.515,9.515-9.515h42.078c5.255,0,9.515,4.26,9.515,9.515v18.868
						C209.954,340.509,205.694,344.769,200.439,344.769z"/>
					<path style="fill:#83B832;" d="M200.439,352.495h-42.078c-9.507,0-17.241-7.734-17.241-17.241v-18.868
						c0-9.507,7.734-17.241,17.241-17.241h42.078c9.507,0,17.241,7.734,17.241,17.241v18.868
						C217.68,344.761,209.946,352.495,200.439,352.495z M158.361,314.598c-0.986,0-1.789,0.802-1.789,1.789v18.868
						c0,0.986,0.802,1.789,1.789,1.789h42.078c0.986,0,1.788-0.802,1.788-1.789v-18.868c0-0.986-0.802-1.789-1.788-1.789H158.361z"
						/>
				</g>
			</g>
			<g>
				<path style="fill:#BDEB73;" d="M332.635,330.976c-4.267,0-7.726-3.459-7.726-7.726v-11.418c0-4.267,3.459-7.726,7.726-7.726
					c4.267,0,7.726,3.459,7.726,7.726v11.418C340.361,327.517,336.902,330.976,332.635,330.976z"/>
				<path style="fill:#BDEB73;" d="M179.656,330.976c-4.267,0-7.726-3.459-7.726-7.726v-11.418c0-4.267,3.459-7.726,7.726-7.726
					c4.267,0,7.726,3.459,7.726,7.726v11.418C187.383,327.517,183.924,330.976,179.656,330.976z"/>
			</g>
			<g>
				<circle style="fill:#FFBC8A;" cx="354.286" cy="142.176" r="22.322"/>
				<circle style="fill:#FFBC8A;" cx="158.005" cy="142.176" r="22.322"/>
				<path style="fill:#9AD63B;" d="M344.07,222.725c-15.875,32.688-49.397,55.022-87.926,55.022s-72.041-22.324-87.926-55.012
					c5.82-1.35,11.888-2.06,18.111-2.06H325.97c4.368,0,8.653,0.34,12.836,1.02C340.578,221.983,342.339,222.323,344.07,222.725z"/>
				<path style="fill:#FF771C;" d="M309.992,246.821v14.762c-15.463,10.23-33.986,16.164-53.848,16.164
					c-19.862,0-38.385-5.934-53.848-16.153v-14.773H309.992z"/>
				<path style="fill:#FDD1A7;" d="M256.146,265.389L256.146,265.389c-45.413,0-82.876-35.554-85.25-80.904l-3.252-62.122
					c-1.38-26.365,19.626-48.499,46.027-48.499h84.95c26.401,0,47.407,22.134,46.027,48.499l-3.252,62.122
					C339.022,229.835,301.558,265.389,256.146,265.389z"/>
				<g>
					<g>
						<path style="fill:#904D29;" d="M216.352,178.725c-4.267,0-7.726-3.459-7.726-7.726s3.459-7.776,7.726-7.776
							s7.726,3.41,7.726,7.677v0.099C224.078,175.266,220.619,178.725,216.352,178.725z"/>
						<path style="fill:#904D29;" d="M295.939,178.725c-4.267,0-7.726-3.459-7.726-7.726s3.459-7.776,7.726-7.776
							c4.267,0,7.726,3.41,7.726,7.677v0.099C303.665,175.266,300.206,178.725,295.939,178.725z"/>
					</g>
				</g>
				<path style="fill:#F5A871;" d="M256.145,227.967c-13.681,0-25.879-9.187-29.662-22.34c-1.179-4.101,1.189-8.382,5.29-9.561
					c4.103-1.178,8.382,1.189,9.561,5.29c1.889,6.57,7.98,11.158,14.811,11.158c6.831,0,12.922-4.589,14.811-11.158
					c1.18-4.1,5.459-6.469,9.561-5.29c4.101,1.18,6.469,5.46,5.29,9.561C282.024,218.781,269.826,227.967,256.145,227.967z"/>
				<path style="fill:#E3F6C5;" d="M150.467,99.963l7.74,26.955c3.538,12.32,14.806,20.808,27.624,20.808h140.629
					c12.818,0,24.086-8.488,27.624-20.808l7.74-26.955H150.467z"/>
				<path style="fill:#BDEB73;" d="M361.826,99.964l-7.745,26.954c-3.533,12.322-14.799,20.809-27.623,20.809h-22.23
					c12.814,0,24.08-8.487,27.623-20.809l7.734-26.954H361.826z"/>
				<path style="fill:#BDEB73;" d="M171.401,27.165L243.12,2.207c8.46-2.944,17.667-2.943,26.127,0.003l71.652,24.951
					c14.678,5.111,24.514,18.952,24.514,34.494v34.195c0,5.678-4.603,10.28-10.28,10.28H157.16c-5.678,0-10.28-4.603-10.28-10.28
					V61.662C146.88,46.116,156.719,32.274,171.401,27.165z"/>
				<path style="fill:#9AD63B;" d="M365.415,61.653v34.202c0,5.675-4.605,10.28-10.28,10.28h-22.236
					c5.675,0,10.28-4.606,10.28-10.28V52.401c0-12.069-5.932-23.11-15.451-29.823l13.169,4.585
					C355.577,32.272,365.415,46.11,365.415,61.653z"/>
				<circle style="fill:#FF9846;" cx="256.146" cy="58.717" r="23.482"/>
				<path style="fill:#756F6F;" d="M205.766,199.415c-1.491,0-2.997-0.431-4.325-1.329l-12.337-8.353
					c-3.533-2.393-4.458-7.197-2.066-10.73c2.392-3.533,7.196-4.459,10.73-2.066l12.337,8.353c3.533,2.393,4.458,7.197,2.066,10.73
					C210.678,198.226,208.243,199.415,205.766,199.415z"/>
				<path style="fill:#756F6F;" d="M298.293,227.967c-1.838,0-3.681-0.651-5.156-1.975c-3.177-2.849-3.442-7.734-0.593-10.91
					l7.512-8.375c2.849-3.177,7.734-3.442,10.91-0.593c3.177,2.849,3.442,7.734,0.593,10.91l-7.512,8.375
					C302.521,227.101,300.411,227.967,298.293,227.967z"/>
			</g>
		</g>
		<g>
			<path style="fill:#E0D3CE;" d="M467.426,403.069V243.096c21.617-4.821,37.774-24.107,37.774-47.172c0-0.053,0-0.107,0-0.16
				c-0.021-6.482-7.948-9.654-12.532-5.07l-15.115,15.115c-3.175,3.175-8.322,3.175-11.497,0l-18.119-18.119
				c-3.175-3.175-3.175-8.322,0-11.497l14.725-14.725c5.084-5.084,1.559-13.864-5.631-13.89c-0.059,0-0.117,0-0.176,0
				c-27.452,0-49.557,22.882-48.286,50.623c0.753,16.413,9.839,30.771,23.088,38.926V397.1
				c-21.617,4.821-37.774,24.107-37.774,47.172c0,0.053,0,0.107,0,0.16c0.021,6.482,7.948,9.654,12.532,5.07l15.115-15.115
				c3.175-3.175,8.322-3.175,11.497,0l18.119,18.119c3.175,3.175,3.175,8.322,0,11.497l-14.725,14.725
				c-5.084,5.084-1.559,13.864,5.631,13.89c0.059,0,0.117,0,0.176,0c27.452,0,49.557-22.882,48.286-50.623
				C489.762,425.582,480.675,411.224,467.426,403.069z"/>
			<rect x="431.656" y="264.955" style="fill:#FF9846;" width="35.77" height="110.285"/>
			<rect x="449.541" y="264.955" style="fill:#FF771C;" width="17.885" height="110.285"/>
		</g>
	</g>
	<g>
		<circle style="fill:#9E9797;" cx="103.749" cy="415.052" r="96.948"/>
		
			<ellipse transform="matrix(0.7071 -0.7071 0.7071 0.7071 -263.0984 194.9272)" style="fill:#756F6F;" cx="103.749" cy="415.052" rx="70.59" ry="70.59"/>
		<circle style="fill:#EFE2DD;" cx="103.749" cy="415.052" r="54.146"/>
		<g>
			<g>
				<path style="fill:#756F6F;" d="M103.748,401.621c-4.267,0-7.726-3.459-7.726-7.726s3.459-7.768,7.726-7.768
					c4.267,0,7.726,3.418,7.726,7.685v0.083C111.475,398.162,108.016,401.621,103.748,401.621z"/>
				<path style="fill:#756F6F;" d="M103.748,444.018c-4.267,0-7.726-3.459-7.726-7.726s3.459-7.768,7.726-7.768
					c4.267,0,7.726,3.418,7.726,7.685v0.083C111.475,440.559,108.016,444.018,103.748,444.018z"/>
			</g>
			<g>
				<path style="fill:#756F6F;" d="M124.947,422.819c-4.267,0-7.726-3.459-7.726-7.726c0-4.267,3.459-7.768,7.726-7.768
					s7.726,3.418,7.726,7.685v0.083C132.673,419.36,129.214,422.819,124.947,422.819z"/>
				<path style="fill:#756F6F;" d="M82.55,422.819c-4.267,0-7.726-3.459-7.726-7.726c0-4.267,3.459-7.768,7.726-7.768
					s7.726,3.418,7.726,7.685v0.083C90.277,419.36,86.817,422.819,82.55,422.819z"/>
			</g>
		</g>
	</g>
	<g>
		<path style="fill:#CDBFBB;" d="M47.04,255.698V112.314h37.536v143.384c0,5.678-4.603,10.28-10.28,10.28H57.32
			C51.643,265.979,47.04,261.376,47.04,255.698z"/>
		<path style="fill:#EFE2DD;" d="M94.85,125.623H36.766c-5.678,0-10.28-4.603-10.28-10.28V93.755c0-5.678,4.603-10.28,10.28-10.28
			H94.85c5.678,0,10.28,4.603,10.28,10.28v21.588C105.13,121.021,100.527,125.623,94.85,125.623z"/>
		<path style="fill:#9E9797;" d="M45.784,249.285c-3.705,0-6.977-2.673-7.611-6.448c-0.707-4.208,2.132-8.193,6.34-8.899
			l39.798-7.721c4.209-0.706,8.193,2.132,8.899,6.34c0.707,4.208-2.132,8.193-6.34,8.899l-39.798,7.721
			C46.639,249.25,46.208,249.285,45.784,249.285z"/>
		<path style="fill:#9E9797;" d="M45.784,220.741c-3.705,0-6.977-2.673-7.611-6.448c-0.707-4.208,2.132-8.192,6.341-8.899
			l39.798-7.72c4.209-0.704,8.192,2.132,8.899,6.341c0.707,4.208-2.132,8.192-6.341,8.899l-39.798,7.72
			C46.639,220.706,46.208,220.741,45.784,220.741z"/>
		<path style="fill:#9E9797;" d="M45.784,192.198c-3.705,0-6.977-2.673-7.611-6.448c-0.707-4.208,2.132-8.193,6.34-8.899
			l39.798-7.721c4.209-0.707,8.193,2.132,8.899,6.34c0.707,4.208-2.132,8.193-6.34,8.899l-39.798,7.721
			C46.639,192.163,46.208,192.198,45.784,192.198z"/>
		<path style="fill:#9E9797;" d="M45.784,163.654c-3.705,0-6.977-2.673-7.611-6.448c-0.707-4.208,2.132-8.192,6.341-8.899
			l39.798-7.72c4.209-0.705,8.192,2.132,8.899,6.341s-2.132,8.192-6.341,8.899l-39.798,7.72
			C46.639,163.619,46.208,163.654,45.784,163.654z"/>
	</g>
</g>
<g>
</g>
<g>
</g>
<g>
</g>
<g>
</g>
<g>
</g>
<g>
</g>
<g>
</g>
<g>
</g>
<g>
</g>
<g>
</g>
<g>
</g>
<g>
</g>
<g>
</g>
<g>
</g>
<g>
</g>
</svg>
