<?xml version="1.0" encoding="iso-8859-1"?>
<!-- Generator: Adobe Illustrator 23.0.3, SVG Export Plug-In . SVG Version: 6.00 Build 0)  -->
<svg version="1.1" id="Capa_1" xmlns="http://www.w3.org/2000/svg" xmlns:xlink="http://www.w3.org/1999/xlink" x="0px" y="0px"
	 viewBox="0 0 512 512" style="enable-background:new 0 0 512 512;" xml:space="preserve">
<g>
	<g>
		<g>
			<g>
				<g>
					<g>
						<path style="fill:#EFE2DD;" d="M226.905,70V35.578c0-5.397-4.375-9.773-9.773-9.773H110.317c-5.397,0-9.773,4.375-9.773,9.773
							V70H226.905z"/>
						<path style="fill:#EFE2DD;" d="M100.545,202v32.435c0,5.397,4.375,9.773,9.773,9.773h106.815c5.397,0,9.773-4.375,9.773-9.773
							V202H100.545z"/>
						<path style="fill:#CDBFBB;" d="M207.363,35.579V70h19.545V35.579c0-5.394-4.378-9.773-9.773-9.773h-19.545
							C202.985,25.807,207.363,30.185,207.363,35.579z"/>
						<path style="fill:#CDBFBB;" d="M207.363,202v32.43c0,5.404-4.378,9.773-9.773,9.773h19.545c5.394,0,9.773-4.368,9.773-9.773
							V202H207.363z"/>
					</g>
					<g>
						<path style="fill:#2EA8FC;" d="M226.908,64.897v140.216c0,5.404-4.378,9.773-9.773,9.773H110.317
							c-5.394,0-9.773-4.368-9.773-9.773V64.897c0-5.394,4.378-9.773,9.773-9.773h106.819
							C222.53,55.124,226.908,59.502,226.908,64.897z"/>
						<path style="fill:#0086F9;" d="M226.908,64.897v140.216c0,5.404-4.378,9.773-9.773,9.773h-9.773V55.124h9.773
							C222.53,55.124,226.908,59.502,226.908,64.897z"/>
					</g>
					<g>
						<path style="fill:#52CC61;" d="M129.374,97.27c-4.267,0-7.726-3.459-7.726-7.726v-8.419c0-4.267,3.459-7.726,7.726-7.726
							c4.267,0,7.726,3.459,7.726,7.726v8.419C137.1,93.81,133.641,97.27,129.374,97.27z"/>
						<path style="fill:#52CC61;" d="M155.996,97.27c-4.267,0-7.726-3.459-7.726-7.726v-8.419c0-4.267,3.459-7.726,7.726-7.726
							s7.726,3.459,7.726,7.726v8.419C163.722,93.81,160.263,97.27,155.996,97.27z"/>
					</g>
					<g>
						<path style="fill:#52CC61;" d="M129.374,132.867c-4.267,0-7.726-3.459-7.726-7.726v-8.419c0-4.267,3.459-7.726,7.726-7.726
							c4.267,0,7.726,3.459,7.726,7.726v8.419C137.1,129.408,133.641,132.867,129.374,132.867z"/>
						<path style="fill:#52CC61;" d="M155.996,132.867c-4.267,0-7.726-3.459-7.726-7.726v-8.419c0-4.267,3.459-7.726,7.726-7.726
							s7.726,3.459,7.726,7.726v8.419C163.722,129.408,160.263,132.867,155.996,132.867z"/>
					</g>
				</g>
			</g>
			<g>
				<rect x="97.016" y="442.334" style="fill:#5B5555;" width="33.803" height="39.152"/>
				<g>
					<g>
						<path style="fill:#EFE2DD;" d="M0,398v36.432c0,5.397,4.375,9.773,9.773,9.773h208.286c5.397,0,9.772-4.375,9.772-9.773V398H0
							z"/>
						<path style="fill:#CDBFBB;" d="M208.29,398v36.428c0,5.404-4.378,9.773-9.773,9.773h19.545c5.394,0,9.772-4.368,9.772-9.773
							V398H208.29z"/>
						<g>
							<g>
								<path style="fill:#2EA8FC;" d="M227.835,295.739V404.25c0,5.401-4.376,9.777-9.777,9.777H9.777
									c-5.401,0-9.777-4.376-9.777-9.777V295.739c0-5.401,4.376-9.767,9.777-9.767h208.281
									C223.459,285.973,227.835,290.338,227.835,295.739z"/>
								<g>
									<path style="fill:#0086F9;" d="M227.835,295.739V404.25c0,5.401-4.376,9.777-9.777,9.777h-9.767V295.739
										c0-5.391-4.376-9.767-9.777-9.767h19.544C223.459,285.973,227.835,290.338,227.835,295.739z"/>
								</g>
							</g>
						</g>
					</g>
					<g>
						<path style="fill:#52CC61;" d="M32.001,333.076c-4.267,0-7.726-3.459-7.726-7.726v-8.419c0-4.267,3.459-7.726,7.726-7.726
							s7.726,3.459,7.726,7.726v8.419C39.727,329.617,36.268,333.076,32.001,333.076z"/>
						<path style="fill:#52CC61;" d="M58.622,333.076c-4.267,0-7.726-3.459-7.726-7.726v-8.419c0-4.267,3.459-7.726,7.726-7.726
							s7.726,3.459,7.726,7.726v8.419C66.349,329.617,62.889,333.076,58.622,333.076z"/>
					</g>
					<g>
						<path style="fill:#52CC61;" d="M32.001,368.674c-4.267,0-7.726-3.459-7.726-7.726v-8.419c0-4.267,3.459-7.726,7.726-7.726
							s7.726,3.459,7.726,7.726v8.419C39.727,365.215,36.268,368.674,32.001,368.674z"/>
						<path style="fill:#52CC61;" d="M58.622,368.674c-4.267,0-7.726-3.459-7.726-7.726v-8.419c0-4.267,3.459-7.726,7.726-7.726
							s7.726,3.459,7.726,7.726v8.419C66.349,365.215,62.889,368.674,58.622,368.674z"/>
					</g>
				</g>
				<path style="fill:#EFE2DD;" d="M166.758,505.19H61.077c-6.545,0-11.851-5.306-11.851-11.851v0
					c0-6.545,5.306-11.851,11.851-11.851h105.681c6.545,0,11.851,5.306,11.851,11.851v0
					C178.61,499.883,173.304,505.19,166.758,505.19z"/>
				<path style="fill:#CDBFBB;" d="M178.609,493.334c0,3.277-1.321,6.247-3.467,8.382c-2.146,2.156-5.105,3.478-8.382,3.478h-17.916
					c3.266,0,6.236-1.321,8.382-3.478c2.135-2.135,3.467-5.105,3.467-8.382c0-6.543-5.306-11.849-11.849-11.849h17.916
					C173.303,481.485,178.609,486.791,178.609,493.334z"/>
			</g>
		</g>
		<g>
			<g>
				<path style="fill:#5B5555;" d="M432.157,45.278c0,0,61.01-1.619,61.01,75.327v103.697c0,16.969-13.756,30.726-30.726,30.726
					h-66.044V45.278H432.157z"/>
			</g>
			<path style="fill:#5B5555;" d="M333.602,45.278c0,0-61.01-1.619-61.01,75.327v103.697c0,16.969,13.756,30.726,30.726,30.726
				h48.945V45.278H333.602z"/>
			<path style="fill:#FF872A;" d="M512,334.508v159.287c0,6.294-5.11,11.404-11.404,11.404H267.033
				c-6.294,0-11.394-5.11-11.394-11.404V334.508c0-39.786,25.085-73.699,60.296-86.793c10.044-3.75,20.933-5.79,32.286-5.79h71.196
				c11.363,0,22.242,2.05,32.296,5.79C486.925,260.819,512,294.732,512,334.508z"/>
			<path style="fill:#FDD1A7;" d="M255.64,409.791v84.003c0,6.293,5.107,11.399,11.399,11.399h40.434v-95.402H255.64z"/>
			<path style="fill:#F36717;" d="M511.999,334.509v159.285c0,6.293-5.107,11.399-11.399,11.399h-13.349V334.509
				c0-51.138-41.448-92.586-92.586-92.586h24.748C470.551,241.922,511.999,283.371,511.999,334.509z"/>
			<path style="fill:#FDD1A7;" d="M511.999,409.791v84.003c0,6.293-5.107,11.399-11.399,11.399h-40.434v-95.402H511.999z"/>
			<path style="fill:#FFBC8A;" d="M511.999,409.791v84.003c0,6.293-5.107,11.399-11.399,11.399h-13.349v-95.402H511.999z"/>
			<path style="fill:#F36717;" d="M460.172,369.091v136.108h-15.453V369.091c0-4.275,3.461-7.726,7.726-7.726
				C456.71,361.364,460.172,364.815,460.172,369.091z"/>
			<path style="fill:#F36717;" d="M322.921,369.091v136.108h-15.453V369.091c0-4.275,3.461-7.726,7.726-7.726
				C319.459,361.364,322.921,364.815,322.921,369.091z"/>
			<g>
				<circle style="fill:#FFBC8A;" cx="475.146" cy="161.979" r="23.551"/>
			</g>
			<g>
				<circle style="fill:#FFBC8A;" cx="292.493" cy="161.979" r="23.551"/>
			</g>
			<path style="fill:#F36717;" d="M451.714,247.715c-16.431,19.357-40.908,31.482-67.889,31.482s-51.468-12.125-67.889-31.482
				c10.044-3.75,20.933-5.79,32.286-5.79h71.196C430.78,241.925,441.659,243.975,451.714,247.715z"/>
			<path style="fill:#FDD1A7;" d="M332.497,105.041c-19.293,0-34.237,16.881-31.898,36.031l7.133,58.402
				c4.697,38.454,37.347,67.36,76.087,67.36l0,0c38.74,0,71.391-28.905,76.087-67.36l7.133-58.402
				c2.339-19.151-12.605-36.031-31.898-36.031H332.497z"/>
			<g>
				<g>
					<circle style="fill:#DAEDFF;" cx="332.375" cy="174.191" r="39.183"/>
					<circle style="fill:#DAEDFF;" cx="435.261" cy="174.191" r="39.183"/>
				</g>
			</g>
			<g>
				<line style="fill:#F69583;" x1="437.088" y1="194.31" x2="437.088" y2="194.409"/>
			</g>
			<g>
				<g>
					<path style="fill:#0057A1;" d="M343.961,182.089c-4.267,0-7.726-3.459-7.726-7.726s3.459-7.776,7.726-7.776
						c4.267,0,7.726,3.41,7.726,7.677v0.099C351.688,178.63,348.228,182.089,343.961,182.089z"/>
					<path style="fill:#0057A1;" d="M423.679,182.089c-4.267,0-7.726-3.459-7.726-7.726s3.459-7.776,7.726-7.776
						c4.267,0,7.726,3.41,7.726,7.677v0.099C431.405,178.63,427.946,182.089,423.679,182.089z"/>
				</g>
			</g>
			<path style="fill:#F69583;" d="M383.82,231.411c-13.698,0-25.91-9.198-29.698-22.367c-1.179-4.101,1.189-8.382,5.29-9.561
				c4.102-1.179,8.382,1.189,9.561,5.29c1.894,6.587,7.999,11.186,14.847,11.186s12.953-4.6,14.847-11.186
				c1.18-4.1,5.459-6.47,9.561-5.29c4.101,1.18,6.469,5.46,5.29,9.561C409.73,222.214,397.518,231.411,383.82,231.411z"/>
			<path style="fill:#2EA8FC;" d="M435.262,127.282c-20.57,0-38.078,13.314-44.389,31.773h-14.107
				c-6.312-18.459-23.819-31.773-44.389-31.773c-25.866,0-46.909,21.043-46.909,46.909c0,25.866,21.043,46.909,46.909,46.909
				c25.76,0,46.73-20.872,46.901-46.593h9.083c0.172,25.72,21.141,46.593,46.901,46.593c25.866,0,46.909-21.043,46.909-46.909
				C482.171,148.325,461.128,127.282,435.262,127.282z M332.375,205.648c-17.345,0-31.456-14.112-31.456-31.457
				s14.111-31.456,31.456-31.456c17.345,0,31.457,14.111,31.457,31.456S349.72,205.648,332.375,205.648z M435.262,205.648
				c-17.345,0-31.457-14.112-31.457-31.457s14.112-31.456,31.457-31.456s31.457,14.111,31.457,31.456
				S452.607,205.648,435.262,205.648z"/>
			<path style="fill:#9E9797;" d="M384.074,112.01H278.872c-6.296,0-11.399-5.104-11.399-11.399V87.152
				c0-44.374,35.972-80.346,80.346-80.346h81.897c16.447,0,29.78,13.333,29.78,29.78v0
				C459.497,78.242,425.729,112.01,384.074,112.01z"/>
			<path style="fill:#756F6F;" d="M459.495,36.586c0,20.835-8.439,39.686-22.095,53.331c-13.645,13.656-32.495,22.094-53.331,22.094
				h-23.716c20.824,0,39.675-8.439,53.331-22.094c13.645-13.645,22.083-32.495,22.083-53.331c0-16.446-13.327-29.784-29.773-29.784
				h23.728C446.168,6.802,459.495,20.14,459.495,36.586z"/>
			<rect x="307.478" y="409.134" style="fill:#2EA8FC;" width="152.683" height="96.054"/>
			<rect x="444.719" y="409.134" style="fill:#0086F9;" width="15.442" height="96.054"/>
			<rect x="307.478" y="409.134" style="fill:#0086F9;" width="15.442" height="96.054"/>
			<rect x="307.478" y="409.134" style="fill:#EFE2DD;" width="152.683" height="35.067"/>
			<rect x="444.719" y="409.134" style="fill:#CDBFBB;" width="15.442" height="35.067"/>
			<rect x="307.478" y="409.134" style="fill:#CDBFBB;" width="15.442" height="35.067"/>
		</g>
	</g>
	<g>
		<g>
			<path style="fill:#93DD96;" d="M350.126,359.212c-1.977,0-3.955-0.755-5.463-2.263l-17.155-17.155
				c-3.018-3.017-3.018-7.909,0-10.927l15.79-15.791c3.017-3.017,7.909-3.018,10.927,0c3.018,3.017,3.018,7.909,0,10.927
				l-10.327,10.327l11.692,11.692c3.018,3.017,3.018,7.909,0,10.927C354.081,358.457,352.104,359.212,350.126,359.212z"/>
			<path style="fill:#93DD96;" d="M419.295,359.212c-1.977,0-3.955-0.754-5.463-2.263c-3.018-3.018-3.018-7.909,0-10.927
				l10.327-10.327l-11.692-11.692c-3.018-3.017-3.018-7.909,0-10.927c3.017-3.017,7.909-3.017,10.927,0l17.155,17.155
				c1.449,1.449,2.263,3.414,2.263,5.463s-0.814,4.015-2.263,5.463l-15.791,15.79C423.25,358.457,421.272,359.212,419.295,359.212z"
				/>
		</g>
		<path style="fill:#93DD96;" d="M374.649,359.213c-1.244,0-2.507-0.301-3.677-0.937c-3.751-2.035-5.142-6.725-3.107-10.475
			l18.745-34.554c2.034-3.751,6.724-5.144,10.475-3.107c3.751,2.035,5.142,6.725,3.107,10.475l-18.745,34.554
			C380.048,357.749,377.391,359.213,374.649,359.213z"/>
	</g>
</g>
<g>
</g>
<g>
</g>
<g>
</g>
<g>
</g>
<g>
</g>
<g>
</g>
<g>
</g>
<g>
</g>
<g>
</g>
<g>
</g>
<g>
</g>
<g>
</g>
<g>
</g>
<g>
</g>
<g>
</g>
</svg>
