<?xml version="1.0" encoding="iso-8859-1"?>
<!-- Generator: Adobe Illustrator 23.0.3, SVG Export Plug-In . SVG Version: 6.00 Build 0)  -->
<svg version="1.1" id="Capa_1" xmlns="http://www.w3.org/2000/svg" xmlns:xlink="http://www.w3.org/1999/xlink" x="0px" y="0px"
	 viewBox="0 0 512 512" style="enable-background:new 0 0 512 512;" xml:space="preserve">
<g>
	<g>
		<path style="fill:#E84649;" d="M405.49,330.379v157.824c0,5.038-4.09,9.127-9.138,9.127H98.145c-5.048,0-9.138-4.09-9.138-9.127
			V330.379c0-31.06,18.708-57.752,45.472-69.414c8.674-3.781,18.193-5.996,28.196-6.253c0.67-0.021,1.35-0.031,2.019-0.031h165.107
			c0.68,0,1.36,0.01,2.029,0.031c3.441,0.082,6.82,0.402,10.127,0.948c6.325,1.02,12.372,2.812,18.069,5.305
			C386.781,272.627,405.49,299.319,405.49,330.379z"/>
		<path style="fill:#D73337;" d="M254.98,313.958V497.33h-15.453V313.958c0-4.265,3.451-7.726,7.726-7.726
			C251.519,306.232,254.98,309.693,254.98,313.958z"/>
		<path style="fill:#D73337;" d="M405.496,330.373v157.827c0,5.044-4.096,9.139-9.139,9.139h-30.326
			c5.043,0,9.129-4.095,9.129-9.139V330.373c0-31.053-18.708-57.747-45.46-69.408c-5.699-2.483-17.92-4.291-24.244-5.298
			c-3.959-0.655-1.844-0.977-5.978-0.977h30.326c4.135,0,8.201,0.323,12.159,0.977c6.324,1.007,12.365,2.815,18.063,5.298
			C386.778,272.626,405.496,299.319,405.496,330.373z"/>
	</g>
	<g>
		<circle style="fill:#FFBC8A;" cx="340.174" cy="179.705" r="21.136"/>
		<circle style="fill:#FFBC8A;" cx="154.325" cy="179.705" r="21.136"/>
		<path style="fill:#D73337;" d="M331.832,254.712c-14.824,32.018-47.234,54.023-84.578,54.023s-69.754-22.005-84.578-54.023
			c0.67-0.021,1.35-0.031,2.019-0.031h165.107C330.482,254.681,331.162,254.692,331.832,254.712z"/>
		<path style="fill:#FDD1A7;" d="M247.249,296.369L247.249,296.369c-42.999,0-78.472-33.664-80.72-76.605l-5.483-104.742h172.405
			l-5.483,104.742C325.721,262.705,290.248,296.369,247.249,296.369z"/>
		<g>
			<g>
				<path style="fill:#0097FA;" d="M209.57,214.722c-4.267,0-7.726-3.459-7.726-7.726s3.459-7.773,7.726-7.773
					s7.726,3.413,7.726,7.68v0.093C217.297,211.263,213.838,214.722,209.57,214.722z"/>
				<path style="fill:#0097FA;" d="M284.929,214.722c-4.268,0-7.726-3.459-7.726-7.726s3.459-7.773,7.726-7.773
					s7.726,3.413,7.726,7.68v0.093C292.655,211.263,289.196,214.722,284.929,214.722z"/>
			</g>
		</g>
		<path style="fill:#F5A871;" d="M247.25,261.347c-13.137,0-24.848-8.82-28.48-21.45c-1.179-4.101,1.189-8.381,5.29-9.561
			c4.1-1.182,8.381,1.189,9.561,5.29c1.738,6.046,7.343,10.268,13.629,10.268c6.286,0,11.89-4.222,13.629-10.268
			c1.179-4.101,5.459-6.468,9.561-5.29c4.101,1.18,6.469,5.46,5.29,9.561C272.098,252.527,260.386,261.347,247.25,261.347z"/>
		<path style="fill:#756F6F;" d="M155.549,43.217v125.256c0,8.057,6.532,14.589,14.589,14.589h0c3.098,0,5.839-2.01,6.77-4.965v0
			c4.091-12.984,16.13-21.813,29.743-21.813h81.196c13.613,0,25.652,8.83,29.743,21.813v0c0.931,2.955,3.672,4.965,6.77,4.965h0
			c8.057,0,14.589-6.532,14.589-14.589V43.217C338.949,19.349,319.6,0,295.732,0h-96.965C174.898,0,155.549,19.349,155.549,43.217z"
			/>
		<path style="fill:#5B5555;" d="M338.952,43.213v125.259c0,4.027-1.632,7.683-4.281,10.322c-2.639,2.639-6.285,4.271-10.312,4.271
			c-1.554,0-3.01-0.498-4.193-1.378c-1.192-0.87-2.111-2.111-2.571-3.587c-0.44-1.398-0.968-2.747-1.593-4.037
			c0.714-1.72,1.104-3.607,1.104-5.591V43.213C317.107,19.353,297.763,0,273.894,0h21.836C319.599,0,338.952,19.353,338.952,43.213z
			"/>
		<path style="fill:#E8B76B;" d="M260.036,313.956h-25.574c-5.398,0-9.774-4.376-9.774-9.774v-16.653
			c0-5.398,4.376-9.774,9.774-9.774h25.574c5.398,0,9.774,4.376,9.774,9.774v16.653C269.811,309.58,265.435,313.956,260.036,313.956
			z"/>
		<path style="fill:#C99D5C;" d="M269.81,287.533v16.646c0,5.405-4.379,9.774-9.774,9.774h-19.617c5.395,0,9.774-4.369,9.774-9.774
			v-16.646c0-5.405-4.379-9.774-9.774-9.774h19.617C265.431,277.758,269.81,282.127,269.81,287.533z"/>
	</g>
	<g>
		<path style="fill:#D73337;" d="M150.922,369.928V497.33h-15.453V369.928c0-4.265,3.461-7.726,7.726-7.726
			C147.47,362.201,150.922,365.663,150.922,369.928z"/>
		<path style="fill:#D73337;" d="M359.028,369.928V497.33h-15.453V369.928c0-4.265,3.451-7.726,7.726-7.726
			C355.567,362.201,359.028,365.663,359.028,369.928z"/>
	</g>
	<g>
		<path style="fill:#E8B76B;" d="M272.657,425.446h-31.756c-5.398,0-9.774-4.376-9.774-9.774v-8.008
			c0-5.398,4.376-9.774,9.774-9.774h31.756c5.398,0,9.774,4.376,9.774,9.774v8.008C282.432,421.07,278.056,425.446,272.657,425.446z
			"/>
		<path style="fill:#C99D5C;" d="M282.436,407.667v8.005c0,5.395-4.379,9.774-9.774,9.774h-18.454c5.405,0,9.774-4.379,9.774-9.774
			v-8.005c0-5.405-4.369-9.774-9.774-9.774h18.454C278.057,397.892,282.436,402.262,282.436,407.667z"/>
	</g>
	<g>
		<path style="fill:#E8B76B;" d="M272.66,372.26h-31.756c-5.398,0-9.774-4.376-9.774-9.774v-8.008c0-5.398,4.376-9.774,9.774-9.774
			h31.756c5.398,0,9.774,4.376,9.774,9.774v8.008C282.434,367.884,278.058,372.26,272.66,372.26z"/>
		<path style="fill:#C99D5C;" d="M282.438,354.48v8.005c0,5.395-4.379,9.774-9.774,9.774H254.21c5.405,0,9.774-4.379,9.774-9.774
			v-8.005c0-5.405-4.369-9.774-9.774-9.774h18.454C278.06,344.706,282.438,349.075,282.438,354.48z"/>
	</g>
	<g>
		<path style="fill:#E8B76B;" d="M272.657,479.205h-31.756c-5.398,0-9.774-4.376-9.774-9.774v-8.008
			c0-5.398,4.376-9.774,9.774-9.774h31.756c5.398,0,9.774,4.376,9.774,9.774v8.008C282.432,474.829,278.056,479.205,272.657,479.205
			z"/>
		<path style="fill:#C99D5C;" d="M282.436,461.426v8.005c0,5.395-4.379,9.774-9.774,9.774h-18.454c5.405,0,9.774-4.379,9.774-9.774
			v-8.005c0-5.405-4.369-9.774-9.774-9.774h18.454C278.057,451.651,282.436,456.021,282.436,461.426z"/>
	</g>
	<path style="fill:#756F6F;" d="M136.413,274.472l-29.733,35.294c-3.859,4.581-10.702,5.166-15.283,1.307l-5.612-4.728
		c-4.581-3.859-5.166-10.702-1.307-15.283l29.733-35.294c3.859-4.581,10.702-5.166,15.283-1.307l5.612,4.728
		C139.688,263.048,140.273,269.891,136.413,274.472z"/>
	<path style="fill:#5B5555;" d="M358.085,274.472l29.733,35.294c3.859,4.581,10.702,5.166,15.283,1.307l5.612-4.728
		c4.581-3.859,5.166-10.702,1.307-15.283l-29.733-35.294c-3.859-4.581-10.702-5.166-15.283-1.307l-5.612,4.728
		C354.811,263.048,354.226,269.891,358.085,274.472z"/>
	<g>
		<path style="fill:#E0D3CE;" d="M422.115,53.093v189.633h-27.368V53.093c0-5.395,4.369-9.774,9.774-9.774h7.819
			C417.736,43.319,422.115,47.698,422.115,53.093z"/>
		<rect x="394.745" y="165.173" style="fill:#E8B76B;" width="27.368" height="37.204"/>
		<path style="fill:#E84649;" d="M422.115,53.093v22.882h-27.368V53.093c0-5.395,4.369-9.774,9.774-9.774h7.819
			C417.736,43.319,422.115,47.698,422.115,53.093z"/>
		<path style="fill:#EFE2DD;" d="M420.298,512h-23.739c-5.398,0-9.774-4.376-9.774-9.774V236.851c0-5.398,4.376-9.774,9.774-9.774
			h23.739c5.398,0,9.774,4.376,9.774,9.774v265.374C430.073,507.624,425.697,512,420.298,512z"/>
		<path style="fill:#CDBFBB;" d="M430.071,236.851v265.374c0,5.395-4.379,9.774-9.774,9.774h-18.708
			c5.395,0,9.774-4.379,9.774-9.774V236.851c0-5.395-4.379-9.774-9.774-9.774h18.708
			C425.693,227.077,430.071,231.456,430.071,236.851z"/>
		<rect x="386.785" y="293.543" style="fill:#E8B76B;" width="43.288" height="29.961"/>
		<rect x="411.363" y="293.543" style="fill:#C99D5C;" width="18.708" height="29.958"/>
	</g>
</g>
<g>
</g>
<g>
</g>
<g>
</g>
<g>
</g>
<g>
</g>
<g>
</g>
<g>
</g>
<g>
</g>
<g>
</g>
<g>
</g>
<g>
</g>
<g>
</g>
<g>
</g>
<g>
</g>
<g>
</g>
</svg>
