<?xml version="1.0" encoding="iso-8859-1"?>
<!-- Generator: Adobe Illustrator 23.0.3, SVG Export Plug-In . SVG Version: 6.00 Build 0)  -->
<svg version="1.1" id="Capa_1" xmlns="http://www.w3.org/2000/svg" xmlns:xlink="http://www.w3.org/1999/xlink" x="0px" y="0px"
	 viewBox="0 0 512 512" style="enable-background:new 0 0 512 512;" xml:space="preserve">
<g>
	<path style="fill:#B9ACAC;" d="M439.655,297.888c-35.33,1.069-62.754-19.781-72.353-28.208L329.4,307.582
		c13.99,12.898,56.865,47.049,115.502,43.661c5.644-0.326,9.825-5.389,9.086-10.995l-4.466-33.905
		C448.874,301.42,444.619,297.738,439.655,297.888z"/>
	<path style="fill:#756F6F;" d="M268.743,393.356l-46.124-46.124l122.454-122.454l38.544,38.544c4.186,4.186,4.186,10.973,0,15.16
		L268.743,393.356z"/>
	
		<rect x="262.698" y="199.429" transform="matrix(0.7071 0.7071 -0.7071 0.7071 284.7944 -115.7855)" style="fill:#B9ACAC;" width="38.929" height="172.911"/>
	<path style="fill:#B9ACAC;" d="M395.265,139.361c-3.839,0-7.168-2.86-7.657-6.769l-4.129-33.012
		c-0.296-2.366,0.517-4.736,2.203-6.422L402.7,76.14c1.45-1.449,3.414-2.263,5.464-2.263c2.049,0,4.014,0.814,5.464,2.263
		l30.979,30.979c3.017,3.017,3.017,7.909,0,10.927c-3.019,3.018-7.91,3.018-10.928,0L408.164,92.53l-8.882,8.883l3.66,29.262
		c0.529,4.234-2.474,8.096-6.708,8.625C395.908,139.341,395.585,139.361,395.265,139.361z"/>
	<path style="fill:#756F6F;" d="M432.729,154.604l-18.016-18.016l66.433-66.433c3.9-3.9,10.223-3.9,14.123,0l3.893,3.893
		c3.9,3.9,3.9,10.223,0,14.123L432.729,154.604z"/>
	<path style="fill:#756F6F;" d="M448.345,160.657l-4.677,4.677l-10.93,10.93l-5.079,5.079l-10.92,10.92l-5.079,5.079l-10.93,10.93
		l-5.068,5.079l-10.93,10.92l-5.079,5.079l-10.93,10.93l-4.677,4.677c-2.792,2.792-7.314,2.792-10.106,0l-12.764-12.764
		l-10.92-10.92h-0.01l-7.644-7.654c-2.792-2.792-2.792-7.314,0-10.106l15.092-15.092l6.099-6.088l9.921-9.921l6.088-6.088l9.91-9.91
		l6.088-6.088l9.921-9.921l6.089-6.088l9.91-9.91l5.192-5.192c2.781-2.792,7.314-2.792,10.106,0l7.644,7.644l10.93,10.93
		l12.754,12.764C451.137,153.342,451.137,157.865,448.345,160.657z"/>
	<path d="M359.402,239.493h0.01H359.402z"/>
	<path style="fill:#5B5555;" d="M443.668,176.264c-1.504,1.504-3.482,2.256-5.46,2.256s-3.956-0.752-5.47-2.256l-17.812-17.822
		l-5.079,5.079l17.812,17.822c3.018,3.008,3.018,7.901,0,10.92c-1.504,1.514-3.482,2.266-5.46,2.266
		c-1.978,0-3.956-0.752-5.46-2.266l-17.822-17.812l-5.068,5.079l17.812,17.812c3.018,3.018,3.018,7.912,0,10.93
		c-1.514,1.504-3.492,2.256-5.46,2.256c-1.978,0-3.956-0.752-5.47-2.256l-17.812-17.822l-5.079,5.079l17.822,17.822
		c3.008,3.008,3.008,7.902,0,10.92c-1.514,1.514-3.492,2.266-5.47,2.266c-1.978,0-3.956-0.752-5.46-2.266l-17.822-17.812
		l-5.068,5.079l17.812,17.812c3.018,3.018,3.018,7.912,0,10.93c-1.504,1.504-3.482,2.256-5.46,2.256
		c-1.978,0-3.956-0.752-5.47-2.256l-17.812-17.822l-9.735,9.735l-10.92-10.92l9.725-9.735l-10.405-10.415
		c-0.814-0.824-1.411-1.782-1.782-2.802c-1.01-2.73-0.422-5.924,1.782-8.118c2.194-2.194,5.388-2.792,8.118-1.782
		c1.03,0.361,1.988,0.958,2.812,1.782l10.405,10.405l5.079-5.079l-10.415-10.405c-0.824-0.814-1.422-1.772-1.782-2.792
		c-1.01-2.74-0.422-5.934,1.782-8.138c2.205-2.205,5.398-2.792,8.138-1.782c1.02,0.361,1.978,0.958,2.792,1.782l10.405,10.415
		l5.079-5.079l-10.405-10.415c-0.824-0.814-1.422-1.772-1.782-2.792c-1.01-2.74-0.422-5.934,1.782-8.128
		c2.194-2.194,5.388-2.792,8.128-1.782c1.02,0.361,1.988,0.968,2.802,1.782l10.405,10.405l5.079-5.079l-10.415-10.405
		c-0.814-0.814-1.411-1.772-1.782-2.792c-1.02-2.73-0.422-5.934,1.782-8.138c2.204-2.205,5.408-2.802,8.138-1.782
		c1.02,0.371,1.978,0.968,2.792,1.782l10.405,10.415l5.079-5.079l-10.405-10.415c-0.814-0.824-1.411-1.772-1.782-2.792
		c-1.02-2.73-0.423-5.924,1.782-8.128c2.204-2.205,5.398-2.792,8.128-1.782c1.02,0.361,1.978,0.958,2.802,1.782l10.405,10.405
		l9.735-9.735l10.93,10.93l-9.735,9.735l17.812,17.812C446.686,168.352,446.686,173.246,443.668,176.264z"/>
	<line style="fill:#756F6F;" x1="334.955" y1="321.638" x2="311.159" y2="297.843"/>
	<path style="fill:#8EC737;" d="M347.096,316.295v168.144c0,5.373-4.361,9.733-9.733,9.733H19.646c-5.373,0-9.733-4.361-9.733-9.733
		V316.295c0-33.084,19.934-61.525,48.443-73.954c9.86-4.302,20.751-6.687,32.198-6.687h175.901c4.409,0,8.741,0.35,12.955,1.041
		c6.736,1.08,13.179,2.998,19.243,5.645C327.162,254.77,347.096,283.211,347.096,316.295z"/>
	<path style="fill:#7AA82D;" d="M347.097,316.299V484.44c0,5.367-4.357,9.735-9.735,9.735h-25.401c5.367,0,9.735-4.367,9.735-9.735
		V316.299c0-33.086-19.935-61.527-48.445-73.955c-6.06-2.654-12.507-4.565-19.241-5.645c-4.219-0.693-8.546-1.05-12.953-1.05h25.401
		c4.407,0,8.734,0.356,12.953,1.05c6.734,1.079,13.181,2.991,19.241,5.645C327.162,254.772,347.097,283.213,347.097,316.299z"/>
	<path style="fill:#756F6F;" d="M298.65,244.699v249.469h-240.3V244.699c0-7.5,6.088-13.578,13.588-13.578h213.134
		C292.571,231.121,298.65,237.199,298.65,244.699z"/>
	<g>
		<g>
			<path style="fill:#B9ACAC;" d="M129.262,453.607v40.564H88.104v-40.564c0-3.942,3.192-7.144,7.134-7.144h26.881
				C126.06,446.463,129.262,449.665,129.262,453.607z"/>
		</g>
	</g>
	<g>
		<g>
			<path style="fill:#B9ACAC;" d="M198.381,453.607v40.564h-41.148v-40.564c0-3.942,3.192-7.144,7.134-7.144h26.881
				C195.189,446.463,198.381,449.665,198.381,453.607z"/>
		</g>
	</g>
	<g>
		<g>
			<path style="fill:#B9ACAC;" d="M267.51,453.607v40.564h-41.158v-40.564c0-3.942,3.202-7.144,7.143-7.144h26.881
				C264.318,446.463,267.51,449.665,267.51,453.607z"/>
		</g>
	</g>
	<path style="fill:#B9ACAC;" d="M129.257,339.754v48.944c0,7.572-6.14,13.712-13.712,13.712h-13.732
		c-7.572,0-13.712-6.14-13.712-13.712v-48.944c0-3.946,3.194-7.139,7.139-7.139h26.888
		C126.063,332.615,129.257,335.808,129.257,339.754z"/>
	<rect x="88.101" y="351.58" style="fill:#7AA82D;" width="41.156" height="15.453"/>
	<path style="fill:#B9ACAC;" d="M198.382,339.754v48.944c0,7.572-6.14,13.712-13.712,13.712h-13.732
		c-7.572,0-13.712-6.14-13.712-13.712v-48.944c0-3.946,3.194-7.139,7.139-7.139h26.888
		C195.188,332.615,198.382,335.808,198.382,339.754z"/>
	<rect x="157.226" y="351.58" style="fill:#7AA82D;" width="41.156" height="15.453"/>
	<path style="fill:#B9ACAC;" d="M267.507,339.754v48.944c0,7.572-6.13,13.712-13.701,13.712h-13.743
		c-7.572,0-13.712-6.14-13.712-13.712v-48.944c0-3.946,3.204-7.139,7.139-7.139h26.888
		C264.314,332.615,267.507,335.808,267.507,339.754z"/>
	<rect x="226.351" y="351.58" style="fill:#7AA82D;" width="41.156" height="15.453"/>
	<g>
		<g>
			<circle style="fill:#FFBC8A;" cx="277.506" cy="157.112" r="22.518"/>
		</g>
		<g>
			<circle style="fill:#FFBC8A;" cx="79.503" cy="157.112" r="22.518"/>
		</g>
		<path style="fill:#5B5555;" d="M270.247,231.121c-14.361,36.829-50.149,62.645-91.738,62.645
			c-41.599,0-77.398-25.827-91.758-62.645H270.247z"/>
		<path style="fill:#FDD1A7;" d="M178.505,281.407L178.505,281.407c-45.811,0-83.604-35.866-85.999-81.614L86.665,85.28h183.68
			l-5.841,114.512C262.108,245.541,224.316,281.407,178.505,281.407z"/>
		<g>
			<g>
				<g>
					<g>
						<g>
							<line style="fill:none;" x1="228.602" y1="191.589" x2="228.602" y2="191.681"/>
						</g>
					</g>
				</g>
			</g>
		</g>
		<g>
			<g>
				<g>
					<path style="fill:#AA613C;" d="M138.361,193.914c-4.268,0-7.726-3.459-7.726-7.726s3.459-7.776,7.726-7.776
						c4.268,0,7.726,3.409,7.726,7.677v0.1C146.088,190.455,142.629,193.914,138.361,193.914z"/>
					<path style="fill:#AA613C;" d="M218.648,193.914c-4.268,0-7.726-3.459-7.726-7.726s3.459-7.776,7.726-7.776
						s7.726,3.409,7.726,7.677v0.1C226.374,190.455,222.915,193.914,218.648,193.914z"/>
				</g>
			</g>
			<path style="fill:#F5A871;" d="M178.504,243.589c-13.772,0-26.048-9.247-29.856-22.487c-1.179-4.101,1.189-8.381,5.29-9.561
				c4.1-1.175,8.381,1.189,9.561,5.29c1.914,6.656,8.085,11.305,15.005,11.305c6.922,0,13.092-4.649,15.006-11.305
				c1.179-4.102,5.457-6.469,9.561-5.29c4.101,1.18,6.469,5.46,5.29,9.561C204.553,234.342,192.276,243.589,178.504,243.589z"/>
		</g>
		<path style="fill:#8EC737;" d="M297.321,128.185c-12.002,19.852-60.946,36.396-119.511,36.396s-107.52-16.545-119.522-36.396
			c-2.699-4.471-1.37-10.281,2.998-13.155l11.899-7.829v-0.227c0.01-5.635,0.278-11.188,0.834-16.627
			C79.128,40.208,108.354,0,177.809,0c74.925,0,100.721,42.32,104.193,94.262c0.288,4.255,0.422,8.571,0.422,12.939l0.484,0.319
			l11.414,7.51C298.691,117.904,300.03,123.714,297.321,128.185z"/>
		<path style="fill:#7AA82D;" d="M297.325,128.184c-4.06,6.724-12.349,13.062-23.816,18.499c1.664-1.763,3.05-3.565,4.149-5.387
			c2.971-4.922,1.505-11.319-3.298-14.478l-10.206-6.708c-1.803-1.185-2.879-3.194-2.912-5.352
			C260.36,56.521,236.813,6.591,161.229,0.833c5.248-0.555,10.774-0.832,16.577-0.832c81.065,0,104.624,49.544,104.624,107.209
			l11.893,7.823C298.691,117.904,300.028,123.717,297.325,128.184z"/>
		<path style="fill:#7AA82D;" d="M282.908,107.52c-0.103,0.072-0.206,0.134-0.319,0.206c-6.676,4.131-14.793,7.86-24.127,11.105
			c-0.834,0.299-1.7,0.433-2.534,0.433c-3.204,0-6.191-1.999-7.304-5.192c-1.401-4.028,0.731-8.427,4.77-9.838
			c8.262-2.874,15.36-6.119,21.088-9.653c2.359-1.463,5.213-1.494,7.52-0.319c0.288,4.255,0.422,8.571,0.422,12.939L282.908,107.52z
			"/>
		<path style="fill:#7AA82D;" d="M117.317,114.597c-0.907,3.482-4.038,5.79-7.469,5.79c-0.649,0-1.298-0.082-1.947-0.247
			c-13.413-3.492-25.301-8.005-34.717-13.166c0.01-5.635,0.278-11.188,0.834-16.627c1.092,0.124,2.174,0.484,3.173,1.102
			c8.664,5.357,20.635,10.096,34.594,13.732C115.916,106.253,118.388,110.477,117.317,114.597z"/>
		<path style="fill:#FAC574;" d="M171.529,116.196l-18.821-24.174c-4.82-6.191,1.283-14.884,8.743-12.453l16.356,5.329l16.356-5.329
			c7.46-2.431,13.563,6.262,8.743,12.453l-18.821,24.174C180.9,120.288,174.714,120.288,171.529,116.196z"/>
	</g>
	<g>
		<g>
			<path style="fill:#B9ACAC;" d="M375.667,452.608c-4.268,0-7.726-3.459-7.726-7.726v-39.29c0-4.267,3.459-7.726,7.726-7.726
				s7.726,3.459,7.726,7.726v39.29C383.393,449.148,379.935,452.608,375.667,452.608z"/>
			<path style="fill:#9E9797;" d="M406.309,433.783c-2.654,0.001-5.238-1.369-6.676-3.825l-5.934-10.141h-25.37
				c-4.268,0-7.726-3.459-7.726-7.726s3.459-7.726,7.726-7.726h29.801c2.744,0,5.283,1.456,6.669,3.824l8.172,13.966
				c2.155,3.683,0.917,8.415-2.767,10.57C408.978,433.442,407.635,433.783,406.309,433.783z"/>
			<path style="fill:#CDBFBB;" d="M413.41,474.255c0,1.526-0.087,3.042-0.27,4.519C410.909,497.487,394.986,512,375.664,512
				c-19.312,0-35.235-14.513-37.465-33.226c-0.183-1.477-0.27-2.993-0.27-4.519c0-20.847,16.898-37.745,37.736-37.745
				C396.512,436.509,413.41,453.407,413.41,474.255z"/>
			<path style="fill:#9E9797;" d="M413.41,474.255c0,1.526-0.087,3.042-0.27,4.519C410.909,497.487,394.986,512,375.664,512
				c-3.92,0-7.706-0.599-11.259-1.709c13.953-4.365,24.43-16.608,26.206-31.517c0.183-1.477,0.27-2.993,0.27-4.519
				c0-16.927-11.133-31.247-26.477-36.036c3.553-1.11,7.338-1.709,11.259-1.709C396.512,436.509,413.41,453.407,413.41,474.255z"/>
			<path style="fill:#E84649;" d="M384.344,481.981h-14.043c-4.268,0-7.726-3.459-7.726-7.726c0-4.267,3.459-7.726,7.726-7.726
				h14.043c4.268,0,7.726,3.459,7.726,7.726C392.07,478.522,388.612,481.981,384.344,481.981z"/>
		</g>
		<g>
			<path style="fill:#B9ACAC;" d="M444.043,452.608c-4.268,0-7.726-3.459-7.726-7.726v-39.29c0-4.267,3.459-7.726,7.726-7.726
				c4.268,0,7.726,3.459,7.726,7.726v39.29C451.77,449.148,448.311,452.608,444.043,452.608z"/>
			<path style="fill:#9E9797;" d="M474.685,433.783c-2.654,0.001-5.238-1.369-6.676-3.825l-5.934-10.141h-25.37
				c-4.268,0-7.726-3.459-7.726-7.726s3.459-7.726,7.726-7.726h29.801c2.744,0,5.283,1.456,6.669,3.824l8.172,13.966
				c2.155,3.683,0.917,8.415-2.767,10.57C477.354,433.442,476.011,433.783,474.685,433.783z"/>
			<path style="fill:#CDBFBB;" d="M481.786,474.255c0,1.526-0.087,3.042-0.27,4.519C479.285,497.487,463.362,512,444.041,512
				c-19.312,0-35.235-14.513-37.465-33.226c-0.183-1.477-0.27-2.993-0.27-4.519c0-20.847,16.898-37.745,37.736-37.745
				C464.888,436.509,481.786,453.407,481.786,474.255z"/>
			<path style="fill:#9E9797;" d="M481.786,474.255c0,1.526-0.087,3.042-0.27,4.519C479.285,497.487,463.362,512,444.041,512
				c-3.92,0-7.706-0.599-11.259-1.709c13.953-4.365,24.43-16.608,26.206-31.517c0.183-1.477,0.27-2.993,0.27-4.519
				c0-16.927-11.133-31.247-26.477-36.036c3.553-1.11,7.338-1.709,11.259-1.709C464.888,436.509,481.786,453.407,481.786,474.255z"
				/>
			<path style="fill:#E84649;" d="M452.72,481.981h-14.043c-4.268,0-7.726-3.459-7.726-7.726c0-4.267,3.459-7.726,7.726-7.726
				h14.043c4.268,0,7.726,3.459,7.726,7.726C460.447,478.522,456.988,481.981,452.72,481.981z"/>
		</g>
	</g>
</g>
<g>
</g>
<g>
</g>
<g>
</g>
<g>
</g>
<g>
</g>
<g>
</g>
<g>
</g>
<g>
</g>
<g>
</g>
<g>
</g>
<g>
</g>
<g>
</g>
<g>
</g>
<g>
</g>
<g>
</g>
</svg>
