<?xml version="1.0" encoding="iso-8859-1"?>
<!-- Generator: Adobe Illustrator 23.0.3, SVG Export Plug-In . SVG Version: 6.00 Build 0)  -->
<svg version="1.1" id="Capa_1" xmlns="http://www.w3.org/2000/svg" xmlns:xlink="http://www.w3.org/1999/xlink" x="0px" y="0px"
	 viewBox="0 0 512 512" style="enable-background:new 0 0 512 512;" xml:space="preserve">
<g>
	<g>
		<path style="fill:#52CC61;" d="M154.341,463.793H11.44c-6.318,0-11.44-5.122-11.44-11.44V281.84c0-6.318,5.122-11.44,11.44-11.44
			h142.901c6.318,0,11.44,5.122,11.44,11.44v170.513C165.781,458.672,160.659,463.793,154.341,463.793z"/>
		<path style="fill:#00B232;" d="M165.785,281.837v170.517c0,6.315-5.125,11.44-11.44,11.44h-49.451
			c6.315,0,11.44-5.125,11.44-11.44V281.837c0-6.315-5.125-11.44-11.44-11.44h49.451
			C160.66,270.397,165.785,275.522,165.785,281.837z"/>
		<path style="fill:#FFF5F5;" d="M63.7,432.831H42.483c-3.414,0-6.181-2.767-6.181-6.181V310.073c0-3.414,2.767-6.181,6.181-6.181
			H63.7c3.414,0,6.181,2.767,6.181,6.181V426.65C69.881,430.064,67.113,432.831,63.7,432.831z"/>
	</g>
	<g>
		<path style="fill:#E84649;" d="M110.734,238.443H25.718c-4.43,0-8.02-3.591-8.02-8.02V110.882c0-4.43,3.591-8.02,8.02-8.02h85.016
			c4.43,0,8.02,3.591,8.02,8.02v119.541C118.754,234.852,115.164,238.443,110.734,238.443z"/>
		<path style="fill:#D73337;" d="M118.757,110.88v119.543c0,4.427-3.593,8.02-8.02,8.02H91.031c4.427,0,8.02-3.593,8.02-8.02V110.88
			c0-4.427-3.593-8.02-8.02-8.02h19.706C115.164,102.859,118.757,106.452,118.757,110.88z"/>
		<path style="fill:#FFF5F5;" d="M88.058,156.106H51.496c-3.414,0-6.181-2.767-6.181-6.181v-13.069c0-3.414,2.767-6.181,6.181-6.181
			h36.562c3.414,0,6.181,2.767,6.181,6.181v13.069C94.239,153.338,91.471,156.106,88.058,156.106z"/>
	</g>
	<g>
		<g>
			<path style="fill:#65BAFC;" d="M319.491,463.795h171.802c11.437,0,20.708-9.271,20.708-20.708v-54.49
				c0-11.437-9.271-20.708-20.708-20.708H319.491c-5.69,0-10.302,4.612-10.302,10.302v75.302
				C309.189,459.182,313.801,463.795,319.491,463.795z"/>
			<path style="fill:#0097FA;" d="M512,388.596v54.486c0,11.445-9.272,20.717-20.707,20.717h-21.387
				c11.435,0,20.707-9.272,20.707-20.717v-54.486c0-11.435-9.272-20.707-20.707-20.707h21.387
				C502.728,367.889,512,377.161,512,388.596z"/>
			<path style="fill:#FFF5F5;" d="M319.491,436.57h157.337c3.414,0,6.181-2.767,6.181-6.181v-29.094
				c0-3.414-2.767-6.181-6.181-6.181H319.491c-5.69,0-10.302,4.612-10.302,10.302v20.853
				C309.189,431.958,313.801,436.57,319.491,436.57z"/>
		</g>
		<g>
			<path style="fill:#E84649;" d="M501.698,367.889H329.897c-11.437,0-20.708-9.271-20.708-20.708v-54.49
				c0-11.437,9.271-20.708,20.708-20.708h171.802c5.69,0,10.302,4.612,10.302,10.302v75.302
				C512,363.277,507.388,367.889,501.698,367.889z"/>
			<path style="fill:#D73337;" d="M512,282.281v75.306c0,5.687-4.615,10.302-10.302,10.302h-21.387
				c5.687,0,10.302-4.615,10.302-10.302v-75.306c0-5.687-4.615-10.302-10.302-10.302h21.387
				C507.385,271.979,512,276.594,512,282.281z"/>
			<path style="fill:#FFF5F5;" d="M512,309.509v20.851c0,5.697-4.615,10.302-10.302,10.302H338.178v-41.454h163.521
				C507.385,299.207,512,303.822,512,309.509z"/>
			<path style="fill:#E0D3CE;" d="M512,309.509v20.851c0,5.697-4.615,10.302-10.302,10.302h-11.085v-41.454h11.085
				C507.385,299.207,512,303.822,512,309.509z"/>
		</g>
		<g>
			<path style="fill:#FF9846;" d="M319.491,271.984h171.802c11.437,0,20.708-9.271,20.708-20.708v-54.49
				c0-11.437-9.271-20.708-20.708-20.708H319.491c-5.69,0-10.302,4.612-10.302,10.302v75.302
				C309.189,267.372,313.801,271.984,319.491,271.984z"/>
			<path style="fill:#F36717;" d="M512,196.786v54.486c0,11.445-9.272,20.707-20.707,20.707h-21.387
				c11.435,0,20.707-9.261,20.707-20.707v-54.486c0-11.435-9.272-20.707-20.707-20.707h21.387
				C502.728,176.079,512,185.351,512,196.786z"/>
			<path style="fill:#FFF5F5;" d="M319.491,244.759h157.337c3.414,0,6.181-2.767,6.181-6.181v-29.094
				c0-3.414-2.767-6.181-6.181-6.181H319.491c-5.69,0-10.302,4.612-10.302,10.302v20.853
				C309.189,240.147,313.801,244.759,319.491,244.759z"/>
		</g>
		<g>
			<path style="fill:#8EC737;" d="M319.491,176.079h171.802c11.437,0,20.708-9.271,20.708-20.708v-54.49
				c0-11.437-9.271-20.708-20.708-20.708H319.491c-5.69,0-10.302,4.612-10.302,10.302v75.302
				C309.189,171.466,313.801,176.079,319.491,176.079z"/>
			<path style="fill:#7AA82D;" d="M512,100.876v54.497c0,11.435-9.272,20.706-20.707,20.706h-21.387
				c11.435,0,20.707-9.272,20.707-20.706v-54.497c0-11.435-9.272-20.706-20.707-20.706h21.387C502.728,80.17,512,89.441,512,100.876
				z"/>
			<path style="fill:#FFF5F5;" d="M319.491,148.854h157.337c3.414,0,6.181-2.767,6.181-6.181v-29.094
				c0-3.414-2.767-6.181-6.181-6.181H319.491c-5.69,0-10.302,4.612-10.302,10.302v20.853
				C309.189,144.242,313.801,148.854,319.491,148.854z"/>
		</g>
	</g>
	<g>
		<g>
			<path style="fill:#C99D5C;" d="M295.505,64.608c0,0,55.414-1.471,55.414,68.418v94.186c0,15.413-12.495,27.908-27.908,27.908
				h-59.987V64.608H295.505z"/>
		</g>
		<path style="fill:#C99D5C;" d="M205.989,64.608c0,0-55.414-1.471-55.414,68.418v94.186c0,15.413,12.495,27.908,27.908,27.908
			h44.456V64.608H205.989z"/>
		<path style="fill:#A4E540;" d="M368.022,327.308v144.679c0,5.718-4.636,10.353-10.353,10.353H145.534
			c-5.718,0-10.364-4.636-10.364-10.353V327.308c0-35.706,22.252-66.21,53.642-78.407c9.447-3.678,19.718-5.686,30.462-5.686h64.654
			c10.745,0,21.005,2.009,30.452,5.686C345.77,261.088,368.022,291.592,368.022,327.308z"/>
		<path style="fill:#8EC737;" d="M320.943,366.373V482.34H305.49V366.373c0-4.265,3.461-7.726,7.726-7.726
			C317.481,358.646,320.943,362.108,320.943,366.373z"/>
		<path style="fill:#8EC737;" d="M197.712,366.373V482.34H182.26V366.373c0-4.265,3.461-7.726,7.726-7.726
			C194.251,358.646,197.712,362.108,197.712,366.373z"/>
		<rect x="182.26" y="432.964" style="fill:#AC5E33;" width="138.683" height="49.377"/>
		<rect x="305.49" y="432.964" style="fill:#904D29;" width="15.453" height="49.377"/>
		<rect x="182.26" y="432.964" style="fill:#904D29;" width="15.453" height="49.377"/>
		<path style="fill:#FDD1A7;" d="M135.178,395.686v76.298c0,5.715,4.639,10.354,10.354,10.354h36.725v-86.652H135.178z"/>
		<path style="fill:#8EC737;" d="M368.023,327.309v144.675c0,5.715-4.639,10.354-10.354,10.354h-12.124V327.309
			c0-46.448-37.647-84.094-84.094-84.094h22.478C330.377,243.215,368.023,280.862,368.023,327.309z"/>
		<path style="fill:#FDD1A7;" d="M368.023,395.686v76.298c0,5.715-4.639,10.354-10.354,10.354h-36.725v-86.652H368.023z"/>
		<path style="fill:#FFBC8A;" d="M368.023,395.686v76.298c0,5.715-4.639,10.354-10.354,10.354h-12.124v-86.652H368.023z"/>
		<g>
			<circle style="fill:#FFBC8A;" cx="334.551" cy="170.604" r="21.391"/>
		</g>
		<g>
			<circle style="fill:#FFBC8A;" cx="168.651" cy="170.604" r="21.391"/>
		</g>
		<path style="fill:#8EC737;" d="M314.38,248.901c-15.123,17.997-37.787,29.298-62.779,29.298s-47.656-11.301-62.789-29.298
			c9.447-3.678,19.718-5.686,30.462-5.686h64.654C294.673,243.215,304.934,245.223,314.38,248.901z"/>
		<path style="fill:#FDD1A7;" d="M204.986,118.888c-17.523,0-31.097,15.332-28.972,32.726l6.479,53.045
			c4.266,34.927,33.922,61.181,69.109,61.181l0,0c35.187,0,64.843-26.254,69.109-61.181l6.479-53.045
			c2.125-17.394-11.449-32.726-28.972-32.726H204.986z"/>
		<g>
			<g>
				<circle style="fill:#DAEDFF;" cx="204.875" cy="181.696" r="35.589"/>
				<circle style="fill:#DAEDFF;" cx="298.324" cy="181.696" r="35.589"/>
			</g>
		</g>
		<g>
			<line style="fill:#F69583;" x1="299.983" y1="199.97" x2="299.983" y2="200.06"/>
		</g>
		<g>
			<g>
				<path style="fill:#904D29;" d="M215.398,189.578c-4.267,0-7.726-3.459-7.726-7.726s3.459-7.771,7.726-7.771
					s7.726,3.414,7.726,7.682v0.09C223.125,186.119,219.665,189.578,215.398,189.578z"/>
				<path style="fill:#904D29;" d="M287.803,189.578c-4.267,0-7.726-3.459-7.726-7.726s3.459-7.771,7.726-7.771
					c4.267,0,7.726,3.414,7.726,7.682v0.09C295.53,186.119,292.07,189.578,287.803,189.578z"/>
			</g>
		</g>
		<path style="fill:#F69583;" d="M251.601,234.377c-12.756,0-24.128-8.565-27.655-20.829c-1.179-4.101,1.189-8.381,5.29-9.561
			c4.1-1.178,8.381,1.189,9.561,5.29c1.633,5.68,6.898,9.647,12.804,9.647c5.905,0,11.171-3.967,12.804-9.647
			c1.18-4.1,5.459-6.468,9.561-5.29c4.101,1.18,6.469,5.46,5.29,9.561C275.729,225.812,264.357,234.377,251.601,234.377z"/>
		<path style="fill:#AC5E33;" d="M298.324,138.381c-18.816,0-34.86,12.063-40.826,28.859H245.7
			c-5.965-16.796-22.01-28.859-40.826-28.859c-23.884,0-43.315,19.431-43.315,43.315s19.431,43.315,43.315,43.315
			c23.55,0,42.757-18.895,43.29-42.319h6.869c0.533,23.424,19.74,42.319,43.29,42.319c23.884,0,43.315-19.431,43.315-43.315
			S322.208,138.381,298.324,138.381z M204.875,209.559c-15.364,0-27.863-12.499-27.863-27.863s12.499-27.863,27.863-27.863
			s27.863,12.499,27.863,27.863S220.238,209.559,204.875,209.559z M298.324,209.559c-15.364,0-27.863-12.499-27.863-27.863
			s12.499-27.863,27.863-27.863s27.863,12.499,27.863,27.863S313.688,209.559,298.324,209.559z"/>
		<path style="fill:#FAC574;" d="M251.831,125.218h-95.552c-5.718,0-10.354-4.636-10.354-10.354V102.64
			c0-40.304,32.673-72.976,72.976-72.976h74.386c14.939,0,27.049,12.11,27.049,27.049v0
			C320.336,94.547,289.666,125.218,251.831,125.218z"/>
		<path style="fill:#E8B76B;" d="M320.335,56.713c0,18.924-7.665,36.046-20.068,48.439c-12.393,12.403-29.515,20.068-48.439,20.068
			h-21.541c18.914,0,36.036-7.665,48.439-20.068c12.393-12.393,20.058-29.515,20.058-48.439c0-14.938-12.105-27.053-27.042-27.053
			h21.551C308.23,29.66,320.335,41.775,320.335,56.713z"/>
	</g>
</g>
<g>
</g>
<g>
</g>
<g>
</g>
<g>
</g>
<g>
</g>
<g>
</g>
<g>
</g>
<g>
</g>
<g>
</g>
<g>
</g>
<g>
</g>
<g>
</g>
<g>
</g>
<g>
</g>
<g>
</g>
</svg>
