<?xml version="1.0" encoding="iso-8859-1"?>
<!-- Generator: Adobe Illustrator 23.0.3, SVG Export Plug-In . SVG Version: 6.00 Build 0)  -->
<svg version="1.1" id="Capa_1" xmlns="http://www.w3.org/2000/svg" xmlns:xlink="http://www.w3.org/1999/xlink" x="0px" y="0px"
	 viewBox="0 0 512 512" style="enable-background:new 0 0 512 512;" xml:space="preserve">
<g>
	<g>
		<g>
			<path style="fill:#9E9797;" d="M322.674,483.382c0,5.676-4.615,10.292-10.292,10.292h-40.919l-15.453,0.01l-186.236,0.021H13.362
				c-5.687,0-10.291-4.615-10.291-10.302L3.05,305.541c0-34.995,21.077-65.087,51.241-78.232c4.749-2.071,9.715-3.729,14.876-4.904
				c6.16-1.422,12.578-2.174,19.182-2.174l148.995-0.01c4.667,0,9.251,0.371,13.712,1.102c1.844,0.299,3.657,0.649,5.46,1.061
				c5.161,1.174,10.137,2.823,14.896,4.904c30.153,13.145,51.241,43.226,51.241,78.222L322.674,483.382z"/>
			<g>
				<path style="fill:#756F6F;" d="M69.775,493.694v0.01H54.322v-0.01l-0.01-136.231c0-4.265,3.462-7.726,7.726-7.726
					c4.265,0,7.726,3.461,7.726,7.726L69.775,493.694z"/>
			</g>
			<path style="fill:#756F6F;" d="M271.464,493.673h-0.031l-15.422,0.01v-44.555l-0.01-91.686c0-4.265,3.461-7.726,7.726-7.726
				s7.726,3.461,7.726,7.726L271.464,493.673z"/>
			<path style="fill:#756F6F;" d="M256.516,222.385c-16.555,35.284-52.385,59.483-93.664,59.493
				c-41.269,0-77.099-24.199-93.685-59.472c6.16-1.422,12.578-2.174,19.182-2.174l148.995-0.01c4.667,0,9.251,0.371,13.712,1.102
				C252.9,221.623,254.713,221.973,256.516,222.385z"/>
			<rect x="54.312" y="449.128" style="fill:#FFF5F5;" width="217.121" height="44.576"/>
			<g>
				<rect x="54.322" y="449.128" style="fill:#E0D3CE;" width="15.453" height="44.576"/>
			</g>
			<polygon style="fill:#E0D3CE;" points="271.433,449.128 271.433,493.673 256.011,493.683 256.011,449.128 			"/>
			<path style="fill:#756F6F;" d="M322.657,305.517l0.015,177.862c0,5.683-4.612,10.296-10.295,10.297l-23.732,0.002
				c5.683,0,10.296-4.613,10.295-10.297l-0.015-177.862c-0.003-34.996-21.091-65.079-51.249-78.224
				c-6.415-2.8-13.231-4.828-20.356-5.97c-4.458-0.731-9.04-1.101-13.704-1.101l23.732-0.002c4.664,0,9.246,0.37,13.704,1.101
				c7.125,1.142,13.941,3.17,20.355,5.97C301.566,240.438,322.655,270.521,322.657,305.517z"/>
			<g>
				<circle style="fill:#FFBC8A;" cx="267.566" cy="138.025" r="23.82"/>
				<circle style="fill:#FFBC8A;" cx="58.119" cy="138.043" r="23.82"/>
				<g>
					<g>
						<path style="fill:#E84649;" d="M175.677,251.879l-24.034,29.401l-17.894,21.891c-4.78,5.841-14.042,4.615-17.132-2.277
							l-8.097-18.049c-2.524-5.635-2.483-11.559-0.536-16.689c3.06-8.108,10.817-14.268,20.573-14.268L175.677,251.879z"/>
					</g>
					<path style="fill:#D73337;" d="M175.677,251.879l-24.034,29.401c-15.885-1.71-30.72-7.026-43.659-15.123
						c3.06-8.108,10.817-14.268,20.573-14.268L175.677,251.879z"/>
					<g>
						<path style="fill:#E84649;" d="M217.194,282.836l-8.097,18.059c-3.091,6.882-12.352,8.108-17.132,2.266L174.07,281.27
							l-24.034-29.391h47.11c9.756,0,17.523,6.15,20.573,14.258C219.676,271.278,219.728,277.201,217.194,282.836z"/>
					</g>
					<path style="fill:#D73337;" d="M217.719,266.137c-12.929,8.108-27.763,13.423-43.649,15.133l-24.034-29.391h47.11
						C206.902,251.879,214.67,258.029,217.719,266.137z"/>
				</g>
				<path style="fill:#FDD1A7;" d="M162.854,269.512L162.854,269.512c-48.459,0.004-88.439-37.932-90.976-86.324l-3.476-66.289
					c-1.475-28.134,20.938-51.755,49.11-51.757l90.649-0.008c28.172-0.002,50.589,23.615,49.119,51.749l-3.464,66.289
					C251.287,231.566,211.313,269.508,162.854,269.512z"/>
				<g>
					<g>
						<g>
							<line style="fill:#AA613C;" x1="215.839" y1="174.498" x2="215.839" y2="174.596"/>
						</g>
					</g>
				</g>
				<g>
					<path style="fill:#AA613C;" d="M120.382,176.52c-4.268,0-7.726-3.459-7.726-7.726v-0.105c0-4.267,3.459-7.726,7.726-7.726
						s7.726,3.459,7.726,7.726v0.105C128.108,173.061,124.65,176.52,120.382,176.52z"/>
					<path style="fill:#AA613C;" d="M205.308,176.513c-4.268,0-7.726-3.459-7.726-7.726v-0.105c0-4.267,3.459-7.726,7.726-7.726
						c4.268,0,7.726,3.459,7.726,7.726v0.105C213.035,173.054,209.576,176.513,205.308,176.513z"/>
				</g>
				<path style="fill:#F5A871;" d="M162.851,229.062c-14.37,0.001-27.182-9.647-31.156-23.462c-1.179-4.101,1.189-8.381,5.29-9.561
					c4.099-1.18,8.381,1.188,9.561,5.289c2.079,7.231,8.784,12.281,16.304,12.281c7.518,0,14.222-5.052,16.301-12.283
					c1.179-4.102,5.461-6.47,9.56-5.291c4.101,1.179,6.47,5.459,5.291,9.56C190.03,219.411,177.22,229.061,162.851,229.062z"/>
				<path style="fill:#AA613C;" d="M139.245,57.722c17.208,25.23,17.051,57.171,2.213,81.698c-1.473,2.435-3.951,4.125-6.755,4.607
					c-28.25,4.861-58.044-6.653-75.252-31.883c-0.452-0.663-0.893-1.331-1.321-2.003C25.097,58.304,101.661,6.085,137.862,55.76
					C138.331,56.405,138.793,57.058,139.245,57.722z"/>
				<path style="fill:#C47A4A;" d="M216.472,11.282c39.285,19.617,61.201,60.155,59.009,101.371
					c-0.148,2.788-1.453,5.402-3.593,7.195c-31.63,26.517-77.203,33.355-116.488,13.738c-30.818-15.389-50.947-43.652-57.134-75.017
					c-3.85-19.52,5.994-39.234,23.911-47.885C150.967-3.215,185.654-4.106,216.472,11.282z"/>
				<path style="fill:#AA613C;" d="M275.483,112.65c-0.153,2.789-1.456,5.405-3.593,7.197c-4.53,3.797-9.344,7.186-14.383,10.149
					c0.804-1.232,1.334-2.647,1.537-4.133c5.609-40.889-12.866-83.102-50.386-105.913c-23.88-14.515-51.17-18.567-76.557-13.457
					c26.618-9.701,57.023-8.866,84.374,4.794C255.756,30.902,277.672,71.435,275.483,112.65z"/>
			</g>
			<g>
				<rect x="3.06" y="384.793" style="fill:#E84649;" width="51.243" height="42.825"/>
			</g>
			<path style="fill:#FAC574;" d="M200.784,382.538c-4.268,0-7.727-3.458-7.727-7.726c0-4.267,3.459-7.726,7.725-7.727l37.505-0.004
				c4.268-0.001,7.727,3.458,7.727,7.726c0,4.267-3.459,7.726-7.725,7.727L200.784,382.538z"/>
		</g>
		<g>
			<path style="fill:#E84649;" d="M385.467,40.491L385.467,40.491c-8.876,0.001-16.071,7.197-16.07,16.073l0.025,351.886
				l32.144-0.003L401.54,56.561C401.539,47.685,394.343,40.49,385.467,40.491z"/>
			<g>
				<path style="fill:#FAC574;" d="M470.546,501.42c0,5.831-4.729,10.559-10.559,10.559h-66.138l-82.837,0.01
					c-5.831,0-10.559-4.718-10.559-10.549l-0.01-96.384c0-23.045,18.687-41.733,41.732-41.733l86.628-0.01
					c23.045,0,41.733,18.677,41.733,41.733L470.546,501.42z"/>
				<path style="fill:#D8AA64;" d="M439.476,422.92v89.059h-15.453V422.92c0-4.265,3.451-7.726,7.716-7.726
					C436.014,415.194,439.476,418.655,439.476,422.92z"/>
				<path style="fill:#D8AA64;" d="M409.302,511.979h-15.453l-0.01-66.756c0-4.275,3.461-7.726,7.726-7.726
					c4.275,0,7.726,3.451,7.726,7.726L409.302,511.979z"/>
				<path style="fill:#D8AA64;" d="M470.55,501.427l-0.008-96.385c-0.002-23.048-18.696-41.728-41.744-41.726l-18.611,0.002
					c23.048-0.002,41.731,18.678,41.733,41.726l0.008,96.385c0,5.828-4.72,10.55-10.548,10.55l18.611-0.002
					C465.819,511.977,470.55,507.255,470.55,501.427z"/>
				<path style="fill:#FDE5C2;" d="M470.546,474.862v26.568c0,5.821-4.729,10.559-10.559,10.559L311.012,512
					c-5.831,0-10.559-4.729-10.559-10.559v-26.558c0,5.831,4.729,10.559,10.559,10.559l82.837-0.01h66.138
					C465.818,485.421,470.546,480.693,470.546,474.862z"/>
				<rect x="424.023" y="485.432" style="fill:#FBCC85;" width="15.453" height="26.548"/>
				<rect x="393.849" y="485.432" style="fill:#FBCC85;" width="15.453" height="26.548"/>
				<path style="fill:#FBCC85;" d="M470.55,501.427l-0.002-26.561c0,5.828-4.731,10.56-10.559,10.56l-8.062,0.001l0.001,16.001
					c0,5.828-4.72,10.55-10.548,10.55l0.01,0.01l18.601-0.002C465.819,511.987,470.55,507.255,470.55,501.427z"/>
			</g>
		</g>
	</g>
	<g>
		<circle style="fill:#B6DCFF;" cx="476.642" cy="287.503" r="32.308"/>
		<path style="fill:#8ECBFD;" d="M508.946,287.498c0,17.85-14.461,32.311-32.3,32.311c-3.367,0-6.629-0.517-9.68-1.467
			c13.11-4.117,22.621-16.372,22.621-30.844c0-14.472-9.511-26.716-22.621-30.823c3.051-0.961,6.312-1.478,9.68-1.478
			C494.484,255.198,508.946,269.659,508.946,287.498z"/>
	</g>
	<g>
		<circle style="fill:#B6DCFF;" cx="458.079" cy="173.652" r="22.649"/>
		<path style="fill:#8ECBFD;" d="M480.722,174.004c-0.194,12.507-10.484,22.492-22.991,22.298c-3.462-0.054-6.732-0.886-9.645-2.324
			c7.719-3.512,13.138-11.229,13.279-20.274c0.14-9.045-5.037-16.927-12.643-20.677c2.956-1.348,6.25-2.078,9.712-2.024
			C470.942,151.197,480.917,161.497,480.722,174.004z"/>
	</g>
	<g>
		<circle style="fill:#B6DCFF;" cx="309.634" cy="51.884" r="22.649"/>
		<path style="fill:#8ECBFD;" d="M332.277,52.236c-0.194,12.507-10.484,22.492-22.991,22.298c-3.462-0.054-6.732-0.886-9.645-2.324
			c7.719-3.512,13.138-11.229,13.279-20.274c0.14-9.045-5.037-16.927-12.643-20.677c2.956-1.348,6.25-2.078,9.712-2.024
			C322.497,29.429,332.471,39.729,332.277,52.236z"/>
	</g>
</g>
<g>
</g>
<g>
</g>
<g>
</g>
<g>
</g>
<g>
</g>
<g>
</g>
<g>
</g>
<g>
</g>
<g>
</g>
<g>
</g>
<g>
</g>
<g>
</g>
<g>
</g>
<g>
</g>
<g>
</g>
</svg>
