<?xml version="1.0" encoding="iso-8859-1"?>
<!-- Generator: Adobe Illustrator 23.0.3, SVG Export Plug-In . SVG Version: 6.00 Build 0)  -->
<svg version="1.1" id="Capa_1" xmlns="http://www.w3.org/2000/svg" xmlns:xlink="http://www.w3.org/1999/xlink" x="0px" y="0px"
	 viewBox="0 0 512 512" style="enable-background:new 0 0 512 512;" xml:space="preserve">
<g>
	<circle style="fill:#ED6264;" cx="102.174" cy="97.958" r="33.032"/>
	<path style="fill:#D73337;" d="M135.211,97.96c0,18.246-14.796,33.032-33.032,33.032c-3.974,0-7.794-0.708-11.326-1.992
		c12.661-4.621,21.707-16.778,21.707-31.04s-9.046-26.42-21.707-31.04c3.532-1.284,7.352-1.992,11.326-1.992
		C120.415,64.927,135.211,79.713,135.211,97.96z"/>
	<g>
		<rect x="16.1" y="150.2" style="fill:#9E9797;" width="194.977" height="127.873"/>
		<rect x="16.1" y="297.863" style="fill:#9E9797;" width="194.977" height="125.336"/>
		<g>
			<path style="fill:#BDEB73;" d="M133.281,419.359H93.896c-6.798,0-12.308-5.51-12.308-12.308V354.72
				c0-6.798,5.51-12.308,12.308-12.308h39.386c6.798,0,12.308,5.51,12.308,12.308v52.331
				C145.589,413.849,140.079,419.359,133.281,419.359z"/>
			<path style="fill:#8EC737;" d="M145.588,354.72v52.329c0,6.802-5.511,12.313-12.303,12.313h-28.249
				c6.802,0,12.313-5.51,12.313-12.313V354.72c0-6.802-5.51-12.313-12.313-12.313h28.249
				C140.078,342.408,145.588,347.918,145.588,354.72z"/>
		</g>
		<g>
			<path style="fill:#ED6264;" d="M187.403,275.175h-30.41c-5.249,0-9.503-4.255-9.503-9.503v-31.272
				c0-5.249,4.255-9.503,9.503-9.503h30.41c5.249,0,9.503,4.255,9.503,9.503v31.272C196.906,270.92,192.651,275.175,187.403,275.175
				z"/>
		</g>
		<rect x="16.1" y="416.315" style="fill:#CDBFBB;" width="194.977" height="32.471"/>
	</g>
	<g>
		<path style="fill:#FFBA82;" d="M112.029,275.175h-30.41c-5.249,0-9.503-4.255-9.503-9.503v-40.406
			c0-5.249,4.255-9.503,9.503-9.503h30.41c5.249,0,9.503,4.255,9.503,9.503v40.406C121.533,270.92,117.278,275.175,112.029,275.175z
			"/>
		<path style="fill:#FF9846;" d="M121.528,225.264v40.41c0,5.248-4.249,9.497-9.497,9.497h-18.55c5.248,0,9.507-4.249,9.507-9.497
			v-40.41c0-5.248-4.259-9.497-9.507-9.497h18.55C117.279,215.767,121.528,220.016,121.528,225.264z"/>
	</g>
	<g>
		<rect x="16.1" y="272.13" style="fill:#CDBFBB;" width="194.977" height="32.471"/>
	</g>
	<g>
		<rect x="16.1" y="127.945" style="fill:#CDBFBB;" width="194.977" height="32.471"/>
	</g>
	<g>
		<g>
			<path style="fill:#FF9846;" d="M366.58,332.47v143.482c0,5.673-4.597,10.27-10.27,10.27H145.928
				c-5.663,0-10.26-4.597-10.26-10.27V332.47c0-35.348,21.992-65.55,53.037-77.688c9.408-3.684,19.648-5.704,30.355-5.704h64.129
				c10.707,0,20.947,2.02,30.355,5.704C344.588,266.92,366.58,297.122,366.58,332.47z"/>
			<g>
				<g>
					<path style="fill:#0097FA;" d="M212.554,255.239v116.75c0,4.202-3.41,7.611-7.611,7.611c-4.202,0-7.611-3.41-7.611-7.611
						v-116.75c0-4.202,3.41-7.611,7.611-7.611C209.144,247.627,212.554,251.037,212.554,255.239z"/>
					<path style="fill:#0097FA;" d="M304.917,255.239v116.75c0,4.202-3.41,7.611-7.612,7.611c-4.202,0-7.611-3.41-7.611-7.611
						v-116.75c0-4.202,3.41-7.611,7.611-7.611C301.507,247.627,304.917,251.037,304.917,255.239z"/>
				</g>
			</g>
			<g>
				<g>
					<path style="fill:#FF771C;" d="M196.651,360.582v125.64h-15.223v-125.64c0-4.202,3.41-7.611,7.611-7.611
						C193.241,352.97,196.651,356.38,196.651,360.582z"/>
					<path style="fill:#FF771C;" d="M320.819,360.582v125.64h-15.223v-125.64c0-4.202,3.41-7.611,7.612-7.611
						C317.41,352.97,320.819,356.38,320.819,360.582z"/>
				</g>
			</g>
			<rect x="181.43" y="371.99" style="fill:#2EA8FC;" width="139.39" height="114.23"/>
			<rect x="181.43" y="371.99" style="fill:#0097FA;" width="15.22" height="114.23"/>
			<rect x="305.596" y="371.989" style="fill:#0097FA;" width="15.223" height="114.233"/>
			<path style="fill:#FF9846;" d="M272.735,429.761h-43.108c-4.204,0-7.611-3.408-7.611-7.611s3.408-7.612,7.611-7.612h43.108
				c4.204,0,7.612,3.408,7.612,7.612S276.939,429.761,272.735,429.761z"/>
			<path style="fill:#FF771C;" d="M366.581,332.478v143.476c0,5.671-4.597,10.268-10.268,10.268h-12.024V332.478
				c0-46.063-37.335-83.397-83.397-83.397h22.292C329.242,249.08,366.581,286.419,366.581,332.478z"/>
			<g>
				<circle style="fill:#9E552E;" cx="251.123" cy="47.981" r="47.981"/>
				<path style="fill:#824022;" d="M230.831,57.284c-4.089,0-7.468-3.245-7.603-7.362c-0.252-7.689,2.722-15.218,8.16-20.656
					c2.973-2.972,7.791-2.972,10.765,0c2.972,2.973,2.972,7.792,0,10.765c-2.508,2.508-3.826,5.843-3.709,9.391
					c0.138,4.201-3.156,7.719-7.358,7.857C231,57.283,230.915,57.284,230.831,57.284z"/>
				<path style="fill:#824022;" d="M271.421,56.613c-4.204,0-7.611-3.408-7.611-7.611c0-3.389-1.32-6.574-3.716-8.97
					c-2.973-2.972-2.973-7.792-0.001-10.764c2.972-2.973,7.791-2.973,10.765-0.001c5.272,5.271,8.175,12.28,8.175,19.735
					C279.033,53.206,275.625,56.613,271.421,56.613z"/>
				<circle style="fill:#FFBC8A;" cx="333.385" cy="171.283" r="21.214"/>
				<circle style="fill:#FFBC8A;" cx="168.86" cy="171.283" r="21.214"/>
				<path style="fill:#FFBC8A;" d="M271.182,250.154v29.573c0,0.619-0.03,1.238-0.091,1.847
					c-0.924,10.22-9.509,18.217-19.973,18.217c-10.453,0-19.039-7.997-19.962-18.217c-0.061-0.609-0.091-1.228-0.091-1.847v-29.573
					H271.182z"/>
				<path style="fill:#FF771C;" d="M313.543,254.782c-14.99,17.983-37.54,29.289-62.424,29.289
					c-24.884,0-47.425-11.306-62.414-29.289c9.408-3.684,19.648-5.704,30.355-5.704h64.129
					C293.895,249.079,304.135,251.098,313.543,254.782z"/>
				<path style="fill:#0076F8;" d="M212.554,255.239v19.059c-5.48-2.953-10.585-6.536-15.223-10.646v-8.413
					c0-4.202,3.41-7.611,7.611-7.611C209.144,247.627,212.554,251.037,212.554,255.239z"/>
				<path style="fill:#0076F8;" d="M304.917,255.239v8.413c-4.638,4.12-9.743,7.693-15.223,10.646v-19.059
					c0-4.202,3.41-7.611,7.611-7.611C301.507,247.627,304.917,251.037,304.917,255.239z"/>
				<path style="fill:#F5A871;" d="M271.182,250.154v29.573c0,0.619-0.03,1.238-0.091,1.847c-6.404,1.634-13.102,2.497-19.973,2.497
					c-6.871,0-13.559-0.863-19.962-2.497c-0.061-0.609-0.091-1.228-0.091-1.847v-29.573H271.182z"/>
				<path style="fill:#FDD1A7;" d="M172.197,126.156l10.389,85.061c4.231,34.638,33.641,60.674,68.536,60.674l0,0
					c34.895,0,64.305-26.036,68.536-60.674l10.39-85.061H172.197z"/>
				<line style="fill:#F69583;" x1="299.104" y1="206.566" x2="299.104" y2="206.654"/>
				<path style="fill:#C86D3D;" d="M337.189,151.093c-7.911,3.811-23.887,6.497-43.142,8.056c-2.013,0.163-3.937-0.872-4.895-2.65
					l-4.778-8.866c-2.389-4.433-8.821-4.215-10.904,0.37l-4.371,9.618c-0.806,1.773-2.55,2.936-4.498,2.979
					c-40.45,0.894-84.514-2.268-99.555-9.507c-12.868-26.772-8.2-59.837,13.985-82.042c17.608-17.598,42.046-24.164,64.769-19.709
					c0.457,0.081,0.903,0.173,1.36,0.274c4.131,0.893,8.403,0.731,12.544-0.142c0.02,0,0.041-0.01,0.061-0.01
					c0.223-0.051,0.447-0.091,0.67-0.132c22.723-4.455,47.171,2.121,64.769,19.719C345.4,91.257,350.058,124.321,337.189,151.093z"
					/>
				<path style="fill:#AC5E33;" d="M337.194,151.098c-3.815,1.827-9.487,3.411-16.501,4.713
					c11.828-28.491,6.883-63.088-14.806-86.472c-10.516-11.334-23.485-18.429-37.07-21.275c19.569-0.949,39.452,6.055,54.388,20.992
					C345.399,91.249,350.062,124.322,337.194,151.098z"/>
				<g>
					<path style="fill:#F69583;" d="M206.222,220.304c-4.169,0-7.549-3.38-7.549-7.549c0-4.169,3.38-7.593,7.549-7.593
						c4.169,0,7.549,3.335,7.549,7.504v0.089C213.771,216.924,210.391,220.304,206.222,220.304z"/>
				</g>
				<g>
					<path style="fill:#F69583;" d="M296.023,220.304c-4.169,0-7.549-3.38-7.549-7.549c0-4.169,3.38-7.593,7.549-7.593
						c4.169,0,7.549,3.335,7.549,7.504v0.089C303.572,216.924,300.193,220.304,296.023,220.304z"/>
				</g>
				<g>
					<path style="fill:#9E552E;" d="M215.22,196.209c-4.204,0-7.611-3.408-7.611-7.611c0-4.204,3.408-7.656,7.611-7.656
						c4.204,0,7.611,3.364,7.611,7.567v0.089C222.832,192.801,219.424,196.209,215.22,196.209z"/>
					<path style="fill:#9E552E;" d="M287.025,196.209c-4.204,0-7.611-3.408-7.611-7.611c0-4.204,3.408-7.656,7.611-7.656
						s7.612,3.364,7.612,7.567v0.089C294.637,192.801,291.229,196.209,287.025,196.209z"/>
				</g>
				<path style="fill:#F69583;" d="M251.123,240.636c-12.628,0-23.886-8.479-27.378-20.619c-1.162-4.04,1.171-8.257,5.211-9.419
					c4.04-1.16,8.257,1.171,9.419,5.211c1.626,5.655,6.868,9.604,12.747,9.604s11.12-3.949,12.747-9.604
					c1.162-4.04,5.38-6.373,9.419-5.211c4.04,1.162,6.373,5.379,5.211,9.419C275.008,232.158,263.75,240.636,251.123,240.636z"/>
				<path style="fill:#AC5E33;" d="M258.73,51.393v27.696c0,4.202-3.41,7.611-7.611,7.611c-4.202,0-7.611-3.41-7.611-7.611V51.393
					c0-0.71,0.102-1.401,0.294-2.05c0.457,0.081,0.903,0.173,1.36,0.274c4.131,0.893,8.403,0.731,12.544-0.142
					c0.02,0,0.041-0.01,0.061-0.01c0.223-0.051,0.447-0.091,0.67-0.132C258.629,49.982,258.73,50.682,258.73,51.393z"/>
			</g>
		</g>
		<g>
			<path style="fill:#CDBFBB;" d="M496.53,504.388H357.637c-5.671,0-10.268-4.597-10.268-10.268V389.613
				c0-5.671,4.597-10.268,10.268-10.268H496.53c5.671,0,10.268,4.597,10.268,10.268V494.12
				C506.798,499.791,502.201,504.388,496.53,504.388z"/>
			<path style="fill:#9E9797;" d="M506.798,389.612V494.12c0,5.668-4.6,10.268-10.268,10.268h-20.742
				c5.668,0,10.268-4.6,10.268-10.268V389.612c0-5.668-4.6-10.268-10.268-10.268h20.742
				C502.198,379.344,506.798,383.944,506.798,389.612z"/>
			<path style="fill:#FFF5F5;" d="M457.511,420.63h-8.214c-5.671,0-10.268-4.597-10.268-10.268V297.177h28.751v113.185
				C467.779,416.032,463.182,420.63,457.511,420.63z"/>
			<path style="fill:#A4E540;" d="M391.678,325.361v-20.068c0-5.671,4.597-10.268,10.268-10.268h89.793
				c5.671,0,10.268,4.597,10.268,10.268v20.068c0,5.671-4.597,10.268-10.268,10.268h-89.793
				C396.275,335.629,391.678,331.032,391.678,325.361z"/>
			<path style="fill:#8EC737;" d="M502.003,305.29v20.074c0,5.668-4.59,10.268-10.268,10.268h-21.614
				c5.668,0,10.268-4.6,10.268-10.268V305.29c0-5.668-4.6-10.268-10.268-10.268h21.614
				C497.413,295.022,502.003,299.622,502.003,305.29z"/>
			<g>
				<path style="fill:#9E9797;" d="M398.221,512c-4.204,0-7.611-3.408-7.611-7.612v-33.22c0-4.204,3.408-7.612,7.611-7.612
					s7.612,3.408,7.612,7.612v33.22C405.833,508.592,402.425,512,398.221,512z"/>
				<path style="fill:#9E9797;" d="M425.544,512c-4.204,0-7.612-3.408-7.612-7.612v-33.22c0-4.204,3.408-7.612,7.612-7.612
					s7.611,3.408,7.611,7.612v33.22C433.155,508.592,429.747,512,425.544,512z"/>
				<path style="fill:#9E9797;" d="M452.866,512c-4.204,0-7.612-3.408-7.612-7.612v-33.22c0-4.204,3.408-7.612,7.612-7.612
					s7.611,3.408,7.611,7.612v33.22C460.478,508.592,457.07,512,452.866,512z"/>
			</g>
		</g>
	</g>
	<g>
		<path style="fill:#EFE2DD;" d="M31.385,486.222H15.47c-5.671,0-10.268-4.597-10.268-10.268V101.148
			c0-5.671,4.597-10.268,10.268-10.268h15.916c5.671,0,10.268,4.597,10.268,10.268v374.806
			C41.653,481.625,37.056,486.222,31.385,486.222z"/>
	</g>
</g>
<g>
</g>
<g>
</g>
<g>
</g>
<g>
</g>
<g>
</g>
<g>
</g>
<g>
</g>
<g>
</g>
<g>
</g>
<g>
</g>
<g>
</g>
<g>
</g>
<g>
</g>
<g>
</g>
<g>
</g>
</svg>
