<?xml version="1.0" encoding="iso-8859-1"?>
<!-- Generator: Adobe Illustrator 23.0.3, SVG Export Plug-In . SVG Version: 6.00 Build 0)  -->
<svg version="1.1" id="Capa_1" xmlns="http://www.w3.org/2000/svg" xmlns:xlink="http://www.w3.org/1999/xlink" x="0px" y="0px"
	 viewBox="0 0 512 512" style="enable-background:new 0 0 512 512;" xml:space="preserve">
<g>
	<g>
		<g>
			<g>
				<path style="fill:#C86D3D;" d="M397.269,16.989v385.638c0,9.073-7.355,16.429-16.429,16.429h0
					c-9.073,0-16.429-7.355-16.429-16.429V16.989c0-2.845,2.306-5.151,5.151-5.151h22.556
					C394.963,11.838,397.269,14.144,397.269,16.989z"/>
				<path style="fill:#904D29;" d="M397.272,16.993l0,385.156c0,8.98-7.004,16.657-15.981,16.897
					c-3.156,0.084-6.13-0.723-8.659-2.194c4.909-2.844,8.21-8.147,8.21-14.219V11.842h11.279
					C394.966,11.842,397.272,14.148,397.272,16.993z"/>
			</g>
			<g>
				<path style="fill:#E84649;" d="M466.422,175.825c4.036,4.637,11.625,3.068,13.44-2.806
					c7.906-25.587,12.305-53.927,12.305-83.753S487.768,31.1,479.862,5.513c-1.815-5.874-9.403-7.443-13.44-2.806l0,0
					c-20.274,23.291-49.64,36.663-80.519,36.663h-26.76c-8.682,0-15.72,7.038-15.72,15.72v68.352c0,8.682,7.038,15.72,15.72,15.72
					h26.76C416.783,139.162,446.149,152.533,466.422,175.825L466.422,175.825z"/>
				<path style="fill:#FFF5F5;" d="M492.17,89.261c0,29.831-4.397,58.172-12.302,83.763c-1.814,5.875-9.407,7.437-13.444,2.799
					c-5.094-5.851-10.765-11.077-16.892-15.63c5.623-22.118,8.698-46.002,8.698-70.931s-3.076-48.813-8.71-70.931
					c6.127-4.529,11.81-9.768,16.904-15.618c4.037-4.638,11.63-3.076,13.444,2.799C487.773,31.1,492.17,59.442,492.17,89.261z"/>
			</g>
		</g>
		<g>
			<g>
				<path style="fill:#AC5E33;" d="M302.573,283.075v113.181c0,22.033,30.616,39.894,68.382,39.894
					c37.767,0,68.382-17.861,68.382-39.894V283.075H302.573z"/>
				<path style="fill:#904D29;" d="M396.361,376.728c-4.267,0-7.726-3.459-7.726-7.726v-54.065c0-4.267,3.459-7.726,7.726-7.726
					c4.267,0,7.726,3.459,7.726,7.726v54.065C404.087,373.268,400.628,376.728,396.361,376.728z"/>
				<path style="fill:#904D29;" d="M439.343,283.075v113.18c0,22.034-30.617,39.896-68.386,39.896c-2.75,0-5.459-0.093-8.126-0.28
					c33.939-2.346,60.248-19.19,60.248-39.616v-113.18H439.343z"/>
				<ellipse style="fill:#FCD79F;" cx="370.956" cy="283.075" rx="68.382" ry="39.894"/>
				<path style="fill:#D8AA64;" d="M401.482,284.972c-1.874,0-3.752-0.677-5.237-2.048c-3.242-2.991-12.538-6.211-25.289-6.211
					c-12.751,0-22.047,3.219-25.289,6.211c-3.136,2.893-8.024,2.697-10.918-0.439c-2.893-3.136-2.697-8.024,0.439-10.918
					c6.994-6.453,20.365-10.306,35.768-10.306s28.774,3.853,35.768,10.306c3.136,2.894,3.332,7.782,0.439,10.918
					C405.639,284.136,403.564,284.972,401.482,284.972z"/>
			</g>
			<g>
				<path style="fill:#AC5E33;" d="M480.08,396.29v75.811c0,22.036-30.617,39.899-68.383,39.899c-4.935,0-9.746-0.309-14.381-0.886
					c-5.419-0.68-10.59-1.731-15.453-3.101c-22.818-6.47-38.549-20.119-38.549-35.912V396.29H480.08z"/>
				<path style="fill:#904D29;" d="M437.101,456.225c-4.267,0-7.726-3.459-7.726-7.726v-16.702c0-4.267,3.459-7.726,7.726-7.726
					c4.267,0,7.726,3.459,7.726,7.726v16.702C444.827,452.766,441.368,456.225,437.101,456.225z"/>
				<path style="fill:#904D29;" d="M480.083,396.288v75.817c0,22.034-30.617,39.896-68.386,39.896c-2.75,0-5.459-0.093-8.126-0.28
					c33.939-2.346,60.248-19.19,60.248-39.616v-75.817H480.083z"/>
				<ellipse style="fill:#FCD79F;" cx="411.696" cy="396.287" rx="68.382" ry="39.894"/>
				<path style="fill:#D8AA64;" d="M381.169,398.185c-2.082,0-4.157-0.836-5.681-2.487c-2.893-3.136-2.697-8.024,0.439-10.918
					c6.994-6.453,20.365-10.306,35.768-10.306c15.403,0,28.774,3.853,35.768,10.307c3.136,2.894,3.332,7.782,0.438,10.918
					c-2.893,3.135-7.781,3.333-10.918,0.438c-3.241-2.991-12.537-6.21-25.288-6.21c-12.75,0-22.047,3.219-25.289,6.211
					C384.921,397.507,383.043,398.185,381.169,398.185z"/>
				<path style="fill:#904D29;" d="M397.316,463.108v48.006c-5.419-0.68-10.59-1.731-15.453-3.101v-44.906
					c0-4.265,3.461-7.726,7.726-7.726S397.316,458.843,397.316,463.108z"/>
			</g>
			<g>
				<path style="fill:#D77F4F;" d="M350.308,317.419v183.929c0,5.882-4.77,10.652-10.642,10.652H30.468
					c-5.882,0-10.642-4.77-10.642-10.652V317.419c0-36.18,21.799-67.291,52.982-80.89c2.277-0.999,4.615-1.895,6.995-2.699
					c8.86-2.988,18.358-4.605,28.217-4.605h154.094c4.821,0,9.55,0.371,14.155,1.133c4.842,0.773,9.529,1.947,14.062,3.472
					c2.38,0.804,4.708,1.71,6.995,2.699c0.031,0.01,0.051,0.021,0.072,0.051C328.551,250.179,350.308,281.27,350.308,317.419z"/>
				<path style="fill:#C86D3D;" d="M192.794,349.695V512h-15.453V349.695c0-4.265,3.461-7.726,7.726-7.726
					C189.332,341.969,192.794,345.43,192.794,349.695z"/>
				<g>
					<path style="fill:#FFBC8A;" d="M80.967,435.769v76.228H30.466c-5.876,0-10.64-4.764-10.64-10.651v-65.577H80.967z"/>
				</g>
				<path style="fill:#C86D3D;" d="M350.307,317.433v183.912c0,5.887-4.764,10.651-10.64,10.651H315.12
					c5.887,0,10.652-4.764,10.652-10.64V317.433c0-36.186-21.802-67.301-52.986-80.891c-6.636-2.904-13.68-5.003-21.054-6.182
					c-4.605-0.749-9.347-1.134-14.168-1.134H262.1c4.832,0,9.563,0.386,14.179,1.134c7.362,1.18,14.406,3.278,21.042,6.182
					C328.505,250.132,350.307,281.247,350.307,317.433z"/>
				<path style="fill:#FFBC8A;" d="M289.166,435.769v76.228h50.501c5.876,0,10.64-4.764,10.64-10.651v-65.577H289.166z"/>
				<path style="fill:#F5A871;" d="M350.307,435.769v65.577c0,5.887-4.764,10.651-10.64,10.651H315.12
					c5.887,0,10.652-4.764,10.652-10.64v-65.588H350.307z"/>
				<g>
					<circle style="fill:#F5A871;" cx="293.356" cy="144.901" r="24.631"/>
					<circle style="fill:#F5A871;" cx="76.775" cy="144.901" r="24.631"/>
					<path style="fill:#FFBC8A;" d="M185.066,280.858L185.066,280.858c-50.11,0-91.448-39.231-94.068-89.272l-3.143-76.785
						c-1.771-43.266,32.826-79.308,76.128-79.308h42.165c43.302,0,77.899,36.042,76.128,79.308l-3.143,76.785
						C276.514,241.627,235.175,280.858,185.066,280.858z"/>
					<g>
						<path style="fill:#C86D3D;" d="M141.156,184.432c-4.267,0-7.726-3.459-7.726-7.726v-0.109c0-4.267,3.459-7.726,7.726-7.726
							s7.726,3.459,7.726,7.726v0.109C148.882,180.972,145.423,184.432,141.156,184.432z"/>
						<path style="fill:#C86D3D;" d="M228.975,184.432c-4.267,0-7.726-3.459-7.726-7.726v-0.109c0-4.267,3.459-7.726,7.726-7.726
							s7.726,3.459,7.726,7.726v0.109C236.702,180.972,233.242,184.432,228.975,184.432z"/>
					</g>
					<path style="fill:#C86D3D;" d="M290.331,233.83c-0.144,1.267-0.288,2.545-0.453,3.832
						c-3.534,27.908-11.507,48.882-23.684,62.357c-2.926,3.224-6.943,5.244-11.229,5.687c-6.5,13.753-23.54,39.693-63.717,54.888
						c-1.978,0.752-4.059,1.123-6.181,1.123c-2.122,0-4.203-0.371-6.181-1.123c-40.177-15.195-57.216-41.135-63.717-54.888
						c-4.286-0.443-8.303-2.462-11.229-5.687c-12.177-13.475-20.15-34.449-23.684-62.357c-0.165-1.288-0.319-2.565-0.453-3.832
						c8.86-2.988,18.358-4.605,28.217-4.605h154.094c4.821,0,9.55,0.371,14.155,1.133
						C281.111,231.131,285.798,232.306,290.331,233.83z"/>
					<path style="fill:#E84649;" d="M279.227,193.159l-50.869,14.707c-6.883,1.99-14.348,1.046-20.358-2.857
						c-6.493-4.216-14.4-6.692-22.934-6.692s-16.442,2.476-22.934,6.692c-6.009,3.903-13.474,4.847-20.358,2.857l-50.869-14.708
						c-0.547,10.499-2.556,71.181,22.203,98.564c0.983,1.088,2.379,1.712,3.845,1.712h6.644c0,0,9.625,36.668,59.663,55.595
						c1.159,0.438,2.452,0.438,3.611,0c50.038-18.927,59.663-55.595,59.663-55.595h6.644c1.466,0,2.861-0.625,3.845-1.712
						C281.783,264.34,279.775,203.659,279.227,193.159z"/>
					<path style="fill:#D73337;" d="M253.179,293.436h-6.642c0,0-9.627,36.667-59.663,55.594c-1.16,0.439-2.456,0.438-3.616,0
						c-6.28-2.375-11.922-5.033-16.987-7.861c40.053-14.688,54.761-40.722,59.266-51.357c1.217-2.874,4.048-4.725,7.169-4.725h0
						c2.227,0,4.376-0.926,5.829-2.613c18.462-21.445,21.497-61.74,21.671-83.813l19.023-5.502
						c0.544,10.495,2.556,71.179-22.205,98.564C256.04,292.811,254.645,293.436,253.179,293.436z"/>
					<path style="fill:#F5A871;" d="M191.825,241.188h-13.517c-4.267,0-7.726-3.459-7.726-7.726s3.459-7.726,7.726-7.726h13.517
						c4.267,0,7.726,3.459,7.726,7.726S196.092,241.188,191.825,241.188z"/>
					<g>
						<path style="fill:#E84649;" d="M78.993,83.979v9.829c0,19.683,15.956,35.639,35.639,35.639h30.115
							c3.132,0,5.672-2.539,5.672-5.672v-22.281c3.516,15.986,17.756,27.952,34.798,27.952h30.115c3.132,0,5.672-2.539,5.672-5.672
							v-22.281c3.516,15.986,17.756,27.952,34.798,27.952h30.115c3.132,0,5.672-2.539,5.672-5.672V83.979
							c0-35.449-28.737-64.186-64.186-64.186h-84.224C107.73,19.793,78.993,48.53,78.993,83.979z"/>
						<path style="fill:#D73337;" d="M291.593,83.978v39.793c0,3.131-2.541,5.672-5.672,5.672h-22.868
							c3.131,0,5.672-2.541,5.672-5.672V83.978c0-35.448-28.733-64.182-64.182-64.182H227.4
							C262.849,19.797,291.593,48.53,291.593,83.978z"/>
					</g>
				</g>
				<path style="fill:#C86D3D;" d="M289.167,373.235V512h-15.453V373.235c0-4.265,3.461-7.726,7.726-7.726
					C285.706,365.508,289.167,368.97,289.167,373.235z"/>
				<path style="fill:#C86D3D;" d="M96.42,373.235V512H80.968V373.235c0-4.265,3.461-7.726,7.726-7.726
					C92.959,365.508,96.42,368.97,96.42,373.235z"/>
				<path style="fill:#FCD79F;" d="M214.285,416.189c-4.267,0-7.726-3.459-7.726-7.726v-0.109c0-4.267,3.459-7.726,7.726-7.726
					s7.726,3.459,7.726,7.726v0.109C222.011,412.73,218.552,416.189,214.285,416.189z"/>
				<path style="fill:#FCD79F;" d="M214.285,467.613c-4.267,0-7.726-3.459-7.726-7.726v-0.109c0-4.267,3.459-7.726,7.726-7.726
					s7.726,3.459,7.726,7.726v0.109C222.011,464.153,218.552,467.613,214.285,467.613z"/>
			</g>
		</g>
	</g>
	<path style="fill:#E0D3CE;" d="M492.175,89.265c0,29.824-4.399,58.164-12.311,83.754c-1.813,5.882-9.406,7.438-13.444,2.802
		c-1.03-1.185-2.091-2.349-3.173-3.482c7.768-25.415,12.094-53.518,12.094-83.074s-4.327-57.659-12.094-83.074
		c1.082-1.133,2.143-2.297,3.173-3.482c4.038-4.636,11.631-3.07,13.444,2.802C487.776,31.101,492.175,59.441,492.175,89.265z"/>
</g>
<g>
</g>
<g>
</g>
<g>
</g>
<g>
</g>
<g>
</g>
<g>
</g>
<g>
</g>
<g>
</g>
<g>
</g>
<g>
</g>
<g>
</g>
<g>
</g>
<g>
</g>
<g>
</g>
<g>
</g>
</svg>
