<?xml version="1.0" encoding="iso-8859-1"?>
<!-- Generator: Adobe Illustrator 23.0.3, SVG Export Plug-In . SVG Version: 6.00 Build 0)  -->
<svg version="1.1" id="Capa_1" xmlns="http://www.w3.org/2000/svg" xmlns:xlink="http://www.w3.org/1999/xlink" x="0px" y="0px"
	 viewBox="0 0 512 512" style="enable-background:new 0 0 512 512;" xml:space="preserve">
<g>
	<g>
		<g>
			<g>
				<path style="fill:#FF872A;" d="M317.916,91.373c0-37.41,19.101-70.374,48.077-89.636c3.48-2.314,8.013-2.312,11.492,0.003
					c28.959,19.275,48.043,52.222,48.043,89.633l-53.806,21.526L317.916,91.373z"/>
				<path style="fill:#F36717;" d="M404.318,99.861v-8.488c0-35.279-16.977-66.592-43.192-86.199
					c1.605-1.197,3.245-2.352,4.917-3.462c3.464-2.301,7.982-2.272,11.444,0.031c28.96,19.27,48.042,52.22,48.042,89.63
					L404.318,99.861z"/>
				<rect x="317.92" y="91.375" style="fill:#E0D3CE;" width="107.604" height="358.635"/>
				<path style="fill:#CDBFBB;" d="M367.866,341.372V450.01H317.92V260.927c10.959,5.428,20.822,13.14,28.721,22.466
					C360.329,299.563,367.866,320.157,367.866,341.372z"/>
				<path style="fill:#CDBFBB;" d="M348.099,202.339c0,34.035-11.217,65.526-30.178,90.99v-181.98
					C336.882,136.813,348.099,168.304,348.099,202.339z"/>
				<rect x="404.315" y="91.373" style="fill:#CDBFBB;" width="21.214" height="358.637"/>
				<path style="fill:#B6DCFF;" d="M396.163,310.346c0,16.614-12.293,30.364-28.297,32.629c-1.52,0.217-3.081,0.331-4.663,0.331
					c-18.206,0-32.959-14.763-32.959-32.959c0-11.796,6.193-22.145,15.508-27.976c5.056-3.164,11.042-4.994,17.452-4.994
					C381.41,277.376,396.163,292.14,396.163,310.346z"/>
				<path style="fill:#65BAFC;" d="M367.866,341.372v1.603c-1.52,0.217-3.081,0.331-4.663,0.331
					c-18.206,0-32.959-14.763-32.959-32.959c0-11.796,6.193-22.145,15.508-27.976c0.3,0.341,0.6,0.682,0.889,1.023
					C360.329,299.563,367.866,320.157,367.866,341.372z"/>
				<path style="fill:#65BAFC;" d="M396.169,310.344c0,18.2-14.757,32.957-32.967,32.957c-3.278,0-6.443-0.483-9.434-1.377
					c13.616-4.049,23.533-16.658,23.533-31.58c0-14.932-9.917-27.541-23.533-31.59c2.99-0.894,6.156-1.377,9.434-1.377
					C381.412,277.377,396.169,292.134,396.169,310.344z"/>
				<path style="fill:#FF872A;" d="M388.461,398.265v81.075c0,6.048-4.911,10.949-10.959,10.949H361.28
					c-6.048,0-10.948-4.9-10.948-10.949v-81.075c0-6.048,4.9-10.959,10.948-10.959h16.221
					C383.55,387.306,388.461,392.217,388.461,398.265z"/>
				<path style="fill:#F36717;" d="M367.866,387.306v102.983h-6.586c-6.048,0-10.948-4.9-10.948-10.949v-81.075
					c0-6.048,4.9-10.959,10.948-10.959H367.866z"/>
				<path style="fill:#FF872A;" d="M454.634,490.289h-27.177c-6.049,0-10.952-4.904-10.952-10.952v-81.075
					c0-6.049,4.904-10.952,10.952-10.952h12.271c14.281,0,25.858,11.577,25.858,25.858v66.169
					C465.586,485.385,460.683,490.289,454.634,490.289z"/>
				<path style="fill:#F36717;" d="M465.587,413.171v66.163c0,6.053-4.902,10.955-10.955,10.955h-20.337
					c6.053,0,10.955-4.902,10.955-10.955v-66.163c0-12.609-9.023-23.112-20.954-25.393c0.997-0.308,2.066-0.473,3.165-0.473h12.27
					C454.005,387.305,465.587,398.887,465.587,413.171z"/>
			</g>
			<g>
				<g>
					<path style="fill:#FFF5F5;" d="M355.46,341.372v161.292c0,5.149-4.177,9.336-9.325,9.336H41.363
						c-5.159,0-9.336-4.187-9.336-9.336V341.372c0-19.054,6.875-36.495,18.299-49.966c7.609-8.984,17.224-16.211,28.162-20.967
						c9.46-4.125,19.912-6.42,30.892-6.42h168.736c4.218,0,8.374,0.331,12.427,1.003c6.451,1.023,12.634,2.874,18.444,5.417
						c10.938,4.766,20.574,11.982,28.183,20.977C348.574,304.887,355.46,322.328,355.46,341.372z"/>
					<path style="fill:#E0D3CE;" d="M355.467,341.367V502.66c0,5.154-4.185,9.34-9.34,9.34h-21.516c5.154,0,9.33-4.185,9.33-9.34
						V341.367c0-31.735-19.119-59.015-46.459-70.932c-5.824-2.537-11.997-4.385-18.46-5.414c-4.046-0.669-8.201-0.999-12.426-0.999
						h21.516c4.225,0,8.381,0.33,12.426,0.999c6.463,1.029,12.636,2.877,18.46,5.414
						C336.338,282.352,355.467,309.632,355.467,341.367z"/>
					<path style="fill:#756F6F;" d="M337.171,291.416c-20.76,53.792-77.136,92.365-143.427,92.365S71.066,345.208,50.327,291.406
						c3.267-3.867,6.917-7.402,10.876-10.556c5.242-4.187,11.052-7.702,17.286-10.411c9.46-4.125,19.912-6.42,30.892-6.42h168.736
						c4.218,0,8.374,0.331,12.427,1.003c6.451,1.023,12.634,2.874,18.444,5.417c6.234,2.719,12.055,6.234,17.307,10.421
						C330.254,284.014,333.904,287.549,337.171,291.416z"/>
					<g>
						<rect x="175.351" y="334.642" style="fill:#E0D3CE;" width="36.785" height="177.358"/>
					</g>
					<path style="fill:#E84649;" d="M355.46,356.983v71.615c-8.633-1.633-16.201-6.307-21.515-12.871
						c-5.097-6.265-8.136-14.247-8.136-22.941c0-8.695,3.04-16.666,8.136-22.931C339.259,363.29,346.827,358.617,355.46,356.983z"/>
					<path style="fill:#D73337;" d="M355.46,356.983v71.615c-8.633-1.633-16.201-6.307-21.515-12.871v-45.872
						C339.259,363.29,346.827,358.617,355.46,356.983z"/>
				</g>
				<g>
					<g>
						<g>
							<path style="fill:#756F6F;" d="M362.18,192.703v50.442c0,5.159-4.177,9.336-9.336,9.336h-27.18v-69.113h27.18
								C358.003,183.367,362.18,187.544,362.18,192.703z"/>
						</g>
						<path style="fill:#5B5555;" d="M348.099,202.339c0,17.555-2.988,34.427-8.478,50.142h-13.957v-69.113h21.256
							C347.696,189.581,348.099,195.918,348.099,202.339z"/>
						<g>
							<path style="fill:#756F6F;" d="M34.649,183.366h27.182v69.115H34.649c-5.154,0-9.332-4.178-9.332-9.332v-50.451
								C25.317,187.544,29.495,183.366,34.649,183.366z"/>
						</g>
					</g>
					<path style="fill:#5B5555;" d="M326.295,280.86c-26.984,44.797-76.299,74.851-132.551,74.851
						c-56.252,0-105.578-30.054-132.541-74.862c5.242-4.187,11.052-7.702,17.286-10.411c9.46-4.125,19.912-6.42,30.892-6.42h168.736
						c4.218,0,8.374,0.331,12.427,1.003c6.451,1.023,12.634,2.874,18.444,5.417C315.222,273.158,321.043,276.673,326.295,280.86z"/>
					<path style="fill:#CDBFBB;" d="M212.136,334.642v19.984c-6.027,0.713-12.169,1.086-18.392,1.086
						c-6.224,0-12.365-0.372-18.392-1.086v-19.984H212.136z"/>
					<ellipse style="fill:#FFF5F5;" cx="193.747" cy="202.34" rx="141.944" ry="140.965"/>
					<path style="fill:#E0D3CE;" d="M335.686,202.338c0,77.855-63.55,140.963-141.939,140.963c-4.203,0-8.355-0.185-12.465-0.534
						c72.562-6.269,129.484-66.746,129.484-140.428S253.844,68.178,181.281,61.91c4.111-0.349,8.262-0.534,12.465-0.534
						C272.136,61.375,335.686,124.483,335.686,202.338z"/>
					<path style="fill:#FFBC8A;" d="M239.296,277.38h-91.099c-22.94,0-41.536-18.596-41.536-41.536v-51.786
						c0-5.154,4.178-9.332,9.332-9.332H271.5c5.154,0,9.332,4.178,9.332,9.332v51.786
						C280.832,258.784,262.236,277.38,239.296,277.38z"/>
					<path style="fill:#F5A871;" d="M280.835,184.058v51.784c0,22.939-18.599,41.538-41.538,41.538h-20.101
						c22.938,0,41.538-18.599,41.538-41.538v-51.784c0-5.151-4.181-9.332-9.332-9.332h20.102
						C276.654,174.726,280.835,178.907,280.835,184.058z"/>
					<g>
						<path style="fill:#1475CC;" d="M157.772,214.764c-4.282,0-7.754-3.472-7.754-7.754s3.472-7.799,7.754-7.799
							c4.282,0,7.754,3.427,7.754,7.71v0.089C165.526,211.293,162.054,214.764,157.772,214.764z"/>
						<path style="fill:#1475CC;" d="M229.721,214.764c-4.282,0-7.754-3.472-7.754-7.754s3.472-7.799,7.754-7.799
							s7.754,3.427,7.754,7.71v0.089C237.475,211.293,234.003,214.764,229.721,214.764z"/>
						<path style="fill:#F5A871;" d="M193.747,259.28c-12.709,0-24.04-8.534-27.554-20.752c-1.183-4.116,1.193-8.412,5.309-9.595
							c4.114-1.181,8.412,1.193,9.595,5.309c1.614,5.612,6.816,9.531,12.65,9.531s11.036-3.919,12.65-9.531
							c1.184-4.115,5.477-6.49,9.595-5.309c4.115,1.184,6.492,5.48,5.309,9.595C217.786,250.746,206.455,259.28,193.747,259.28z"/>
					</g>
					<g>
						<path style="fill:#1475CC;" d="M208.962,174.726h-30.432V58.157c0-5.154,4.178-9.332,9.332-9.332h11.767
							c5.154,0,9.332,4.178,9.332,9.332V174.726z"/>
					</g>
				</g>
				<path style="fill:#1475CC;" d="M50.554,415.606H32.026v-40.701h18.528c5.71,0,10.339,4.629,10.339,10.339v20.024
					C60.892,410.977,56.263,415.606,50.554,415.606z"/>
				<path style="fill:#E84649;" d="M60.655,444.716c0,4.291-3.474,7.754-7.754,7.754H32.028v-15.508h20.874
					C57.181,436.963,60.655,440.436,60.655,444.716z"/>
				<g>
					<path style="fill:#E0D3CE;" d="M95.165,381.786V512H79.657V381.786c0-4.28,3.474-7.754,7.754-7.754
						C91.692,374.032,95.165,377.505,95.165,381.786z"/>
					<path style="fill:#E0D3CE;" d="M307.84,381.786V512h-15.508V381.786c0-4.28,3.463-7.754,7.754-7.754
						C304.367,374.032,307.84,377.505,307.84,381.786z"/>
				</g>
				<path style="fill:#FF872A;" d="M271.661,420.363h-27.969c-4.282,0-7.754-3.472-7.754-7.754c0-4.282,3.472-7.754,7.754-7.754
					h27.969c4.283,0,7.754,3.472,7.754,7.754C279.415,416.891,275.944,420.363,271.661,420.363z"/>
				<path style="fill:#FF872A;" d="M188.752,459.561H178.35c-4.282,0-7.754-3.472-7.754-7.754c0-4.282,3.472-7.754,7.754-7.754
					h10.402c4.282,0,7.754,3.472,7.754,7.754C196.506,456.09,193.034,459.561,188.752,459.561z"/>
				<path style="fill:#FF872A;" d="M188.752,494.57H178.35c-4.282,0-7.754-3.472-7.754-7.754c0-4.282,3.472-7.754,7.754-7.754
					h10.402c4.282,0,7.754,3.472,7.754,7.754C196.506,491.098,193.034,494.57,188.752,494.57z"/>
			</g>
		</g>
		<path style="fill:#FF872A;" d="M430.198,119.061c0,4.29-3.474,7.754-7.754,7.754H321.28c-4.29,0-7.754-3.463-7.754-7.754
			c0-3.236,1.975-6.007,4.797-7.165c0.91-0.383,1.913-0.589,2.957-0.589h101.163C426.724,111.307,430.198,114.781,430.198,119.061z"
			/>
		<path style="fill:#F36717;" d="M430.198,119.061c0,4.29-3.474,7.754-7.754,7.754H404.31v-15.508h18.134
			C426.724,111.307,430.198,114.781,430.198,119.061z"/>
		<path style="fill:#F36717;" d="M328.042,126.815h-6.761c-4.29,0-7.754-3.463-7.754-7.754c0-3.236,1.975-6.007,4.797-7.165
			C321.849,116.663,325.095,121.646,328.042,126.815z"/>
	</g>
	<g>
		<path style="fill:#E8B76B;" d="M465.586,333.214c-4.283,0-7.754-3.472-7.754-7.754c0-4.282,3.471-7.8,7.754-7.8
			s7.754,3.426,7.754,7.708v0.091C473.34,329.742,469.869,333.214,465.586,333.214z"/>
		<path style="fill:#E8B76B;" d="M465.586,361.555c-4.283,0-7.754-3.472-7.754-7.754c0-4.282,3.471-7.8,7.754-7.8
			s7.754,3.426,7.754,7.708v0.091C473.34,358.083,469.869,361.555,465.586,361.555z"/>
		<path style="fill:#E8B76B;" d="M479.803,347.338h-0.091c-4.283,0-7.754-3.472-7.754-7.754s3.471-7.754,7.754-7.754
			s7.799,3.472,7.799,7.754S484.086,347.338,479.803,347.338z"/>
		<path style="fill:#E8B76B;" d="M451.462,347.338h-0.091c-4.283,0-7.754-3.472-7.754-7.754s3.471-7.754,7.754-7.754
			s7.799,3.472,7.799,7.754S455.744,347.338,451.462,347.338z"/>
	</g>
	<g>
		<path style="fill:#E8B76B;" d="M46.459,81.381c-4.282,0-7.754-3.472-7.754-7.754c0-4.282,3.472-7.799,7.754-7.799
			s7.754,3.426,7.754,7.708v0.091C54.213,77.909,50.741,81.381,46.459,81.381z"/>
		<path style="fill:#E8B76B;" d="M46.459,109.722c-4.282,0-7.754-3.472-7.754-7.754s3.472-7.799,7.754-7.799
			s7.754,3.426,7.754,7.708v0.091C54.213,106.25,50.741,109.722,46.459,109.722z"/>
		<path style="fill:#E8B76B;" d="M60.675,95.506h-0.091c-4.282,0-7.754-3.472-7.754-7.754c0-4.282,3.472-7.754,7.754-7.754
			s7.8,3.472,7.8,7.754C68.384,92.034,64.958,95.506,60.675,95.506z"/>
		<path style="fill:#E8B76B;" d="M32.334,95.506h-0.091c-4.282,0-7.754-3.472-7.754-7.754c0-4.282,3.472-7.754,7.754-7.754
			s7.8,3.472,7.8,7.754C40.042,92.034,36.616,95.506,32.334,95.506z"/>
	</g>
	<g>
		<path style="fill:#E8B76B;" d="M280.832,28.468c-4.283,0-7.754-3.472-7.754-7.754s3.471-7.799,7.754-7.799
			s7.754,3.426,7.754,7.709v0.091C288.585,24.996,285.114,28.468,280.832,28.468z"/>
		<path style="fill:#E8B76B;" d="M280.832,56.809c-4.283,0-7.754-3.472-7.754-7.754s3.471-7.799,7.754-7.799
			s7.754,3.426,7.754,7.708v0.091C288.585,53.338,285.114,56.809,280.832,56.809z"/>
		<path style="fill:#E8B76B;" d="M295.048,42.593h-0.091c-4.283,0-7.754-3.472-7.754-7.754s3.471-7.754,7.754-7.754
			c4.283,0,7.799,3.472,7.799,7.754S299.331,42.593,295.048,42.593z"/>
		<path style="fill:#E8B76B;" d="M266.707,42.593h-0.091c-4.283,0-7.754-3.472-7.754-7.754s3.471-7.754,7.754-7.754
			c4.283,0,7.799,3.472,7.799,7.754S270.99,42.593,266.707,42.593z"/>
	</g>
</g>
<g>
</g>
<g>
</g>
<g>
</g>
<g>
</g>
<g>
</g>
<g>
</g>
<g>
</g>
<g>
</g>
<g>
</g>
<g>
</g>
<g>
</g>
<g>
</g>
<g>
</g>
<g>
</g>
<g>
</g>
</svg>
