<?xml version="1.0" encoding="iso-8859-1"?>
<!-- Generator: Adobe Illustrator 23.0.3, SVG Export Plug-In . SVG Version: 6.00 Build 0)  -->
<svg version="1.1" id="Capa_1" xmlns="http://www.w3.org/2000/svg" xmlns:xlink="http://www.w3.org/1999/xlink" x="0px" y="0px"
	 viewBox="0 0 512 512" style="enable-background:new 0 0 512 512;" xml:space="preserve">
<g>
	<g>
		<g>
			<g>
				<g>
					<path style="fill:#9E9797;" d="M470.306,241.766c0,18.342-8.419,33.211-18.803,33.211c-10.385,0-18.803-14.869-18.803-33.211
						s8.419-21.899,18.803-21.899C461.888,219.867,470.306,223.424,470.306,241.766z"/>
					<path style="fill:#756F6F;" d="M470.302,241.765c0,18.345-8.413,33.213-18.804,33.213c-2.916,0-5.68-1.173-8.148-3.273
						c6.302-5.364,10.646-16.755,10.646-29.94s-4.344-18.723-10.646-20.803c2.468-0.806,5.231-1.091,8.148-1.091
						C461.889,219.871,470.302,223.42,470.302,241.765z"/>
				</g>
				<g>
					<path style="fill:#9E9797;" d="M297.173,241.766c0,18.342-8.419,33.211-18.803,33.211c-10.385,0-18.803-14.869-18.803-33.211
						s8.419-21.899,18.803-21.899C288.755,219.867,297.173,223.424,297.173,241.766z"/>
					<path style="fill:#756F6F;" d="M297.169,241.765c0,18.345-8.413,33.213-18.794,33.213c-3.008,0-5.843-1.244-8.362-3.457
						c6.19-5.445,10.442-16.724,10.442-29.756c0-13.032-4.252-18.6-10.442-20.732c2.519-0.867,5.354-1.162,8.362-1.162
						C288.756,219.871,297.169,223.42,297.169,241.765z"/>
				</g>
			</g>
			<g>
				<g>
					<path style="fill:#65BAFC;" d="M511.796,275.356v17.591c0,5.629-4.568,10.198-10.198,10.198H375.904v-74.167l128.489,36.579
						C508.778,266.8,511.796,270.808,511.796,275.356z"/>
					<path style="fill:#0097FA;" d="M511.796,275.356v17.591c0,5.629-4.568,10.198-10.198,10.198h-17.336
						c5.629,0,10.198-4.568,10.198-10.198v-23.709c0-2.886-1.214-5.547-3.222-7.424l13.155,3.742
						C508.778,266.8,511.796,270.808,511.796,275.356z"/>
					<path style="fill:#65BAFC;" d="M353.969,228.977v74.167H228.274c-5.629,0-10.198-4.568-10.198-10.198v-17.591
						c0-4.548,3.029-8.556,7.403-9.8L353.969,228.977z"/>
				</g>
				<path style="fill:#FFF5F5;" d="M384.949,178.092V362.83c0,32.602-8.964,53.812-20.007,53.812
					c-11.054,0-20.008-21.211-20.008-53.812V178.092c0-1.774,0.031-3.518,0.082-5.231c0.367-12.166,2.029-22.547,4.599-30.542
					c3.671-11.452,9.168-18.029,15.327-18.029c6.149,0,11.656,6.567,15.317,18.019c2.6,8.097,4.283,18.631,4.62,31.011
					C384.928,174.88,384.949,176.47,384.949,178.092z"/>
				<path style="fill:#65BAFC;" d="M380.258,142.309c-4.344,3.039-9.627,4.813-15.317,4.813c-5.69,0-10.983-1.774-15.327-4.803
					c3.671-11.452,9.168-18.029,15.327-18.029C371.091,124.289,376.597,130.857,380.258,142.309z"/>
			</g>
			<path style="fill:#65BAFC;" d="M384.949,178.092v15.878c-2.947,0-5.751-1.713-7.006-4.589c-2.294-5.252-7.495-8.647-13.236-8.647
				c-5.507,0-10.463,3.069-12.931,8.005c-1.336,2.682-4.038,4.232-6.843,4.232v-14.878c0-1.774,0.031-3.518,0.082-5.231
				c5.323-4.721,12.257-7.424,19.692-7.424c7.618,0,14.776,2.906,20.171,7.883C384.928,174.88,384.949,176.47,384.949,178.092z"/>
			<g>
				<path style="fill:#0097FA;" d="M461.645,277.507v25.637h-15.296v-17.988h-23.791v17.988h-15.296v-25.637
					c0-4.222,3.426-7.648,7.648-7.648h39.087C458.218,269.859,461.645,273.286,461.645,277.507z"/>
				<path style="fill:#0097FA;" d="M322.611,277.507v25.637h-15.296v-17.988h-25.321c-4.222,0-7.648-3.416-7.648-7.648
					c0-4.222,3.426-7.648,7.648-7.648h32.969C319.185,269.859,322.611,273.286,322.611,277.507z"/>
			</g>
		</g>
		<g>
			<path style="fill:#B6DCFF;" d="M476.264,407.49c1.288-5.193,1.983-10.62,1.983-16.212c0-37.066-30.048-67.114-67.114-67.114
				c-29.001,0-53.703,18.396-63.081,44.154c-8.793-6.402-19.613-10.188-31.322-10.188c-29.428,0-53.285,23.856-53.285,53.285
				c0,4.439,0.552,8.748,1.575,12.871c-15.999,2.027-28.373,15.676-28.373,32.225c0,17.946,14.548,32.495,32.495,32.495h201.93
				c22.604,0,40.928-18.324,40.928-40.928C512,427.235,496.414,410.043,476.264,407.49z"/>
			<path style="fill:#65BAFC;" d="M512,448.082c0,20.956-15.755,38.231-36.079,40.637c7.128-7.363,11.503-17.397,11.503-28.441
				c0-20.844-15.582-38.037-35.742-40.586c1.295-5.191,1.989-10.626,1.989-16.214c0-37.068-30.052-67.11-67.11-67.11
				c-5.833,0-11.503,0.744-16.897,2.141c11.411-8.984,25.82-14.348,41.474-14.348c37.058,0,67.11,30.052,67.11,67.12
				c0,5.588-0.693,11.013-1.978,16.204C496.418,410.045,512,427.238,512,448.082z"/>
			<g>
				<path style="fill:#1475CC;" d="M296.914,332.554v162.345c0,5.191-4.212,9.402-9.402,9.402H14.585
					c-5.191,0-9.402-4.212-9.402-9.402V332.554c0-31.949,19.253-59.411,46.776-71.413c4.405-1.927,9.025-3.447,13.818-4.517
					c5.548-1.264,11.33-1.927,17.264-1.927h136.015c4.252,0,8.433,0.326,12.502,0.999c1.601,0.255,3.192,0.571,4.762,0.928
					c4.793,1.081,9.412,2.6,13.818,4.517c0.031,0.01,0.041,0.02,0.071,0.041C277.701,273.194,296.914,300.635,296.914,332.554z"/>
				<path style="fill:#0057A1;" d="M158.696,329.219v175.082H143.4V329.219c0-4.232,3.426-7.648,7.648-7.648
					C155.27,321.571,158.696,324.987,158.696,329.219z"/>
				<path style="fill:#0057A1;" d="M236.32,256.623c-15.725,31.286-48.102,52.568-85.272,52.568s-69.547-21.282-85.272-52.568
					c5.548-1.264,11.33-1.927,17.264-1.927h136.015c4.252,0,8.433,0.326,12.502,0.999
					C233.159,255.95,234.749,256.266,236.32,256.623z"/>
				<path style="fill:#0057A1;" d="M296.912,332.554v162.349c0,5.188-4.21,9.398-9.398,9.398h-21.662
					c5.188,0,9.398-4.21,9.398-9.398V332.554c0-31.944-19.247-59.404-46.773-71.405c-5.855-2.556-12.076-4.408-18.58-5.451
					c-4.069-0.667-8.251-1.006-12.509-1.006h21.662c4.257,0,8.439,0.338,12.509,1.006c6.503,1.043,12.725,2.895,18.58,5.451
					C277.665,273.15,296.912,300.61,296.912,332.554z"/>
				<path style="fill:#0057A1;" d="M251.677,369.887v134.414h-15.296V369.887c0-4.232,3.426-7.648,7.648-7.648
					C248.251,362.239,251.677,365.655,251.677,369.887z"/>
				<path style="fill:#0057A1;" d="M65.715,369.887v134.414H50.419V369.887c0-4.232,3.416-7.648,7.648-7.648
					C62.289,362.239,65.715,365.655,65.715,369.887z"/>
				<g>
					<ellipse style="fill:#1475CC;" cx="151.047" cy="65.657" rx="138.042" ry="57.959"/>
					<path style="fill:#0057A1;" d="M289.092,65.654c0,32.01-61.807,57.963-138.044,57.963c-4.293,0-8.535-0.082-12.727-0.245
						c70.271-2.702,125.307-27.513,125.307-57.718S208.593,10.648,138.322,7.946c4.191-0.163,8.433-0.245,12.727-0.245
						C227.285,7.701,289.092,33.644,289.092,65.654z"/>
					<g>
						<circle style="fill:#FFBC8A;" cx="246.636" cy="183.066" r="21.742"/>
					</g>
					<g>
						<circle style="fill:#FFBC8A;" cx="55.457" cy="183.066" r="21.742"/>
					</g>
					<g>
						<path style="fill:#D8AA64;" d="M209.245,309.844l-49.493,49.493c-3.212,3.212-8.704,0.937-8.704-3.605v-71.351l43.86-3.263
							l10.85,10.85l3.488,3.477C213.222,299.422,213.222,305.867,209.245,309.844z"/>
					</g>
					<path style="fill:#C99D5C;" d="M205.758,291.968c-15.521,10.871-34.396,17.224-54.71,17.224v-24.811l43.86-3.263
						L205.758,291.968z"/>
					<g>
						<path style="fill:#FAC574;" d="M151.048,284.381v71.351c0,4.543-5.492,6.817-8.704,3.605l-49.493-49.493
							c-3.977-3.977-3.977-10.422,0-14.399l3.488-3.477l10.85-10.85L151.048,284.381z"/>
					</g>
					<path style="fill:#D8AA64;" d="M151.048,284.381v24.811c-20.314,0-39.189-6.353-54.71-17.224l10.85-10.85L151.048,284.381z"/>
					<path style="fill:#FDD1A7;" d="M151.047,296.959L151.047,296.959c-44.233,0-80.723-34.63-83.035-78.802l-3.167-60.507
						c-1.344-25.68,19.116-47.239,44.831-47.239h82.742c25.715,0,46.175,21.559,44.831,47.239l-3.167,60.507
						C231.769,262.329,195.279,296.959,151.047,296.959z"/>
					<g>
						<g>
							<path style="fill:#0057A1;" d="M112.286,212.669c-4.224,0-7.648-3.424-7.648-7.648c0-4.224,3.424-7.696,7.648-7.696
								s7.648,3.376,7.648,7.6v0.096C119.935,209.245,116.511,212.669,112.286,212.669z"/>
							<path style="fill:#0057A1;" d="M189.807,212.669c-4.224,0-7.648-3.424-7.648-7.648c0-4.224,3.424-7.696,7.648-7.696
								c4.224,0,7.648,3.376,7.648,7.6v0.096C197.455,209.245,194.031,212.669,189.807,212.669z"/>
						</g>
					</g>
					<path style="fill:#F5A871;" d="M151.046,260.632c-13.38,0-25.31-8.984-29.008-21.848c-1.167-4.06,1.177-8.297,5.237-9.464
						c4.059-1.165,8.296,1.177,9.464,5.237c1.824,6.347,7.708,10.779,14.307,10.779s12.484-4.433,14.308-10.779
						c1.167-4.06,5.407-6.405,9.464-5.237c4.06,1.167,6.404,5.404,5.237,9.464C176.357,251.648,164.427,260.632,151.046,260.632z"/>
					<g>
						<path style="fill:#1475CC;" d="M48.115,135.832l7.539,26.255c3.446,12,14.421,20.267,26.906,20.267h136.974
							c12.485,0,23.46-8.268,26.906-20.267l7.539-26.255H48.115z"/>
						<path style="fill:#0057A1;" d="M253.98,135.833l-7.543,26.254c-3.441,12.002-14.415,20.268-26.905,20.268h-21.653
							c12.481,0,23.454-8.266,26.905-20.268l7.533-26.254H253.98z"/>
					</g>
					<g>
						<path style="fill:#FAC574;" d="M252.961,92.719H49.133c-5.622,0-10.18,4.558-10.18,10.18v25.807
							c0,5.622,4.558,10.18,10.18,10.18h203.829c5.622,0,10.18-4.558,10.18-10.18v-25.807
							C263.141,97.277,258.584,92.719,252.961,92.719z"/>
						<path style="fill:#D8AA64;" d="M263.138,102.901v25.806c0,5.619-4.55,10.18-10.18,10.18h-21.754
							c5.619,0,10.18-4.561,10.18-10.18v-25.806c0-5.629-4.561-10.18-10.18-10.18h21.754
							C258.588,92.721,263.138,97.272,263.138,102.901z"/>
					</g>
					<circle style="fill:#FFF5F5;" cx="151.047" cy="92.719" r="21.658"/>
					<path style="fill:#E0D3CE;" d="M172.71,92.721c0,11.961-9.701,21.653-21.663,21.653c-3.034,0-5.925-0.621-8.551-1.751
						c7.706-3.319,13.102-10.974,13.102-19.902c0-8.928-5.395-16.593-13.102-19.912c2.626-1.13,5.518-1.751,8.551-1.751
						C163.008,71.059,172.71,80.76,172.71,92.721z"/>
				</g>
				<g>
					<g>
						<path style="fill:#FAC574;" d="M302.094,388.202c0,4.232-3.426,7.648-7.648,7.648h-22.424c-4.222,0-7.648-3.416-7.648-7.648
							c0-4.222,3.426-7.648,7.648-7.648h22.424C298.668,380.554,302.094,383.98,302.094,388.202z"/>
						<path style="fill:#FAC574;" d="M302.094,416.643c0,4.222-3.426,7.648-7.648,7.648h-22.424c-4.222,0-7.648-3.426-7.648-7.648
							c0-4.222,3.426-7.648,7.648-7.648h22.424C298.668,408.995,302.094,412.421,302.094,416.643z"/>
					</g>
					<g>
						<path style="fill:#FAC574;" d="M30.074,395.855H7.648c-4.224,0-7.648-3.424-7.648-7.648c0-4.224,3.424-7.648,7.648-7.648
							h22.426c4.224,0,7.648,3.424,7.648,7.648C37.722,392.43,34.298,395.855,30.074,395.855z"/>
						<path style="fill:#FAC574;" d="M30.074,424.293H7.648c-4.224,0-7.648-3.424-7.648-7.648c0-4.224,3.424-7.648,7.648-7.648
							h22.426c4.224,0,7.648,3.424,7.648,7.648C37.722,420.868,34.298,424.293,30.074,424.293z"/>
					</g>
				</g>
				<path style="fill:#FAC574;" d="M184.69,418.185h-4.552c-4.224,0-7.648-3.424-7.648-7.648c0-4.224,3.424-7.648,7.648-7.648h4.552
					c4.224,0,7.648,3.424,7.648,7.648C192.338,414.76,188.914,418.185,184.69,418.185z"/>
				<path style="fill:#FAC574;" d="M184.69,459.113h-4.552c-4.224,0-7.648-3.424-7.648-7.648c0-4.224,3.424-7.648,7.648-7.648h4.552
					c4.224,0,7.648,3.424,7.648,7.648C192.338,455.688,188.914,459.113,184.69,459.113z"/>
			</g>
		</g>
		<path style="fill:#65BAFC;" d="M421.103,431.354c-4.224,0-7.648-3.424-7.648-7.648c0-14.07-11.446-25.517-25.517-25.517
			c-14.07,0-25.517,11.447-25.517,25.517c0,4.224-3.424,7.648-7.648,7.648s-7.648-3.424-7.648-7.648
			c0-22.504,18.309-40.813,40.813-40.813c22.504,0,40.813,18.309,40.813,40.813C428.751,427.929,425.327,431.354,421.103,431.354z"
			/>
	</g>
	<path style="fill:#D8AA64;" d="M302.094,416.643c0,4.222-3.426,7.648-7.648,7.648h-19.192v-15.296h19.192
		C298.668,408.995,302.094,412.421,302.094,416.643z"/>
	<path style="fill:#D8AA64;" d="M294.446,395.85h-19.192v-15.296h19.192c4.222,0,7.648,3.426,7.648,7.648
		C302.094,392.434,298.668,395.85,294.446,395.85z"/>
</g>
<g>
</g>
<g>
</g>
<g>
</g>
<g>
</g>
<g>
</g>
<g>
</g>
<g>
</g>
<g>
</g>
<g>
</g>
<g>
</g>
<g>
</g>
<g>
</g>
<g>
</g>
<g>
</g>
<g>
</g>
</svg>
