<?xml version="1.0" encoding="iso-8859-1"?>
<!-- Generator: Adobe Illustrator 23.0.3, SVG Export Plug-In . SVG Version: 6.00 Build 0)  -->
<svg version="1.1" id="Capa_1" xmlns="http://www.w3.org/2000/svg" xmlns:xlink="http://www.w3.org/1999/xlink" x="0px" y="0px"
	 viewBox="0 0 512 512" style="enable-background:new 0 0 512 512;" xml:space="preserve">
<g>
	<g>
		<g>
			<g>
				<g>
					<g>
						<g>
							<g>
								<path style="fill:#9E9797;" d="M472.31,233.656c0,17.546-8.053,31.77-17.987,31.77c-9.934,0-17.987-14.224-17.987-31.77
									s8.053-20.948,17.987-20.948C464.257,212.707,472.31,216.11,472.31,233.656z"/>
								<path style="fill:#756F6F;" d="M472.306,233.655c0,17.549-8.048,31.772-17.988,31.772c-2.79,0-5.433-1.122-7.794-3.131
									c6.029-5.131,10.184-16.027,10.184-28.64s-4.156-17.91-10.184-19.9c2.361-0.771,5.004-1.044,7.794-1.044
									C464.258,212.711,472.306,216.106,472.306,233.655z"/>
							</g>
							<g>
								<path style="fill:#9E9797;" d="M306.693,233.656c0,17.546-8.053,31.77-17.987,31.77c-9.934,0-17.987-14.224-17.987-31.77
									s8.053-20.948,17.987-20.948C298.64,212.707,306.693,216.11,306.693,233.656z"/>
								<path style="fill:#756F6F;" d="M306.688,233.655c0,17.549-8.048,31.772-17.978,31.772c-2.878,0-5.59-1.19-7.999-3.307
									c5.921-5.209,9.989-15.998,9.989-28.465c0-12.467-4.068-17.793-9.989-19.832c2.409-0.829,5.121-1.112,7.999-1.112
									C298.64,212.711,306.688,216.106,306.688,233.655z"/>
							</g>
						</g>
						<g>
							<g>
								<path style="fill:#65BAFC;" d="M512,271.649v16.813c0,5.388-4.368,9.756-9.756,9.756H382.012v-70.938l122.901,34.985
									C509.105,263.459,512,267.281,512,271.649z"/>
								<path style="fill:#0097FA;" d="M511.999,271.641v16.827c0,5.385-4.37,9.755-9.755,9.755h-16.583
									c5.385,0,9.755-4.37,9.755-9.755v-22.68c0-2.761-1.161-5.307-3.083-7.102l12.584,3.58
									C509.111,263.456,511.999,267.29,511.999,271.641z"/>
								<path style="fill:#65BAFC;" d="M361.017,227.279v70.938H240.784c-5.388,0-9.756-4.368-9.756-9.756v-16.813
									c0-4.368,2.895-8.19,7.088-9.385L361.017,227.279z"/>
							</g>
							<path style="fill:#FFF5F5;" d="M390.655,178.603V355.32c0,31.184-8.571,51.478-19.141,51.478
								c-10.569,0-19.13-20.295-19.13-51.478V178.603c0-1.896,0.031-3.75,0.093-5.563c0.392-11.404,1.957-21.139,4.378-28.66
								c3.513-10.961,8.777-17.245,14.659-17.245c5.883,0,11.157,6.284,14.659,17.235c2.442,7.613,4.038,17.492,4.399,29.092
								C390.624,175.142,390.655,176.852,390.655,178.603z"/>
							<path style="fill:#65BAFC;" d="M386.171,144.369c-4.156,2.907-9.209,4.604-14.652,4.604c-5.443,0-10.506-1.697-14.662-4.595
								c3.512-10.955,8.77-17.247,14.662-17.247C377.401,127.132,382.669,133.414,386.171,144.369z"/>
						</g>
						<path style="fill:#65BAFC;" d="M390.655,178.603V194.2c-2.977,0-5.81-1.731-7.077-4.636c-2.133-4.873-6.954-8.025-12.28-8.025
							c-5.12,0-9.715,2.843-12.002,7.428c-1.35,2.709-4.069,4.275-6.912,4.275v-14.639c0-1.896,0.031-3.75,0.093-5.563
							c5.13-4.43,11.744-6.954,18.821-6.954c7.263,0,14.083,2.72,19.275,7.376C390.624,175.142,390.655,176.852,390.655,178.603z"/>
						<g>
							<g>
								<path style="fill:#0097FA;" d="M464.437,273.699v24.518h-15.453v-16.792h-21.943v16.792h-15.453v-24.518
									c0-4.265,3.462-7.726,7.726-7.726h37.396C460.975,265.973,464.437,269.434,464.437,273.699z"/>
								<path style="fill:#0097FA;" d="M331.44,273.699v24.518h-15.453v-16.792h-21.953v16.792h-15.453v-24.518
									c0-4.265,3.462-7.726,7.726-7.726h37.406C327.979,265.973,331.44,269.434,331.44,273.699z"/>
							</g>
						</g>
					</g>
					<g>
						<path style="fill:#B6DCFF;" d="M455.609,403.881c1.232-4.968,1.897-10.159,1.897-15.508c0-35.457-28.743-64.2-64.2-64.2
							c-27.742,0-51.372,17.597-60.342,42.237c-8.411-6.124-18.762-9.746-29.962-9.746c-28.151,0-50.972,22.821-50.972,50.972
							c0,4.247,0.528,8.369,1.506,12.313c-15.304,1.939-27.141,14.996-27.141,30.826c0,17.167,13.917,31.084,31.084,31.084h193.165
							c21.623,0,39.151-17.529,39.151-39.151C489.794,422.769,474.885,406.323,455.609,403.881z"/>
						<path style="fill:#65BAFC;" d="M489.794,442.711c0,20.046-15.071,36.571-34.513,38.873
							c6.819-7.043,11.004-16.642,11.004-27.206c0-19.939-14.905-36.386-34.191-38.824c1.239-4.965,1.902-10.165,1.902-15.51
							c0-35.459-28.748-64.197-64.197-64.197c-5.58,0-11.004,0.712-16.164,2.048c10.916-8.594,24.699-13.725,39.673-13.725
							c35.449,0,64.197,28.748,64.197,64.206c0,5.346-0.663,10.535-1.893,15.5C474.889,406.325,489.794,422.772,489.794,442.711z"/>
					</g>
					<path style="fill:#65BAFC;" d="M421.385,449.123c-4.268,0-7.726-3.459-7.726-7.726c0-13.233-10.766-23.998-23.998-23.998
						c-13.233,0-23.999,10.766-23.999,23.998c0,4.267-3.459,7.726-7.726,7.726s-7.726-3.459-7.726-7.726
						c0-21.754,17.698-39.451,39.452-39.451c21.754,0,39.451,17.698,39.451,39.451C429.112,445.664,425.653,449.123,421.385,449.123
						z"/>
				</g>
			</g>
		</g>
		<g>
			<path style="fill:#FAC574;" d="M310.363,329.906V499.35c0,5.408-4.389,9.807-9.807,9.807H9.807c-5.408,0-9.807-4.399-9.807-9.807
				V329.906c0-33.337,20.089-62.007,48.82-74.523c5.192-2.266,10.662-4.007,16.359-5.141c5.192-1.051,10.57-1.607,16.081-1.607
				h147.841c4.44,0,8.808,0.361,13.052,1.051c1.02,0.165,2.029,0.35,3.029,0.556c5.697,1.133,11.167,2.874,16.37,5.141
				C290.274,267.899,310.363,296.569,310.363,329.906z"/>
			<path style="fill:#D8AA64;" d="M245.183,250.242c-15.762,34.089-50.252,57.515-89.997,57.515
				c-39.755,0-74.235-23.426-90.007-57.515c5.192-1.051,10.57-1.607,16.081-1.607h147.841c4.44,0,8.808,0.361,13.052,1.051
				C243.174,249.85,244.184,250.036,245.183,250.242z"/>
			<path style="fill:#0057A1;" d="M216.462,248.635c-0.278,14.999-1.741,28.639-4.234,41.073
				c-6.078,30.359-18.296,53.549-34.552,71.865c-6.84,7.706-14.381,14.546-22.489,20.696c-7.984-6.057-15.432-12.795-22.19-20.367
				c-16.411-18.368-28.742-41.65-34.851-72.185c-2.493-12.434-3.956-26.084-4.234-41.084H216.462z"/>
			<path style="fill:#004480;" d="M216.462,248.635c-0.278,14.999-1.741,28.639-4.234,41.073
				c-16.163,11.394-35.85,18.049-57.041,18.049s-40.878-6.655-57.041-18.038c-2.493-12.434-3.956-26.084-4.234-41.084H216.462z"/>
			<path style="fill:#FFF5F5;" d="M177.675,361.574c-6.84,7.706-14.381,14.546-22.489,20.696
				c-7.984-6.057-15.432-12.795-22.19-20.367l8.715-49.057h27.3L177.675,361.574z"/>
			<g>
				<path style="fill:#CDBFBB;" d="M175.811,297.321v11.888c0,8.118-6.572,14.69-14.68,14.69h-11.899
					c-8.108,0-14.68-6.573-14.68-14.69v-11.888c0-8.108,6.573-14.68,14.68-14.68h11.899
					C169.238,282.641,175.811,289.214,175.811,297.321z"/>
				<path style="fill:#9E9797;" d="M175.811,297.321v8.283c-6.655,1.411-13.557,2.153-20.624,2.153s-13.98-0.742-20.635-2.153
					v-8.283c0-8.108,6.573-14.68,14.68-14.68h11.899C169.238,282.641,175.811,289.214,175.811,297.321z"/>
			</g>
			<path style="fill:#D8AA64;" d="M310.365,329.904v169.442c0,5.414-4.394,9.809-9.809,9.809h-58.4V249.689
				c6.788,1.089,13.281,3.021,19.392,5.689C290.277,267.904,310.365,296.564,310.365,329.904z"/>
			<g>
				<path style="fill:#1475CC;" d="M310.365,329.904v169.442c0,5.417-4.391,9.809-9.809,9.809h-39.009V255.378
					C290.277,267.904,310.365,296.564,310.365,329.904z"/>
				<path style="fill:#0057A1;" d="M310.365,329.904v169.442c0,5.414-4.394,9.809-9.809,9.809h-20.637
					c5.414,0,9.809-4.394,9.809-9.809V329.904c0-24.58-10.927-46.63-28.18-61.529v-12.996
					C290.277,267.904,310.365,296.564,310.365,329.904z"/>
				<path style="fill:#1475CC;" d="M48.817,255.378v253.776H9.809c-5.417,0-9.809-4.391-9.809-9.809V329.904
					C0,296.564,20.088,267.904,48.817,255.378z"/>
			</g>
			<g>
				<g>
					<g>
						<g>
							<g>
								<line style="fill:none;" x1="205.667" y1="234.172" x2="205.667" y2="234.266"/>
							</g>
						</g>
					</g>
				</g>
			</g>
			<g>
				<g>
					<circle style="fill:#FFBC8A;" cx="254.948" cy="170.139" r="22.692"/>
				</g>
				<g>
					<circle style="fill:#FFBC8A;" cx="55.416" cy="170.139" r="22.692"/>
				</g>
				<g>
					<path style="fill:#FDD1A7;" d="M155.182,295.393L155.182,295.393c-46.165,0-84.25-36.143-86.663-82.245l-5.886-112.454h185.098
						l-5.886,112.454C239.432,259.25,201.347,295.393,155.182,295.393z"/>
				</g>
				<g>
					<g>
						<g>
							<path style="fill:#AA613C;" d="M114.729,207.166c-4.268,0-7.726-3.459-7.726-7.726c0-4.267,3.459-7.777,7.726-7.777
								c4.268,0,7.726,3.409,7.726,7.677v0.1C122.456,203.706,118.997,207.166,114.729,207.166z"/>
							<path style="fill:#AA613C;" d="M195.636,207.166c-4.268,0-7.726-3.459-7.726-7.726c0-4.267,3.459-7.777,7.726-7.777
								s7.726,3.409,7.726,7.677v0.1C203.362,203.706,199.903,207.166,195.636,207.166z"/>
						</g>
					</g>
					<path style="fill:#F5A871;" d="M155.182,257.224c-13.851,0-26.199-9.301-30.03-22.617c-1.179-4.101,1.189-8.382,5.29-9.561
						c4.1-1.177,8.381,1.189,9.561,5.29c1.937,6.733,8.178,11.436,15.179,11.436s13.243-4.702,15.179-11.435
						c1.179-4.101,5.462-6.471,9.56-5.291c4.102,1.179,6.47,5.46,5.291,9.56C181.383,247.923,169.034,257.224,155.182,257.224z"/>
				</g>
				<path style="fill:#C86D3D;" d="M53.983,104.498v24.003c0,18.738,15.19,33.929,33.929,33.929h28.67c2.982,0,5.4-2.417,5.4-5.4
					v-21.211c3.347,15.219,16.904,26.611,33.129,26.611h28.67c2.982,0,5.4-2.417,5.4-5.4v-21.211
					c3.347,15.219,16.904,26.611,33.129,26.611h28.67c2.982,0,5.4-2.417,5.4-5.4v-52.532c0-33.748-27.358-61.106-61.106-61.106
					h-80.183C81.341,43.391,53.983,70.75,53.983,104.498z"/>
				<path style="fill:#AC5E33;" d="M256.382,104.497v52.529c0,2.981-2.419,5.4-5.4,5.4h-21.771c2.981,0,5.4-2.419,5.4-5.4v-52.529
					c0-33.748-27.354-61.102-61.102-61.102h21.76C229.017,43.395,256.382,70.749,256.382,104.497z"/>
			</g>
		</g>
	</g>
	<path style="fill:#D8AA64;" d="M155.186,440.405c-4.268,0-7.726-3.459-7.726-7.726c0-4.267,3.459-7.776,7.726-7.776
		c4.268,0,7.726,3.409,7.726,7.676v0.1C162.912,436.946,159.454,440.405,155.186,440.405z"/>
	<path style="fill:#D8AA64;" d="M155.186,478.019c-4.268,0-7.726-3.459-7.726-7.726c0-4.267,3.459-7.777,7.726-7.777
		c4.268,0,7.726,3.409,7.726,7.677v0.1C162.912,474.559,159.454,478.019,155.186,478.019z"/>
	<g>
		<path style="fill:#1475CC;" d="M150.101,50.84c0.929,4.378-1.066,8.864-4.956,11.077c-7.755,4.412-21.783,11.378-38.186,14.857
			c-15.968,3.387-31.855,2.725-40.882,1.871c-4.478-0.424-8.152-3.717-9.085-8.117l-8.027-37.841l93.097-19.747L150.101,50.84z"/>
		<path style="fill:#0057A1;" d="M145.146,61.913c-3.183,1.813-7.397,4.049-12.414,6.294c1.298-2.174,1.772-4.811,1.226-7.407
			l-9.601-44.102l17.709-3.76l8.035,37.9C151.028,55.217,149.04,59.709,145.146,61.913z"/>
		
			<ellipse transform="matrix(0.9782 -0.2075 0.2075 0.9782 -2.6549 20.3149)" style="fill:#FAC574;" cx="95.514" cy="22.813" rx="47.584" ry="17.741"/>
		<path style="fill:#D8AA64;" d="M99.196,40.167c-12.074,2.555-23.447,3.183-32.317,2.122c4.368-0.422,8.963-1.123,13.65-2.122
			c25.713-5.45,44.906-17.647,42.866-27.228c-1.071-5.079-7.891-8.406-17.884-9.601c19.573-1.906,34.892,1.772,36.551,9.601
			C144.091,22.52,124.899,34.718,99.196,40.167z"/>
	</g>
	<path style="fill:#FFF5F5;" d="M227.94,380.838h-25.363c-4.268,0-7.726-3.459-7.726-7.726c0-4.267,3.459-7.726,7.726-7.726h25.363
		c4.268,0,7.726,3.459,7.726,7.726C235.666,377.379,232.207,380.838,227.94,380.838z"/>
</g>
<g>
</g>
<g>
</g>
<g>
</g>
<g>
</g>
<g>
</g>
<g>
</g>
<g>
</g>
<g>
</g>
<g>
</g>
<g>
</g>
<g>
</g>
<g>
</g>
<g>
</g>
<g>
</g>
<g>
</g>
</svg>
