<?xml version="1.0" encoding="iso-8859-1"?>
<!-- Generator: Adobe Illustrator 23.0.3, SVG Export Plug-In . SVG Version: 6.00 Build 0)  -->
<svg version="1.1" id="Capa_1" xmlns="http://www.w3.org/2000/svg" xmlns:xlink="http://www.w3.org/1999/xlink" x="0px" y="0px"
	 viewBox="0 0 512 512" style="enable-background:new 0 0 512 512;" xml:space="preserve">
<g>
	<g>
		<g>
			<path style="fill:#DB885D;" d="M400.309,307.097v161.86c0,5.174-4.195,9.369-9.369,9.369H118.833
				c-5.174,0-9.369-4.195-9.369-9.369v-161.86c0-31.849,19.191-59.226,46.632-71.191c9.489-4.139,19.976-6.431,30.99-6.431h135.601
				c4.241,0,8.408,0.333,12.464,0.998c6.486,1.044,12.686,2.892,18.525,5.433c0.028,0.009,0.046,0.018,0.074,0.037
				C381.155,247.918,400.309,275.276,400.309,307.097z"/>
			<path style="fill:#C86D3D;" d="M400.31,307.101v161.857c0,5.172-4.198,9.369-9.369,9.369h-21.597
				c5.172,0,9.369-4.198,9.369-9.369V307.101c0-31.847-19.189-59.224-46.632-71.189c-5.837-2.549-12.04-4.394-18.523-5.434
				c-4.057-0.665-8.226-1.003-12.471-1.003h21.597c4.244,0,8.414,0.337,12.471,1.003c6.484,1.04,12.686,2.886,18.523,5.434
				C381.121,247.876,400.31,275.254,400.31,307.101z"/>
			<path style="fill:#0097FA;" d="M353.753,235.942v242.38H156.095V235.902c4.396-1.921,8.993-3.43,13.761-4.506
				c5.542-1.257,11.306-1.921,17.231-1.921h135.605c4.235,0,8.399,0.332,12.463,0.996c1.609,0.262,3.189,0.563,4.758,0.925
				c4.778,1.076,9.365,2.595,13.761,4.506C353.702,235.912,353.723,235.922,353.753,235.942z"/>
			<path style="fill:#0076F8;" d="M339.912,231.396c-15.601,31.293-47.921,52.608-85.028,52.608s-69.417-21.315-85.028-52.608
				c5.542-1.257,11.306-1.921,17.231-1.921h135.605c4.235,0,8.399,0.332,12.463,0.996
				C336.763,230.732,338.342,231.034,339.912,231.396z"/>
			<path style="fill:#0076F8;" d="M353.746,235.946v242.381h-18.179V230.545c6.339,1.048,12.398,2.875,18.109,5.361
				C353.706,235.916,353.726,235.926,353.746,235.946z"/>
			<g>
				<rect x="202.597" y="235.641" style="fill:#DB885D;" width="104.583" height="114.34"/>
			</g>
			<path style="fill:#C86D3D;" d="M307.18,235.641v32.681c-15.018,9.928-33.013,15.682-52.296,15.682s-37.268-5.754-52.286-15.672
				v-32.692H307.18z"/>
		</g>
		<path style="fill:#0076F8;" d="M289.93,457.902c-4.167,0-7.544-3.377-7.544-7.544v-12.783h-54.999v12.783
			c0,4.167-3.378,7.544-7.544,7.544s-7.544-3.377-7.544-7.544V430.03c0-4.167,3.378-7.544,7.544-7.544h70.087
			c4.167,0,7.544,3.377,7.544,7.544v20.327C297.474,454.525,294.097,457.902,289.93,457.902z"/>
		<path style="fill:#0097FA;" d="M349.842,349.983h-40.861c-5.103,0-9.24-4.137-9.24-9.24v-18.322c0-5.103,4.137-9.24,9.24-9.24
			h40.861c5.103,0,9.24,4.137,9.24,9.24v18.322C359.081,345.846,354.945,349.983,349.842,349.983z"/>
		<path style="fill:#0076F8;" d="M359.077,322.417v18.328c0,5.101-4.133,9.234-9.234,9.234h-23.519c5.111,0,9.244-4.133,9.244-9.234
			v-18.328c0-5.101-4.133-9.234-9.244-9.234h23.519C354.944,313.183,359.077,317.315,359.077,322.417z"/>
		<path style="fill:#E0D3CE;" d="M349.842,357.527h-40.861c-9.255,0-16.784-7.528-16.784-16.783v-18.322
			c0-9.254,7.529-16.784,16.784-16.784h40.861c9.255,0,16.784,7.529,16.784,16.784v18.322
			C366.626,349.998,359.097,357.527,349.842,357.527z M308.981,320.726c-0.935,0-1.695,0.76-1.695,1.695v18.322
			c0,0.934,0.761,1.694,1.695,1.694h40.861c0.935,0,1.695-0.76,1.695-1.694v-18.322c0-0.935-0.761-1.695-1.695-1.695H308.981z"/>
		<path style="fill:#0097FA;" d="M200.792,349.983h-40.861c-5.103,0-9.24-4.137-9.24-9.24v-18.322c0-5.103,4.137-9.24,9.24-9.24
			h40.861c5.103,0,9.24,4.137,9.24,9.24v18.322C210.032,345.846,205.895,349.983,200.792,349.983z"/>
		<path style="fill:#E0D3CE;" d="M200.792,357.527h-40.861c-9.254,0-16.783-7.528-16.783-16.783v-18.322
			c0-9.254,7.529-16.784,16.783-16.784h40.861c9.255,0,16.784,7.529,16.784,16.784v18.322
			C217.576,349.998,210.047,357.527,200.792,357.527z M159.931,320.726c-0.935,0-1.695,0.76-1.695,1.695v18.322
			c0,0.934,0.76,1.694,1.695,1.694h40.861c0.935,0,1.695-0.76,1.695-1.694v-18.322c0-0.935-0.761-1.695-1.695-1.695H159.931z"/>
		<path style="fill:#CDBFBB;" d="M329.163,333.629c-4.167,0-7.544-3.377-7.544-7.544v-11.087c0-4.167,3.378-7.544,7.544-7.544
			s7.544,3.377,7.544,7.544v11.087C336.707,330.251,333.329,333.629,329.163,333.629z"/>
		<path style="fill:#CDBFBB;" d="M180.611,333.629c-4.167,0-7.544-3.377-7.544-7.544v-11.087c0-4.167,3.378-7.544,7.544-7.544
			s7.544,3.377,7.544,7.544v11.087C188.155,330.251,184.778,333.629,180.611,333.629z"/>
		<g>
			<circle style="fill:#FFBC8A;" cx="350.187" cy="152.289" r="21.676"/>
			<circle style="fill:#FFBC8A;" cx="159.587" cy="152.289" r="21.676"/>
			<path style="fill:#FDD1A7;" d="M254.887,271.937L254.887,271.937c-44.099,0-80.478-34.525-82.783-78.563l-3.158-60.324
				c-1.34-25.602,19.058-47.096,44.695-47.096h82.492c25.637,0,46.035,21.494,44.695,47.096l-3.158,60.324
				C335.365,237.411,298.985,271.937,254.887,271.937z"/>
			<g>
				<g>
					<g>
						<g>
							<line style="fill:none;" x1="303.111" y1="185.476" x2="303.111" y2="185.566"/>
						</g>
					</g>
				</g>
			</g>
			<g>
				<g>
					<path style="fill:#C86D3D;" d="M216.244,187.822c-4.167,0-7.544-3.377-7.544-7.544c0-4.167,3.378-7.592,7.544-7.592
						s7.544,3.329,7.544,7.496v0.096C223.788,184.445,220.411,187.822,216.244,187.822z"/>
					<path style="fill:#C86D3D;" d="M293.529,187.822c-4.167,0-7.544-3.377-7.544-7.544c0-4.167,3.378-7.592,7.544-7.592
						s7.544,3.329,7.544,7.496v0.096C301.073,184.445,297.695,187.822,293.529,187.822z"/>
				</g>
			</g>
			<path style="fill:#F5A871;" d="M254.887,235.639c-13.304,0-25.164-8.933-28.843-21.723c-1.152-4.004,1.16-8.184,5.165-9.336
				c4.004-1.153,8.184,1.161,9.335,5.165c1.83,6.362,7.728,10.805,14.343,10.805s12.513-4.443,14.342-10.805
				c1.152-4.005,5.333-6.315,9.335-5.165c4.004,1.151,6.317,5.331,5.166,9.336C280.051,226.706,268.191,235.639,254.887,235.639z"/>
			<path style="fill:#0097FA;" d="M380.02,113.783c4.397,3.359,5.226,9.65,1.852,14.035c-13.916,18.083-65.49,31.509-126.984,31.509
				s-113.069-13.425-126.984-31.509c-3.375-4.385-2.546-10.676,1.852-14.035l30.126-23.011l11.839-56.16
				c2.34-11.099,12.133-19.043,23.477-19.043h119.382c11.343,0,21.137,7.944,23.477,19.043l11.839,56.16L380.02,113.783z"/>
			<path style="fill:#0086F9;" d="M381.868,127.817c-4.154,5.402-11.658,10.381-21.788,14.716c2.223-1.66,4.064-3.43,5.492-5.281
				c3.551-4.607,2.676-11.216-1.941-14.736L334.881,97.97l-13.408-63.238c-2.002-9.486-9.184-16.778-18.207-19.162h11.306
				c11.346,0,21.144,7.947,23.478,19.042L349.89,90.77l30.126,23.015C384.412,117.144,385.247,123.431,381.868,127.817z"/>
			<path style="fill:#0086F9;" d="M353.27,98.286c-3.762,1.881-7.725,3.641-11.849,5.271c-24.313,9.636-54.499,14.867-86.537,14.867
				c-37.459,0-72.404-7.152-98.386-20.138c-3.722-1.861-5.231-6.387-3.37-10.119c1.861-3.722,6.387-5.241,10.119-3.37
				c23.578,11.779,56.974,18.539,91.637,18.539c28.598,0,56.34-4.597,78.42-12.835c4.677-1.73,9.103-3.641,13.227-5.703
				c3.722-1.871,8.258-0.352,10.119,3.37C358.511,91.898,357.002,96.425,353.27,98.286z"/>
			<path style="fill:#0076F8;" d="M353.27,98.286c-3.762,1.881-7.725,3.641-11.849,5.271l-6.538-5.583l-1.579-7.474
				c4.677-1.73,9.103-3.641,13.227-5.703c3.722-1.871,8.258-0.352,10.119,3.37C358.511,91.898,357.002,96.425,353.27,98.286z"/>
			<path style="fill:#8EC737;" d="M245.903,130.925c-4.167,0-7.544-3.377-7.544-7.544v-31.84c0-4.167,3.378-7.544,7.544-7.544
				s7.544,3.377,7.544,7.544v31.84C253.447,127.548,250.069,130.925,245.903,130.925z"/>
			<path style="fill:#E0D3CE;" d="M310.02,41.934c-5.741,0-10.985,2.163-14.965,5.714c-3.981-3.55-9.224-5.714-14.965-5.714
				c-4.167,0-7.544,3.377-7.544,7.544s3.378,7.544,7.544,7.544c4.074,0,7.389,3.299,7.42,7.365c0,0.02-0.001,0.039-0.001,0.058
				v0.355c0,4.167,3.378,7.544,7.544,7.544c0.001,0,0.001,0,0.002,0c0.001,0,0.001,0,0.002,0c4.167,0,7.544-3.377,7.544-7.544
				v-0.355c0-0.02-0.001-0.039-0.001-0.058c0.032-4.066,3.347-7.365,7.42-7.365c4.167,0,7.544-3.377,7.544-7.544
				S314.186,41.934,310.02,41.934z"/>
			<ellipse style="fill:#BDEB73;" cx="295.052" cy="97.97" rx="16.585" ry="33.169"/>
			<path style="fill:#8EC737;" d="M311.639,97.966c0,18.319-7.427,33.172-16.591,33.172c-2.687,0-5.229-1.285-7.472-3.564
				c5.401-5.473,9.1-16.681,9.1-29.608c0-12.927-3.7-24.126-9.1-29.599c2.243-2.28,4.785-3.564,7.472-3.564
				C304.212,64.802,311.639,79.647,311.639,97.966z"/>
		</g>
	</g>
	<g>
		<g>
			<path style="fill:#E0D3CE;" d="M134.061,410.498c-4.167,0-7.544-3.377-7.544-7.544v-14.829H58.385v14.829
				c0,4.167-3.378,7.544-7.544,7.544s-7.544-3.377-7.544-7.544v-22.373c0-4.167,3.378-7.544,7.544-7.544h83.221
				c4.167,0,7.544,3.377,7.544,7.544v22.373C141.606,407.121,138.228,410.498,134.061,410.498z"/>
			<path style="fill:#E84649;" d="M153.778,399.936H31.123c-3.468,0-6.688,1.8-8.504,4.754L6.046,431.646
				c-0.965,1.57-1.477,3.377-1.479,5.22l-0.041,49.575c-0.005,5.517,4.466,9.991,9.983,9.991h155.884
				c5.513,0,9.983-4.469,9.983-9.983v-49.573c0-1.85-0.514-3.663-1.484-5.238l-16.615-26.958
				C160.459,401.732,157.242,399.936,153.778,399.936z"/>
			<path style="fill:#D73337;" d="M180.373,436.872v49.574c0,5.521-4.462,9.983-9.983,9.983h-20.664c5.52,0,9.983-4.462,9.983-9.983
				v-49.574c0-1.847-0.509-3.664-1.477-5.231l-16.621-26.963c-1.817-2.945-5.031-4.742-8.495-4.742h20.664
				c3.464,0,6.678,1.797,8.495,4.742l16.621,26.963C179.864,433.209,180.373,435.025,180.373,436.872z"/>
			<path style="fill:#D73337;" d="M184.903,434.043c0,4.174-3.38,7.544-7.544,7.544H7.544c-4.164,0-7.544-3.37-7.544-7.544
				c0-4.164,3.38-7.544,7.544-7.544h169.815C181.524,426.499,184.903,429.879,184.903,434.043z"/>
			<path style="fill:#C82E32;" d="M184.903,434.043c0,4.174-3.38,7.544-7.544,7.544h-17.653v-4.718c0-1.841-0.503-3.661-1.479-5.231
				l-3.169-5.14h22.301C181.524,426.499,184.903,429.879,184.903,434.043z"/>
			<path style="fill:#E0D3CE;" d="M99.436,465.845H85.467c-4.167,0-7.544-3.377-7.544-7.544s3.378-7.544,7.544-7.544h13.969
				c4.166,0,7.544,3.377,7.544,7.544S103.602,465.845,99.436,465.845z"/>
		</g>
	</g>
	<g>
		<g>
			<path style="fill:#756F6F;" d="M446.647,496.429L446.647,496.429c7.566,0,13.699-6.133,13.699-13.699V332.217
				c0-7.566-6.133-13.699-13.699-13.699h0c-7.566,0-13.699,6.133-13.699,13.699V482.73
				C432.948,490.296,439.081,496.429,446.647,496.429z"/>
			<path style="fill:#5B5555;" d="M460.347,332.217v150.512c0,7.564-6.136,13.7-13.7,13.7c-2.444,0-4.748-0.644-6.74-1.77
				c4.154-2.364,6.951-6.82,6.951-11.93V332.217c0-5.11-2.796-9.566-6.951-11.92c1.992-1.137,4.295-1.78,6.74-1.78
				C454.211,318.516,460.347,324.652,460.347,332.217z"/>
			<path style="fill:#E0D3CE;" d="M437.688,337.401c-4.167,0-7.544-3.377-7.544-7.544V66.342c0-16.176,13.16-29.336,29.335-29.336
				c16.175,0,29.335,13.16,29.335,29.336v128.76c0,8.624,7.017,15.64,15.641,15.64c4.166,0,7.544,3.377,7.544,7.544
				s-3.378,7.544-7.544,7.544c-16.945,0-30.73-13.785-30.73-30.729V66.342c0-7.857-6.391-14.248-14.247-14.248
				s-14.247,6.391-14.247,14.248v263.515C445.232,334.024,441.855,337.401,437.688,337.401z"/>
			<circle style="fill:#E84649;" cx="458.133" cy="336.589" r="34.164"/>
			<path style="fill:#D73337;" d="M492.295,336.592c0,18.861-15.29,34.16-34.16,34.16c-2.877,0-5.673-0.352-8.349-1.026
				c14.827-3.732,25.811-17.15,25.811-33.134c0-15.984-10.984-29.412-25.811-33.144c2.676-0.674,5.472-1.026,8.349-1.026
				C477.005,302.422,492.295,317.722,492.295,336.592z"/>
		</g>
		<g>
			<path style="fill:#E84649;" d="M451.215,275.79h-19.562c-4.167,0-7.544-3.377-7.544-7.544s3.378-7.544,7.544-7.544h19.562
				c4.167,0,7.544,3.377,7.544,7.544S455.381,275.79,451.215,275.79z"/>
			<path style="fill:#E84649;" d="M451.215,239.132h-19.562c-4.167,0-7.544-3.377-7.544-7.544s3.378-7.544,7.544-7.544h19.562
				c4.167,0,7.544,3.377,7.544,7.544S455.381,239.132,451.215,239.132z"/>
			<path style="fill:#E84649;" d="M451.215,202.474h-19.562c-4.167,0-7.544-3.377-7.544-7.544s3.378-7.544,7.544-7.544h19.562
				c4.167,0,7.544,3.377,7.544,7.544S455.381,202.474,451.215,202.474z"/>
			<path style="fill:#E84649;" d="M451.215,165.816h-19.562c-4.167,0-7.544-3.377-7.544-7.544s3.378-7.544,7.544-7.544h19.562
				c4.167,0,7.544,3.377,7.544,7.544S455.381,165.816,451.215,165.816z"/>
		</g>
		<g>
			<path style="fill:#E84649;" d="M451.215,129.039h-19.562c-4.167,0-7.544-3.377-7.544-7.544s3.378-7.544,7.544-7.544h19.562
				c4.167,0,7.544,3.377,7.544,7.544S455.381,129.039,451.215,129.039z"/>
			<path style="fill:#E84649;" d="M451.215,92.381h-19.562c-4.167,0-7.544-3.377-7.544-7.544c0-4.167,3.378-7.544,7.544-7.544
				h19.562c4.167,0,7.544,3.377,7.544,7.544C458.759,89.004,455.381,92.381,451.215,92.381z"/>
		</g>
		<path style="fill:#756F6F;" d="M495.797,367.883c-1.375,0-2.766-0.375-4.016-1.163l-37.671-23.749
			c-3.525-2.222-4.581-6.881-2.359-10.406c2.223-3.525,6.88-4.582,10.405-2.359l37.671,23.749c3.525,2.222,4.581,6.881,2.359,10.406
			C500.751,366.637,498.302,367.883,495.797,367.883z"/>
	</g>
</g>
<g>
</g>
<g>
</g>
<g>
</g>
<g>
</g>
<g>
</g>
<g>
</g>
<g>
</g>
<g>
</g>
<g>
</g>
<g>
</g>
<g>
</g>
<g>
</g>
<g>
</g>
<g>
</g>
<g>
</g>
</svg>
