<?xml version="1.0" encoding="iso-8859-1"?>
<!-- Generator: Adobe Illustrator 23.0.3, SVG Export Plug-In . SVG Version: 6.00 Build 0)  -->
<svg version="1.1" id="Capa_1" xmlns="http://www.w3.org/2000/svg" xmlns:xlink="http://www.w3.org/1999/xlink" x="0px" y="0px"
	 viewBox="0 0 512 512" style="enable-background:new 0 0 512 512;" xml:space="preserve">
<g>
	<g>
		<path style="fill:#DB885D;" d="M492.922,464.487H299.296c-6.333,0-11.466-5.134-11.466-11.466V189.405
			c0-6.333,5.134-11.466,11.466-11.466h193.626c6.333,0,11.466,5.134,11.466,11.466V453.02
			C504.388,459.353,499.255,464.487,492.922,464.487z"/>
		<path style="fill:#C86D3D;" d="M504.388,189.402v263.622c0,6.333-5.135,11.468-11.468,11.468h-23.596
			c6.333,0,11.468-5.135,11.468-11.468V189.402c0-6.333-5.135-11.468-11.468-11.468h23.596
			C499.253,177.934,504.388,183.069,504.388,189.402z"/>
		<path style="fill:#C86D3D;" d="M512,240.876c0,10.524-8.555,19.079-19.079,19.079H299.294c-10.514,0-19.079-8.555-19.079-19.079
			c0-4.202,3.41-7.611,7.612-7.611c4.212,0,7.611,3.41,7.611,7.611c0,2.131,1.735,3.856,3.856,3.856h193.626
			c2.131,0,3.856-1.725,3.856-3.856c0-4.202,3.41-7.611,7.611-7.611C508.59,233.264,512,236.674,512,240.876z"/>
		<path style="fill:#AC5E33;" d="M512,240.876c0,10.524-8.555,19.079-19.079,19.079h-12.128v-15.223h12.128
			c2.131,0,3.856-1.725,3.856-3.856c0-4.202,3.41-7.611,7.611-7.611C508.59,233.264,512,236.674,512,240.876z"/>
		<g>
			<circle style="fill:#FFF5F5;" cx="406.471" cy="317.463" r="16.647"/>
			<circle style="fill:#FFF5F5;" cx="406.471" cy="252.344" r="16.647"/>
		</g>
		<path style="fill:#0097FA;" d="M406.471,228.086c-13.376,0-24.258,10.882-24.258,24.258v65.12
			c0,13.377,10.882,24.259,24.258,24.259c13.376,0,24.258-10.882,24.258-24.259v-65.12
			C430.728,238.968,419.846,228.086,406.471,228.086z M406.471,243.309c4.982,0,9.035,4.053,9.035,9.035
			c0,4.982-4.053,9.036-9.035,9.036c-4.982,0-9.035-4.054-9.035-9.036C397.436,247.361,401.489,243.309,406.471,243.309z
			 M415.505,274.85v20.107c-2.794-1.126-5.842-1.752-9.035-1.752c-3.193,0-6.241,0.626-9.035,1.752V274.85
			c2.795,1.126,5.842,1.752,9.035,1.752C409.663,276.602,412.711,275.976,415.505,274.85z M406.471,326.499
			c-4.982,0-9.035-4.054-9.035-9.036c0-4.982,4.053-9.035,9.035-9.035c4.982,0,9.035,4.053,9.035,9.035
			C415.505,322.445,411.452,326.499,406.471,326.499z"/>
	</g>
	<g>
		<g>
			<path style="fill:#0097FA;" d="M360.582,320.096v153.752c0,4.922-3.988,8.9-8.9,8.9H93.195c-4.912,0-8.9-3.978-8.9-8.9V320.096
				c0-30.253,18.237-56.264,44.299-67.631c4.201-1.837,8.596-3.278,13.173-4.303c5.227-1.177,10.676-1.796,16.268-1.796h128.807
				c4.029,0,7.987,0.315,11.843,0.944c1.492,0.244,2.963,0.528,4.425,0.852c4.567,1.035,8.961,2.476,13.173,4.303
				c0.02,0.01,0.041,0.02,0.071,0.041C342.385,263.883,360.582,289.874,360.582,320.096z"/>
			<path style="fill:#0076F8;" d="M230.05,287.814v194.935h-15.223V287.814c0-4.202,3.41-7.612,7.611-7.612
				C226.64,280.202,230.05,283.612,230.05,287.814z"/>
			<path style="fill:#0076F8;" d="M360.579,320.1v153.753c0,4.913-3.987,8.9-8.9,8.9h-20.515c4.913,0,8.9-3.987,8.9-8.9V320.1
				c0-30.252-18.228-56.259-44.297-67.624c-5.545-2.421-11.437-4.174-17.596-5.162c-3.854-0.632-7.814-0.952-11.846-0.952h20.515
				c4.032,0,7.992,0.32,11.846,0.952c6.159,0.988,12.051,2.741,17.596,5.162C342.351,263.841,360.579,289.848,360.579,320.1z"/>
			<path style="fill:#0076F8;" d="M318.11,355.454v127.295h-15.223V355.454c0-4.212,3.41-7.611,7.611-7.611
				S318.11,351.243,318.11,355.454z"/>
			<path style="fill:#0076F8;" d="M141.99,355.454v127.295h-15.223V355.454c0-4.212,3.41-7.611,7.611-7.611
				C138.58,347.843,141.99,351.243,141.99,355.454z"/>
			<path style="fill:#C86D3D;" d="M310.435,482.754h-54.054L77.258,297.35c-3.218-3.331-3.618-8.477-0.954-12.266l13.765-19.573
				c3.518-5.003,10.742-5.517,14.933-1.063L310.435,482.754z"/>
			<path style="fill:#AC5E33;" d="M310.437,482.759h-18.065L89.156,266.806l0.913-1.299c3.522-5.003,10.737-5.511,14.929-1.055
				L310.437,482.759z"/>
			<g>
				<ellipse style="fill:#0097FA;" cx="222.438" cy="65.863" rx="130.733" ry="54.889"/>
				<path style="fill:#0076F8;" d="M353.173,65.859c0,30.315-58.534,54.894-130.734,54.894c-4.066,0-8.083-0.077-12.053-0.232
					c66.55-2.559,118.672-26.056,118.672-54.662s-52.122-52.093-118.672-54.652c3.969-0.155,7.987-0.232,12.053-0.232
					C294.639,10.975,353.173,35.544,353.173,65.859z"/>
				<g>
					<circle style="fill:#FFBC8A;" cx="312.966" cy="171.26" r="20.591"/>
				</g>
				<g>
					<circle style="fill:#FFBC8A;" cx="131.91" cy="171.26" r="20.591"/>
				</g>
				<path style="fill:#0076F8;" d="M303.11,248.163c-15.203,29.177-45.72,48.937-80.672,48.937s-65.469-19.759-80.672-48.937
					c5.227-1.177,10.676-1.796,16.268-1.796h128.807c4.029,0,7.987,0.315,11.843,0.944
					C300.177,247.554,301.649,247.838,303.11,248.163z"/>
				<path style="fill:#FDD1A7;" d="M222.438,284.916L222.438,284.916c-41.89,0-76.448-32.796-78.638-74.629l-3-57.303
					c-1.273-24.32,18.103-44.738,42.457-44.738h78.361c24.354,0,43.73,20.417,42.457,44.738l-3,57.303
					C298.886,252.12,264.328,284.916,222.438,284.916z"/>
				<g>
					<g>
						<path style="fill:#AC5E33;" d="M185.73,205.458c-4.204,0-7.611-3.407-7.611-7.611s3.408-7.657,7.611-7.657
							c4.204,0,7.611,3.363,7.611,7.567v0.09C193.342,202.051,189.934,205.458,185.73,205.458z"/>
						<path style="fill:#AC5E33;" d="M259.145,205.458c-4.204,0-7.612-3.407-7.612-7.611s3.408-7.657,7.612-7.657
							c4.204,0,7.611,3.363,7.611,7.567v0.09C266.757,202.051,263.349,205.458,259.145,205.458z"/>
					</g>
				</g>
				<path style="fill:#F5A871;" d="M222.438,250.882c-12.835,0-24.277-8.618-27.827-20.957c-1.162-4.041,1.171-8.258,5.212-9.419
					c4.04-1.165,8.256,1.171,9.419,5.211c1.683,5.854,7.11,9.943,13.196,9.943c6.087,0,11.513-4.088,13.197-9.943
					c1.162-4.04,5.381-6.374,9.419-5.211c4.04,1.162,6.373,5.379,5.212,9.419C246.716,242.263,235.273,250.882,222.438,250.882z"/>
				<g>
					<path style="fill:#0097FA;" d="M124.956,132.321l7.14,24.864c3.263,11.364,13.658,19.194,25.481,19.194h129.721
						c11.824,0,22.218-7.83,25.481-19.194l7.14-24.864H124.956z"/>
					<path style="fill:#0076F8;" d="M319.921,132.323l-7.144,24.864c-3.259,11.367-13.651,19.195-25.481,19.195H266.79
						c11.82,0,22.212-7.828,25.481-19.195l7.134-24.864H319.921z"/>
				</g>
				<g>
					<path style="fill:#FF9846;" d="M318.956,91.491H125.921c-5.324,0-9.641,4.316-9.641,9.641v24.44
						c0,5.324,4.316,9.641,9.641,9.641h193.035c5.324,0,9.641-4.316,9.641-9.641v-24.44
						C328.597,95.808,324.281,91.491,318.956,91.491z"/>
					<path style="fill:#FF771C;" d="M328.594,101.134v24.44c0,5.322-4.309,9.641-9.641,9.641H298.35
						c5.322,0,9.641-4.319,9.641-9.641v-24.44c0-5.331-4.319-9.641-9.641-9.641h20.602
						C324.284,91.494,328.594,95.803,328.594,101.134z"/>
				</g>
			</g>
			<path style="fill:#DB885D;" d="M286.5,363.063h-30.26c-4.204,0-7.611-3.407-7.611-7.611s3.408-7.612,7.611-7.612h30.26
				c4.204,0,7.612,3.407,7.612,7.612S290.704,363.063,286.5,363.063z"/>
			<path style="fill:#FFF5F5;" d="M286.5,386.232h-12.233c-4.204,0-7.611-3.407-7.611-7.612s3.408-7.611,7.611-7.611H286.5
				c4.204,0,7.612,3.407,7.612,7.611S290.704,386.232,286.5,386.232z"/>
		</g>
		<g>
			<path style="fill:#FFF5F5;" d="M106.551,435.609v57.624c0,4.303-3.481,7.794-7.784,7.794H7.794c-4.303,0-7.794-3.491-7.794-7.794
				v-57.624c0-4.303,3.491-7.784,7.794-7.784h90.973C103.07,427.825,106.551,431.306,106.551,435.609z"/>
			<path style="fill:#E0D3CE;" d="M106.551,435.609v3.4l-44.959,28.843c-2.527,1.624-5.419,2.436-8.312,2.436
				c-2.903,0-5.795-0.812-8.322-2.436L0,439.008v-3.4c0-4.303,3.491-7.784,7.794-7.784h2.963l42.421,27.219
				c0.061,0.041,0.132,0.041,0.193,0l42.421-27.219h2.974C103.07,427.825,106.551,431.306,106.551,435.609z"/>
		</g>
	</g>
</g>
<g>
</g>
<g>
</g>
<g>
</g>
<g>
</g>
<g>
</g>
<g>
</g>
<g>
</g>
<g>
</g>
<g>
</g>
<g>
</g>
<g>
</g>
<g>
</g>
<g>
</g>
<g>
</g>
<g>
</g>
</svg>
