<?xml version="1.0" encoding="iso-8859-1"?>
<!-- Generator: Adobe Illustrator 23.0.3, SVG Export Plug-In . SVG Version: 6.00 Build 0)  -->
<svg version="1.1" id="Capa_1" xmlns="http://www.w3.org/2000/svg" xmlns:xlink="http://www.w3.org/1999/xlink" x="0px" y="0px"
	 viewBox="0 0 512 512" style="enable-background:new 0 0 512 512;" xml:space="preserve">
<g>
	<g>
		<g id="XMLID_10759_">
			<g id="XMLID_411_">
				<g id="XMLID_719_">
					<g id="XMLID_722_">
						<path style="fill:#756F6F;" d="M406.54,313.639c-2.493-0.185-5.007-0.278-7.541-0.278c-16.071,0-31.256,3.832-44.689,10.631
							c-32.379,16.39-54.63,49.995-54.63,88.688c0,54.764,44.555,99.32,99.32,99.32c54.764,0,99.32-44.555,99.32-99.32
							C498.319,360.45,457.792,317.512,406.54,313.639z M399,484.144c-39.404,0-71.464-32.059-71.464-71.464
							c0-25.27,13.176-47.512,33.028-60.224c11.095-7.108,24.292-11.239,38.436-11.239c4.749,0,9.395,0.464,13.897,1.36
							c32.77,6.48,57.566,35.449,57.566,70.104C470.463,452.085,438.404,484.144,399,484.144z"/>
					</g>
				</g>
			</g>
			<g id="XMLID_11102_">
				<path style="fill:#B9ACAC;" d="M360.666,270.783l-15.092,13.434l-75.811,67.487l-51.087,45.483v-38.137l46.193-40.362
					l51.087-44.648H189.584v-42.34h164.149C355.979,239.898,358.297,262.624,360.666,270.783z"/>
			</g>
			<path style="fill:#9E9797;" d="M235.335,274.038h-45.75v-42.34h29.278c-1.988,9.23-5.46,17.863-10.127,25.672
				C218.481,261.522,227.443,267.147,235.335,274.038z"/>
			<path style="fill:#9E9797;" d="M269.763,349.736v1.968l-51.087,45.483v-38.137l46.193-40.362
				C268.105,328.628,269.763,339.074,269.763,349.736z"/>
			<path style="fill:#9E9797;" d="M360.666,270.783l-15.092,13.434l-11.538-52.519h19.697
				C355.979,239.898,358.297,262.624,360.666,270.783z"/>
			<path style="fill:#5B5555;" d="M412.897,342.576c-4.502-0.896-9.148-1.36-13.897-1.36c-14.144,0-27.341,4.131-38.436,11.239
				l-6.253-28.464c13.434-6.799,28.618-10.631,44.689-10.631c2.534,0,5.048,0.093,7.541,0.278L412.897,342.576z"/>
			<path style="fill:#ED6264;" d="M407.426,441.34c-1.03,0.237-2.102,0.361-3.152,0.361c0,0,0,0-0.01,0
				c-6.583,0-12.424-4.677-13.876-11.126l-50.139-228.226l-3.863-17.606h29.175l3.874,17.606l48.769,221.963
				C419.933,431.955,415.101,439.609,407.426,441.34z"/>
			<g id="XMLID_721_">
				<polygon style="fill:#E84649;" points="369.433,202.348 340.248,202.348 336.385,184.742 365.56,184.742 				"/>
				<path style="fill:#B9ACAC;" d="M416.948,245.566c-6.831,0-12.389-5.558-12.389-12.389c0-6.831,5.558-12.388,12.389-12.388
					c8.491,0,15.398-6.908,15.398-15.399s-6.907-15.398-15.398-15.398H309.159c-6.831,0-12.388-5.558-12.388-12.389
					s5.557-12.388,12.388-12.388h107.789c22.153,0,40.176,18.022,40.176,40.176S439.101,245.566,416.948,245.566z"/>
			</g>
		</g>
	</g>
	<g>
		<g>
			<g>
				<path style="fill:#756F6F;" d="M257.401,349.736v151.426c0,5.985-4.862,10.838-10.837,10.838H24.518
					c-5.985,0-10.838-4.852-10.838-10.838V349.736c0-37.303,23.2-69.177,55.959-82.002c9.931-3.884,20.748-6.016,32.059-6.016
					h67.683c11.311,0,22.128,2.132,32.059,6.016C234.201,280.559,257.401,312.433,257.401,349.736z"/>
				<g>
					<rect x="121.139" y="279.107" style="fill:#F37D7E;" width="29.133" height="232.893"/>
				</g>
				<path style="fill:#FDD1A7;" d="M13.682,421.305v79.858c0,5.982,4.855,10.837,10.837,10.837h38.439v-90.695H13.682z"/>
				<path style="fill:#5B5555;" d="M78.407,390.624V512H62.954V390.624c0-4.265,3.461-7.726,7.726-7.726
					C74.956,382.898,78.407,386.359,78.407,390.624z"/>
				<path style="fill:#5B5555;" d="M257.397,349.737v151.426c0,5.982-4.855,10.837-10.837,10.837h-12.69V349.737
					c0-48.615-39.403-88.019-88.019-88.019h23.527C217.993,261.718,257.397,301.121,257.397,349.737z"/>
				<path style="fill:#FDD1A7;" d="M257.397,421.305v79.858c0,5.982-4.855,10.837-10.837,10.837H208.12v-90.695H257.397z"/>
				<rect x="208.124" y="421.307" style="fill:#F37D7E;" width="49.275" height="34.494"/>
				<rect x="233.867" y="421.307" style="fill:#ED6264;" width="23.532" height="34.494"/>
				<g>
					<g>
						<circle style="fill:#FFBC8A;" cx="222.362" cy="180.424" r="22.389"/>
					</g>
					<g>
						<circle style="fill:#FFBC8A;" cx="48.72" cy="180.424" r="22.389"/>
					</g>
					<path style="fill:#5B5555;" d="M201.442,267.734c-15.721,19.161-39.559,31.235-65.901,31.235
						c-26.342,0-50.18-12.074-65.901-31.235c9.931-3.884,20.748-6.016,32.059-6.016h67.683
						C180.694,261.717,191.511,263.85,201.442,267.734z"/>
					<path style="fill:#ED6264;" d="M150.273,279.107v18.584c-4.79,0.845-9.715,1.277-14.732,1.277
						c-4.904,0-9.715-0.422-14.402-1.216v-18.646H150.273z"/>
					<path style="fill:#FDD1A7;" d="M52.242,132.796l10.965,89.774c4.465,36.557,35.505,64.036,72.334,64.036l0,0
						c36.829,0,67.869-27.479,72.334-64.036l10.965-89.774H52.242z"/>
					<g>
						<line style="fill:#F69583;" x1="186.181" y1="217.662" x2="186.181" y2="217.756"/>
					</g>
					<path style="fill:#AC5E33;" d="M59.461,72.533c-23.421,23.421-28.338,58.328-14.764,86.582
						c28.246,13.58,63.161,8.657,86.582-14.764c23.428-23.428,28.351-58.342,14.771-86.588
						C117.796,44.189,82.888,49.105,59.461,72.533z"/>
					<path style="fill:#C86D3D;" d="M211.621,72.533c23.421,23.421,28.338,58.328,14.764,86.582
						c-28.246,13.58-63.161,8.657-86.582-14.764c-18.762-18.762-25.657-44.892-20.683-69.063
						c2.416-11.743,11.693-21.018,23.436-23.434C166.731,46.88,192.858,53.77,211.621,72.533z"/>
					<path style="fill:#AC5E33;" d="M226.381,159.118c-6.524,3.132-13.395,5.288-20.406,6.448
						c15.356-26.28,13.958-60.352-6.112-85.602c-13.991-17.589-34.191-27.32-54.998-28.545c23.516-4.096,48.593,2.948,66.756,21.111
						C235.04,95.959,239.96,130.865,226.381,159.118z"/>
					<g>
						<g>
							<path style="fill:#F69583;" d="M88.152,232.161c-4.4,0-7.967-3.567-7.967-7.967c0-4.4,3.567-8.014,7.967-8.014
								s7.967,3.52,7.967,7.92v0.094C96.119,228.594,92.552,232.161,88.152,232.161z"/>
						</g>
						<g>
							<path style="fill:#F69583;" d="M182.93,232.161c-4.4,0-7.967-3.567-7.967-7.967c0-4.4,3.567-8.014,7.967-8.014
								c4.4,0,7.967,3.52,7.967,7.92v0.094C190.897,228.594,187.33,232.161,182.93,232.161z"/>
						</g>
					</g>
					<g>
						<g>
							<path style="fill:#AC5E33;" d="M97.649,206.425c-4.268,0-7.726-3.459-7.726-7.726c0-4.268,3.459-7.773,7.726-7.773
								c4.268,0,7.726,3.411,7.726,7.679v0.094C105.375,202.966,101.916,206.425,97.649,206.425z"/>
							<path style="fill:#AC5E33;" d="M173.433,206.425c-4.268,0-7.726-3.459-7.726-7.726c0-4.268,3.459-7.773,7.726-7.773
								c4.268,0,7.726,3.411,7.726,7.679v0.094C181.159,202.966,177.7,206.425,173.433,206.425z"/>
						</g>
					</g>
					<path style="fill:#F69583;" d="M135.541,253.314c-13.191,0-24.952-8.857-28.6-21.539c-1.179-4.101,1.189-8.381,5.29-9.561
						c4.101-1.178,8.381,1.189,9.561,5.29c1.754,6.099,7.407,10.358,13.748,10.358c6.34,0,11.994-4.26,13.747-10.358
						c1.181-4.101,5.464-6.469,9.561-5.29c4.101,1.18,6.469,5.461,5.29,9.561C160.492,244.457,148.732,253.314,135.541,253.314z"/>
				</g>
			</g>
			<path style="fill:#5B5555;" d="M208.128,390.624V512h-15.453V390.624c0-4.265,3.451-7.726,7.726-7.726
				C204.666,382.898,208.128,386.359,208.128,390.624z"/>
		</g>
		<g>
			<g>
				<path style="fill:#5B5555;" d="M226.182,104.571V75.091c-7.666-39.242-45.331-69.039-90.641-69.039S52.565,35.848,44.899,75.091
					v29.481H226.182z"/>
				<path style="fill:#B9ACAC;" d="M71.836,126.286H39.222V44.593c0-9.006,7.301-16.307,16.307-16.307h0
					c9.006,0,16.307,7.301,16.307,16.307V126.286z"/>
				<path style="fill:#B9ACAC;" d="M231.859,126.286h-32.614V44.593c0-9.006,7.301-16.307,16.307-16.307h0
					c9.006,0,16.307,7.301,16.307,16.307V126.286z"/>
				<path style="fill:#B9ACAC;" d="M122.906,76H95.754V13.576C95.754,6.078,101.832,0,109.33,0h0
					c7.498,0,13.576,6.078,13.576,13.576V76z"/>
				<path style="fill:#B9ACAC;" d="M175.327,76h-27.152V13.576C148.175,6.078,154.253,0,161.751,0h0
					c7.498,0,13.576,6.078,13.576,13.576V76z"/>
			</g>
			<g>
				<path style="fill:#F37D7E;" d="M229.015,137.532c7.711,0,12.945-7.728,10.215-14.939
					c-14.821-39.152-55.646-67.281-103.689-67.281S46.672,83.44,31.851,122.592c-2.73,7.212,2.504,14.939,10.215,14.939H229.015z"/>
				<path style="fill:#FFF5F5;" d="M185.361,112.931c-1.988,0-3.975-0.762-5.485-2.285c-11.275-11.364-27.435-17.881-44.336-17.881
					c-16.902,0-33.061,6.517-44.335,17.881c-3.006,3.029-7.898,3.047-10.927,0.043c-3.029-3.005-3.048-7.897-0.043-10.927
					c14.154-14.268,34.312-22.451,55.305-22.451c20.992,0,41.151,8.183,55.306,22.451c3.005,3.029,2.986,7.922-0.043,10.927
					C189.296,112.184,187.328,112.931,185.361,112.931z"/>
			</g>
		</g>
		<g>
			<path style="fill:#FFF5F5;" d="M208.124,347.269c-4.268,0-7.726-3.459-7.726-7.726v-17.301c0-4.268,3.459-7.726,7.726-7.726
				c4.268,0,7.726,3.459,7.726,7.726v17.301C215.85,343.81,212.391,347.269,208.124,347.269z"/>
			<path style="fill:#FFF5F5;" d="M182.93,347.269c-4.268,0-7.726-3.459-7.726-7.726v-17.301c0-4.268,3.459-7.726,7.726-7.726
				s7.726,3.459,7.726,7.726v17.301C190.656,343.81,187.197,347.269,182.93,347.269z"/>
		</g>
	</g>
</g>
<g>
</g>
<g>
</g>
<g>
</g>
<g>
</g>
<g>
</g>
<g>
</g>
<g>
</g>
<g>
</g>
<g>
</g>
<g>
</g>
<g>
</g>
<g>
</g>
<g>
</g>
<g>
</g>
<g>
</g>
</svg>
