<?xml version="1.0" encoding="iso-8859-1"?>
<!-- Generator: Adobe Illustrator 23.0.3, SVG Export Plug-In . SVG Version: 6.00 Build 0)  -->
<svg version="1.1" id="Capa_1" xmlns="http://www.w3.org/2000/svg" xmlns:xlink="http://www.w3.org/1999/xlink" x="0px" y="0px"
	 viewBox="0 0 512 512" style="enable-background:new 0 0 512 512;" xml:space="preserve">
<g>
	<g>
		<path style="fill:#E0D3CE;" d="M482.046,487.673h-36.637c-4.204,0-7.611-3.407-7.611-7.612s3.407-7.611,7.611-7.611h36.637
			c8.123,0,14.731-6.609,14.731-14.731v-49.803c0-8.123-6.609-14.731-14.731-14.731h-80.188c-15.244,0-27.646-12.402-27.646-27.646
			V334.48c0-4.204,3.407-7.611,7.612-7.611s7.611,3.407,7.611,7.611v31.059c0,6.85,5.573,12.423,12.423,12.423h80.188
			c16.517,0,29.954,13.437,29.954,29.954v49.803C512,474.236,498.563,487.673,482.046,487.673z"/>
		<path style="fill:#E84649;" d="M337.271,302.613v176.12c0,5.633-4.567,10.199-10.199,10.199H24.864
			c-5.633,0-10.199-4.567-10.199-10.199v-176.12c0-34.658,20.886-64.444,50.743-77.465c5.602-2.446,11.529-4.293,17.679-5.48
			c5.196-0.995,10.565-1.522,16.045-1.522h153.671c4.618,0,9.154,0.365,13.569,1.086c0.832,0.132,1.654,0.284,2.476,0.436
			c6.16,1.177,12.077,3.024,17.679,5.48C316.395,238.169,337.271,267.955,337.271,302.613z"/>
		<g>
			<path style="fill:#C47A4A;" d="M226.214,218.146v66.088c0,27.757-22.5,50.246-50.246,50.246s-50.246-22.489-50.246-50.246
				v-66.088H226.214z"/>
		</g>
		<path style="fill:#D73337;" d="M337.271,302.609v176.124c0,5.628-4.567,10.195-10.195,10.195h-60.703V219.232
			c7.055,1.132,13.805,3.14,20.156,5.913C316.391,238.165,337.271,267.956,337.271,302.609z"/>
		<g>
			<path style="fill:#D68A5A;" d="M337.271,302.609v176.124c0,5.631-4.565,10.195-10.195,10.195h-40.547V225.145
				C316.391,238.165,337.271,267.956,337.271,302.609z"/>
			<path style="fill:#C47A4A;" d="M337.271,302.609v176.124c0,5.628-4.567,10.195-10.195,10.195h-21.451
				c5.628,0,10.195-4.567,10.195-10.195V302.609c0-25.549-11.357-48.469-29.291-63.955v-13.509
				C316.391,238.165,337.271,267.956,337.271,302.609z"/>
			<path style="fill:#D68A5A;" d="M65.41,225.145v263.783H24.863c-5.631,0-10.195-4.565-10.195-10.195V302.609
				C14.668,267.956,35.548,238.165,65.41,225.145z"/>
		</g>
		<g>
			<g>
				<g>
					<g>
						<g>
							<line style="fill:none;" x1="228.444" y1="203.103" x2="228.444" y2="203.2"/>
						</g>
					</g>
				</g>
			</g>
		</g>
		<path style="fill:#FBCC85;" d="M437.633,507.196H278.881c-5.63,0-10.194-4.564-10.194-10.194v-36.941
			c0-5.63,4.564-10.194,10.194-10.194h158.753c5.63,0,10.194,4.564,10.194,10.194v36.941
			C447.828,502.632,443.264,507.196,437.633,507.196z"/>
		<path style="fill:#D8AA64;" d="M447.83,460.063v36.944c0,5.627-4.567,10.194-10.194,10.194h-22.05
			c5.627,0,10.194-4.567,10.194-10.194v-36.944c0-5.627-4.567-10.194-10.194-10.194h22.05
			C443.263,449.868,447.83,454.435,447.83,460.063z"/>
		<path style="fill:#2EA8FC;" d="M381.935,348.174L381.935,348.174c-9.008,0-16.311-7.303-16.311-16.311V163.22
			c0-9.008,7.303-16.311,16.311-16.311h0c9.008,0,16.311,7.303,16.311,16.311v168.643
			C398.246,340.871,390.943,348.174,381.935,348.174z"/>
		<path style="fill:#0086F9;" d="M398.244,163.221v168.64c0,9.012-7.297,16.309-16.309,16.309c-2.416,0-4.709-0.528-6.769-1.461
			c5.633-2.578,9.55-8.251,9.55-14.848v-168.64c0-4.506-1.827-8.586-4.78-11.529c-1.37-1.37-2.984-2.497-4.77-3.308
			c2.06-0.944,4.354-1.471,6.769-1.471c4.506,0,8.586,1.827,11.529,4.78C396.417,154.635,398.244,158.715,398.244,163.221z"/>
		<rect x="365.626" y="185.254" style="fill:#FBCC85;" width="32.618" height="58.162"/>
		<rect x="384.716" y="185.254" style="fill:#D8AA64;" width="13.528" height="58.162"/>
		<g>
			<path style="fill:#FFF5F5;" d="M91.304,507.201H21.782C9.752,507.201,0,497.448,0,485.418V375.305h113.087v110.114
				C113.087,497.448,103.334,507.201,91.304,507.201z"/>
			<path style="fill:#E0D3CE;" d="M113.086,375.308v110.113c0,12.026-9.753,21.779-21.779,21.779h-19.79
				c12.026,0,21.779-9.753,21.779-21.779V375.308H113.086z"/>
		</g>
		<path style="fill:#2EA8FC;" d="M99.104,361.331l-84.727,0c-7.529,0-14.007,5.786-14.361,13.306
			c-0.378,8.029,6.02,14.658,13.966,14.658h27.771c4.908,0,8.888,3.979,8.888,8.888l0,27.883c0,7.953,6.112,14.796,14.055,15.17
			c8.481,0.399,15.483-6.359,15.483-14.753v-28.3c0-4.908,3.979-8.888,8.888-8.888h9.643c7.529,0,14.007-5.786,14.361-13.306
			C113.449,367.96,107.051,361.331,99.104,361.331z"/>
		<path style="fill:#0086F9;" d="M113.066,375.988c-0.345,7.52-6.83,13.305-14.36,13.305h-9.641c-4.902,0-8.89,3.978-8.89,8.89
			v28.305c0,8.393-6.992,15.152-15.477,14.746c-2.172-0.101-4.202-0.68-6.008-1.644c4.729-2.456,7.956-7.409,7.956-13.102v-28.305
			c0-4.912,3.978-8.89,8.89-8.89h9.641c7.53,0,14.005-5.785,14.361-13.305c0.375-8.028-6.018-14.655-13.965-14.655h13.528
			C107.048,361.333,113.452,367.96,113.066,375.988z"/>
		<g>
			<circle style="fill:#2EA8FC;" cx="224.951" cy="383.024" r="20.206"/>
		</g>
		<g>
			<circle style="fill:#FBCC85;" cx="170.374" cy="421.085" r="20.206"/>
		</g>
		<g>
			<g>
				<g>
					<path style="fill:#0086F9;" d="M245.161,383.021c0,11.164-9.053,20.206-20.206,20.206c-2.578,0-5.054-0.487-7.317-1.37
						c7.541-2.923,12.889-10.25,12.889-18.836c0-8.576-5.348-15.903-12.889-18.836c2.263-0.883,4.739-1.37,7.317-1.37
						C236.109,362.815,245.161,371.867,245.161,383.021z"/>
				</g>
			</g>
		</g>
		<g>
			<g>
				<circle style="fill:#C47A4A;" cx="279.669" cy="136.545" r="23.587"/>
			</g>
			<g>
				<circle style="fill:#C47A4A;" cx="72.269" cy="136.545" r="23.587"/>
			</g>
			<g>
				<path style="fill:#D73337;" d="M268.848,219.668c-16.309,35.125-51.88,59.248-92.88,59.248
					c-40.99,0-76.562-24.123-92.881-59.248c5.196-0.995,10.565-1.522,16.045-1.522h153.671c4.618,0,9.154,0.365,13.569,1.086
					C267.204,219.363,268.026,219.516,268.848,219.668z"/>
				<path style="fill:#AA613C;" d="M226.214,218.146v47.617c-14.868,8.383-32.019,13.153-50.246,13.153
					c-18.217,0-35.368-4.77-50.246-13.153v-47.617H226.214z"/>
				<path style="fill:#D68A5A;" d="M175.969,266.738L175.969,266.738c-47.986,0-87.572-37.568-90.08-85.488L79.771,64.362h192.397
					l-6.119,116.889C263.541,229.17,223.955,266.738,175.969,266.738z"/>
			</g>
			<g>
				<g>
					<g>
						<path style="fill:#5B5555;" d="M133.921,174.611c-4.204,0-7.611-3.407-7.611-7.611v-0.104c0-4.204,3.407-7.611,7.611-7.611
							s7.611,3.407,7.611,7.611V167C141.532,171.204,138.125,174.611,133.921,174.611z"/>
						<path style="fill:#5B5555;" d="M218.018,174.611c-4.204,0-7.611-3.407-7.611-7.611v-0.104c0-4.204,3.407-7.611,7.611-7.611
							s7.611,3.407,7.611,7.611V167C225.629,171.204,222.222,174.611,218.018,174.611z"/>
					</g>
				</g>
				<path style="fill:#AA613C;" d="M175.969,226.644c-14.211,0-26.882-9.543-30.812-23.206c-1.162-4.04,1.171-8.257,5.211-9.419
					c4.041-1.161,8.257,1.171,9.419,5.211c2.064,7.178,8.719,12.191,16.181,12.191c7.463,0,14.117-5.013,16.181-12.191
					c1.163-4.04,5.377-6.372,9.419-5.211c4.04,1.163,6.373,5.38,5.211,9.419C202.851,217.101,190.18,226.644,175.969,226.644z"/>
			</g>
			<path style="fill:#756F6F;" d="M70.779,68.315v24.949c0,19.477,15.789,35.267,35.267,35.267h29.801
				c3.1,0,5.613-2.513,5.613-5.613v-22.048c3.479,15.819,17.57,27.66,34.435,27.66h29.801c3.1,0,5.613-2.513,5.613-5.613v-22.048
				c3.479,15.819,17.57,27.66,34.435,27.66h29.801c3.1,0,5.613-2.513,5.613-5.613V68.315c0-35.079-28.437-63.516-63.516-63.516
				h-83.345C99.216,4.799,70.779,33.236,70.779,68.315z"/>
			<path style="fill:#5B5555;" d="M281.159,68.314v54.6c0,3.098-2.514,5.613-5.613,5.613h-22.63c3.098,0,5.613-2.514,5.613-5.613
				v-54.6c0-35.078-28.433-63.511-63.511-63.511h22.619C252.715,4.803,281.159,33.236,281.159,68.314z"/>
		</g>
	</g>
	<g>
		<path style="fill:#D8AA64;" d="M190.582,421.088c0,11.153-9.053,20.206-20.206,20.206c-2.578,0-5.054-0.487-7.317-1.37
			c7.541-2.933,12.889-10.26,12.889-18.836c0-8.586-5.348-15.913-12.889-18.836c2.263-0.883,4.74-1.37,7.317-1.37
			C181.529,400.882,190.582,409.925,190.582,421.088z"/>
	</g>
</g>
<g>
</g>
<g>
</g>
<g>
</g>
<g>
</g>
<g>
</g>
<g>
</g>
<g>
</g>
<g>
</g>
<g>
</g>
<g>
</g>
<g>
</g>
<g>
</g>
<g>
</g>
<g>
</g>
<g>
</g>
</svg>
