<?xml version="1.0" encoding="iso-8859-1"?>
<!-- Generator: Adobe Illustrator 23.0.3, SVG Export Plug-In . SVG Version: 6.00 Build 0)  -->
<svg version="1.1" id="Capa_1" xmlns="http://www.w3.org/2000/svg" xmlns:xlink="http://www.w3.org/1999/xlink" x="0px" y="0px"
	 viewBox="0 0 512 512" style="enable-background:new 0 0 512 512;" xml:space="preserve">
<g>
	<g>
		<g>
			<path style="fill:#FFF5F5;" d="M434.963,311.939v171.587c0,5.491-4.45,9.931-9.941,9.931H100.803
				c-5.481,0-9.931-4.44-9.931-9.931V311.939c0-33.759,20.336-62.779,49.428-75.471c9.642-4.203,20.243-6.614,31.379-6.799
				c0.494-0.021,0.989-0.021,1.483-0.021h179.499c0.494,0,0.989,0,1.483,0.021c3.997,0.062,7.912,0.422,11.744,1.04
				c6.871,1.102,13.444,3.06,19.635,5.759C414.617,249.16,434.963,278.18,434.963,311.939z"/>
			<path style="fill:#E0D3CE;" d="M354.145,229.669c-15.824,34.738-50.85,58.659-91.233,58.659
				c-40.383,0-75.399-23.921-91.233-58.659c0.494-0.021,0.989-0.021,1.483-0.021h179.499
				C353.156,229.648,353.651,229.648,354.145,229.669z"/>
			<path style="fill:#E0D3CE;" d="M148.918,374.649c-4.267,0-7.726-3.459-7.726-7.726v-15.937c0-4.268,3.459-7.726,7.726-7.726
				c4.267,0,7.726,3.459,7.726,7.726v15.937C156.644,371.19,153.185,374.649,148.918,374.649z"/>
			<path style="fill:#E0D3CE;" d="M434.963,311.937v171.593c0,5.483-4.453,9.936-9.936,9.936h-22.89
				c5.483,0,9.926-4.453,9.926-9.936V311.937c0-33.762-20.34-62.784-49.426-75.462c-6.196-2.699-12.763-4.665-19.639-5.76
				c-4.304-0.712-8.725-1.063-13.22-1.063h22.89c4.495,0,8.916,0.351,13.22,1.063c6.876,1.095,13.443,3.061,19.639,5.76
				C414.613,249.153,434.963,278.175,434.963,311.937z"/>
			<path style="fill:#E0D3CE;" d="M383.763,354.939v138.518H368.31V354.939c0-4.265,3.461-7.726,7.726-7.726
				C380.312,347.212,383.763,350.674,383.763,354.939z"/>
			<path style="fill:#E0D3CE;" d="M270.639,274.673v218.783h-15.453V274.673c0-4.275,3.461-7.726,7.726-7.726
				C267.188,266.947,270.639,270.398,270.639,274.673z"/>
			<g>
				<g>
					<path style="fill:#D77F4F;" d="M228.733,8.081h24.954c30.921,0,55.988,25.067,55.988,55.988v0
						c0,27.242-23.655,48.449-50.735,45.487l-25.727-2.815c-15.109-1.653-29.571,6.584-35.857,20.423l-12.404,27.311
						c-1.771,3.899-7.018,4.568-9.714,1.242c-5.381-6.64-13.467-18.067-20.541-33.97C130.921,68.296,170.233,8.081,228.733,8.081z"
						/>
				</g>
				<circle style="fill:#FFBC8A;" cx="161.887" cy="149.12" r="22.98"/>
				<path style="fill:#E84649;" d="M262.913,257.308v28.577l-3.152,2.39l-29.144,22.066c-6.552,4.966-16.009,0.855-16.854-7.325
					l-3.008-29.309l-1.69-16.4H262.913z"/>
				<path style="fill:#E84649;" d="M316.77,257.308l-1.69,16.4l-3.008,29.309c-0.845,8.18-10.302,12.29-16.854,7.325l-29.154-22.066
					l-3.152-2.39v-28.577H316.77z"/>
				<path style="fill:#D73337;" d="M316.77,257.308l-1.69,16.4c-14.381,8.777-31.132,14.021-49.016,14.567l-3.152-2.39v-28.577
					H316.77z"/>
				<path style="fill:#D73337;" d="M262.913,257.308v28.577l-3.152,2.39c-17.884-0.546-34.635-5.79-49.006-14.567l-1.69-16.4
					H262.913z"/>
				<path style="fill:#FDD1A7;" d="M262.914,275.96L262.914,275.96c-46.75,0-85.316-36.601-87.76-83.286l-2.729-52.131
					c-1.757-33.567,24.987-61.747,58.6-61.747h63.779c33.613,0,60.357,28.18,58.6,61.747l-2.729,52.131
					C348.23,239.359,309.663,275.96,262.914,275.96z"/>
				<g>
					<path style="fill:#AC5E33;" d="M221.948,186.517c-4.267,0-7.726-3.459-7.726-7.726s3.459-7.777,7.726-7.777
						c4.267,0,7.726,3.407,7.726,7.675v0.102C229.675,183.058,226.215,186.517,221.948,186.517z"/>
					<path style="fill:#AC5E33;" d="M303.879,186.517c-4.267,0-7.726-3.459-7.726-7.726s3.459-7.777,7.726-7.777
						c4.267,0,7.726,3.407,7.726,7.675v0.102C311.606,183.058,308.146,186.517,303.879,186.517z"/>
				</g>
				<path style="fill:#F5A871;" d="M262.914,237.209c-13.983,0-26.45-9.389-30.317-22.833c-1.179-4.102,1.189-8.381,5.29-9.561
					c4.1-1.181,8.381,1.189,9.561,5.29c1.973,6.86,8.332,11.652,15.466,11.652c7.133,0,13.492-4.792,15.465-11.652
					c1.18-4.101,5.463-6.47,9.561-5.29c4.101,1.18,6.469,5.46,5.29,9.561C289.364,227.82,276.897,237.209,262.914,237.209z"/>
				<path style="fill:#C86D3D;" d="M278.399,0.001l-8.836,0c-34.258,0-62.03,27.772-62.03,62.03v0
					c0,30.181,26.207,53.678,56.21,50.395l28.503-3.119c16.74-1.832,32.762,7.295,39.726,22.627l13.743,30.258
					c1.962,4.319,7.776,5.061,10.762,1.376c0.198-0.245,0.4-0.495,0.605-0.752C409.501,97.177,362.4,0.001,278.399,0.001z"/>
				<path style="fill:#AC5E33;" d="M357.081,162.815c-0.202,0.255-0.404,0.51-0.606,0.754c-2.986,3.688-8.799,2.944-10.765-1.382
					l-4.24-9.341c39.266-62.911-2.912-147.055-77.916-152.56C265.53,0.096,267.539,0,269.558,0h8.842
					C362.405,0,409.504,97.172,357.081,162.815z"/>
			</g>
			<path style="fill:#E0D3CE;" d="M293.319,388.015c-4.267,0-7.726-3.459-7.726-7.726s3.459-7.777,7.726-7.777
				c4.267,0,7.726,3.408,7.726,7.676v0.101C301.046,384.556,297.587,388.015,293.319,388.015z"/>
			<path style="fill:#E0D3CE;" d="M293.319,433.711c-4.267,0-7.726-3.459-7.726-7.726c0-4.268,3.459-7.778,7.726-7.778
				c4.267,0,7.726,3.408,7.726,7.676v0.102C301.046,430.253,297.587,433.711,293.319,433.711z"/>
		</g>
		<g>
			<g>
				<path style="fill:#CDBFBB;" d="M26.331,489.51c0-67.703,54.884-122.587,122.587-122.587s122.587,54.884,122.587,122.587H26.331z
					"/>
				<path style="fill:#B9ACAC;" d="M271.505,489.507h-27.566c0-63.049-47.587-114.962-108.809-121.806
					c4.516-0.521,9.118-0.776,13.783-0.776C216.617,366.925,271.505,421.803,271.505,489.507z"/>
			</g>
			<path style="fill:#E0D3CE;" d="M280.69,511.951H17.146c-8.51,0-15.409-6.899-15.409-15.409v0c0-8.51,6.899-15.409,15.409-15.409
				H280.69c8.51,0,15.409,6.899,15.409,15.409v0C296.099,505.052,289.201,511.951,280.69,511.951z"/>
			<path style="fill:#CDBFBB;" d="M296.095,496.537c0,4.255-1.72,8.108-4.512,10.899c-2.781,2.792-6.634,4.512-10.889,4.512h-19.058
				c4.255,0,8.108-1.72,10.889-4.512c2.792-2.792,4.512-6.645,4.512-10.899c0-8.509-6.892-15.401-15.401-15.401h19.058
				C289.203,481.136,296.095,488.028,296.095,496.537z"/>
		</g>
	</g>
	<g>
		<g>
			<path style="fill:#00B232;" d="M484.043,287.008v-51.434h-31.751v51.434c0,5.283-3.048,10.184-7.91,12.248
				c-10.762,4.567-18.31,15.226-18.31,27.654v170.014c0,8.323,6.747,15.071,15.071,15.071h54.05c8.323,0,15.071-6.747,15.071-15.071
				V326.91c0-12.428-7.549-23.087-18.31-27.654C487.09,297.192,484.043,292.29,484.043,287.008z"/>
			<path style="fill:#008C25;" d="M510.263,326.902v170.027c0,8.318-6.753,15.071-15.071,15.071h-16.851
				c8.318,0,15.06-6.753,15.06-15.071V336.466c0-12.415-7.546-23.079-18.303-27.65c-4.869-2.059-7.906-6.959-7.906-12.24v-61.003
				h16.851v51.439c0,5.281,3.047,10.181,7.906,12.24C502.718,303.823,510.263,314.488,510.263,326.902z"/>
			<rect x="426.072" y="350.986" style="fill:#FFF5F5;" width="84.192" height="91.745"/>
			<rect x="493.402" y="350.991" style="fill:#E0D3CE;" width="16.862" height="91.741"/>
			<path style="fill:#FAC574;" d="M486.303,244.816h-36.27c-2.851,0-5.227-2.186-5.463-5.027l-2.378-28.6
				c-0.266-3.195,2.256-5.936,5.463-5.936h41.025c3.207,0,5.728,2.74,5.463,5.936l-2.378,28.6
				C491.529,242.63,489.154,244.816,486.303,244.816z"/>
			<path style="fill:#D8AA64;" d="M494.139,211.19l-2.37,28.597c-0.244,2.848-2.614,5.027-5.462,5.027h-19.128
				c2.848,0,5.218-2.178,5.462-5.027l2.37-28.597c0.266-3.199-2.253-5.94-5.462-5.94h19.128
				C491.886,205.249,494.405,207.991,494.139,211.19z"/>
		</g>
		<g>
			<circle style="fill:#FAC574;" cx="468.167" cy="350.986" r="16.859"/>
		</g>
		<g>
			<path style="fill:#D8AA64;" d="M485.03,350.983c0,9.313-7.551,16.864-16.864,16.864c-2.38,0-4.646-0.495-6.696-1.391
				c5.985-2.586,10.168-8.54,10.168-15.473c0-6.923-4.183-12.877-10.168-15.473c2.05-0.886,4.316-1.38,6.696-1.38
				C477.479,334.129,485.03,341.68,485.03,350.983z"/>
		</g>
		<path style="fill:#D8AA64;" d="M478.086,406.544h-19.837c-4.267,0-7.726-3.459-7.726-7.726s3.459-7.726,7.726-7.726h19.837
			c4.267,0,7.726,3.459,7.726,7.726S482.353,406.544,478.086,406.544z"/>
	</g>
</g>
<g>
</g>
<g>
</g>
<g>
</g>
<g>
</g>
<g>
</g>
<g>
</g>
<g>
</g>
<g>
</g>
<g>
</g>
<g>
</g>
<g>
</g>
<g>
</g>
<g>
</g>
<g>
</g>
<g>
</g>
</svg>
