<?xml version="1.0" encoding="iso-8859-1"?>
<!-- Generator: Adobe Illustrator 23.0.3, SVG Export Plug-In . SVG Version: 6.00 Build 0)  -->
<svg version="1.1" id="Capa_1" xmlns="http://www.w3.org/2000/svg" xmlns:xlink="http://www.w3.org/1999/xlink" x="0px" y="0px"
	 viewBox="0 0 512 512" style="enable-background:new 0 0 512 512;" xml:space="preserve">
<g>
	<path style="fill:#B9ACAC;" d="M66.708,230.109h70.057c9.455,0,17.12,7.665,17.12,17.12v0c0,9.455-7.665,17.12-17.12,17.12H66.708
		V230.109z"/>
	<path style="fill:#756F6F;" d="M63.298,327.88L63.298,327.88c-7.869,0-14.247-6.379-14.247-14.247V43.401
		c0-7.868,6.379-14.247,14.247-14.247h0c7.868,0,14.247,6.379,14.247,14.247v270.232C77.545,321.501,71.166,327.88,63.298,327.88z"
		/>
	<path style="fill:#5B5555;" d="M77.541,43.398v270.239c0,7.86-6.377,14.248-14.248,14.248c-2.596,0-5.027-0.69-7.119-1.906
		c4.255-2.472,7.119-7.077,7.119-12.342V43.398c0-3.935-1.597-7.5-4.172-10.075c-0.876-0.876-1.865-1.638-2.946-2.266
		c2.091-1.216,4.522-1.906,7.119-1.906c3.935,0,7.5,1.597,10.075,4.172S77.541,39.463,77.541,43.398z"/>
	<rect x="49.051" y="173.741" style="fill:#756F6F;" width="28.494" height="47.985"/>
	<rect x="49.051" y="173.741" style="fill:#FAC574;" width="28.494" height="47.985"/>
	<rect x="63.293" y="173.738" style="fill:#D8AA64;" width="14.248" height="47.986"/>
	<g>
		<g>
			<path style="fill:#756F6F;" d="M457.062,344.007v158.793c0,5.079-4.121,9.199-9.2,9.199H180.899
				c-5.079,0-9.189-4.121-9.189-9.199V344.007c0-31.256,18.822-58.113,45.751-69.847c4.09-1.782,8.355-3.224,12.785-4.275
				c5.656-1.329,11.548-2.04,17.616-2.04H380.9c4.162,0,8.252,0.33,12.228,0.979c1.813,0.299,3.616,0.649,5.378,1.082
				c4.43,1.04,8.705,2.472,12.795,4.255c0.031,0.01,0.052,0.01,0.082,0.031C438.261,285.946,457.062,312.782,457.062,344.007z"/>
			<path style="fill:#5B5555;" d="M398.506,269.906c-15.278,31.173-47.317,52.426-84.125,52.426
				c-36.819,0-68.858-21.263-84.135-52.447c5.656-1.329,11.548-2.04,17.616-2.04H380.9c4.162,0,8.252,0.33,12.228,0.979
				C394.941,269.123,396.744,269.473,398.506,269.906z"/>
			<path style="fill:#5B5555;" d="M457.058,344.006v158.8c0,5.074-4.118,9.192-9.192,9.192h-21.189c5.074,0,9.192-4.118,9.192-9.192
				v-158.8c0-31.245-18.826-58.105-45.751-69.844c-5.727-2.5-11.812-4.311-18.173-5.332c-3.98-0.653-8.071-0.984-12.235-0.984
				h21.189c4.164,0,8.255,0.331,12.235,0.984c6.361,1.02,12.447,2.831,18.173,5.332
				C438.232,285.901,457.058,312.761,457.058,344.006z"/>
			<path style="fill:#5B5555;" d="M413.062,380.517V512H397.61V380.517c0-4.265,3.451-7.726,7.726-7.726
				C409.601,372.791,413.062,376.252,413.062,380.517z"/>
			<path style="fill:#5B5555;" d="M231.162,380.517V512h-15.453V380.517c0-4.265,3.451-7.726,7.726-7.726
				C227.701,372.791,231.162,376.252,231.162,380.517z"/>
			<g>
				<g>
					<path style="fill:#FAC574;" d="M462.378,398.442c0,4.265-3.462,7.726-7.726,7.726h-21.943c-4.265,0-7.726-3.462-7.726-7.726
						c0-4.265,3.461-7.726,7.726-7.726h21.943C458.916,390.716,462.378,394.177,462.378,398.442z"/>
					<path style="fill:#FAC574;" d="M462.378,426.257c0,4.265-3.462,7.726-7.726,7.726h-21.943c-4.265,0-7.726-3.462-7.726-7.726
						c0-4.265,3.461-7.726,7.726-7.726h21.943C458.916,418.531,462.378,421.992,462.378,426.257z"/>
					<path style="fill:#D8AA64;" d="M462.378,426.257c0,4.265-3.462,7.726-7.726,7.726h-18.78v-15.453h18.78
						C458.916,418.531,462.378,421.992,462.378,426.257z"/>
					<path style="fill:#D8AA64;" d="M454.651,406.169h-18.78v-15.453h18.78c4.265,0,7.726,3.461,7.726,7.726
						C462.378,402.707,458.916,406.169,454.651,406.169z"/>
				</g>
			</g>
			<path style="fill:#5B5555;" d="M322.107,312.957V512h-15.453V312.957c0-4.265,3.462-7.726,7.726-7.726
				C318.646,305.231,322.107,308.692,322.107,312.957z"/>
			<circle style="fill:#FAC574;" cx="362.279" cy="413.134" r="17.936"/>
			<path style="fill:#D8AA64;" d="M380.22,413.133c0,9.91-8.036,17.935-17.946,17.935c-1.978,0-3.873-0.319-5.656-0.917
				c7.129-2.369,12.27-9.097,12.27-17.019c0-7.922-5.141-14.639-12.27-17.019c1.782-0.598,3.678-0.917,5.656-0.917
				C372.185,395.197,380.22,403.233,380.22,413.133z"/>
			<g>
				<path style="fill:#756F6F;" d="M472.091,125.692l-42.003,60.366c-1.097,1.576-2.623,2.803-4.399,3.531l-42.013,17.286
					l-65.493,26.961c-2.434,0.997-5.167,0.997-7.601,0l-107.506-44.247c-1.775-0.728-3.302-1.955-4.399-3.531l-42.003-60.366
					c-2.174-3.122-2.384-7.212-0.539-10.533l36.497-65.822c1.127-2.035,2.923-3.611,5.087-4.459L310.752,0.681
					c2.334-0.908,4.927-0.908,7.262,0L399.386,32.5l31.659,12.378c2.165,0.848,3.96,2.424,5.087,4.459l36.497,65.822
					C474.475,118.48,474.265,122.57,472.091,125.692z"/>
				<path style="fill:#5B5555;" d="M472.091,125.692l-42.003,60.366c-1.097,1.576-2.623,2.803-4.399,3.531l-42.013,17.286
					l56.958-81.687c2.104-3.018,2.376-6.949,0.708-10.228L399.386,32.5l31.659,12.378c2.165,0.848,3.96,2.424,5.087,4.459
					l36.497,65.822C474.475,118.48,474.265,122.57,472.091,125.692z"/>
				<circle style="fill:#FFBC8A;" cx="407.882" cy="192.58" r="21.267"/>
				<circle style="fill:#FFBC8A;" cx="220.883" cy="192.58" r="21.267"/>
				<path style="fill:#B9ACAC;" d="M314.381,286.224v27.691l-10.364,7.84l-20.933,15.855c-6.346,4.811-15.515,0.824-16.329-7.098
					l-2.318-22.582l-2.235-21.706H314.381z"/>
				<path style="fill:#9E9797;" d="M314.381,286.224v27.691l-10.364,7.84c-14.412-1.576-27.866-6.439-39.58-13.825l-2.235-21.706
					H314.381z"/>
				<path style="fill:#B9ACAC;" d="M366.56,286.224l-2.236,21.706l-2.318,22.582c-0.814,7.922-9.972,11.909-16.328,7.098
					l-20.934-15.855l-10.364-7.84v-27.691H366.56z"/>
				<path style="fill:#9E9797;" d="M366.56,286.224l-2.236,21.706c-11.713,7.386-25.168,12.249-39.58,13.825l-10.364-7.84v-27.691
					H366.56z"/>
				<path style="fill:#FDD1A7;" d="M314.382,309.967L314.382,309.967c-43.266,0-78.958-33.873-81.219-77.079l-3.098-59.185
					c-1.315-25.119,18.698-46.206,43.851-46.206h80.933c25.153,0,45.166,21.088,43.851,46.206l-3.098,59.185
					C393.34,276.094,357.648,309.967,314.382,309.967z"/>
				<path style="fill:#756F6F;" d="M249.548,139.7l8.569,29.84c3.916,13.639,16.391,23.035,30.581,23.035h51.369
					c14.19,0,26.664-9.397,30.581-23.035l8.569-29.84H249.548z"/>
				<path style="fill:#5B5555;" d="M379.218,139.702l-8.573,29.84c-3.911,13.641-16.383,23.036-30.58,23.036h-24.61
					c14.185,0,26.658-9.395,30.58-23.036l8.562-29.84H379.218z"/>
				<path style="fill:#B9ACAC;" d="M400.497,149.371H228.269c-5.509,0-9.975-4.466-9.975-9.975v0
					c0-33.429,27.099-60.528,60.528-60.528h71.121c33.429,0,60.528,27.099,60.528,60.528v0
					C410.471,144.905,406.006,149.371,400.497,149.371z"/>
				<path style="fill:#9E9797;" d="M410.466,139.391c0,2.751-1.113,5.254-2.915,7.057c-1.803,1.813-4.296,2.926-7.057,2.926h-20.223
					c2.751,0,5.244-1.113,7.057-2.926c1.803-1.803,2.915-4.306,2.915-7.057c0-33.419-27.094-60.524-60.524-60.524h20.222
					C383.372,78.868,410.466,105.972,410.466,139.391z"/>
				<circle style="fill:#FAC574;" cx="314.383" cy="79.178" r="17.936"/>
				<path style="fill:#D8AA64;" d="M332.316,79.177c0,9.91-8.025,17.936-17.936,17.936c-2.586,0-5.038-0.546-7.252-1.535
					c6.294-2.782,10.673-9.076,10.673-16.401c0-7.314-4.378-13.619-10.673-16.401c2.215-0.989,4.667-1.535,7.252-1.535
					C324.291,61.241,332.316,69.277,332.316,79.177z"/>
				<path style="fill:#5B5555;" d="M329.91,221.574h-31.118c-4.268,0-7.726-3.459-7.726-7.726c0-4.268,3.459-7.726,7.726-7.726
					h31.118c4.268,0,7.726,3.459,7.726,7.726C337.636,218.115,334.178,221.574,329.91,221.574z"/>
				<path style="fill:#006AC3;" d="M299.865,198.761v22.53c0,14.536-11.775,26.311-26.311,26.311h-22.767
					c-0.464,0-0.917-0.01-1.37-0.041c-4.172-0.206-8.087-1.401-11.528-3.338c-2.184-1.226-4.183-2.761-5.924-4.543
					c-4.636-4.759-7.489-11.229-7.489-18.389v-22.53c0-3.42,2.761-6.181,6.181-6.181h63.027c2.905,0,5.347,2.009,5.996,4.718
					C299.804,197.762,299.865,198.256,299.865,198.761z"/>
				<path style="fill:#5592D7;" d="M289.538,192.576l-51.647,51.647c-2.186-1.224-4.187-2.759-5.926-4.547l47.091-47.1H289.538z"/>
				<path style="fill:#5592D7;" d="M299.865,198.761v22.53c0,14.536-11.775,26.311-26.311,26.311h-22.767
					c-0.464,0-0.917-0.01-1.37-0.041l50.263-50.263C299.804,197.762,299.865,198.256,299.865,198.761z"/>
				<path style="fill:#006AC3;" d="M404.292,198.761v22.526c0,14.532-11.781,26.313-26.313,26.313h-22.772
					c-4.768,0-9.246-1.267-13.106-3.501c-4.618-2.653-8.349-6.663-10.653-11.491c-1.636-3.431-2.553-7.261-2.553-11.321v-22.526
					c0-3.414,2.767-6.181,6.181-6.181h63.035C401.525,192.58,404.292,195.347,404.292,198.761z"/>
				<path style="fill:#5592D7;" d="M393.619,192.58l-51.519,51.519c-4.618-2.653-8.349-6.663-10.653-11.491l40.028-40.028H393.619z"
					/>
				<g>
					<path style="fill:#F5A871;" d="M314.383,282.658c-10.614,0-20.502-5.723-25.805-14.937c-2.129-3.698-0.856-8.422,2.842-10.55
						c3.696-2.13,8.421-0.857,10.55,2.842c2.553,4.437,7.31,7.192,12.413,7.192c5.103,0,9.858-2.756,12.412-7.192
						c2.128-3.699,6.85-4.972,10.55-2.842c3.698,2.128,4.971,6.851,2.842,10.55C334.885,276.935,324.997,282.658,314.383,282.658z"
						/>
				</g>
			</g>
		</g>
		<g>
			<g>
				<path style="fill:#FAC574;" d="M53.05,398.069l-13.954-19.062c-2.561-3.498,0.253-8.373,4.563-7.904l23.486,2.554
					c15.877,1.726,31.043-7.03,37.486-21.642l9.531-21.616c1.749-3.967,7.378-3.967,9.127,0l9.531,21.616
					c6.443,14.613,21.609,23.369,37.486,21.642l23.486-2.554c4.31-0.469,7.124,4.406,4.563,7.904l-13.954,19.062
					c-9.433,12.886-9.433,30.399,0,43.285l13.954,19.062c2.561,3.498-0.253,8.373-4.563,7.904l-23.486-2.554
					c-15.877-1.726-31.043,7.03-37.486,21.643l-9.531,21.616c-1.749,3.967-7.378,3.967-9.127,0l-9.531-21.616
					c-6.443-14.613-21.609-23.369-37.486-21.643l-23.486,2.554c-4.31,0.469-7.124-4.406-4.563-7.904l13.954-19.062
					C62.483,428.468,62.483,410.955,53.05,398.069z"/>
			</g>
			<g>
				<path style="fill:#FFF5F5;" d="M127.623,414.329h-17.797c-4.268,0-7.726-3.459-7.726-7.726c0-4.268,3.459-7.726,7.726-7.726
					h17.797c4.268,0,7.726,3.459,7.726,7.726C135.349,410.871,131.891,414.329,127.623,414.329z"/>
				<path style="fill:#FFF5F5;" d="M136.601,442.14h-35.753c-4.268,0-7.726-3.459-7.726-7.726s3.459-7.726,7.726-7.726h35.753
					c4.268,0,7.726,3.459,7.726,7.726S140.868,442.14,136.601,442.14z"/>
			</g>
		</g>
	</g>
</g>
<g>
</g>
<g>
</g>
<g>
</g>
<g>
</g>
<g>
</g>
<g>
</g>
<g>
</g>
<g>
</g>
<g>
</g>
<g>
</g>
<g>
</g>
<g>
</g>
<g>
</g>
<g>
</g>
<g>
</g>
</svg>
