<?xml version="1.0" encoding="iso-8859-1"?>
<!-- Generator: Adobe Illustrator 23.0.3, SVG Export Plug-In . SVG Version: 6.00 Build 0)  -->
<svg version="1.1" id="Capa_1" xmlns="http://www.w3.org/2000/svg" xmlns:xlink="http://www.w3.org/1999/xlink" x="0px" y="0px"
	 viewBox="0 0 512 512" style="enable-background:new 0 0 512 512;" xml:space="preserve">
<g>
	<g>
		<path style="fill:#FFF5F5;" d="M221.13,46.377v213.053c0,5.316-4.173,9.658-9.43,9.927c-0.169,0.01-0.338,0.01-0.507,0.01H44.058
			c-5.485,0-9.937-4.452-9.937-9.937V46.377c0-5.485,4.452-9.937,9.937-9.937h167.135C216.678,36.44,221.13,40.892,221.13,46.377z"
			/>
		<path style="fill:#E0D3CE;" d="M221.13,46.377v213.053c0,5.316-4.173,9.658-9.43,9.927h-25.905c5.485,0,9.937-4.442,9.937-9.937
			V46.377c0-5.495-4.452-9.937-9.937-9.937h25.398C216.678,36.44,221.13,40.892,221.13,46.377z"/>
	</g>
	<g>
		<g>
			<g>
				<path style="fill:#C86D3D;" d="M503.501,328.35v173.606c0,5.542-4.502,10.044-10.044,10.044H189.595
					c-5.553,0-10.055-4.502-10.055-10.044V328.35c0-45.153,35.953-81.92,80.787-83.218c0.824-0.031,1.648-0.041,2.472-0.041h157.443
					c0.824,0,1.648,0.01,2.473,0.041C467.558,246.43,503.501,283.197,503.501,328.35z"/>
				<path style="fill:#AC5E33;" d="M349.252,413.803V512h-15.453v-97.836c0-4.244,3.266-7.974,7.52-8.077
					C345.677,405.974,349.252,409.476,349.252,413.803z"/>
				<path style="fill:#AC5E33;" d="M422.714,245.132c-18.492,24.797-48.048,40.733-81.189,40.733s-62.707-15.937-81.199-40.733
					c0.824-0.031,1.648-0.041,2.472-0.041h157.443C421.066,245.09,421.89,245.101,422.714,245.132z"/>
				<g>
					<g>
						<path style="fill:#D77F4F;" d="M440.938,297.733l-56.248,48.522l17.575,25.641c2.699,3.946,2.174,9.261-1.257,12.599
							l-47.543,46.214c-4.461,4.337-11.94,1.174-11.94-5.048V253.352h60.966l7.562,5.8l30.452,23.344
							C445.44,286.287,445.656,293.663,440.938,297.733z"/>
					</g>
					<path style="fill:#C86D3D;" d="M410.053,259.152c-18.069,16.627-42.165,26.713-68.528,26.713v-32.513h60.966L410.053,259.152z"
						/>
					<g>
						<path style="fill:#DB885D;" d="M341.526,253.352V425.66c0,6.222-7.479,9.385-11.94,5.048l-47.553-46.214
							c-3.431-3.338-3.956-8.654-1.257-12.599l17.575-25.641l-56.248-48.522c-4.718-4.069-4.502-11.445,0.443-15.236l30.442-23.344
							l7.562-5.8H341.526z"/>
					</g>
					<path style="fill:#D77F4F;" d="M341.526,253.352v32.513c-26.373,0-50.479-10.086-68.538-26.713l7.562-5.8H341.526z"/>
				</g>
				<path style="fill:#AC5E33;" d="M503.496,328.351v173.599c0,5.547-4.491,10.048-10.048,10.048h-21.553
					c5.547,0,10.048-4.501,10.048-10.048V328.351c0-45.98-37.278-83.258-83.258-83.258h21.553
					C466.228,245.094,503.496,282.372,503.496,328.351z"/>
			</g>
			<g>
				<path style="fill:#AC5E33;" d="M250.715,379.756V512h-15.453V379.756c0-4.265,3.461-7.726,7.726-7.726
					C247.254,372.029,250.715,375.491,250.715,379.756z"/>
				<path style="fill:#AC5E33;" d="M447.778,379.756V512h-15.453V379.756c0-4.265,3.462-7.726,7.726-7.726
					C444.317,372.029,447.778,375.491,447.778,379.756z"/>
			</g>
		</g>
		<g>
			<g>
				<circle style="fill:#FFBC8A;" cx="443.734" cy="151.204" r="23.249"/>
			</g>
			<g>
				<circle style="fill:#FFBC8A;" cx="239.309" cy="151.204" r="23.249"/>
			</g>
		</g>
		<path style="fill:#FDD1A7;" d="M250.185,140.556l2.548,48.683c2.472,47.232,41.491,84.262,88.788,84.262l0,0
			c47.297,0,86.315-37.029,88.788-84.262l2.548-48.683H250.185z"/>
		<g>
			<g>
				<g>
					<g>
						<line style="fill:none;" x1="393.244" y1="186.799" x2="393.244" y2="186.895"/>
					</g>
				</g>
			</g>
		</g>
		<g>
			<g>
				<path style="fill:#904D29;" d="M300.076,188.95c-4.268,0-7.726-3.459-7.726-7.726c0-4.268,3.459-7.778,7.726-7.778
					c4.268,0,7.726,3.407,7.726,7.675v0.103C307.803,185.491,304.344,188.95,300.076,188.95z"/>
				<path style="fill:#904D29;" d="M382.967,188.95c-4.268,0-7.726-3.459-7.726-7.726c0-4.268,3.459-7.778,7.726-7.778
					s7.726,3.407,7.726,7.675v0.103C390.693,185.491,387.234,188.95,382.967,188.95z"/>
			</g>
		</g>
		<path style="fill:#F5A871;" d="M341.521,240.235c-14.107,0-26.683-9.473-30.585-23.035c-1.179-4.101,1.189-8.381,5.29-9.561
			c4.1-1.179,8.381,1.189,9.561,5.29c2.007,6.98,8.477,11.854,15.733,11.854c7.257,0,13.727-4.874,15.734-11.854
			c1.181-4.101,5.464-6.469,9.561-5.29c4.101,1.18,6.469,5.461,5.29,9.561C368.205,230.763,355.628,240.235,341.521,240.235z"/>
		<g>
			<ellipse style="fill:#DB885D;" cx="341.522" cy="111.716" rx="163.991" ry="48.023"/>
			<path style="fill:#C86D3D;" d="M505.511,111.72c0,14.557-22.13,27.611-57.08,36.413c19.046-10.274,30.254-22.838,30.254-36.413
				s-11.198-26.138-30.234-36.413C483.39,84.109,505.511,97.153,505.511,111.72z"/>
		</g>
		<g>
			<path style="fill:#C86D3D;" d="M437.381,31.889v66.855c0,4.738-3.377,8.796-8.035,9.663c-25.392,4.724-55.519,7.462-87.824,7.462
				s-62.432-2.738-87.824-7.462c-4.658-0.867-8.035-4.925-8.035-9.663V31.889c0-23.521,24.62-38.931,45.772-28.642
				c15.79,7.68,32.62,15.83,50.088,15.83c17.467,0,34.298-8.15,50.088-15.83C412.761-7.041,437.381,8.368,437.381,31.889z"/>
			<path style="fill:#AC5E33;" d="M437.381,31.891v66.853c0,4.734-3.379,8.801-8.035,9.665c-6.807,1.267-13.958,2.387-21.394,3.35
				c1.906-1.798,3.065-4.342,3.065-7.121V31.891c0-13.349-7.937-24.085-18.663-28.987C413.335-6.673,437.381,8.641,437.381,31.891z"
				/>
			<path style="fill:#FBCC85;" d="M437.381,64.924v33.819c0,4.734-3.379,8.801-8.035,9.665c-6.807,1.267-13.958,2.387-21.394,3.35
				c-20.303,2.652-42.787,4.116-66.431,4.116c-32.307,0-62.433-2.741-87.824-7.465c-4.656-0.864-8.035-4.931-8.035-9.665V64.924
				c0,4.734,3.379,8.791,8.035,9.656c25.391,4.725,55.518,7.465,87.824,7.465c24.842,0,48.396-1.621,69.495-4.528
				c6.345-0.864,12.465-1.847,18.329-2.937C434.002,73.716,437.381,69.659,437.381,64.924z"/>
			<path style="fill:#D8AA64;" d="M437.381,64.924v33.819c0,4.734-3.379,8.801-8.035,9.665c-6.807,1.267-13.958,2.387-21.394,3.35
				c1.906-1.798,3.065-4.342,3.065-7.121v-27.12c6.345-0.864,12.465-1.847,18.329-2.937
				C434.002,73.716,437.381,69.659,437.381,64.924z"/>
		</g>
		<g>
			<path style="fill:#D8AA64;" d="M363.414,387.65c-4.268,0-7.726-3.459-7.726-7.726c0-4.268,3.459-7.778,7.726-7.778
				s7.726,3.407,7.726,7.675v0.103C371.141,384.191,367.682,387.65,363.414,387.65z"/>
			<path style="fill:#FBCC85;" d="M319.628,387.65c-4.268,0-7.726-3.459-7.726-7.726c0-4.268,3.459-7.778,7.726-7.778
				s7.726,3.407,7.726,7.675v0.103C327.354,384.191,323.895,387.65,319.628,387.65z"/>
		</g>
		<g>
			<path style="fill:#FBCC85;" d="M411.581,461.104c-4.268,0-7.726-3.459-7.726-7.726s3.459-7.778,7.726-7.778
				s7.726,3.407,7.726,7.675v0.103C419.308,457.645,415.849,461.104,411.581,461.104z"/>
			<path style="fill:#FBCC85;" d="M373.688,461.104c-4.268,0-7.726-3.459-7.726-7.726s3.459-7.778,7.726-7.778
				s7.726,3.407,7.726,7.675v0.103C381.414,457.645,377.956,461.104,373.688,461.104z"/>
		</g>
		<g>
			<path style="fill:#FBCC85;" d="M411.581,495.483c-4.268,0-7.726-3.459-7.726-7.726s3.459-7.778,7.726-7.778
				s7.726,3.407,7.726,7.675v0.103C419.308,492.024,415.849,495.483,411.581,495.483z"/>
			<path style="fill:#FBCC85;" d="M373.688,495.483c-4.268,0-7.726-3.459-7.726-7.726s3.459-7.778,7.726-7.778
				s7.726,3.407,7.726,7.675v0.103C381.414,492.024,377.956,495.483,373.688,495.483z"/>
		</g>
	</g>
	<g>
		<path style="fill:#B9ACAC;" d="M119.098,344.005v149.234c0,10.357-8.404,18.761-18.761,18.761
			c-10.357,0-18.761-8.404-18.761-18.761V344.005H119.098z"/>
		<path style="fill:#756F6F;" d="M119.099,343.998V493.24c0,10.353-8.406,18.76-18.76,18.76c-3.42,0-6.624-0.917-9.385-2.514
			c5.604-3.245,9.385-9.313,9.385-16.246V343.998H119.099z"/>
		<path style="fill:#FBCC85;" d="M119.098,464.25v28.991c0,10.357-8.402,18.759-18.759,18.759c-3.421,0-6.624-0.915-9.379-2.516
			c-5.605-3.244-9.379-9.307-9.379-16.242V464.25H119.098z"/>
		<path style="fill:#D8AA64;" d="M119.098,464.25v28.991c0,10.357-8.402,18.759-18.759,18.759c-3.421,0-6.624-0.915-9.379-2.516
			c5.605-3.244,9.379-9.307,9.379-16.242V464.25H119.098z"/>
		<circle style="fill:#FBCC85;" cx="100.339" cy="269.317" r="93.852"/>
		<path style="fill:#D8AA64;" d="M100.337,346.241c-16.811,0-32.792-5.335-46.216-15.43c-7.291-5.477-13.503-12.155-18.462-19.846
			c-8.013-12.395-12.254-26.8-12.254-41.642c0-42.421,34.511-76.932,76.932-76.932c14.848,0,29.256,4.233,41.663,12.243
			c7.641,4.926,14.313,11.126,19.824,18.424c10.11,13.444,15.445,29.435,15.445,46.265
			C177.269,311.736,142.758,346.241,100.337,346.241z"/>
		<path style="fill:#77D47D;" d="M164.907,269.324c0,35.653-28.902,64.555-64.569,64.555c-14.55,0-27.98-4.822-38.787-12.948
			c-6.098-4.581-11.36-10.239-15.501-16.664c-6.51-10.069-10.282-22.067-10.282-34.944c0-35.667,28.916-64.569,64.569-64.569
			c12.891,0,24.875,3.758,34.958,10.268c6.424,4.141,12.069,9.403,16.664,15.486C160.085,241.315,164.907,254.745,164.907,269.324z"
			/>
		<path style="fill:#B0E5B1;" d="M151.959,230.509L61.55,320.931c-6.098-4.581-11.36-10.239-15.501-16.664l89.245-89.246
			C141.72,219.163,147.364,224.425,151.959,230.509z"/>
		<path style="fill:#B0E5B1;" d="M164.907,269.324c0,35.653-28.902,64.555-64.569,64.555c-9.516,0-18.535-2.056-26.662-5.744
			l85.487-85.487C162.85,250.774,164.907,259.808,164.907,269.324z"/>
		<path style="fill:#FBCC85;" d="M117.217,400.554h-33.76c-4.268,0-7.726-3.459-7.726-7.726s3.459-7.726,7.726-7.726h33.76
			c4.268,0,7.726,3.459,7.726,7.726S121.485,400.554,117.217,400.554z"/>
		<path style="fill:#D8AA64;" d="M124.94,392.829c0,3.616-2.483,6.655-5.841,7.489c-0.608,0.155-1.236,0.237-1.885,0.237H100.34
			v-15.453h16.874c0.649,0,1.277,0.082,1.885,0.237C122.458,386.174,124.94,389.213,124.94,392.829z"/>
	</g>
	<g>
		<path style="fill:#E0D3CE;" d="M101.686,84.147H72.865c-4.268,0-7.726-3.459-7.726-7.726c0-4.268,3.459-7.726,7.726-7.726h28.821
			c4.268,0,7.726,3.459,7.726,7.726C109.412,80.688,105.954,84.147,101.686,84.147z"/>
		<path style="fill:#E0D3CE;" d="M155.269,118.408H72.865c-4.268,0-7.726-3.459-7.726-7.726c0-4.268,3.459-7.726,7.726-7.726h82.403
			c4.268,0,7.726,3.459,7.726,7.726C162.995,114.95,159.536,118.408,155.269,118.408z"/>
		<path style="fill:#E0D3CE;" d="M174.549,148.56H72.865c-4.268,0-7.726-3.459-7.726-7.726s3.459-7.726,7.726-7.726h101.684
			c4.268,0,7.726,3.459,7.726,7.726S178.817,148.56,174.549,148.56z"/>
	</g>
</g>
<g>
</g>
<g>
</g>
<g>
</g>
<g>
</g>
<g>
</g>
<g>
</g>
<g>
</g>
<g>
</g>
<g>
</g>
<g>
</g>
<g>
</g>
<g>
</g>
<g>
</g>
<g>
</g>
<g>
</g>
</svg>
