<?xml version="1.0" encoding="iso-8859-1"?>
<!-- Generator: Adobe Illustrator 23.0.3, SVG Export Plug-In . SVG Version: 6.00 Build 0)  -->
<svg version="1.1" id="Capa_1" xmlns="http://www.w3.org/2000/svg" xmlns:xlink="http://www.w3.org/1999/xlink" x="0px" y="0px"
	 viewBox="0 0 512 512" style="enable-background:new 0 0 512 512;" xml:space="preserve">
<g>
	<g>
		<g>
			<g>
				<g>
					<path style="fill:#EFE2DD;" d="M512,60.204v210.724c0,4.852-3.925,8.777-8.777,8.777H356.195c-4.842,0-8.777-3.925-8.777-8.777
						V60.204c0-4.842,3.935-8.777,8.777-8.777h147.027C508.075,51.427,512,55.362,512,60.204z"/>
					<path style="fill:#CDBFBB;" d="M512,239.136v31.791c0,4.852-3.925,8.777-8.777,8.777H356.195c-4.842,0-8.777-3.925-8.777-8.777
						v-31.791c2.678-1.236,5.645-1.916,8.777-1.916h147.027C506.355,237.22,509.322,237.9,512,239.136z"/>
					<path style="fill:#CDBFBB;" d="M511.999,60.212v210.717c0,4.845-3.932,8.777-8.777,8.777h-18.889
						c4.845,0,8.777-3.932,8.777-8.777V60.212c0-4.854-3.932-8.777-8.777-8.777h18.889
						C508.067,51.434,511.999,55.358,511.999,60.212z"/>
				</g>
				<g>
					<path style="fill:#5B5555;" d="M457.5,140.602c0.446-2.233,0.537-4.594,0.189-7.027c-1.33-9.284-9.017-16.62-18.354-17.502
						c-12.261-1.159-22.573,8.453-22.573,20.475c0,1.388,0.14,2.744,0.402,4.055c-11.348,0.542-20.287,10.279-19.527,21.924
						c0.655,10.031,8.727,18.27,18.745,19.115c3.526,0.298,6.885-0.299,9.879-1.583v12.288c0,3.414,2.767,6.181,6.181,6.181h9.782
						c3.414,0,6.181-2.767,6.181-6.181v-12.288c2.994,1.284,6.352,1.88,9.878,1.583c10.017-0.845,18.09-9.082,18.745-19.114
						C477.788,150.882,468.849,141.145,457.5,140.602z"/>
				</g>
			</g>
			<g>
				<g>
					<path style="fill:#EFE2DD;" d="M426.914,60.204v210.724c0,4.852-3.935,8.777-8.777,8.777H255.863
						c-4.852,0-8.777-3.925-8.777-8.777V60.204c0-4.842,3.925-8.777,8.777-8.777h162.274
						C422.979,51.427,426.914,55.362,426.914,60.204z"/>
					<path style="fill:#CDBFBB;" d="M426.917,239.136v31.791c0,4.852-3.935,8.777-8.777,8.777H255.866
						c-4.852,0-8.777-3.925-8.777-8.777v-31.791c2.668-1.236,5.645-1.916,8.777-1.916H418.14
						C421.262,237.22,424.239,237.9,426.917,239.136z"/>
					<path style="fill:#CDBFBB;" d="M426.911,60.212v210.717c0,4.845-3.932,8.777-8.777,8.777h-18.889
						c4.845,0,8.777-3.932,8.777-8.777V60.212c0-4.854-3.932-8.777-8.777-8.777h18.889
						C422.979,51.434,426.911,55.358,426.911,60.212z"/>
				</g>
			</g>
			<g>
				<g>
					<path style="fill:#FFF5F5;" d="M503.223,477.862H356.197c-4.848,0-8.777-3.93-8.777-8.777v-210.72
						c0-4.848,3.93-8.777,8.777-8.777h147.026c4.848,0,8.777,3.93,8.777,8.777v210.72C512,473.932,508.07,477.862,503.223,477.862z"
						/>
					<path style="fill:#EFE2DD;" d="M511.999,258.367v210.717c0,4.845-3.932,8.777-8.777,8.777h-18.889
						c4.845,0,8.777-3.932,8.777-8.777V258.367c0-4.854-3.932-8.777-8.777-8.777h18.889
						C508.067,249.59,511.999,253.514,511.999,258.367z"/>
				</g>
				<g>
					<g>
						<path style="fill:#756F6F;" d="M426.457,398.82v-17.541c-6.7,6.7-17.562,6.701-24.263,0.002v0
							c-6.703-6.7-6.704-17.566-0.002-24.267l28.951-28.951c3.418-3.418,8.959-3.418,12.377,0l28.952,28.951
							c6.701,6.701,6.7,17.567-0.002,24.267l0,0c-6.701,6.698-17.563,6.698-24.263-0.002v17.541c0,3.414-2.767,6.181-6.181,6.181
							h-9.388C429.224,405.001,426.457,402.234,426.457,398.82z"/>
					</g>
				</g>
			</g>
			<g>
				<g>
					<path style="fill:#FFF5F5;" d="M418.135,477.862H255.865c-4.848,0-8.777-3.93-8.777-8.777v-210.72
						c0-4.848,3.93-8.777,8.777-8.777h162.271c4.848,0,8.777,3.93,8.777,8.777v210.72
						C426.913,473.932,422.983,477.862,418.135,477.862z"/>
					<path style="fill:#EFE2DD;" d="M426.911,258.367v210.717c0,4.845-3.932,8.777-8.777,8.777h-18.889
						c4.845,0,8.777-3.932,8.777-8.777V258.367c0-4.854-3.932-8.777-8.777-8.777h18.889
						C422.979,249.59,426.911,253.514,426.911,258.367z"/>
				</g>
				<g>
					<path style="fill:#E84649;" d="M366.659,342.297c-5.656-5.654-14.824-5.653-20.479,0.002L337,351.478l0,0l-9.179-9.179
						c-5.655-5.655-14.823-5.656-20.479-0.002l0,0c-5.657,5.655-5.658,14.827-0.002,20.483l25.29,25.29
						c2.414,2.414,6.328,2.414,8.741,0l25.29-25.29C372.317,357.124,372.316,347.953,366.659,342.297L366.659,342.297z"/>
				</g>
			</g>
			<g>
				<path style="fill:#D73337;" d="M331.894,192.804l-22.37-32.796c-1.433-2.101-1.433-4.865,0-6.966l22.37-32.796
					c2.454-3.597,7.759-3.597,10.213,0l22.37,32.796c1.433,2.101,1.433,4.865,0,6.966l-22.37,32.796
					C339.652,196.401,334.347,196.401,331.894,192.804z"/>
			</g>
		</g>
		<path style="fill:#AC5E33;" d="M248.891,284.79H93.984c-14.153,0-25.627-11.473-25.627-25.627v-78.716
			c0-47.152,38.224-85.375,85.376-85.375h35.409c47.152,0,85.376,38.224,85.376,85.375v78.716
			C274.518,273.316,263.044,284.79,248.891,284.79z"/>
		<path style="fill:#904D29;" d="M274.522,180.444v78.721c0,14.151-11.474,25.625-25.635,25.625h-18.531
			c14.151,0,25.625-11.474,25.625-25.625v-78.721c0-47.149-38.218-85.376-85.376-85.376h18.54
			C236.295,95.068,274.522,133.295,274.522,180.444z"/>
		<path style="fill:#756F6F;" d="M278.097,351.282v132.543c0,5.244-4.244,9.488-9.478,9.488H74.255
			c-5.233,0-9.478-4.244-9.478-9.488V351.282c0-32.214,19.759-59.802,47.821-71.309c9.014-3.698,18.873-5.738,29.216-5.738h59.246
			c10.343,0,20.212,2.04,29.216,5.738C258.339,291.48,278.097,319.068,278.097,351.282z"/>
		<path style="fill:#5B5555;" d="M230.276,279.973c-14.041,17.091-35.325,27.856-58.834,27.856
			c-23.509,0-44.803-10.765-58.844-27.856c9.014-3.698,18.873-5.738,29.216-5.738h59.246
			C211.403,274.235,221.273,276.274,230.276,279.973z"/>
		<rect x="141.846" y="279.705" style="fill:#FFF5F5;" width="59.184" height="213.608"/>
		<path style="fill:#EFE2DD;" d="M201.03,279.705v22.128c-9.127,3.874-19.141,5.996-29.587,5.996
			c-10.446,0-20.459-2.122-29.597-5.996v-22.128H201.03z"/>
		<rect x="141.849" y="408.216" style="fill:#FF9846;" width="59.178" height="85.099"/>
		<rect x="141.849" y="439.874" style="fill:#E84649;" width="59.178" height="53.441"/>
		<path style="fill:#5B5555;" d="M278.1,351.282v132.546c0,5.239-4.247,9.486-9.486,9.486h-11.108V351.282
			c0-42.554-34.491-77.044-77.044-77.044h20.594C243.606,274.238,278.1,308.732,278.1,351.282z"/>
		<line style="fill:#F69583;" x1="215.764" y1="262.933" x2="215.764" y2="263.015"/>
		<path style="fill:#5B5555;" d="M114.783,377.253v116.06H99.33v-116.06c0-4.275,3.451-7.726,7.726-7.726
			C111.321,369.526,114.783,372.978,114.783,377.253z"/>
		<path style="fill:#5B5555;" d="M243.555,377.253v116.06h-15.453v-116.06c0-4.275,3.451-7.726,7.726-7.726
			C240.094,369.526,243.555,372.978,243.555,377.253z"/>
		<path style="fill:#FDD1A7;" d="M98.525,160.834l9.598,78.581c3.908,31.999,31.078,56.052,63.315,56.052l0,0
			c32.237,0,59.407-24.053,63.315-56.052l9.598-78.581H98.525z"/>
		<path style="fill:#AC5E33;" d="M255.848,169.587c-0.899,6.884-2.888,13.654-5.957,20.041
			c-24.726,11.895-55.286,7.582-75.795-12.918c-1.31-1.31-2.543-2.668-3.719-4.064c-1.186,1.396-2.429,2.754-3.739,4.064
			c-20.5,20.5-51.059,24.813-75.786,12.918c-11.885-24.726-7.582-55.286,12.918-75.786c18.205-18.196,44.309-23.627,67.238-16.312
			c1.74-0.784,3.586-1.396,5.498-1.788c9.39-1.931,19.104-1.817,28.446,0.344c11.732,2.696,22.872,8.615,32.013,17.756
			C252.177,129.055,258.468,149.794,255.848,169.587z"/>
		<path style="fill:#904D29;" d="M255.848,169.587c-1.769-32.921-22.193-60.889-50.897-73.5
			c11.732,2.696,22.872,8.615,32.013,17.756C252.177,129.055,258.468,149.794,255.848,169.587z"/>
		<path style="fill:#904D29;" d="M91.105,189.359c1.656-3.582,5.75-5.351,9.483-4.071c20.993,7.197,44.61,1.932,60.587-14.043
			c1.166-1.167,2.306-2.407,3.385-3.685c1.429-1.693,3.559-2.635,5.775-2.635h0.199c2.204,0,4.271,1.004,5.696,2.686
			c1.098,1.297,2.22,2.519,3.334,3.632c16.005,16.004,39.673,21.262,60.694,14.009c3.688-1.272,7.741,0.449,9.431,3.965v0
			c2,4.159-0.063,9.152-4.426,10.655c-7.851,2.704-15.994,4.027-24.092,4.027c-18.509,0.001-36.781-6.91-50.8-20.051
			c-20.132,18.871-49.035,24.897-74.811,16.053C91.246,198.421,89.192,193.497,91.105,189.359L91.105,189.359z"/>
		<path style="fill:#F69583;" d="M129.957,247.809c-3.852,0-6.974-3.122-6.974-6.974s3.122-7.015,6.974-7.015
			c3.852,0,6.974,3.081,6.974,6.933v0.082C136.931,244.687,133.809,247.809,129.957,247.809z"/>
		<path style="fill:#F69583;" d="M212.918,247.809c-3.852,0-6.974-3.122-6.974-6.974s3.122-7.015,6.974-7.015
			s6.974,3.081,6.974,6.933v0.082C219.892,244.687,216.769,247.809,212.918,247.809z"/>
		<path style="fill:#0086F9;" d="M138.27,226.245c-4.267,0-7.726-3.459-7.726-7.726c0-4.268,3.459-7.768,7.726-7.768
			c4.267,0,7.726,3.417,7.726,7.685v0.082C145.996,222.786,142.537,226.245,138.27,226.245z"/>
		<path style="fill:#0086F9;" d="M204.605,226.245c-4.267,0-7.726-3.459-7.726-7.726c0-4.268,3.459-7.768,7.726-7.768
			s7.726,3.417,7.726,7.685v0.082C212.331,222.786,208.872,226.245,204.605,226.245z"/>
		<path style="fill:#F69583;" d="M171.438,267.288c-11.974,0-22.648-8.04-25.959-19.551c-1.179-4.102,1.189-8.382,5.29-9.561
			c4.103-1.181,8.381,1.189,9.561,5.29c1.417,4.929,5.985,8.37,11.108,8.37c5.123,0,9.691-3.442,11.109-8.37
			c1.179-4.1,5.458-6.468,9.561-5.29c4.101,1.18,6.469,5.461,5.289,9.561C194.086,259.248,183.411,267.288,171.438,267.288z"/>
		<path style="fill:#756F6F;" d="M254.225,123.208H88.65V39.012c0-11.226,9.1-20.326,20.326-20.326h124.922
			c11.226,0,20.326,9.1,20.326,20.326V123.208z"/>
		<path style="fill:#5B5555;" d="M254.227,39.015v84.192h-24.199V39.015c0-11.23-9.096-20.326-20.326-20.326h24.199
			C245.121,18.689,254.227,27.785,254.227,39.015z"/>
		<rect x="88.648" y="82.788" style="fill:#E84649;" width="165.579" height="40.419"/>
		<rect x="230.029" y="82.788" style="fill:#D73337;" width="24.199" height="40.419"/>
		<path style="fill:#756F6F;" d="M266.773,142.134H76.102c-7.781,0-14.089-6.308-14.089-14.089v0
			c0-7.781,6.308-14.089,14.089-14.089h190.67c7.781,0,14.089,6.308,14.089,14.089v0
			C280.862,135.826,274.554,142.134,266.773,142.134z"/>
		<path style="fill:#5B5555;" d="M280.858,128.042c0,3.894-1.576,7.417-4.121,9.962c-2.555,2.555-6.068,4.131-9.962,4.131h-21.201
			c3.894,0,7.417-1.576,9.962-4.131c2.555-2.545,4.131-6.068,4.131-9.962c0-7.778-6.315-14.083-14.093-14.083h21.201
			C274.554,113.959,280.858,120.264,280.858,128.042z"/>
	</g>
	<g>
		<rect y="205.522" style="fill:#756F6F;" width="34.555" height="250.677"/>
		<path style="fill:#FFF5F5;" d="M34.552,450.767v32.389c0,5.604-4.543,10.157-10.158,10.157H10.168
			c-0.216,0-0.433-0.01-0.649-0.021H9.488c-0.196-0.02-0.402-0.031-0.598-0.062C3.873,492.602,0,488.327,0,483.155v-32.389H34.552z"
			/>
		<rect x="17.729" y="205.522" style="fill:#5B5555;" width="16.823" height="250.677"/>
		<path style="fill:#FF9846;" d="M34.552,161.193v48.285H0v-48.285c0-5.182,3.863-9.447,8.87-10.086c0.01,0,0.01,0,0.021,0
			c0.196-0.031,0.402-0.041,0.598-0.062h0.031c0.216-0.01,0.433-0.021,0.649-0.021h14.227
			C29.999,151.025,34.552,155.568,34.552,161.193z"/>
		<path style="fill:#FF771C;" d="M34.552,161.193v48.285H17.729v-48.285c0-5.172-3.853-9.436-8.839-10.086
			c0.196-0.031,0.402-0.041,0.598-0.062h0.031c0.216-0.01,0.433-0.021,0.649-0.021h14.227
			C29.999,151.025,34.552,155.568,34.552,161.193z"/>
		<path style="fill:#EFE2DD;" d="M17.729,450.767h16.823v32.389c0,5.604-4.543,10.157-10.158,10.157H10.168
			c-0.216,0-0.433-0.01-0.649-0.021H9.488c-0.196-0.02-0.402-0.031-0.598-0.062c4.986-0.659,8.839-4.924,8.839-10.075V450.767z"/>
	</g>
</g>
<g>
</g>
<g>
</g>
<g>
</g>
<g>
</g>
<g>
</g>
<g>
</g>
<g>
</g>
<g>
</g>
<g>
</g>
<g>
</g>
<g>
</g>
<g>
</g>
<g>
</g>
<g>
</g>
<g>
</g>
</svg>
