<?xml version="1.0" encoding="iso-8859-1"?>
<!-- Generator: Adobe Illustrator 23.0.3, SVG Export Plug-In . SVG Version: 6.00 Build 0)  -->
<svg version="1.1" id="Capa_1" xmlns="http://www.w3.org/2000/svg" xmlns:xlink="http://www.w3.org/1999/xlink" x="0px" y="0px"
	 viewBox="0 0 512 512" style="enable-background:new 0 0 512 512;" xml:space="preserve">
<g>
	<g>
		<g>
			<g>
				<path style="fill:#C86D3D;" d="M313.095,254.884H195.813c-35.066,0-63.492-28.427-63.492-63.492V121.63
					C132.32,54.456,186.776,0,253.95,0h1.007c67.174,0,121.63,54.456,121.63,121.63v69.761
					C376.587,226.457,348.161,254.884,313.095,254.884z"/>
				<path style="fill:#AC5E33;" d="M376.591,121.626v69.766c0,35.067-28.426,63.494-63.494,63.494h-19.954
					c35.067,0,63.494-28.426,63.494-63.494v-69.766c0-63.985-49.414-116.427-112.16-121.257C247.608,0.123,250.76,0,253.952,0h1.003
					C322.133,0,376.591,54.458,376.591,121.626z"/>
			</g>
			<g>
				<path style="fill:#FDD1A7;" d="M396.742,302.399v179.015c0,5.717-4.636,10.364-10.353,10.364H122.518
					c-5.717,0-10.353-4.646-10.353-10.364V302.399c0-35.222,21.222-65.499,51.571-78.737c10.498-4.584,22.087-7.119,34.274-7.119
					h112.887c4.687,0,9.303,0.371,13.784,1.113c7.18,1.143,14.031,3.183,20.49,6.006C375.52,236.9,396.742,267.177,396.742,302.399z
					"/>
				<g>
					<g>
						<path style="fill:#FFBC8A;" d="M191.097,400.74v91.037h-15.453V400.74c0-4.265,3.461-7.726,7.726-7.726
							C187.636,393.014,191.097,396.475,191.097,400.74z"/>
						<path style="fill:#FFBC8A;" d="M336.353,400.74v91.037H320.9V400.74c0-4.265,3.461-7.726,7.726-7.726
							C332.892,393.014,336.353,396.475,336.353,400.74z"/>
					</g>
					<path style="fill:#FFBC8A;" d="M263.725,480.075v11.703h-15.453v-11.703c0-4.265,3.461-7.726,7.726-7.726
						C260.264,472.348,263.725,475.81,263.725,480.075z"/>
				</g>
				<path style="fill:#FFBC8A;" d="M396.747,302.399v179.013c0,5.72-4.642,10.363-10.363,10.363h-23.886
					c5.72,0,10.363-4.642,10.363-10.363V302.399c0-35.222-21.222-65.502-51.574-78.734c-6.456-2.819-13.316-4.86-20.487-6.01
					c-4.487-0.736-9.098-1.109-13.793-1.109h23.886c4.694,0,9.306,0.373,13.793,1.109c7.171,1.15,14.031,3.192,20.487,6.01
					C375.525,236.898,396.747,267.177,396.747,302.399z"/>
				<path style="fill:#CDBFBB;" d="M345.171,227.783v144.988c0,25.075-20.325,45.39-45.39,45.39h-90.656
					c-25.064,0-45.39-20.315-45.39-45.39V227.783c0-4.595,2.751-8.54,6.686-10.281c1.391-0.618,2.926-0.958,4.543-0.958h158.978
					c1.617,0,3.152,0.34,4.543,0.958C342.421,219.243,345.171,223.189,345.171,227.783z"/>
				<path style="fill:#B9ACAC;" d="M338.485,217.502c-11.96,35.356-45.431,60.266-84.032,60.266s-72.071-24.91-84.032-60.266
					c1.391-0.618,2.926-0.958,4.543-0.958h158.978C335.56,216.544,337.095,216.884,338.485,217.502z"/>
				<path style="fill:#B9ACAC;" d="M345.174,227.78v144.992c0,25.066-20.325,45.391-45.391,45.391h-21.729
					c25.077,0,45.402-20.325,45.402-45.391V227.78c0-6.202-5.033-11.235-11.235-11.235h21.718
					C340.141,216.545,345.174,221.578,345.174,227.78z"/>
				<path style="fill:#FFBC8A;" d="M301.461,216.544v72.288c0,21.191-17.173,38.374-38.374,38.374h-17.266
					c-21.201,0-38.374-17.183-38.374-38.374v-72.288H301.461z"/>
				<path style="fill:#F5A871;" d="M301.461,216.544v47.718c-13.701,8.581-29.834,13.506-47.007,13.506s-33.306-4.924-47.007-13.506
					v-47.718H301.461z"/>
			</g>
			<g>
				<g>
					<path style="fill:#FDD1A7;" d="M219.734,104.259c-27.932,0-49.568,24.44-46.182,52.166l5.117,41.892
						c4.678,38.301,37.199,67.092,75.785,67.092l0,0c38.586,0,71.107-28.79,75.785-67.092l8.973-73.466
						c1.337-10.944-7.204-20.591-18.229-20.591H219.734z"/>
					<line style="fill:#F69583;" x1="307.509" y1="193.173" x2="307.509" y2="193.271"/>
					<g>
						<path style="fill:#F69583;" d="M204.804,208.364c-4.61,0-8.347-3.737-8.347-8.347c0-4.61,3.737-8.396,8.347-8.396
							c4.61,0,8.347,3.688,8.347,8.298v0.098C213.151,204.627,209.414,208.364,204.804,208.364z"/>
					</g>
					<g>
						<path style="fill:#F69583;" d="M304.103,208.364c-4.61,0-8.348-3.737-8.348-8.347c0-4.61,3.737-8.396,8.348-8.396
							c4.61,0,8.347,3.688,8.347,8.298v0.098C312.451,204.627,308.713,208.364,304.103,208.364z"/>
					</g>
					<g>
						<path style="fill:#008C25;" d="M214.753,181.031c-4.267,0-7.726-3.459-7.726-7.726s3.459-7.776,7.726-7.776
							c4.267,0,7.726,3.409,7.726,7.677v0.099C222.48,177.572,219.02,181.031,214.753,181.031z"/>
						<path style="fill:#008C25;" d="M294.153,181.031c-4.267,0-7.726-3.459-7.726-7.726s3.459-7.776,7.726-7.776
							c4.267,0,7.726,3.409,7.726,7.677v0.099C301.88,177.572,298.42,181.031,294.153,181.031z"/>
					</g>
					<path style="fill:#F69583;" d="M254.454,230.157c-13.657,0-25.833-9.17-29.61-22.3c-1.179-4.101,1.189-8.381,5.29-9.561
						c4.101-1.183,8.382,1.189,9.561,5.29c1.883,6.546,7.952,11.119,14.759,11.119c6.806,0,12.875-4.572,14.759-11.119
						c1.179-4.101,5.459-6.47,9.561-5.29c4.101,1.18,6.469,5.461,5.289,9.561C280.286,220.987,268.111,230.157,254.454,230.157z"/>
				</g>
				<path style="fill:#C86D3D;" d="M349.138,116.91c0-32.327-25.37-59.466-57.68-60.492c-0.775-0.025-45.779-0.037-45.779-0.037
					V72.38c0,31.084,25.198,56.282,56.282,56.282h47.177V116.91z"/>
				<path style="fill:#AC5E33;" d="M348.825,128.663c0,4.267-3.459,7.726-7.726,7.726h-39.138
					c-35.163,0-63.794-28.501-64.007-63.616c-0.024-4.009,2.821-7.606,6.804-8.066c4.679-0.541,8.648,3.102,8.648,7.673
					c0,26.774,21.782,48.556,48.555,48.556h39.138C345.366,120.937,348.825,124.396,348.825,128.663L348.825,128.663z"/>
			</g>
		</g>
		<g>
			<g>
				<path style="fill:#756F6F;" d="M88.422,512h45.21c6.651,0,12.042-5.392,12.042-12.042v-44.602H76.38v44.602
					C76.38,506.608,81.771,512,88.422,512z"/>
				<g>
					<path style="fill:#D73337;" d="M153.722,414.277v56.268c0,3.327-2.689,6.016-6.016,6.016h-73.73
						c-3.327,0-6.027-2.689-6.027-6.016v-56.268H153.722z"/>
				</g>
				<rect x="67.95" y="414.277" style="fill:#C82E32;" width="85.773" height="24.539"/>
				<g>
					<path style="fill:#FFF5F5;" d="M114.318,414.277v26.043c0,5.69-4.612,10.302-10.302,10.302H67.95v-36.345H114.318z"/>
				</g>
				<rect x="67.95" y="414.277" style="fill:#EFE2DD;" width="46.368" height="24.539"/>
				<path style="fill:#E84649;" d="M179.199,325.517V403.1c0,12.898-10.456,23.354-23.354,23.354H56.442
					c-12.929,0-23.416-10.487-23.416-23.416v-52.333c0-6.882,4.255-12.774,10.292-15.175c1.865-0.752,3.904-1.164,6.047-1.164h9.406
					v-19.718c0-12.743,10.333-23.066,23.066-23.066h63.428C164.004,291.582,179.199,306.778,179.199,325.517z"/>
				<path style="fill:#D73337;" d="M179.195,325.51v77.584c0,12.902-10.457,23.358-23.358,23.358h-21.358
					c12.892,0,23.349-10.457,23.349-23.358V325.51c0-18.739-15.192-33.931-33.931-33.931h21.368
					C164.003,291.579,179.195,306.771,179.195,325.51z"/>
				<path style="fill:none;stroke:#000000;stroke-width:15;stroke-linecap:round;stroke-linejoin:round;stroke-miterlimit:10;" d="
					M61.382,426.454"/>
				<path style="fill:#D73337;" d="M58.771,334.366v48.13c0,4.275-3.461,7.726-7.726,7.726s-7.726-3.451-7.726-7.726V335.53
					c1.865-0.752,3.904-1.164,6.047-1.164H58.771z"/>
			</g>
			<g>
				<path style="fill:#756F6F;" d="M423.576,512h-45.21c-6.651,0-12.042-5.392-12.042-12.042v-44.602h69.295v44.602
					C435.618,506.608,430.227,512,423.576,512z"/>
				<g>
					<path style="fill:#D73337;" d="M444.048,414.277v56.268c0,3.327-2.699,6.016-6.027,6.016h-73.73
						c-3.327,0-6.016-2.689-6.016-6.016v-56.268H444.048z"/>
				</g>
				<rect x="358.275" y="414.277" style="fill:#C82E32;" width="85.773" height="24.539"/>
				<g>
					<path style="fill:#FFF5F5;" d="M444.048,414.277v36.345h-36.067c-5.69,0-10.302-4.612-10.302-10.302v-26.043H444.048z"/>
				</g>
				<rect x="397.68" y="414.277" style="fill:#EFE2DD;" width="46.368" height="24.539"/>
				<path style="fill:#E84649;" d="M462.633,334.365h-9.409v-19.719c0-12.738-10.327-23.065-23.065-23.065h-63.424
					c-18.741,0-33.934,15.193-33.934,33.934v77.585c0,12.899,10.457,23.355,23.355,23.355h99.397c12.934,0,23.42-10.485,23.42-23.42
					v-52.329C478.974,341.681,471.658,334.365,462.633,334.365z"/>
				<path style="fill:#D73337;" d="M478.971,350.704v52.333c0,12.929-10.487,23.416-23.416,23.416h-25.755
					c12.939,0,23.426-10.487,23.426-23.416v-68.672h9.406c2.122,0,4.152,0.402,6.006,1.143
					C474.696,337.899,478.971,343.802,478.971,350.704z"/>
				<path style="fill:#C82E32;" d="M468.638,335.509v46.987c0,4.275-3.461,7.726-7.726,7.726c-3.997,0-7.294-3.029-7.685-6.933
					v-48.923h9.406C464.755,334.366,466.784,334.768,468.638,335.509z"/>
				<path style="fill:none;stroke:#000000;stroke-width:15;stroke-linecap:round;stroke-linejoin:round;stroke-miterlimit:10;" d="
					M450.615,426.454"/>
			</g>
		</g>
	</g>
</g>
<g>
</g>
<g>
</g>
<g>
</g>
<g>
</g>
<g>
</g>
<g>
</g>
<g>
</g>
<g>
</g>
<g>
</g>
<g>
</g>
<g>
</g>
<g>
</g>
<g>
</g>
<g>
</g>
<g>
</g>
</svg>
