<?xml version="1.0" encoding="iso-8859-1"?>
<!-- Generator: Adobe Illustrator 23.0.3, SVG Export Plug-In . SVG Version: 6.00 Build 0)  -->
<svg version="1.1" id="Capa_1" xmlns="http://www.w3.org/2000/svg" xmlns:xlink="http://www.w3.org/1999/xlink" x="0px" y="0px"
	 viewBox="0 0 512 512" style="enable-background:new 0 0 512 512;" xml:space="preserve">
<g>
	<g>
		<g>
			<path style="fill:#FFF5F5;" d="M501.639,374.16H346.077c-5.722,0-10.361-4.639-10.361-10.361V114.453
				c0-5.722,4.639-10.361,10.361-10.361h155.561c5.722,0,10.361,4.639,10.361,10.361v249.346
				C512,369.521,507.361,374.16,501.639,374.16z"/>
			<path style="fill:#EFE2DD;" d="M511.999,114.457v249.342c0,5.719-4.642,10.361-10.361,10.361H479.34
				c5.719,0,10.361-4.642,10.361-10.361V114.457c0-5.73-4.642-10.361-10.361-10.361h22.297
				C507.357,104.096,511.999,108.727,511.999,114.457z"/>
		</g>
		<g>
			<path style="fill:#E84649;" d="M465.337,207.027c-7.91-7.907-20.732-7.906-28.641,0.003l-12.837,12.837l0,0l-12.838-12.838
				c-7.909-7.909-20.731-7.91-28.641-0.003l0,0c-7.912,7.909-7.913,20.735-0.003,28.646l41.481,41.481l41.481-41.481
				C473.25,227.763,473.249,214.937,465.337,207.027L465.337,207.027z"/>
		</g>
	</g>
	<g>
		<g>
			<path style="fill:#E84649;" d="M13.031,344.44l13.462-17.648l44.484-23.354l-2.861,48.716l-9.127,21.249
				C40.611,370.232,23.948,359.872,13.031,344.44z"/>
			<path style="fill:#E84649;" d="M128.928,262.449l-14.929,17.437L70.981,303.44l2.137-47.51l9.019-17.628l0.824-4.832
				C101.35,236.643,118.019,247.007,128.928,262.449z"/>
			<path style="fill:#E84649;" d="M70.977,303.438l-39.622-1.303L1.013,291.45c3.172-18.389,13.533-35.052,28.972-45.957
				l20.106,19.939L70.977,303.438z"/>
			<path style="fill:#E84649;" d="M140.941,315.426c-3.17,18.38-13.53,35.04-28.96,45.97l-8.06-7.59l-7.29-6.86l-25.65-43.51
				l47.8,4.68l5.81,1.92L140.941,315.426z"/>
			<path style="fill:#D73337;" d="M140.941,315.426c-3.17,18.38-13.53,35.04-28.96,45.97l-0.03-0.03h0.01l-6.48-9.15
				c9.33-9.82,15.93-22.44,18.4-36.79c0.16-0.95,0.31-1.9,0.43-2.85l16.61,2.85H140.941z"/>
			<path style="fill:#EFE2DD;" d="M82.961,233.496l-0.82,4.81l-11.16,65.13l-40.99-57.92c9.47-6.7,20.57-11.1,32.4-12.54h0.01
				C69.071,232.166,75.991,232.306,82.961,233.496z"/>
			<path style="fill:#EFE2DD;" d="M1.031,291.446l69.95,11.99l-57.93,40.99c-10.5-14.82-15.33-33.65-12.02-52.97V291.446z"/>
			<path style="fill:#EFE2DD;" d="M111.961,361.366c-13.92,9.86-31.37,14.72-49.45,12.53c-1.17-0.14-2.34-0.31-3.52-0.51
				l11.99-69.95l34.5,48.78L111.961,361.366z"/>
			<path style="fill:#EFE2DD;" d="M140.921,315.426l-16.61-2.85l-53.33-9.14l46.02-32.55l11.91-8.42
				C139.401,277.286,144.231,296.116,140.921,315.426z"/>
			<path style="fill:#CDBFBB;" d="M65.921,233.486c-1.18-0.2-2.35-0.37-3.52-0.51c6.67-0.81,13.59-0.67,20.56,0.52l-0.82,4.81
				C77.051,236.096,71.631,234.466,65.921,233.486z"/>
			<path style="fill:#CDBFBB;" d="M105.481,352.216l6.48,9.15c-13.92,9.86-31.37,14.72-49.45,12.53
				C79.091,371.886,94.251,364.066,105.481,352.216z"/>
			<path style="fill:#CDBFBB;" d="M140.921,315.426l-16.61-2.85c1.93-14.82-0.88-29.25-7.31-41.69l11.91-8.42
				C139.401,277.286,144.231,296.116,140.921,315.426z"/>
			<g>
				<g>
					<path style="fill:#D73337;" d="M128.928,262.449l-11.929,8.437c-7.407-14.319-19.594-26.002-34.861-32.584l0.824-4.832
						C101.35,236.643,118.019,247.007,128.928,262.449z"/>
				</g>
			</g>
			<circle style="fill:#F37D7E;" cx="70.977" cy="303.438" r="40.505"/>
			<path style="fill:#ED6264;" d="M110.897,310.273c-3.771,22.049-24.711,36.865-46.76,33.083c-1.616-0.28-3.191-0.642-4.725-1.109
				c14.278-4.269,25.654-16.298,28.338-31.975c3.502-20.432-8.962-39.901-28.359-45.651c5.782-1.741,12.06-2.197,18.422-1.109
				C99.862,267.295,114.679,288.225,110.897,310.273z"/>
		</g>
		<g>
			<g>
				<g>
					<path style="fill:#756F6F;" d="M427.371,304.174v162.758c0,5.202-4.213,9.426-9.416,9.426h-307.54
						c-5.202,0-9.416-4.224-9.416-9.426V304.174c0-32.018,19.295-59.555,46.884-71.577c9.179-4.007,19.275-6.294,29.896-6.459
						c0.422-0.021,0.855-0.021,1.277-0.021h170.258c0.433,0,0.855,0,1.277,0.021c3.832,0.051,7.603,0.381,11.27,0.989
						c6.521,1.051,12.754,2.905,18.626,5.47C408.075,244.619,427.371,272.156,427.371,304.174z"/>
					<path style="fill:#5B5555;" d="M350.591,226.138c-15.442,32.348-48.439,54.486-86.401,54.486
						c-37.972,0-70.969-22.139-86.412-54.486c0.422-0.021,0.855-0.021,1.277-0.021h170.258
						C349.747,226.117,350.169,226.117,350.591,226.138z"/>
					<g>
						<path style="fill:#5B5555;" d="M379.879,344.958v131.4h-15.453v-131.4c0-4.265,3.461-7.726,7.726-7.726
							C376.428,337.232,379.879,340.694,379.879,344.958z"/>
						<path style="fill:#5B5555;" d="M165.148,344.958v131.4h-15.453v-131.4c0-4.265,3.461-7.726,7.726-7.726
							C161.697,337.232,165.148,340.694,165.148,344.958z"/>
					</g>
					<path style="fill:#5B5555;" d="M427.38,304.172v162.761c0,5.201-4.224,9.425-9.425,9.425h-21.712
						c5.201,0,9.415-4.224,9.415-9.425V304.172c0-32.024-19.293-59.552-46.882-71.578c-5.877-2.56-12.106-4.425-18.628-5.463
						c-4.082-0.675-8.276-1.008-12.539-1.008h21.712c4.264,0,8.457,0.333,12.54,1.008c6.522,1.038,12.751,2.903,18.628,5.463
						C408.077,244.62,427.38,272.148,427.38,304.172z"/>
					<path style="fill:#5B5555;" d="M271.916,286.393v189.965h-15.453V286.393c0-4.265,3.461-7.726,7.726-7.726
						C268.455,278.666,271.916,282.128,271.916,286.393z"/>
					<g>
						<g>
							<path style="fill:#D77F4F;" d="M231.764,14.166h23.669c29.33,0,53.106,23.777,53.106,53.107v0
								c0,25.84-22.437,45.956-48.124,43.145l-24.403-2.67c-14.332-1.568-28.049,6.245-34.011,19.372l-11.766,25.906
								c-1.68,3.698-6.657,4.333-9.214,1.178c-5.104-6.298-12.773-17.138-19.484-32.222
								C138.986,71.281,176.275,14.166,231.764,14.166z"/>
						</g>
						<circle style="fill:#FFBC8A;" cx="168.358" cy="147.945" r="21.797"/>
						<path style="fill:#E84649;" d="M264.19,250.563v27.104l-3.801,2.885l-26.836,20.325c-6.222,4.698-15.195,0.804-15.988-6.954
							l-2.781-27.022l-1.679-16.339H264.19z"/>
						<path style="fill:#D73337;" d="M264.19,250.563v27.104l-3.801,2.885c-16.617-0.649-32.183-5.542-45.606-13.65l-1.679-16.339
							H264.19z"/>
						<path style="fill:#E84649;" d="M315.266,250.563l-1.679,16.339l-2.771,27.022c-0.804,7.757-9.776,11.651-15.988,6.954
							l-26.836-20.325l-3.801-2.885v-27.104H315.266z"/>
						<path style="fill:#D73337;" d="M315.266,250.563l-1.679,16.339c-13.423,8.108-28.979,13.001-45.596,13.65l-3.801-2.885
							v-27.104H315.266z"/>
						<path style="fill:#FDD1A7;" d="M264.186,268.257L264.186,268.257c-44.344,0-80.925-34.717-83.243-79l-2.588-49.448
							c-1.667-31.839,23.701-58.569,55.584-58.569h60.496c31.883,0,57.25,26.73,55.584,58.569l-2.588,49.448
							C345.111,233.541,308.529,268.257,264.186,268.257z"/>
						<g>
							<path style="fill:#AC5E33;" d="M225.328,183.816c-4.267,0-7.726-3.459-7.726-7.726c0-4.268,3.459-7.775,7.726-7.775
								s7.726,3.41,7.726,7.678v0.097C233.055,180.357,229.596,183.816,225.328,183.816z"/>
							<path style="fill:#AC5E33;" d="M303.042,183.816c-4.268,0-7.726-3.459-7.726-7.726c0-4.268,3.459-7.775,7.726-7.775
								s7.726,3.41,7.726,7.678v0.097C310.769,180.357,307.31,183.816,303.042,183.816z"/>
						</g>
						<path style="fill:#F5A871;" d="M264.185,231.899c-13.44,0-25.422-9.024-29.138-21.946c-1.179-4.101,1.189-8.381,5.29-9.56
							c4.103-1.181,8.381,1.189,9.561,5.291c1.822,6.337,7.697,10.763,14.287,10.763s12.465-4.427,14.288-10.764
							c1.181-4.101,5.464-6.468,9.561-5.29c4.101,1.18,6.469,5.461,5.29,9.561C289.608,222.874,277.625,231.899,264.185,231.899z"/>
						<path style="fill:#C86D3D;" d="M278.874,6.501h-8.381c-32.495,0-58.837,26.342-58.837,58.837v0
							c0,28.628,24.859,50.915,53.317,47.801l27.036-2.958c15.878-1.737,31.076,6.919,37.681,21.462l13.035,28.701
							c1.861,4.097,7.375,4.801,10.208,1.305c0.188-0.232,0.379-0.47,0.574-0.713C403.229,98.676,358.552,6.501,278.874,6.501z"/>
						<path style="fill:#AC5E33;" d="M353.506,160.935c-0.192,0.242-0.383,0.484-0.575,0.716c-2.832,3.498-8.346,2.792-10.211-1.31
							l-4.022-8.86c37.245-59.673-2.762-139.487-73.906-144.708c1.875-0.181,3.78-0.272,5.695-0.272h8.387
							C358.556,6.5,403.231,98.672,353.506,160.935z"/>
					</g>
					<path style="fill:#E84649;" d="M293.026,376.733c-4.268,0-7.726-3.459-7.726-7.726s3.459-7.774,7.726-7.774
						s7.726,3.41,7.726,7.678v0.096C300.753,373.274,297.294,376.733,293.026,376.733z"/>
					<path style="fill:#E84649;" d="M293.026,420.077c-4.268,0-7.726-3.459-7.726-7.726s3.459-7.775,7.726-7.775
						s7.726,3.41,7.726,7.678v0.097C300.753,416.618,297.294,420.077,293.026,420.077z"/>
				</g>
			</g>
		</g>
		<g>
			<path style="fill:#2EA8FC;" d="M94.442,434.518l-42.774,6l-28.21-6c0.021-18.66,7.419-36.834,20.795-50.189l21.258,15.258
				L94.442,434.518z"/>
			<path style="fill:#2EA8FC;" d="M94.438,434.52l6,47.185l-6,23.794c-3.049,0-6.088-0.206-9.096-0.598
				c-15.37-1.999-29.906-9.004-41.084-20.181l15.134-21.14L94.438,434.52z"/>
			<path style="fill:#FFF5F5;" d="M23.481,434.516h70.96l-50.16,50.19C31.431,471.875,23.481,454.125,23.481,434.516z"/>
			<path style="fill:#2EA8FC;" d="M144.638,384.33l-9.982,18.972L94.438,434.52l-9-50.174l9-20.815
				C113.105,363.551,131.277,370.948,144.638,384.33z"/>
			<path style="fill:#FFF5F5;" d="M94.281,363.556v70.96l-50.18-50.18c10.87-10.87,25.25-18.22,41.29-20.23
				C88.301,363.746,91.271,363.556,94.281,363.556z"/>
			<g>
				<g>
					<path style="fill:#2EA8FC;" d="M165.427,434.52c-0.021,18.646-7.417,36.819-20.789,50.201l-18.982-9.982L94.438,434.52
						l49.503-6L165.427,434.52z"/>
				</g>
			</g>
			<path style="fill:#0097FA;" d="M85.341,504.902c3.101-0.402,6.13-1,9.096-1.782v2.38C91.388,505.5,88.349,505.293,85.341,504.902
				z"/>
			<path style="fill:#0097FA;" d="M134.656,394.302c-9.457-13.743-23.653-23.993-40.218-28.382v-2.39
				c18.667,0.021,36.839,7.417,50.201,20.799L134.656,394.302z"/>
			<path style="fill:#0097FA;" d="M165.427,434.52c-0.021,18.646-7.417,36.819-20.789,50.201l-9.982-9.982
				c7.881-11.435,12.496-25.281,12.496-40.218H165.427z"/>
			<path style="fill:#FFF5F5;" d="M144.611,484.695c-12.84,12.85-30.58,20.79-50.17,20.79v-70.97l40.22,40.22L144.611,484.695z"/>
			<path style="fill:#FFF5F5;" d="M165.411,434.516h-70.97l40.22-40.21l9.96-9.96C157.461,397.196,165.411,414.936,165.411,434.516z
				"/>
			<path style="fill:#EFE2DD;" d="M85.391,364.106c2.91-0.36,5.88-0.55,8.89-0.55v2.32c-2.92-0.77-5.92-1.36-8.97-1.75
				C85.341,364.126,85.361,364.116,85.391,364.106z"/>
			<path style="fill:#EFE2DD;" d="M134.661,474.736l9.95,9.96c-12.84,12.85-30.58,20.79-50.17,20.79v-2.37
				C111.001,498.715,125.191,488.475,134.661,474.736z"/>
			<path style="fill:#EFE2DD;" d="M165.411,434.516h-18.26c0-14.93-4.61-28.78-12.49-40.21l9.96-9.96
				C157.461,397.196,165.411,414.936,165.411,434.516z"/>
			<circle style="fill:#8ECBFD;" cx="94.442" cy="434.518" r="40.505"/>
			<path style="fill:#65BAFC;" d="M134.948,434.523c0,22.37-18.132,40.502-40.502,40.502c-4.02,0-7.906-0.58-11.573-1.678
				c16.733-4.973,28.928-20.474,28.928-38.823c0-18.36-12.195-33.86-28.928-38.834c3.668-1.088,7.553-1.678,11.573-1.678
				C116.816,394.01,134.948,412.142,134.948,434.523z"/>
		</g>
		<g>
			<path style="fill:#52CC61;" d="M412.298,425.858l-46.017,6l-24.967-6c0.021-18.66,7.419-36.834,20.795-50.189l21.386,12.386
				L412.298,425.858z"/>
			<path style="fill:#52CC61;" d="M412.299,425.856l6,48.723l-6,22.267c-2.843,0-5.687-0.175-8.499-0.525
				c-15.586-1.895-30.37-8.932-41.691-20.264l10.517-16.519L412.299,425.856z"/>
			<path style="fill:#FFF5F5;" d="M341.331,425.856h70.97l-50.18,50.19C349.28,463.195,341.331,445.456,341.331,425.856z"/>
			<g>
				<g>
					<path style="fill:#52CC61;" d="M462.5,375.666l-9.251,18.251l-40.95,31.939l-6-52.611l6-18.369
						C430.956,354.898,449.128,362.294,462.5,375.666z"/>
				</g>
			</g>
			<path style="fill:#FFF5F5;" d="M412.3,354.896v70.96l-50.18-50.18C374.96,362.836,392.7,354.896,412.3,354.896z"/>
			<path style="fill:#52CC61;" d="M483.279,425.856c-0.021,18.656-7.417,36.829-20.779,50.201l-19.156-10.156l-31.045-40.045
				l48.367-6L483.279,425.856z"/>
			<path style="fill:#FFF5F5;" d="M462.48,476.036v0.01c-12.84,12.84-30.58,20.78-50.18,20.78v-70.97L462.48,476.036z"/>
			<path style="fill:#FFF5F5;" d="M483.26,425.856H412.3l40.95-40.94l9.23-9.23C475.32,388.536,483.26,406.276,483.26,425.856z"/>
			<path style="fill:#EFE2DD;" d="M483.258,425.856c0,39.198-31.771,70.969-70.959,70.969c-2.874,0-5.718-0.175-8.499-0.505
				c35.181-4.203,62.46-34.14,62.46-70.464c0-36.314-27.279-66.251-62.46-70.454c2.781-0.33,5.625-0.505,8.499-0.505
				C451.487,354.898,483.258,386.668,483.258,425.856z"/>
			<path style="fill:#00B232;" d="M403.8,496.321c2.895-0.35,5.728-0.865,8.499-1.545v2.071
				C409.456,496.846,406.613,496.671,403.8,496.321z"/>
			<path style="fill:#00B232;" d="M453.249,384.917c-9.694-13.722-24.147-23.838-40.95-27.959v-2.081
				c18.657,0.021,36.829,7.417,50.201,20.789L453.249,384.917z"/>
			<path style="fill:#00B232;" d="M483.279,425.856c-0.021,18.656-7.417,36.829-20.779,50.201l-9.251-9.251
				c8.2-11.559,13.011-25.693,13.011-40.95H483.279z"/>
			<circle style="fill:#BDEB73;" cx="412.298" cy="425.858" r="40.505"/>
			<path style="fill:#9AD63B;" d="M452.8,425.864c0,22.37-18.132,40.502-40.502,40.502c-4.02,0-7.906-0.591-11.573-1.678
				c16.733-4.984,28.928-20.474,28.928-38.823c0-18.36-12.195-33.85-28.928-38.834c3.668-1.088,7.553-1.679,11.573-1.679
				C434.668,385.351,452.8,403.483,452.8,425.864z"/>
		</g>
	</g>
</g>
<g>
</g>
<g>
</g>
<g>
</g>
<g>
</g>
<g>
</g>
<g>
</g>
<g>
</g>
<g>
</g>
<g>
</g>
<g>
</g>
<g>
</g>
<g>
</g>
<g>
</g>
<g>
</g>
<g>
</g>
</svg>
