<?xml version="1.0" encoding="iso-8859-1"?>
<!-- Generator: Adobe Illustrator 23.0.3, SVG Export Plug-In . SVG Version: 6.00 Build 0)  -->
<svg version="1.1" id="Capa_1" xmlns="http://www.w3.org/2000/svg" xmlns:xlink="http://www.w3.org/1999/xlink" x="0px" y="0px"
	 viewBox="0 0 512 512" style="enable-background:new 0 0 512 512;" xml:space="preserve">
<g>
	<g>
		<g>
			<g>
				<g>
					<g>
						<path style="fill:#F9B2B3;" d="M270.703,348.994v140.661c0,5.563-4.502,10.075-10.065,10.075H54.386
							c-5.563,0-10.075-4.512-10.075-10.075V348.994c0-34.563,21.438-64.108,51.756-76.079c9.292-3.657,19.409-5.676,30.009-5.676
							h62.872c10.601,0,20.727,2.019,30.02,5.687C249.265,284.897,270.703,314.442,270.703,348.994z"/>
						<path style="fill:#F69798;" d="M218.967,272.926c-14.773,17.678-36.963,28.783-61.45,28.783
							c-24.487,0-46.677-11.105-61.45-28.794c9.292-3.657,19.409-5.676,30.009-5.676h62.872
							C199.548,267.239,209.675,269.258,218.967,272.926z"/>
						<path style="fill:#FFBC8A;" d="M195.85,307.354c0,26.713-11.198,74.956-29.133,98.722c-0.453,0.598-0.948,1.133-1.473,1.597
							c-4.347,3.946-11.105,3.946-15.453,0c-0.525-0.464-1.02-0.999-1.473-1.597c-17.935-23.766-29.134-72.01-29.134-98.722
							c0-5.738,0.515-10.518,1.514-14.639c2.71-11.384,9.024-17.791,18.008-25.476h37.622c8.983,7.696,15.298,14.093,18.018,25.487
							C195.335,296.847,195.85,301.627,195.85,307.354z"/>
						<path style="fill:#F5A871;" d="M194.346,292.726c-11.064,5.748-23.612,8.983-36.829,8.983
							c-13.207,0-25.755-3.235-36.819-8.993c2.71-11.384,9.024-17.791,18.008-25.476h37.622
							C185.311,274.935,191.626,281.332,194.346,292.726z"/>
						<path style="fill:#F69798;" d="M270.711,348.994v140.663c0,5.557-4.51,10.067-10.067,10.067h-11.788v-150.73
							c0-45.16-36.603-81.762-81.762-81.762h21.855C234.108,267.232,270.711,303.835,270.711,348.994z"/>
						<path style="fill:#FDD1A7;" d="M270.713,353.839V489.66c0,5.557-4.51,10.067-10.067,10.067h-35.707V353.839H270.713z"/>
						<path style="fill:#FFBC8A;" d="M270.713,353.839V489.66c0,5.557-4.51,10.067-10.067,10.067h-11.788V353.839H270.713z"/>
						<path style="fill:#FDD1A7;" d="M44.319,353.842l0,135.816c0,5.557,4.51,10.067,10.067,10.067h35.707V353.842H44.319z"/>
						<g>
							<circle style="fill:#AC5E33;" cx="157.517" cy="47.041" r="47.04"/>
							<path style="fill:#904D29;" d="M204.556,47.042c0,25.982-21.06,47.042-47.042,47.042c-3.946,0-7.772-0.483-11.436-1.399
								c20.456-5.114,35.606-23.607,35.606-45.643S166.534,6.513,146.078,1.399C149.743,0.483,153.568,0,157.514,0
								C183.496,0,204.556,21.06,204.556,47.042z"/>
							<path style="fill:#F9B2B3;" d="M217.361,65.885v52.56H97.667v-52.56c0-11.08,6.875-20.995,17.248-24.891
								c13.262-4.98,27.618-7.704,42.599-7.704c14.982,0,29.337,2.724,42.599,7.704C210.486,44.889,217.361,54.805,217.361,65.885z"
								/>
							<path style="fill:#F69798;" d="M217.361,65.887v52.559H197.69V59.847c0-10.278-5.899-19.55-15.03-23.939
								c5.99,1.258,11.818,2.96,17.456,5.084C210.485,44.888,217.361,54.804,217.361,65.887z"/>
							<circle style="fill:#FFBC8A;" cx="238.166" cy="190.713" r="20.798"/>
							<circle style="fill:#FFBC8A;" cx="76.867" cy="190.713" r="20.798"/>
							<path style="fill:#FDD1A7;" d="M80.139,146.471l10.186,83.393c4.148,33.959,32.981,59.485,67.192,59.485l0,0
								c34.211,0,63.045-25.526,67.192-59.485l10.186-83.393H80.139z"/>
							<line style="fill:#F69583;" x1="204.557" y1="225.305" x2="204.557" y2="225.392"/>
							<path style="fill:#AC5E33;" d="M86.844,90.491c-21.756,21.756-26.323,54.182-13.715,80.427
								c26.239,12.615,58.671,8.041,80.427-13.715c21.763-21.763,26.336-54.195,13.721-80.434
								C141.033,64.162,108.607,68.729,86.844,90.491z"/>
							<path style="fill:#C86D3D;" d="M228.189,90.491c21.756,21.756,26.324,54.182,13.715,80.427
								c-26.239,12.615-58.671,8.041-80.427-13.715c-17.429-17.429-23.833-41.701-19.213-64.154
								c2.245-10.908,10.861-19.524,21.77-21.768C186.49,66.662,210.759,73.062,228.189,90.491z"/>
							<path style="fill:#AC5E33;" d="M241.9,170.922c-6.06,2.909-12.443,4.913-18.956,5.99
								c14.265-24.412,12.966-56.062-5.678-79.518c-12.996-16.338-31.761-25.378-51.089-26.516
								c21.845-3.805,45.139,2.738,62.011,19.61C249.943,112.252,254.514,144.678,241.9,170.922z"/>
							<g>
								<path style="fill:#F69583;" d="M113.496,238.773c-4.087,0-7.401-3.314-7.401-7.401c0-4.087,3.314-7.444,7.401-7.444
									s7.401,3.27,7.401,7.357v0.087C120.897,235.46,117.584,238.773,113.496,238.773z"/>
							</g>
							<g>
								<path style="fill:#F69583;" d="M201.537,238.773c-4.087,0-7.401-3.314-7.401-7.401c0-4.087,3.314-7.444,7.401-7.444
									c4.087,0,7.401,3.27,7.401,7.357v0.087C208.938,235.46,205.624,238.773,201.537,238.773z"/>
							</g>
							<g>
								<path style="fill:#904D29;" d="M122.318,215.415c-4.268,0-7.726-3.459-7.726-7.726s3.459-7.77,7.726-7.77
									c4.268,0,7.726,3.414,7.726,7.682v0.088C130.045,211.957,126.586,215.415,122.318,215.415z"/>
								<path style="fill:#904D29;" d="M192.716,215.415c-4.268,0-7.726-3.459-7.726-7.726s3.459-7.77,7.726-7.77
									s7.726,3.414,7.726,7.682v0.088C200.442,211.957,196.983,215.415,192.716,215.415z"/>
							</g>
							<path style="fill:#F69583;" d="M157.516,258.972c-12.497,0-23.639-8.391-27.095-20.406c-1.179-4.101,1.189-8.381,5.29-9.561
								c4.099-1.179,8.381,1.189,9.561,5.29c1.562,5.432,6.597,9.225,12.243,9.225s10.681-3.794,12.243-9.225
								c1.18-4.101,5.46-6.468,9.561-5.29c4.101,1.18,6.469,5.461,5.29,9.561C181.155,250.58,170.013,258.972,157.516,258.972z"/>
						</g>
					</g>
					<path style="fill:#F69798;" d="M105.545,499.724V332.788c0-4.346-3.587-7.854-7.963-7.723c-4.229,0.126-7.49,3.815-7.49,8.046
						v166.613H105.545z"/>
					<path style="fill:#F69798;" d="M224.939,499.724V332.788c0-4.346-3.587-7.854-7.963-7.723c-4.229,0.126-7.49,3.815-7.49,8.046
						v166.613H224.939z"/>
				</g>
				<path style="fill:#F5A871;" d="M165.243,377.438v30.236c-4.347,3.946-11.105,3.946-15.453,0v-30.236
					c0-4.265,3.461-7.726,7.726-7.726S165.243,373.173,165.243,377.438z"/>
			</g>
			<g>
				<g>
					<g>
						<g>
							<g>
								<g>
									<path style="fill:#F9B2B3;" d="M371.939,446.357l-4.059,29.597c-1.432,10.456-6.14,19.748-12.991,26.908
										c-2.256,2.339-4.728,4.45-7.386,6.294c-2.658,1.844-5.81,2.843-9.045,2.843h-46.173c-3.235,0-6.387-0.999-9.045-2.843
										c-10.807-7.5-18.471-19.326-20.377-33.203l-4.059-29.597c-2.019-14.721-0.968-29.566,2.946-43.639
										c4.347-15.638,6.263-31.853,6.263-48.078v-61.811c0-13.073,5.295-24.92,13.866-33.491
										c8.571-8.571,20.418-13.876,33.491-13.876c17.091,0,32.07,9.055,40.393,22.633c4.419,7.201,6.964,15.669,6.964,24.735
										v61.811c0,16.225,1.916,32.44,6.263,48.078C372.907,416.791,373.958,431.636,371.939,446.357z"/>
									<path style="fill:#F69798;" d="M371.941,446.352l-4.062,29.601c-1.9,13.876-9.572,25.7-20.381,33.201
										c-2.654,1.85-5.802,2.846-9.039,2.846h-19.245c3.228,0,6.375-0.995,9.029-2.846c10.819-7.501,18.481-19.325,20.381-33.201
										l4.062-29.601c2.021-14.72,0.965-29.561-2.946-43.628c-4.344-15.645-6.264-31.854-6.264-48.092v-61.807
										c0-22.855-16.198-41.929-37.736-46.373c3.107-0.643,6.335-0.985,9.633-0.985c26.153,0,47.358,21.206,47.358,47.359v61.807
										c0,16.239,1.921,32.447,6.264,48.092C372.906,416.791,373.962,431.632,371.941,446.352z"/>
									<path style="fill:#E84649;" d="M315.372,394.858L315.372,394.858c-11.605,0-21.012-9.408-21.012-21.012V296.22
										c0-11.605,9.408-21.012,21.012-21.012h0c11.605,0,21.012,9.408,21.012,21.012v77.626
										C336.384,385.451,326.976,394.858,315.372,394.858z"/>
								</g>
							</g>
						</g>
					</g>
				</g>
				<g>
					<g>
						<g>
							<g>
								<g>
									<path style="fill:#F69798;" d="M371.939,446.357l-4.059,29.597c-1.432,10.456-6.14,19.748-12.991,26.908
										c-4.976-7.52-8.283-16.133-9.529-25.229l-4.059-29.597c-2.246-16.359-1.144-32.719,3.286-48.625
										c3.853-13.887,5.81-28.948,5.81-44.772v-61.811c0-8.818,1.916-17.194,5.367-24.735c4.419,7.201,6.964,15.669,6.964,24.735
										v61.811c0,16.225,1.916,32.44,6.263,48.078C372.907,416.791,373.958,431.636,371.939,446.357z"/>
									<path style="fill:#F9B2B3;" d="M457.475,354.635v-61.811c0-26.155-21.203-47.358-47.358-47.358h0
										c-26.155,0-47.358,21.203-47.358,47.358v61.811c0,16.232-1.919,32.447-6.265,48.087
										c-3.909,14.07-4.965,28.909-2.945,43.633l4.06,29.6c1.904,13.875,9.569,25.702,20.38,33.203
										c2.656,1.843,5.806,2.841,9.038,2.841h46.18c3.232,0,6.383-0.999,9.038-2.842c10.811-7.501,18.476-19.328,20.38-33.203
										l4.06-29.6c2.02-14.724,0.964-29.563-2.945-43.633C459.394,387.082,457.475,370.868,457.475,354.635z"/>
									<path style="fill:#F69798;" d="M466.686,446.352l-4.062,29.601c-1.9,13.876-9.572,25.7-20.381,33.201
										c-2.655,1.85-5.802,2.846-9.039,2.846h-19.245c3.228,0,6.375-0.995,9.029-2.846c10.819-7.501,18.481-19.325,20.381-33.201
										l4.062-29.601c2.021-14.72,0.965-29.561-2.946-43.628c-4.344-15.645-6.264-31.854-6.264-48.092v-61.807
										c0-22.855-16.199-41.929-37.736-46.373c3.107-0.643,6.335-0.985,9.633-0.985c26.153,0,47.358,21.206,47.358,47.359v61.807
										c0,16.239,1.921,32.447,6.264,48.092C467.651,416.791,468.707,431.632,466.686,446.352z"/>
									<path style="fill:#E84649;" d="M410.116,394.858L410.116,394.858c-11.605,0-21.012-9.408-21.012-21.012V296.22
										c0-11.605,9.408-21.012,21.012-21.012h0c11.605,0,21.012,9.408,21.012,21.012v77.626
										C431.129,385.451,421.721,394.858,410.116,394.858z"/>
								</g>
							</g>
						</g>
					</g>
				</g>
			</g>
		</g>
		<path style="fill:#FEF0DC;" d="M410.116,267.482c-15.846,0-28.738,12.892-28.738,28.738v7.416c0,0.004,0,0.007,0,0.011v70.198
			c0,15.846,12.892,28.738,28.738,28.738c15.847,0,28.739-12.892,28.739-28.738V296.22
			C438.855,280.374,425.963,267.482,410.116,267.482z M410.116,282.935c7.326,0,13.287,5.96,13.287,13.286v21.832L396.83,299.68
			v-3.46C396.83,288.894,402.79,282.935,410.116,282.935z M396.83,318.467l19.173,13.256l-19.173,9.604V318.467z M410.116,387.132
			c-7.326,0-13.286-5.96-13.286-13.286v-15.235l26.572-13.311v28.546C423.403,381.172,417.442,387.132,410.116,387.132z"/>
		<path style="fill:#FEF0DC;" d="M344.11,303.637v-7.416c0-15.846-12.892-28.738-28.738-28.738
			c-15.846,0-28.738,12.892-28.738,28.738v77.626c0,15.846,12.892,28.738,28.738,28.738c15.846,0,28.738-12.892,28.738-28.738
			v-70.198C344.11,303.644,344.11,303.64,344.11,303.637z M328.657,341.327l-19.172-9.604l19.172-13.256V341.327z M315.372,282.935
			c7.326,0,13.286,5.96,13.286,13.286v3.46l-26.571,18.372V296.22C302.086,288.894,308.046,282.935,315.372,282.935z
			 M315.372,387.132c-7.326,0-13.286-5.96-13.286-13.286V345.3l26.571,13.31v15.235
			C328.657,381.172,322.698,387.132,315.372,387.132z"/>
	</g>
	<g>
		<path style="fill:#F9B2B3;" d="M302.649,146.264c-4.268,0-7.726-3.459-7.726-7.726c0-4.268,3.459-7.772,7.726-7.772
			s7.726,3.413,7.726,7.681v0.091C310.376,142.805,306.917,146.264,302.649,146.264z"/>
		<path style="fill:#F9B2B3;" d="M302.649,174.504c-4.268,0-7.726-3.459-7.726-7.726s3.459-7.772,7.726-7.772
			s7.726,3.413,7.726,7.681v0.091C310.376,171.045,306.917,174.504,302.649,174.504z"/>
		<path style="fill:#F9B2B3;" d="M316.815,160.339h-0.092c-4.268,0-7.726-3.459-7.726-7.726c0-4.268,3.459-7.726,7.726-7.726
			s7.772,3.459,7.772,7.726C324.495,156.88,321.083,160.339,316.815,160.339z"/>
		<path style="fill:#F9B2B3;" d="M288.575,160.339h-0.092c-4.268,0-7.726-3.459-7.726-7.726c0-4.268,3.459-7.726,7.726-7.726
			s7.773,3.459,7.773,7.726C296.256,156.88,292.842,160.339,288.575,160.339z"/>
	</g>
	<g>
		<path style="fill:#F9B2B3;" d="M333.98,83.123c-4.268,0-7.726-3.459-7.726-7.726s3.459-7.772,7.726-7.772s7.726,3.413,7.726,7.681
			v0.091C341.707,79.664,338.248,83.123,333.98,83.123z"/>
		<path style="fill:#F9B2B3;" d="M333.98,111.363c-4.268,0-7.726-3.459-7.726-7.726c0-4.268,3.459-7.772,7.726-7.772
			s7.726,3.413,7.726,7.681v0.091C341.707,107.904,338.248,111.363,333.98,111.363z"/>
		<path style="fill:#F9B2B3;" d="M348.146,97.198h-0.092c-4.268,0-7.726-3.459-7.726-7.726c0-4.268,3.459-7.726,7.726-7.726
			c4.268,0,7.773,3.459,7.773,7.726C355.827,93.739,352.414,97.198,348.146,97.198z"/>
		<path style="fill:#F9B2B3;" d="M319.906,97.198h-0.092c-4.268,0-7.726-3.459-7.726-7.726c0-4.268,3.459-7.726,7.726-7.726
			s7.772,3.459,7.772,7.726C327.586,93.739,324.173,97.198,319.906,97.198z"/>
	</g>
	<g>
		<path style="fill:#F9B2B3;" d="M431.129,192.113c-4.268,0-7.726-3.459-7.726-7.726s3.459-7.772,7.726-7.772
			s7.726,3.413,7.726,7.681v0.091C438.855,188.654,435.397,192.113,431.129,192.113z"/>
		<path style="fill:#F9B2B3;" d="M431.129,220.353c-4.268,0-7.726-3.459-7.726-7.726c0-4.268,3.459-7.772,7.726-7.772
			s7.726,3.413,7.726,7.681v0.091C438.855,216.894,435.397,220.353,431.129,220.353z"/>
		<path style="fill:#F9B2B3;" d="M445.294,206.188h-0.091c-4.268,0-7.726-3.459-7.726-7.726c0-4.268,3.459-7.726,7.726-7.726
			c4.268,0,7.772,3.459,7.772,7.726C452.975,202.729,449.562,206.188,445.294,206.188z"/>
		<path style="fill:#F9B2B3;" d="M417.054,206.188h-0.091c-4.268,0-7.726-3.459-7.726-7.726c0-4.268,3.459-7.726,7.726-7.726
			s7.772,3.459,7.772,7.726C424.735,202.729,421.321,206.188,417.054,206.188z"/>
	</g>
</g>
<g>
</g>
<g>
</g>
<g>
</g>
<g>
</g>
<g>
</g>
<g>
</g>
<g>
</g>
<g>
</g>
<g>
</g>
<g>
</g>
<g>
</g>
<g>
</g>
<g>
</g>
<g>
</g>
<g>
</g>
</svg>
