<?xml version="1.0" encoding="iso-8859-1"?>
<!-- Generator: Adobe Illustrator 23.0.3, SVG Export Plug-In . SVG Version: 6.00 Build 0)  -->
<svg version="1.1" id="Capa_1" xmlns="http://www.w3.org/2000/svg" xmlns:xlink="http://www.w3.org/1999/xlink" x="0px" y="0px"
	 viewBox="0 0 497 497" style="enable-background:new 0 0 497 497;" xml:space="preserve">
<g>
	<g>
		<g>
			<path style="fill:#E19A77;" d="M497,100.171v190.141c0,5.688-4.611,10.299-10.299,10.299H229.876
				c-5.688,0-10.299-4.611-10.299-10.299V100.171c0-5.688,4.611-10.299,10.299-10.299h256.825
				C492.389,89.872,497,94.483,497,100.171z"/>
			<g>
				<path style="fill:#DB885D;" d="M229.496,284.178c-12.087,0-21.921-9.834-21.921-21.921V128.222
					c0-12.087,9.834-21.921,21.921-21.921h228.606c12.087,0,21.921,9.834,21.921,21.921v134.035c0,4.98-1.712,9.851-4.821,13.714
					c-4.152,5.202-10.396,8.207-17.1,8.207H229.496z"/>
				<path style="fill:#FFF5F5;" d="M468.024,128.221v134.035c0,2.34-0.81,4.501-2.17,6.191c-1.82,2.28-4.611,3.73-7.751,3.73
					H229.496c-5.481,0-9.921-4.44-9.921-9.921V128.221c0-5.481,4.44-9.921,9.921-9.921h228.606
					C463.583,118.3,468.024,122.741,468.024,128.221z"/>
				<path style="fill:#E84649;" d="M468.024,128.221v134.035c0,2.34-0.81,4.501-2.17,6.191L315.706,118.3h142.397
					C463.583,118.3,468.024,122.741,468.024,128.221z"/>
				<path style="fill:#A4E540;" d="M468.024,128.221v81.529l-91.451-91.45h81.529C463.583,118.3,468.024,122.741,468.024,128.221z"
					/>
				<path style="fill:#65BAFC;" d="M468.024,154.495v107.762c0,5.481-4.44,9.921-9.921,9.921H350.34L468.024,154.495z"/>
			</g>
		</g>
		<g>
			<g>
				<g>
					<g>
						<path style="fill:#FCD79F;" d="M320.27,96.712v126.19c0,22.81-18.49,41.3-41.3,41.3H112.88V96.712c0-2.86,0.2-5.67,0.58-8.42
							c4.1-29.82,29.69-52.78,60.63-52.78h84.97C292.87,35.512,320.27,62.912,320.27,96.712z"/>
						<path style="fill:#FAC574;" d="M225.97,53.932v68.89h-52.38c-25.61,0-48.03-13.89-60.13-34.53
							c4.1-29.82,29.69-52.78,60.63-52.78H221C224.16,40.922,225.97,47.222,225.97,53.932z"/>
						<path style="fill:#006AC3;" d="M320.27,300.402v139.37c0,5.51-4.47,9.98-9.98,9.98H105.92c-5.5,0-9.97-4.47-9.97-9.98v-139.37
							c0-34.42,21.46-63.82,51.74-75.55c9.07-3.53,18.95-5.46,29.27-5.46h62.29c10.33,0,20.22,1.94,29.31,5.47
							C298.82,236.592,320.27,265.992,320.27,300.402z"/>
						<path style="fill:#0057A1;" d="M268.56,224.862c-2.46,2.92-5.15,5.67-8.04,8.23c-14.47,12.81-33.08,19.86-52.41,19.86
							c-24.03,0-45.83-10.83-60.42-28.1c9.07-3.53,18.95-5.46,29.27-5.46h62.29C249.58,219.392,259.47,221.332,268.56,224.862z"/>
						<path style="fill:#FFBC8A;" d="M95.953,366.272v73.502c0,5.506,4.469,9.975,9.975,9.975h35.38v-83.477H95.953z"/>
						<path style="fill:#0057A1;" d="M320.267,300.4v139.374c0,5.506-4.469,9.975-9.975,9.975h-11.68V300.4
							c0-44.746-36.267-81.013-81.013-81.013h21.655C284,219.387,320.267,255.654,320.267,300.4z"/>
						<path style="fill:#FFBC8A;" d="M320.267,366.272v73.502c0,5.506-4.469,9.975-9.975,9.975h-35.38v-83.477H320.267z"/>
						<path style="fill:#F5A871;" d="M320.267,366.272v73.502c0,5.506-4.469,9.975-9.975,9.975h-11.68v-83.477H320.267z"/>
						<path style="fill:#0057A1;" d="M274.91,338.032v111.72h-15v-111.72c0-4.14,3.36-7.5,7.5-7.5
							C271.56,330.532,274.91,333.892,274.91,338.032z"/>
						<path style="fill:#0057A1;" d="M156.31,338.032v111.72h-15v-111.72c0-4.14,3.35-7.5,7.5-7.5
							C152.95,330.532,156.31,333.892,156.31,338.032z"/>
						<g>
							<path style="fill:#FCD79F;" d="M266.862,183.766v88.793c0,7.106,7.25,11.909,13.793,9.139l13.412-5.678
								c15.882-6.723,26.2-22.296,26.2-39.543v-52.712"/>
						</g>
						<g>
							<g>
								<circle style="fill:#F5A871;" cx="128.199" cy="149.21" r="20.607"/>
							</g>
						</g>
						<path style="fill:#FFBC8A;" d="M266.864,103.027V206.26c-3.732,6.758-8.585,12.782-14.301,17.844
							c-11.889,10.53-27.5,16.852-44.451,16.852c-33.902,0-62.474-25.287-66.582-58.941l-6.242-51.1
							c-2.044-16.752,11.036-31.53,27.917-31.53h89.815C258.081,99.385,262.795,100.715,266.864,103.027z"/>
						<g>
							<g>
								<g>
									<path style="fill:#904D29;" d="M173.233,167.545c-4.143,0-7.5-3.358-7.5-7.5s3.357-7.543,7.5-7.543s7.5,3.315,7.5,7.457
										v0.086C180.733,164.188,177.376,167.545,173.233,167.545z"/>
									<path style="fill:#904D29;" d="M242.986,167.545c-4.143,0-7.5-3.358-7.5-7.5s3.357-7.543,7.5-7.543s7.5,3.315,7.5,7.457
										v0.086C250.486,164.188,247.129,167.545,242.986,167.545z"/>
								</g>
							</g>
							<path style="fill:#F69583;" d="M208.11,210.703c-12.313,0-23.292-8.268-26.697-20.106c-1.145-3.98,1.154-8.136,5.135-9.281
								c3.98-1.144,8.136,1.153,9.281,5.134c1.566,5.448,6.617,9.253,12.281,9.253c5.663,0,10.714-3.805,12.28-9.253
								c1.146-3.981,5.304-6.28,9.281-5.134c3.98,1.145,6.279,5.3,5.135,9.281C231.401,202.435,220.423,210.703,208.11,210.703z"/>
						</g>
						<g>
							<path style="fill:#FCD79F;" d="M213.971,110.824h-40.379c-31.848,0-57.665-25.818-57.665-57.665v0
								c0-13.199,10.7-23.899,23.899-23.899h49.475c13.625,0,24.67,11.045,24.67,24.67V110.824z"/>
							<path style="fill:#FAC574;" d="M202.246,110.824h40.379c31.848,0,57.665-25.818,57.665-57.665v0
								c0-13.199-10.7-23.899-23.899-23.899h-49.475c-13.625,0-24.67,11.045-24.67,24.67V110.824z"/>
							<path style="fill:#E8B76B;" d="M300.29,53.155c0,31.85-25.82,57.67-57.67,57.67h-18.86c31.85,0,57.67-25.82,57.67-57.67
								c0-6.6-2.67-12.57-7-16.9c-4.33-4.33-10.3-7-16.9-7h18.86c6.6,0,12.57,2.67,16.9,7
								C297.62,40.585,300.29,46.555,300.29,53.155z"/>
						</g>
					</g>
					<path style="fill:#FAC574;" d="M295.437,187.357c-4.143,0-7.5-3.358-7.5-7.5v-66.031c0-4.142,3.357-7.5,7.5-7.5
						s7.5,3.358,7.5,7.5v66.031C302.937,183.999,299.579,187.357,295.437,187.357z"/>
					<g>
						<g>
							<circle style="fill:#E84649;" cx="208.109" cy="316.901" r="24.298"/>
						</g>
						<g>
							<path style="fill:#EFE2DD;" d="M169.292,397.922c-4.143,0-7.5-3.358-7.5-7.5v-14.987c0-4.142,3.357-7.5,7.5-7.5
								s7.5,3.358,7.5,7.5v14.987C176.792,394.564,173.435,397.922,169.292,397.922z"/>
							<path style="fill:#EFE2DD;" d="M195.171,397.922c-4.143,0-7.5-3.358-7.5-7.5v-14.987c0-4.142,3.357-7.5,7.5-7.5
								s7.5,3.358,7.5,7.5v14.987C202.671,394.564,199.313,397.922,195.171,397.922z"/>
							<path style="fill:#EFE2DD;" d="M221.049,397.922c-4.143,0-7.5-3.358-7.5-7.5v-14.987c0-4.142,3.357-7.5,7.5-7.5
								s7.5,3.358,7.5,7.5v14.987C228.549,394.564,225.191,397.922,221.049,397.922z"/>
							<path style="fill:#EFE2DD;" d="M246.928,397.922c-4.143,0-7.5-3.358-7.5-7.5v-14.987c0-4.142,3.357-7.5,7.5-7.5
								s7.5,3.358,7.5,7.5v14.987C254.428,394.564,251.07,397.922,246.928,397.922z"/>
						</g>
					</g>
				</g>
			</g>
			<g>
				<path style="fill:#FFCBA1;" d="M46.63,69.566c-1.47-4.014-6.47-5.346-9.677-2.518C24.346,78.166,0,102.904,0,128.145
					c0,34.059,24.475,40.782,38.204,40.782c15.387,0,38.204-11.439,38.204-40.782C76.408,98.469,54.915,92.19,46.63,69.566z"/>
				<path style="fill:#F5A871;" d="M38.204,176.427c-2.89,0-10.185-0.997-15.51-10.232c-4.107-7.122-6.189-17.87-6.189-31.948
					c0-4.142,3.357-7.5,7.5-7.5s7.5,3.358,7.5,7.5c0,20.189,4.753,26.242,6.45,27.082c1.816-1.284,6.948-8.355,6.948-27.082
					c0-4.142,3.357-7.5,7.5-7.5s7.5,3.358,7.5,7.5C59.903,167.543,46.264,176.427,38.204,176.427z M37.646,161.506L37.646,161.506
					L37.646,161.506z M38.252,161.43h0.01H38.252z"/>
				<path style="fill:#DB885D;" d="M65.669,170.828l-1.528,52.678l-6.825,234.602c-0.156,5.366-4.551,9.636-9.92,9.636h-17.44
					c-5.369,0-9.764-4.269-9.92-9.636l-6.825-234.602l-1.528-52.678c-0.159-5.587,4.327-10.212,9.924-10.212h34.14
					C61.342,160.616,65.828,165.241,65.669,170.828z"/>
				<path style="fill:#C86D3D;" d="M65.669,170.828l-1.528,52.678l-6.828,234.602c-0.149,5.369-4.545,9.637-9.914,9.637H29.951
					c-0.327,0-0.645-0.02-0.963-0.05c4.913-0.486,8.783-4.555,8.932-9.587l6.818-234.602l1.528-52.678
					c0.159-5.587-4.327-10.212-9.924-10.212h19.402C61.342,160.616,65.828,165.241,65.669,170.828z"/>
				<path style="fill:#EFE2DD;" d="M65.669,170.828l-1.528,52.678H13.209l-1.528-52.678c-0.159-5.587,4.327-10.212,9.924-10.212
					h34.14C61.342,160.616,65.828,165.241,65.669,170.828z"/>
				<path style="fill:#CDBFBB;" d="M65.669,170.828l-1.528,52.678H44.738l1.528-52.678c0.159-5.587-4.327-10.212-9.924-10.212
					h19.402C61.342,160.616,65.828,165.241,65.669,170.828z"/>
			</g>
		</g>
	</g>
	<g>
		<g>
			<path style="fill:#A4E540;" d="M310.709,464.749h29.158c4.742,0,8.399-4.175,7.776-8.875l-3.263-24.603l-4.369-32.991
				l-2.957-22.316h-23.531l-2.957,22.316l-4.369,32.991l-3.263,24.602C302.31,460.574,305.968,464.749,310.709,464.749z"/>
			<path style="fill:#9AD63B;" d="M339.87,464.752h-9c4.74,0,8.4-4.18,7.77-8.88l-3.26-24.6l-4.37-32.99l-2.96-22.32h9l2.96,22.32
				l4.37,32.99l3.26,24.6C348.27,460.572,344.61,464.752,339.87,464.752z"/>
			<polygon style="fill:#EFE2DD;" points="344.38,431.272 306.2,431.272 310.57,398.282 340.01,398.282 			"/>
			<path style="fill:#EFE2DD;" d="M315.31,378.964h19.955c1.779,0,3.221-1.442,3.221-3.221v-15.332c0-4.332-3.512-7.844-7.844-7.844
				h-10.709c-4.332,0-7.844,3.512-7.844,7.844v15.332C312.089,377.522,313.531,378.964,315.31,378.964z"/>
			<path style="fill:#E0D3CE;" d="M338.49,360.412v15.33c0,1.78-1.45,3.22-3.22,3.22h-9.23c1.78,0,3.22-1.44,3.22-3.22v-15.33
				c0-4.33-3.51-7.84-7.84-7.84h9.22C334.97,352.572,338.49,356.082,338.49,360.412z"/>
		</g>
		<g>
			<path style="fill:#E84649;" d="M404.561,355.164h-29.158c-4.742,0-8.399,4.174-7.776,8.875l3.263,24.603l4.369,32.991
				l2.957,22.316h23.531l2.957-22.316l4.369-32.991l3.263-24.603C412.96,359.339,409.303,355.164,404.561,355.164z"/>
			<path style="fill:#D73337;" d="M412.34,364.039l-3.27,24.6l-4.36,32.99l-2.96,22.32h-9l2.96-22.32l4.36-32.99l3.27-24.6
				c0.62-4.7-3.04-8.87-7.78-8.87h9C409.3,355.169,412.96,359.339,412.34,364.039z"/>
			<polygon style="fill:#EFE2DD;" points="409.07,388.639 404.71,421.629 375.26,421.629 370.89,388.639 			"/>
			<polygon style="fill:#E0D3CE;" points="409.07,388.639 404.71,421.629 395.71,421.629 400.07,388.639 			"/>
			<path style="fill:#EFE2DD;" d="M399.961,440.949h-19.955c-1.779,0-3.221,1.442-3.221,3.221v15.332
				c0,4.332,3.512,7.844,7.844,7.844h10.709c4.332,0,7.844-3.512,7.844-7.844v-15.332
				C403.182,442.39,401.74,440.949,399.961,440.949z"/>
			<path style="fill:#E0D3CE;" d="M403.18,444.169v15.33c0,4.33-3.51,7.85-7.84,7.85h-9.23c4.33,0,7.85-3.52,7.85-7.85v-15.33
				c0-1.78-1.45-3.22-3.23-3.22h9.23C401.74,440.949,403.18,442.389,403.18,444.169z"/>
		</g>
		<g>
			<path style="fill:#65BAFC;" d="M440.101,464.749h29.158c4.742,0,8.399-4.175,7.776-8.875l-3.263-24.603l-4.369-32.991
				l-2.957-22.316h-23.531l-2.957,22.316l-4.369,32.991l-3.263,24.602C431.702,460.574,435.359,464.749,440.101,464.749z"/>
			<path style="fill:#2EA8FC;" d="M469.26,464.752h-9c4.74,0,8.4-4.18,7.77-8.88l-3.26-24.6l-4.37-32.99l-2.95-22.32h9l2.95,22.32
				l4.37,32.99l3.26,24.6C477.66,460.572,474,464.752,469.26,464.752z"/>
			<polygon style="fill:#EFE2DD;" points="473.77,431.272 435.59,431.272 439.96,398.282 469.4,398.282 			"/>
			<polygon style="fill:#E0D3CE;" points="344.38,431.272 335.38,431.272 331.01,398.282 340.01,398.282 			"/>
			<polygon style="fill:#E0D3CE;" points="473.77,431.272 464.77,431.272 460.4,398.282 469.4,398.282 			"/>
			<path style="fill:#EFE2DD;" d="M444.701,378.964h19.955c1.779,0,3.221-1.442,3.221-3.221v-15.332
				c0-4.332-3.512-7.844-7.844-7.844h-10.709c-4.332,0-7.844,3.512-7.844,7.844v15.332
				C441.481,377.522,442.922,378.964,444.701,378.964z"/>
			<path style="fill:#E0D3CE;" d="M467.88,360.412v15.33c0,1.78-1.44,3.22-3.22,3.22h-9.23c1.78,0,3.22-1.44,3.22-3.22v-15.33
				c0-4.33-3.51-7.84-7.84-7.84h9.22C464.37,352.572,467.88,356.082,467.88,360.412z"/>
		</g>
	</g>
</g>
<g>
</g>
<g>
</g>
<g>
</g>
<g>
</g>
<g>
</g>
<g>
</g>
<g>
</g>
<g>
</g>
<g>
</g>
<g>
</g>
<g>
</g>
<g>
</g>
<g>
</g>
<g>
</g>
<g>
</g>
</svg>
