<?xml version="1.0" encoding="iso-8859-1"?>
<!-- Generator: Adobe Illustrator 23.0.3, SVG Export Plug-In . SVG Version: 6.00 Build 0)  -->
<svg version="1.1" id="Capa_1" xmlns="http://www.w3.org/2000/svg" xmlns:xlink="http://www.w3.org/1999/xlink" x="0px" y="0px"
	 viewBox="0 0 512 512" style="enable-background:new 0 0 512 512;" xml:space="preserve">
<g>
	<g>
		<path style="fill:#FFF5F5;" d="M371.679,344.812v141.526c0,4.523-3.678,8.19-8.2,8.19H96.054c-4.523,0-8.19-3.668-8.19-8.19
			V344.812c0-27.846,16.782-51.787,40.775-62.254c7.778-3.389,16.328-5.367,25.311-5.604c0.598-0.01,1.195-0.021,1.793-0.021H303.8
			c0.598,0,1.195,0.01,1.793,0.021c3.091,0.082,6.14,0.371,9.107,0.855c5.676,0.907,11.095,2.524,16.205,4.749
			C354.897,293.025,371.679,316.966,371.679,344.812z"/>
		<path style="fill:#EFE2DD;" d="M305.593,276.954c-14,27.805-42.784,46.708-75.821,46.708c-33.038,0-61.821-18.904-75.821-46.708
			c0.598-0.01,1.195-0.021,1.793-0.021H303.8C304.398,276.933,304.995,276.944,305.593,276.954z"/>
		<path style="fill:#EFE2DD;" d="M274.049,382.97l-41.31,111.558h-16.473l43.299-116.936c1.484-3.997,5.934-6.037,9.931-4.553
			C273.492,374.522,275.532,378.973,274.049,382.97z"/>
		<path style="fill:#EFE2DD;" d="M371.679,344.805v141.533c0,4.523-3.673,8.196-8.196,8.196h-18.88c4.523,0,8.187-3.673,8.187-8.196
			V344.805c0-27.847-16.777-51.785-40.767-62.242c-5.11-2.226-10.527-3.848-16.198-4.751c-3.55-0.587-7.196-0.877-10.904-0.877
			h18.88c3.708,0,7.354,0.289,10.904,0.877c5.671,0.903,11.088,2.524,16.198,4.751C354.893,293.02,371.679,316.958,371.679,344.805z
			"/>
		<g>
			<g>
				<path style="fill:#EFE2DD;" d="M145.307,380.281v114.247h-15.453V380.281c0-4.275,3.451-7.726,7.726-7.726
					C141.846,372.555,145.307,376.006,145.307,380.281z"/>
			</g>
			<g>
				<path style="fill:#EFE2DD;" d="M329.689,380.281v114.247h-15.453V380.281c0-4.275,3.451-7.726,7.726-7.726
					C326.227,372.555,329.689,376.006,329.689,380.281z"/>
			</g>
		</g>
		<g>
			<g>
				<g>
					<circle style="fill:#FFBC8A;" cx="313.1" cy="206.683" r="18.954"/>
				</g>
				<g>
					<circle style="fill:#FFBC8A;" cx="146.437" cy="206.683" r="18.954"/>
				</g>
			</g>
			<g>
				<g>
					<path style="fill:#D73337;" d="M289.669,350.218c5.412,12.684,5.296,26.596,0.68,39.82c-1.771,5.073-7.496,7.654-12.391,5.436
						c-12.821-5.81-23.011-15.381-28.447-28.12c-6.612-15.496-4.977-32.836,3.038-48.503
						C269.407,323.905,283.057,334.722,289.669,350.218z"/>
				</g>
				<path style="fill:#A62D2F;" d="M266.874,356.844c-2.517,0-4.986-1.228-6.469-3.492l-7.021-10.711
					c-2.339-3.568-1.343-8.358,2.226-10.697c3.568-2.339,8.359-1.343,10.697,2.226l7.021,10.711
					c2.339,3.568,1.343,8.358-2.226,10.697C269.797,356.435,268.327,356.844,266.874,356.844z"/>
				<g>
					<path style="fill:#E84649;" d="M288.327,294.467c0,2.091-0.144,4.152-0.422,6.171c-3.482,25.373-28.186,45.029-58.133,45.029
						c-29.947,0-54.651-19.656-58.133-45.029c-0.278-2.019-0.422-4.079-0.422-6.171c0-6.13,1.236-12.022,3.503-17.472h110.106
						C287.091,282.445,288.327,288.337,288.327,294.467z"/>
				</g>
				<path style="fill:#D73337;" d="M288.327,294.467c0,2.091-0.144,4.152-0.422,6.171c-15.216,14.299-35.685,23.025-58.133,23.025
					s-42.917-8.726-58.133-23.025c-0.278-2.019-0.422-4.079-0.422-6.171c0-6.13,1.236-12.022,3.503-17.472h110.106
					C287.091,282.445,288.327,288.337,288.327,294.467z"/>
			</g>
			<path style="fill:#FDD1A7;" d="M229.769,311.303L229.769,311.303c-38.56,0-70.371-30.189-72.386-68.696l-3.191-60.956
				c-0.938-17.925,13.343-32.973,31.292-32.973h88.571c17.949,0,32.23,15.048,31.292,32.973l-3.191,60.956
				C300.139,281.115,268.329,311.303,229.769,311.303z"/>
			<g>
				<path style="fill:#AC5E33;" d="M195.98,238.882c-4.268,0-7.726-3.459-7.726-7.726c0-4.268,3.459-7.768,7.726-7.768
					c4.268,0,7.726,3.416,7.726,7.684v0.083C203.706,235.424,200.247,238.882,195.98,238.882z"/>
				<path style="fill:#AC5E33;" d="M263.557,238.882c-4.268,0-7.726-3.459-7.726-7.726c0-4.268,3.459-7.768,7.726-7.768
					s7.726,3.416,7.726,7.684v0.083C271.284,235.424,267.825,238.882,263.557,238.882z"/>
			</g>
			<path style="fill:#F5A871;" d="M229.769,280.694c-12.134,0-22.952-8.147-26.307-19.812c-1.179-4.101,1.189-8.381,5.29-9.561
				c4.1-1.179,8.381,1.189,9.561,5.29c1.462,5.081,6.172,8.631,11.456,8.631c5.284,0,9.994-3.549,11.456-8.631
				c1.18-4.101,5.463-6.468,9.561-5.29c4.101,1.18,6.469,5.461,5.29,9.561C252.72,272.547,241.902,280.694,229.769,280.694z"/>
			<path style="fill:#FFF5F5;" d="M309.281,138.477V188.4c0,3.626-2.225,6.871-5.594,8.18
				c-10.034,3.894-33.852,11.023-73.915,11.023c-2.905,0-5.749-0.052-8.52-0.144c-5.419-0.165-10.57-0.505-15.453-0.948
				c-5.182-0.484-10.065-1.092-14.598-1.792c-5.697-0.865-10.858-1.865-15.453-2.895c-8.643-1.937-15.267-3.987-19.594-5.481
				c-3.534-1.226-5.893-4.553-5.893-8.283v-49.583c-23.653-4.667-41.259-26.146-39.827-51.468
				c1.401-24.93,21.551-45.122,46.472-46.595c8.437-0.505,16.442,1.123,23.55,4.368C182.847,19.656,204.017,0,229.772,0
				s46.914,19.656,49.315,44.782c7.108-3.245,15.113-4.873,23.55-4.368c24.92,1.473,45.07,21.665,46.471,46.595
				C350.529,112.331,332.934,133.81,309.281,138.477z"/>
			<path style="fill:#EFE2DD;" d="M309.282,138.476v49.933c0,3.615-2.226,6.861-5.601,8.167c-3.274,1.278-8.02,2.888-14.329,4.488
				c2.281-1.619,3.688-4.258,3.688-7.137v-51.368c0-2.299,1.508-4.35,3.722-4.969c21.736-6.076,37.452-26.61,36.102-50.583
				c-1.306-23.187-18.845-42.28-41.342-46.014c3.587-0.598,7.312-0.809,11.12-0.58c24.916,1.472,45.067,21.669,46.465,46.594
				C350.532,112.328,332.928,133.813,309.282,138.476z"/>
			<path style="fill:#EFE2DD;" d="M191.202,186.483v18.234c-5.697-0.865-10.858-1.865-15.453-2.895v-15.339
				c0-4.265,3.461-7.726,7.726-7.726C187.74,178.757,191.202,182.218,191.202,186.483z"/>
			<path style="fill:#EFE2DD;" d="M221.252,176.367v31.091c-5.419-0.165-10.57-0.505-15.453-0.948v-30.143
				c0-4.265,3.451-7.726,7.726-7.726C217.79,168.641,221.252,172.102,221.252,176.367z"/>
			<path style="fill:#EFE2DD;" d="M309.281,150.54v15.741c-7.345,1.381-21.922,3.781-34.109,3.781c-4.275,0-7.726-3.461-7.726-7.726
				s3.451-7.726,7.726-7.726C287.884,154.61,304.326,151.529,309.281,150.54z"/>
			<path style="fill:#EFE2DD;" d="M173.338,161.913c-0.515,3.894-3.832,6.727-7.654,6.727c-0.34,0-0.67-0.021-1.01-0.062
				c-5.759-0.752-10.91-1.648-14.412-2.308V150.53c2.751,0.556,9.127,1.772,16.411,2.72
				C170.907,153.806,173.884,157.69,173.338,161.913z"/>
		</g>
		<g>
			<path style="fill:#EFE2DD;" d="M173.424,418.866c-4.268,0-7.726-3.459-7.726-7.726s3.459-7.768,7.726-7.768
				s7.726,3.417,7.726,7.684v0.083C181.15,415.407,177.691,418.866,173.424,418.866z"/>
			<path style="fill:#EFE2DD;" d="M173.424,457.96c-4.268,0-7.726-3.459-7.726-7.726s3.459-7.769,7.726-7.769
				s7.726,3.418,7.726,7.685v0.083C181.15,454.501,177.691,457.96,173.424,457.96z"/>
		</g>
		<g>
			<path style="fill:#EFE2DD;" d="M207.39,418.866c-4.268,0-7.726-3.459-7.726-7.726s3.459-7.768,7.726-7.768
				c4.268,0,7.726,3.417,7.726,7.684v0.083C215.117,415.407,211.658,418.866,207.39,418.866z"/>
			<path style="fill:#EFE2DD;" d="M207.39,457.96c-4.268,0-7.726-3.459-7.726-7.726s3.459-7.769,7.726-7.769
				c4.268,0,7.726,3.418,7.726,7.685v0.083C215.117,454.501,211.658,457.96,207.39,457.96z"/>
		</g>
		<g>
			<path style="fill:#756F6F;" d="M50.163,512H39.048c-6.714,0-12.157-5.443-12.157-12.157v-83.838H62.32v83.838
				C62.32,506.557,56.878,512,50.163,512z"/>
			<path style="fill:#5B5555;" d="M62.32,416.008v83.835c0,6.715-5.446,12.153-12.153,12.153H39.044
				c-1.145,0-2.249-0.156-3.296-0.453c5.108-1.434,8.857-6.13,8.857-11.7v-83.835H62.32z"/>
			<path style="fill:#CDBFBB;" d="M81.054,421.731H26.891V248.999c0-29.913,24.249-54.162,54.162-54.162h0
				c3.76,0,6.809,3.048,6.809,6.809v213.277C87.862,418.682,84.814,421.731,81.054,421.731z"/>
			<path style="fill:#EFE2DD;" d="M87.862,201.642v213.279c0,3.757-3.049,6.806-6.806,6.806H55.515c3.757,0,6.806-3.049,6.806-6.806
				V201.642c0-1.154-0.288-2.233-0.791-3.18c6.056-2.34,12.639-3.625,19.527-3.625c1.879,0,3.576,0.758,4.812,1.994
				C87.104,198.066,87.862,199.763,87.862,201.642z"/>
		</g>
	</g>
	<g>
		<path style="fill:#E84649;" d="M73.713,89.471l-8.122,22.175c-3.788,10.341,8.053,24.186,26.448,30.924s36.377,3.816,40.165-6.525
			l8.122-22.175L73.713,89.471z"/>
		<path style="fill:#D73337;" d="M140.321,113.866l-8.118,22.18c-2.843,7.767-13.701,11.352-26.733,9.787
			c7.665-1.061,13.433-4.43,15.401-9.787l8.963-26.022L140.321,113.866z"/>
		
			<ellipse transform="matrix(0.3439 -0.939 0.939 0.3439 -25.2567 167.193)" style="fill:#FFBA82;" cx="107.019" cy="101.671" rx="19.941" ry="35.47"/>
		<path style="fill:#F5A871;" d="M140.321,113.866c-3.781,10.343-21.768,13.269-40.156,6.531c-1.689-0.618-3.327-1.298-4.893-2.03
			c16.545,4.543,31.709,1.278,35.16-8.118c3.441-9.395-6.016-21.675-21.551-28.897c1.659,0.453,3.327,0.989,4.996,1.597
			C132.275,89.688,144.112,103.533,140.321,113.866z"/>
	</g>
	<g>
		<path style="fill:#C86D3D;" d="M431.868,352.414h-37.01v-92.261c0-10.22,8.285-18.505,18.505-18.505h0
			c10.22,0,18.505,8.285,18.505,18.505V352.414z"/>
		<path style="fill:#AC5E33;" d="M431.865,260.153v92.259h-16.804v-92.259c0-5.114-2.069-9.731-5.417-13.088
			c-1.371-1.361-2.943-2.511-4.682-3.403c2.52-1.288,5.38-2.014,8.397-2.014c5.104,0,9.74,2.069,13.088,5.417
			C429.796,250.423,431.865,255.04,431.865,260.153z"/>
		<path style="fill:#DB885D;" d="M485.102,337.127v165.066c0,5.079-4.111,9.199-9.2,9.199H350.818c-5.079,0-9.2-4.121-9.2-9.199
			V337.127c0-5.079,4.121-9.199,9.2-9.199h125.085C480.991,327.927,485.102,332.048,485.102,337.127z"/>
		<path style="fill:#C86D3D;" d="M485.109,337.126v165.066c0,5.077-4.12,9.197-9.197,9.197h-18.505c5.077,0,9.197-4.12,9.197-9.197
			V337.126c0-5.077-4.12-9.197-9.197-9.197h18.505C480.988,327.929,485.109,332.049,485.109,337.126z"/>
		<path style="fill:#C86D3D;" d="M385.782,327.927v47.996c0,4.265-3.461,7.726-7.726,7.726c-4.275,0-7.726-3.461-7.726-7.726
			v-47.996H385.782z"/>
		<path style="fill:#C86D3D;" d="M413.37,412.392v99h-15.453v-99c0-4.265,3.462-7.726,7.726-7.726
			C409.909,404.665,413.37,408.127,413.37,412.392z"/>
		<path style="fill:#C86D3D;" d="M436.914,461.986c-4.268,0-7.726-3.459-7.726-7.726v-22.054c0-4.268,3.459-7.726,7.726-7.726
			s7.726,3.459,7.726,7.726v22.054C444.641,458.527,441.182,461.986,436.914,461.986z"/>
	</g>
	<g>
		<path style="fill:#E3F6C5;" d="M372.177,184.776L372.177,184.776c-5.935-4.47-7.122-12.904-2.652-18.839l38.61-51.264
			c3.056-4.057,8.823-4.869,12.88-1.813l6.798,5.12c4.057,3.056,4.869,8.823,1.813,12.88l-38.61,51.264
			C386.546,188.058,378.111,189.246,372.177,184.776z"/>
		<g>
			<path style="fill:#A4E540;" d="M393.666,200.961L393.666,200.961c-5.935-4.47-7.122-12.904-2.652-18.839l55.21-73.304
				c3.056-4.057,8.823-4.869,12.88-1.813l6.798,5.12c4.057,3.056,4.869,8.823,1.813,12.88l-55.21,73.304
				C408.035,204.243,399.601,205.43,393.666,200.961z"/>
		</g>
	</g>
</g>
<g>
</g>
<g>
</g>
<g>
</g>
<g>
</g>
<g>
</g>
<g>
</g>
<g>
</g>
<g>
</g>
<g>
</g>
<g>
</g>
<g>
</g>
<g>
</g>
<g>
</g>
<g>
</g>
<g>
</g>
</svg>
