<?xml version="1.0" encoding="iso-8859-1"?>
<!-- Generator: Adobe Illustrator 23.0.3, SVG Export Plug-In . SVG Version: 6.00 Build 0)  -->
<svg version="1.1" id="Capa_1" xmlns="http://www.w3.org/2000/svg" xmlns:xlink="http://www.w3.org/1999/xlink" x="0px" y="0px"
	 viewBox="0 0 512 512" style="enable-background:new 0 0 512 512;" xml:space="preserve">
<g>
	<g>
		<g>
			<g>
				<path style="fill:#FFF5F5;" d="M155.911,72.989l11.648,25.672l-11.648,27.299c-51.127,0-92.566,41.439-92.566,92.566
					l-28.341,11.648l-24.62-11.648C10.383,138.153,75.537,72.989,155.911,72.989z"/>
				<g>
					<path style="fill:#E84649;" d="M155.911,72.989v52.971c51.127,0,92.566,41.439,92.566,92.566
						c0,51.127-41.439,92.566-92.566,92.566s-92.566-41.439-92.566-92.566H10.383c0,80.374,65.154,145.538,145.528,145.538
						c80.384,0,145.538-65.163,145.538-145.538C301.448,138.153,236.295,72.989,155.911,72.989z"/>
				</g>
			</g>
		</g>
	</g>
	<g>
		<g>
			<path style="fill:#2EA8FC;" d="M7.5,364.837c0-4.733,3.35-8.723,7.969-9.758c23.369-5.236,26.008-33.16,54.16-33.16
				c31.064,0,31.064,34,62.129,34c31.063,0,31.063-34,62.126-34c31.062,0,31.062,34,62.124,34c31.061,0,31.061-34,62.121-34
				c31.062,0,31.062,34,62.124,34c31.062,0,31.062-34,62.125-34c28.149,0,30.788,27.924,54.154,33.16
				c4.618,1.035,7.968,5.025,7.968,9.757v99.857c0,7.182-7.399,12.144-13.945,9.191c-18.093-8.163-22.626-31.169-48.176-31.169
				c-31.062,0-31.062,34-62.125,34c-31.062,0-31.062-34-62.124-34c-31.061,0-31.061,34-62.121,34c-31.062,0-31.062-34-62.124-34
				c-31.063,0-31.063,34-62.126,34c-31.065,0-31.065-34-62.129-34c-25.554,0-30.087,23.008-48.184,31.17
				c-6.546,2.953-13.945-2.009-13.945-9.191V364.837z"/>
			<path style="fill:#8ECBFD;" d="M504.5,423.816c-18.837,0-28.686-10.779-36.598-19.441c-7.431-8.134-13.3-14.559-25.524-14.559
				c-12.224,0-18.094,6.425-25.525,14.559c-4.129,4.521-8.4,9.194-14.039,12.897c-6.705,4.403-14.084,6.544-22.561,6.544
				c-18.837,0-28.686-10.779-36.599-19.441c-7.431-8.134-13.301-14.559-25.525-14.559c-12.223,0-18.093,6.425-25.523,14.559
				c-4.129,4.52-8.399,9.194-14.039,12.897c-6.704,4.403-14.083,6.544-22.56,6.544c-18.838,0-28.686-10.779-36.599-19.441
				c-7.431-8.134-13.301-14.559-25.525-14.559c-12.225,0-18.095,6.425-25.526,14.559c-4.13,4.521-8.4,9.194-14.04,12.897
				c-6.705,4.403-14.084,6.544-22.561,6.544c-18.839,0-28.688-10.779-36.602-19.441c-7.432-8.134-13.302-14.559-25.527-14.559
				s-18.096,6.425-25.527,14.559c-4.13,4.521-8.4,9.194-14.04,12.898c-6.705,4.402-14.085,6.543-22.562,6.543
				c-4.142,0-7.5-3.357-7.5-7.5s3.358-7.5,7.5-7.5c12.226,0,18.096-6.425,25.527-14.559c4.13-4.521,8.4-9.194,14.04-12.898
				c6.705-4.402,14.085-6.543,22.562-6.543c18.839,0,28.688,10.779,36.602,19.441c7.432,8.134,13.302,14.559,25.527,14.559
				c12.225,0,18.095-6.425,25.526-14.559c4.13-4.521,8.4-9.194,14.04-12.897c6.705-4.403,14.084-6.544,22.561-6.544
				c18.838,0,28.686,10.779,36.599,19.441c7.431,8.134,13.301,14.559,25.525,14.559c12.224,0,18.093-6.425,25.524-14.559
				c4.129-4.521,8.399-9.194,14.038-12.897c6.705-4.403,14.083-6.544,22.56-6.544c18.838,0,28.686,10.779,36.599,19.441
				c7.431,8.134,13.3,14.559,25.524,14.559c12.225,0,18.094-6.425,25.525-14.559c4.129-4.521,8.4-9.194,14.039-12.897
				c6.705-4.403,14.084-6.544,22.56-6.544c18.837,0,28.686,10.779,36.598,19.441c7.431,8.134,13.3,14.559,25.524,14.559
				c4.142,0,7.5,3.357,7.5,7.5S508.642,423.816,504.5,423.816z"/>
		</g>
		<path style="fill:#FFF5F5;" d="M467.94,312.85v167.7c0,5.36-4.35,9.71-9.71,9.71H141.36c-5.36,0-9.71-4.35-9.71-9.71v-167.7
			c0-33,19.88-61.36,48.32-73.76c9.83-4.29,20.69-6.67,32.11-6.67h175.44c4.39,0,8.71,0.35,12.92,1.04
			c6.71,1.08,13.14,2.99,19.19,5.63C448.06,251.49,467.94,279.85,467.94,312.85z"/>
		<path style="fill:#E0D3CE;" d="M467.947,312.846v167.703c0,5.359-4.352,9.711-9.711,9.711h-22.372
			c5.359,0,9.701-4.352,9.701-9.711V312.846c0-32.996-19.879-61.361-48.305-73.751c-6.055-2.638-12.474-4.559-19.193-5.629
			c-4.206-0.696-8.527-1.039-12.92-1.039h22.371c4.393,0,8.714,0.343,12.92,1.039c6.72,1.07,13.138,2.991,19.193,5.629
			C448.058,251.485,467.947,279.849,467.947,312.846z"/>
		<g>
			<path style="fill:#2EA8FC;" d="M423.47,247.47l-4.53,5.59L308.85,388.74c-4,4.94-11.53,4.94-15.53,0L178.7,247.47
				c-5-6.16-1.17-15.41,6.72-16.24l23.71-2.49l24.99-2.62h133.94l0.9,0.09l21.61,2.27l26.18,2.75
				C424.64,232.06,428.47,241.31,423.47,247.47z"/>
		</g>
		<path style="fill:#0086F9;" d="M423.47,247.47l-4.53,5.59c-6.39-5.75-13.69-10.49-21.68-13.97c-6.06-2.63-12.47-4.55-19.19-5.62
			c-1.926-0.32-3.875-0.565-5.843-0.737c-3.171-0.276-4.929-3.809-3.267-6.523v0l21.61,2.27l26.18,2.75
			C424.64,232.06,428.47,241.31,423.47,247.47z"/>
		<path style="fill:#E0D3CE;" d="M196.74,354.88v135.38h-15V354.88c0-4.15,3.36-7.5,7.5-7.5
			C193.38,347.38,196.74,350.73,196.74,354.88z"/>
		<path style="fill:#E0D3CE;" d="M417.86,354.88v135.38h-15V354.88c0-4.15,3.36-7.5,7.5-7.5S417.86,350.73,417.86,354.88z"/>
		<g>
			<path style="fill:#E0D3CE;" d="M79.636,26.664c-6.298,0-12.028,2.465-16.288,6.474c-4.26-4.01-9.989-6.474-16.287-6.474
				c-13.116,0-23.787,10.671-23.787,23.787c0,4.143,3.358,7.5,7.5,7.5s7.5-3.357,7.5-7.5c0-4.846,3.942-8.787,8.787-8.787
				c2.745,0,5.198,1.267,6.811,3.244c-2.019,1.344-3.351,3.639-3.351,6.246c0,4.143,3.358,7.5,7.5,7.5h10.655
				c4.142,0,7.5-3.357,7.5-7.5c0-2.608-1.332-4.902-3.351-6.246c1.613-1.978,4.066-3.244,6.811-3.244
				c4.845,0,8.787,3.941,8.787,8.787c0,4.143,3.358,7.5,7.5,7.5s7.5-3.357,7.5-7.5C103.423,37.335,92.752,26.664,79.636,26.664z"/>
			<path style="fill:#E0D3CE;" d="M484.368,100.784c-6.298,0-12.027,2.465-16.287,6.474c-4.26-4.01-9.989-6.474-16.287-6.474
				c-13.116,0-23.787,10.671-23.787,23.787c0,4.143,3.358,7.5,7.5,7.5s7.5-3.357,7.5-7.5c0-4.846,3.942-8.787,8.787-8.787
				c2.745,0,5.198,1.266,6.81,3.244c-2.019,1.344-3.351,3.638-3.351,6.246c0,4.143,3.358,7.5,7.5,7.5h10.655
				c4.142,0,7.5-3.357,7.5-7.5c0-2.608-1.332-4.902-3.351-6.246c1.613-1.978,4.066-3.244,6.81-3.244
				c4.846,0,8.788,3.941,8.788,8.787c0,4.143,3.358,7.5,7.5,7.5s7.5-3.357,7.5-7.5C508.155,111.455,497.484,100.784,484.368,100.784
				z"/>
			<path style="fill:#E0D3CE;" d="M439.645,44.556c-2.019,1.344-3.351,3.638-3.351,6.246c0,4.143,3.358,7.5,7.5,7.5h10.655
				c4.142,0,7.5-3.357,7.5-7.5c0-2.608-1.332-4.902-3.351-6.246c1.613-1.978,4.066-3.245,6.811-3.245
				c4.846,0,8.788,3.942,8.788,8.788c0,4.143,3.358,7.5,7.5,7.5s7.5-3.357,7.5-7.5c0-13.117-10.671-23.788-23.788-23.788
				c-6.298,0-12.027,2.465-16.287,6.475c-4.26-4.01-9.989-6.475-16.287-6.475c-13.116,0-23.787,10.671-23.787,23.788
				c0,4.143,3.358,7.5,7.5,7.5s7.5-3.357,7.5-7.5c0-4.846,3.942-8.788,8.787-8.788C435.579,41.312,438.032,42.578,439.645,44.556z"
				/>
		</g>
		<g>
			<g>
				<g>
					<path style="fill:#E84649;" d="M357.193,370.367c15.324,15.324,20.371,37.023,15.159,56.545
						c-19.522,5.212-41.22,0.166-56.545-15.158c-15.324-15.324-20.381-37.033-15.168-56.555
						C320.16,349.986,341.868,355.042,357.193,370.367z"/>
					<path style="fill:#D73337;" d="M372.35,426.91c-8.78,2.34-18.01,2.61-26.89,0.8c1.15-0.23,2.29-0.5,3.43-0.8
						c5.22-19.52,0.17-41.22-15.15-56.54c-8.44-8.44-18.81-13.76-29.69-15.97c18.6-3.79,38.71,1.53,53.14,15.97
						C372.52,385.69,377.56,407.39,372.35,426.91z"/>
					<path style="fill:#E84649;" d="M244.98,370.367c-15.324,15.324-20.371,37.023-15.159,56.545
						c19.522,5.212,41.22,0.166,56.545-15.158c15.324-15.324,20.381-37.033,15.168-56.555
						C282.013,349.986,260.305,355.042,244.98,370.367z"/>
					<path style="fill:#D73337;" d="M286.37,411.75c-14.07,14.07-33.51,19.47-51.7,16.23c11.36-2.03,22.25-7.44,31.03-16.23
						c15.32-15.32,20.38-37.03,15.17-56.55c-1.59-0.42-3.19-0.78-4.81-1.06c8.44-1.52,17.16-1.16,25.47,1.06
						C306.75,374.72,301.69,396.43,286.37,411.75z"/>
				</g>
			</g>
			<g>
				<circle style="fill:#ED6264;" cx="301.087" cy="361.65" r="24.119"/>
			</g>
		</g>
		<g>
			<g>
				<g>
					<g>
						<circle style="fill:#FFBC8A;" cx="199.043" cy="156.72" r="22.459"/>
					</g>
				</g>
				<g>
					<g>
						<circle style="fill:#FFBC8A;" cx="400.552" cy="156.72" r="22.459"/>
					</g>
				</g>
			</g>
			<path style="fill:#0086F9;" d="M390.57,228.48c-14.55,36.03-49.83,61.2-90.77,61.2c-40.85,0-76.06-25.05-90.67-60.94l24.99-2.62
				h133.94L390.57,228.48z"/>
			<path style="fill:#FDD1A7;" d="M299.798,277.685L299.798,277.685c-45.69,0-83.382-35.771-85.771-81.398l-2.667-50.949
				c-1.717-32.806,24.42-60.348,57.271-60.348h62.333c32.851,0,58.989,27.541,57.271,60.348l-2.667,50.949
				C383.18,241.914,345.487,277.685,299.798,277.685z"/>
			<g>
				<g>
					<g>
						<path style="fill:#904D29;" d="M259.761,190.218c-4.142,0-7.5-3.357-7.5-7.5s3.358-7.55,7.5-7.55s7.5,3.309,7.5,7.451v0.099
							C267.261,186.86,263.903,190.218,259.761,190.218z"/>
						<path style="fill:#904D29;" d="M339.834,190.218c-4.142,0-7.5-3.357-7.5-7.5s3.358-7.55,7.5-7.55s7.5,3.309,7.5,7.451v0.099
							C347.334,186.86,343.977,190.218,339.834,190.218z"/>
					</g>
				</g>
				<path style="fill:#F5A871;" d="M299.797,239.761c-13.643,0-25.807-9.161-29.58-22.277c-1.146-3.98,1.153-8.136,5.134-9.281
					c3.98-1.146,8.136,1.154,9.281,5.135c1.935,6.727,8.171,11.424,15.165,11.424c6.994,0,13.23-4.697,15.164-11.424
					c1.145-3.981,5.301-6.277,9.281-5.135c3.981,1.146,6.28,5.3,5.135,9.281C325.605,230.6,313.441,239.761,299.797,239.761z"/>
			</g>
			<g>
				<g>
					<g>
						<path style="fill:#FFF5F5;" d="M391.457,87.12c-13.618-38.104-50.018-65.377-92.803-65.377S219.47,49.016,205.852,87.12
							H391.457z"/>
						<path style="fill:#E0D3CE;" d="M391.46,87.12H365.2c-12.2-34.14-42.69-59.59-79.68-64.51c4.3-0.57,8.68-0.87,13.13-0.87
							C341.44,21.74,377.84,49.02,391.46,87.12z"/>
					</g>
					<path style="fill:#FFF5F5;" d="M409.78,88.11l-3.09,13.34l-7.29,31.51c-1.05,4.54-5.08,7.75-9.74,7.75H207.65
						c-4.66,0-8.7-3.21-9.75-7.75l-7.29-31.51l-3.08-13.34c-1.45-6.26,3.31-12.25,9.74-12.25h202.76
						C406.47,75.86,411.23,81.85,409.78,88.11z"/>
					<path style="fill:#E0D3CE;" d="M409.78,88.11l-3.09,13.34l-7.29,31.51c-1.05,4.54-5.08,7.75-9.74,7.75h-21.23
						c4.66,0,8.69-3.21,9.74-7.75l7.29-31.51l3.09-13.34c1.45-6.26-3.31-12.25-9.75-12.25h21.23
						C406.47,75.86,411.23,81.85,409.78,88.11z"/>
					<path style="fill:#2EA8FC;" d="M409.78,88.11l-3.09,13.34H190.61l-3.08-13.34c-1.45-6.26,3.31-12.25,9.74-12.25h202.76
						C406.47,75.86,411.23,81.85,409.78,88.11z"/>
					<path style="fill:#0086F9;" d="M409.78,88.11l-3.09,13.34h-21.23l3.09-13.34c1.45-6.26-3.31-12.25-9.75-12.25h21.23
						C406.47,75.86,411.23,81.85,409.78,88.11z"/>
				</g>
			</g>
		</g>
	</g>
</g>
<g>
</g>
<g>
</g>
<g>
</g>
<g>
</g>
<g>
</g>
<g>
</g>
<g>
</g>
<g>
</g>
<g>
</g>
<g>
</g>
<g>
</g>
<g>
</g>
<g>
</g>
<g>
</g>
<g>
</g>
</svg>
