<?xml version="1.0" encoding="iso-8859-1"?>
<!-- Generator: Adobe Illustrator 23.0.3, SVG Export Plug-In . SVG Version: 6.00 Build 0)  -->
<svg version="1.1" id="Capa_1" xmlns="http://www.w3.org/2000/svg" xmlns:xlink="http://www.w3.org/1999/xlink" x="0px" y="0px"
	 viewBox="0 0 512 512" style="enable-background:new 0 0 512 512;" xml:space="preserve">
<g>
	<g>
		<g>
			<g>
				<circle style="fill:#FFBC8A;" cx="368.919" cy="160.655" r="22.392"/>
				<circle style="fill:#FFBC8A;" cx="172.026" cy="160.655" r="22.392"/>
				<path style="fill:#FFA964;" d="M420.695,320.046v167.209c0,5.347-4.337,9.674-9.673,9.674H129.926
					c-5.347,0-9.673-4.327-9.673-9.674V320.046c0-32.894,19.821-61.182,48.171-73.534c4.42-1.937,9.055-3.472,13.866-4.585
					c5.831-1.349,11.909-2.06,18.142-2.06h140.084c4.378,0,8.684,0.34,12.867,1.03c1.782,0.289,3.533,0.629,5.275,1.03
					c4.801,1.113,9.436,2.658,13.866,4.585c0.031,0,0.051,0.01,0.072,0.031C400.905,258.915,420.695,287.173,420.695,320.046z"/>
				<path style="fill:#FF872A;" d="M358.658,241.928c-15.927,32.801-49.541,55.208-88.184,55.208s-72.257-22.406-88.184-55.208
					c5.831-1.349,11.909-2.06,18.142-2.06h140.084c4.378,0,8.684,0.34,12.867,1.03C355.165,241.186,356.916,241.526,358.658,241.928
					z"/>
				<path style="fill:#FF872A;" d="M278.2,284.773v212.156h-15.453V284.773c0-4.275,3.461-7.726,7.726-7.726
					C274.739,277.047,278.2,280.498,278.2,284.773z"/>
				<path style="fill:#FF872A;" d="M270.474,253.105v29.391L253.167,295.6l-15.916,12.053c-6.737,5.11-16.462,0.876-17.328-7.531
					l-1.875-18.162l-2.967-28.855H270.474z"/>
				<path style="fill:#F36717;" d="M270.474,253.105v29.391L253.167,295.6c-12.702-2.256-24.59-6.974-35.119-13.64l-2.967-28.855
					H270.474z"/>
				<path style="fill:#FF872A;" d="M325.857,253.105l-2.967,28.855l-1.865,18.162c-0.865,8.406-10.59,12.64-17.328,7.531
					L287.781,295.6l-17.307-13.104v-29.391H325.857z"/>
				<path style="fill:#FF872A;" d="M420.697,320.052v167.201c0,5.343-4.336,9.679-9.679,9.679h-22.31
					c5.343,0,9.679-4.336,9.679-9.679V320.052c0-32.898-19.822-61.18-48.171-73.54c-6.03-2.633-12.437-4.539-19.135-5.614
					c-4.191-0.687-8.498-1.036-12.882-1.036h22.31c4.385,0,8.692,0.348,12.883,1.036c6.698,1.074,13.105,2.981,19.135,5.614
					C400.875,258.873,420.697,287.154,420.697,320.052z"/>
				<path style="fill:#FF872A;" d="M374.069,362.006v134.923h-15.453V362.006c0-4.265,3.451-7.726,7.726-7.726
					C370.608,354.279,374.069,357.741,374.069,362.006z"/>
				<path style="fill:#FF872A;" d="M182.332,366.219v130.71h-15.453v-130.71c0-4.265,3.461-7.726,7.726-7.726
					S182.332,361.954,182.332,366.219z"/>
				<path style="fill:#F36717;" d="M325.857,253.105l-2.967,28.855c-10.528,6.665-22.406,11.384-35.109,13.64l-17.307-13.104
					v-29.391H325.857z"/>
				<path style="fill:#FDD1A7;" d="M270.472,284.769L270.472,284.769c-45.555,0-83.135-35.665-85.517-81.157l-3.262-62.316
					c-1.384-26.448,19.687-48.651,46.171-48.651h85.215c26.484,0,47.555,22.203,46.171,48.651l-3.262,62.316
					C353.608,249.104,316.027,284.769,270.472,284.769z"/>
				<line style="fill:none;" x1="320.289" y1="195.454" x2="320.289" y2="195.547"/>
				<path style="fill:#904D29;" d="M230.554,197.811c-4.268,0-7.726-3.459-7.726-7.726s3.459-7.776,7.726-7.776
					s7.726,3.409,7.726,7.677v0.099C238.281,194.352,234.822,197.811,230.554,197.811z"/>
				<path style="fill:#904D29;" d="M310.39,197.811c-4.268,0-7.726-3.459-7.726-7.726s3.459-7.776,7.726-7.776
					s7.726,3.409,7.726,7.677v0.099C318.117,194.352,314.658,197.811,310.39,197.811z"/>
				<path style="fill:#F5A871;" d="M270.473,247.206c-13.714,0-25.941-9.208-29.731-22.392c-1.179-4.101,1.189-8.381,5.291-9.56
					c4.096-1.177,8.382,1.188,9.56,5.291c1.897,6.6,8.017,11.209,14.88,11.209c6.863,0,12.982-4.61,14.88-11.21
					c1.18-4.102,5.465-6.466,9.561-5.29c4.101,1.18,6.469,5.461,5.29,9.561C296.411,237.999,284.186,247.206,270.473,247.206z"/>
				<path style="fill:#FFA964;" d="M376.564,132.671H164.381v-26.758c0-52.871,42.861-95.732,95.732-95.732h20.719
					c52.871,0,95.732,42.861,95.732,95.732V132.671z"/>
				<path style="fill:#FF872A;" d="M376.561,105.916v26.754h-22.306v-26.754c0-52.61-42.426-95.294-94.931-95.724
					c0.267-0.009,0.525-0.009,0.792-0.009h20.712C333.706,10.183,376.561,53.038,376.561,105.916z"/>
				<path style="fill:#FF872A;" d="M377.63,146.352H163.314c-7.556,0-13.681-6.125-13.681-13.681v0
					c0-7.556,6.125-13.681,13.681-13.681H377.63c7.556,0,13.681,6.125,13.681,13.681v0
					C391.311,140.227,385.186,146.352,377.63,146.352z"/>
				<path style="fill:#F36717;" d="M391.308,132.669c0,3.78-1.527,7.197-4.009,9.678c-2.472,2.472-5.889,3.999-9.669,3.999h-22.401
					c3.78,0,7.197-1.527,9.678-3.999c2.482-2.482,4.009-5.899,4.009-9.678c0-7.55-6.128-13.677-13.687-13.677h22.401
					C385.19,118.992,391.308,125.12,391.308,132.669z"/>
				<path style="fill:#FF872A;" d="M280.112,86.538h-19.28c-5.465,0-9.896-4.431-9.896-9.896V9.896c0-5.465,4.431-9.896,9.896-9.896
					h19.28c5.465,0,9.896,4.431,9.896,9.896v66.746C290.008,82.108,285.578,86.538,280.112,86.538z"/>
				<g>
					<g>
						<path style="fill:#FF872A;" d="M339.356,407.165h-33.271c-4.268,0-7.726-3.459-7.726-7.726s3.459-7.726,7.726-7.726h33.271
							c4.268,0,7.726,3.459,7.726,7.726S343.624,407.165,339.356,407.165z"/>
						<path style="fill:#FF872A;" d="M234.861,407.165h-33.271c-4.268,0-7.726-3.459-7.726-7.726s3.459-7.726,7.726-7.726h33.271
							c4.268,0,7.726,3.459,7.726,7.726S239.129,407.165,234.861,407.165z"/>
					</g>
				</g>
				<g>
					<path style="fill:#FF872A;" d="M339.356,471.977h-33.271c-4.268,0-7.726-3.459-7.726-7.726c0-4.268,3.459-7.726,7.726-7.726
						h33.271c4.268,0,7.726,3.459,7.726,7.726C347.082,468.518,343.624,471.977,339.356,471.977z"/>
					<path style="fill:#FF872A;" d="M234.861,471.977h-33.271c-4.268,0-7.726-3.459-7.726-7.726c0-4.268,3.459-7.726,7.726-7.726
						h33.271c4.268,0,7.726,3.459,7.726,7.726C242.588,468.518,239.129,471.977,234.861,471.977z"/>
				</g>
			</g>
			<g>
				<g>
					<path style="fill:#EFE2DD;" d="M147.009,423.89c-4.268,0-7.726-3.459-7.726-7.726V397.86H69.418v18.304
						c0,4.268-3.459,7.726-7.726,7.726s-7.726-3.459-7.726-7.726v-26.03c0-4.268,3.459-7.726,7.726-7.726h85.317
						c4.268,0,7.726,3.459,7.726,7.726v26.03C154.735,420.432,151.277,423.89,147.009,423.89z"/>
					<path style="fill:#2EA8FC;" d="M167.223,413.073H41.478c-3.555,0-6.856,1.845-8.718,4.874l-16.991,27.635
						c-0.99,1.61-1.514,3.462-1.516,5.352l-0.042,50.824C14.207,507.413,18.79,512,24.446,512h159.811
						c5.652,0,10.234-4.582,10.234-10.234v-50.821c0-1.896-0.527-3.755-1.522-5.37l-17.034-27.637
						C174.072,414.914,170.774,413.073,167.223,413.073z"/>
					<path style="fill:#0086F9;" d="M194.488,450.94v50.823c0,5.66-4.575,10.234-10.234,10.234h-21.185
						c5.66,0,10.234-4.575,10.234-10.234V450.94c0-1.893-0.522-3.756-1.515-5.363l-17.04-27.643
						c-1.863-3.019-5.158-4.861-8.709-4.861h21.185c3.551,0,6.847,1.842,8.709,4.861l17.04,27.643
						C193.966,447.184,194.488,449.047,194.488,450.94z"/>
					<path style="fill:#0086F9;" d="M199.124,448.046c0,4.265-3.462,7.726-7.726,7.726H17.307c-4.275,0-7.726-3.461-7.726-7.726
						c0-4.265,3.451-7.726,7.726-7.726h174.09C195.662,440.32,199.124,443.781,199.124,448.046z"/>
					<path style="fill:#0076F8;" d="M199.124,448.046c0,4.265-3.462,7.726-7.726,7.726h-18.09v-4.831
						c0-1.895-0.525-3.76-1.514-5.367l-3.245-5.254h22.849C195.662,440.32,199.124,443.781,199.124,448.046z"/>
					<path style="fill:#EFE2DD;" d="M111.511,480.634h-14.32c-4.268,0-7.726-3.459-7.726-7.726s3.459-7.726,7.726-7.726h14.32
						c4.268,0,7.726,3.459,7.726,7.726S115.779,480.634,111.511,480.634z"/>
				</g>
			</g>
		</g>
		<g>
			<path style="fill:#9E9797;" d="M481.035,361.289c-4.268,0-7.726-3.459-7.726-7.726V205.397c0-4.268,3.459-7.726,7.726-7.726
				s7.726,3.459,7.726,7.726v148.165C488.762,357.83,485.303,361.289,481.035,361.289z"/>
			<g>
				<path style="fill:#FF872A;" d="M485.549,496.931h-9.028c-11.066,0-20.037-8.971-20.037-20.037V365.735
					c0-11.066,8.971-20.037,20.037-20.037h9.028c11.066,0,20.037,8.971,20.037,20.037v111.159
					C505.586,487.96,496.615,496.931,485.549,496.931z"/>
				<path style="fill:#F36717;" d="M505.586,365.731v111.167c0,11.065-8.972,20.037-20.037,20.037h-9.023
					c-2.176,0-4.269-0.351-6.218-0.99c8.023-2.619,13.818-10.158,13.818-19.047V365.731c0-8.889-5.795-16.428-13.818-19.047
					c1.949-0.639,4.042-0.99,6.218-0.99h9.023C496.614,345.694,505.586,354.665,505.586,365.731z"/>
			</g>
			<path style="fill:#EFE2DD;" d="M473.516,147.655h15.037c5.325,0,9.774,4.054,10.268,9.355l4.265,45.769
				c0.564,6.047-4.195,11.269-10.268,11.269h-23.568c-6.073,0-10.831-5.222-10.268-11.269l4.265-45.769
				C463.743,151.709,468.192,147.655,473.516,147.655z"/>
			<path style="fill:#CDBFBB;" d="M492.823,214.044h-17.531c6.064,0,10.828-5.218,10.261-11.261l-4.259-45.776
				c-0.454-4.878-4.269-8.704-9.023-9.271c0.413-0.062,0.825-0.083,1.248-0.083h15.035c5.321,0,9.776,4.053,10.271,9.353
				l4.259,45.776C503.651,208.826,498.887,214.044,492.823,214.044z"/>
		</g>
	</g>
	<g>
		<circle style="fill:#9E9797;" cx="61.002" cy="317.449" r="18.351"/>
		<path style="fill:#756F6F;" d="M79.355,317.45c0,10.137-8.221,18.348-18.358,18.348c-1.947,0-3.812-0.299-5.573-0.865
			c7.407-2.359,12.774-9.292,12.774-17.482c0-8.19-5.367-15.123-12.774-17.482c1.762-0.567,3.626-0.865,5.573-0.865
			C71.134,299.103,79.355,307.313,79.355,317.45z"/>
		<path style="fill:#FBCC85;" d="M58.792,140.883c-28.422,1.121-51.468,24.376-52.351,52.806
			c-0.442,14.225,4.563,27.269,13.084,37.215c10.257,11.971,16.436,26.857,17.005,42.545h48.938
			c0.534-15.464,6.286-30.351,16.535-42c8.455-9.61,13.585-22.215,13.585-36.022C115.589,164.546,89.946,139.654,58.792,140.883z"/>
		<path style="fill:#E8B76B;" d="M115.586,195.423c0,13.808-5.125,26.42-13.581,36.031C91.754,243.096,86,257.987,85.464,273.446
			H63.169c0.526-15.458,6.28-30.349,16.531-41.992c8.456-9.611,13.581-22.223,13.581-36.031c0-26.327-18.634-48.303-43.436-53.438
			c2.908-0.609,5.899-0.98,8.951-1.103C89.95,139.653,115.586,164.547,115.586,195.423z"/>
		<path style="fill:#EFE2DD;" d="M81.912,315.473h-41.82c-5.695,0-10.312-4.617-10.312-10.312v-23.85
			c0-5.695,4.617-10.312,10.312-10.312h41.82c5.695,0,10.312,4.617,10.312,10.312v23.85
			C92.224,310.857,87.607,315.473,81.912,315.473z"/>
		<path style="fill:#CDBFBB;" d="M89.917,300.732H32.086c-4.268,0-7.726-3.459-7.726-7.726s3.459-7.726,7.726-7.726h57.831
			c4.268,0,7.726,3.459,7.726,7.726S94.185,300.732,89.917,300.732z"/>
	</g>
</g>
<g>
</g>
<g>
</g>
<g>
</g>
<g>
</g>
<g>
</g>
<g>
</g>
<g>
</g>
<g>
</g>
<g>
</g>
<g>
</g>
<g>
</g>
<g>
</g>
<g>
</g>
<g>
</g>
<g>
</g>
</svg>
