<?xml version="1.0" encoding="iso-8859-1"?>
<!-- Generator: Adobe Illustrator 23.0.3, SVG Export Plug-In . SVG Version: 6.00 Build 0)  -->
<svg version="1.1" id="Capa_1" xmlns="http://www.w3.org/2000/svg" xmlns:xlink="http://www.w3.org/1999/xlink" x="0px" y="0px"
	 viewBox="0 0 512 512" style="enable-background:new 0 0 512 512;" xml:space="preserve">
<g>
	<g>
		<g>
			<g>
				
					<rect x="364.077" y="216.408" transform="matrix(-1.836970e-16 1 -1 -1.836970e-16 670.9023 -212.3204)" style="fill:#EFE2DD;" width="155.068" height="25.767"/>
			</g>
			<g>
				
					<rect x="370.519" y="222.849" transform="matrix(-1.836970e-16 1 -1 -1.836970e-16 677.344 -218.7621)" style="fill:#CDBFBB;" width="155.068" height="12.883"/>
			</g>
			<g>
				<circle style="fill:#E84649;" cx="441.612" cy="93.086" r="70.388"/>
				<path style="fill:#D73337;" d="M511.998,93.091c0,38.864-31.512,70.387-70.387,70.387c-4.254,0-8.426-0.376-12.482-1.095
					c32.92-5.902,57.905-34.683,57.905-69.292c0-34.62-24.985-63.4-57.905-69.302c4.056-0.72,8.227-1.095,12.482-1.095
					C480.486,22.693,511.998,54.216,511.998,93.091z"/>
			</g>
			<g>
				<path style="fill:#EFE2DD;" d="M463.595,105.969h-43.966c-5.759,0-10.428-4.669-10.428-10.428V90.63
					c0-5.759,4.669-10.428,10.428-10.428h43.966c5.759,0,10.428,4.669,10.428,10.428v4.911
					C474.023,101.3,469.354,105.969,463.595,105.969z"/>
			</g>
		</g>
		<g>
			<g>
				<g>
					<g>
						<path style="fill:#EFE2DD;" d="M0,163.593c0-4.956,4.018-8.974,8.974-8.974h103.27c4.956,0,8.974,4.018,8.974,8.974v291.713
							c0,4.956-4.018,8.974-8.974,8.974H8.974c-4.956,0-8.974-4.018-8.974-8.974"/>
						<path style="fill:#CDBFBB;" d="M121.222,163.593v291.708c0,4.963-4.021,8.974-8.974,8.974H91.35
							c4.954,0,8.974-4.012,8.974-8.974V163.593c0-4.954-4.021-8.974-8.974-8.974h20.897
							C117.202,154.619,121.222,158.64,121.222,163.593z"/>
					</g>
				</g>
				<g>
					<g>
						<circle style="fill:#52CC61;" cx="60.611" cy="397.69" r="30.06"/>
						<path style="fill:#00B232;" d="M90.667,397.69c0,16.6-13.455,30.056-30.056,30.056c-3.489,0-6.841-0.59-9.956-1.691
							c11.716-4.108,20.109-15.254,20.109-28.365c0-13.111-8.394-24.257-20.109-28.365c3.116-1.101,6.467-1.691,9.956-1.691
							C77.211,367.635,90.667,381.09,90.667,397.69z"/>
					</g>
					<g>
						<circle style="fill:#FFA964;" cx="60.611" cy="309.449" r="30.06"/>
						<path style="fill:#FF872A;" d="M90.667,309.449c0,16.6-13.455,30.056-30.056,30.056c-3.489,0-6.841-0.59-9.956-1.691
							c11.716-4.108,20.109-15.254,20.109-28.365c0-13.111-8.394-24.257-20.109-28.365c3.116-1.101,6.467-1.691,9.956-1.691
							C77.211,279.394,90.667,292.849,90.667,309.449z"/>
					</g>
					<g>
						<circle style="fill:#E84649;" cx="60.611" cy="221.208" r="30.06"/>
						<path style="fill:#D73337;" d="M90.667,221.208c0,16.6-13.455,30.056-30.056,30.056c-3.489,0-6.841-0.59-9.956-1.691
							c11.716-4.108,20.109-15.254,20.109-28.365c0-13.111-8.394-24.257-20.109-28.365c3.116-1.101,6.467-1.691,9.956-1.691
							C77.211,191.152,90.667,204.608,90.667,221.208z"/>
					</g>
				</g>
			</g>
			<g>
				<g>
					<g>
						<path style="fill:#9E9797;" d="M424.919,326.784v153.631c0,4.904-3.987,8.891-8.89,8.891H125.734
							c-4.914,0-8.89-3.987-8.89-8.891V326.784c0-30.236,18.214-56.217,44.257-67.569c9.014-3.935,18.966-6.109,29.422-6.109H351.24
							c4.028,0,7.984,0.319,11.837,0.948c6.15,0.989,12.043,2.74,17.575,5.161C406.705,270.567,424.919,296.548,424.919,326.784z"/>
						<path style="fill:#756F6F;" d="M424.918,326.779V480.41c0,4.909-3.984,8.892-8.892,8.892h-20.497
							c4.909,0,8.892-3.984,8.892-8.892V326.779c0-30.225-18.211-56.217-44.265-67.572c-5.54-2.419-11.427-4.17-17.58-5.157
							c-3.85-0.631-7.807-0.951-11.836-0.951h20.497c4.028,0,7.985,0.32,11.836,0.951c6.153,0.987,12.04,2.739,17.58,5.157
							C406.707,270.563,424.918,296.555,424.918,326.779z"/>
						<g>
							<path style="fill:#756F6F;" d="M380.374,366.404v122.901h-15.453V366.404c0-4.265,3.461-7.726,7.726-7.726
								C376.923,358.678,380.374,362.14,380.374,366.404z"/>
						</g>
					</g>
					<path style="fill:#756F6F;" d="M176.831,366.404v122.901h-15.453V366.404c0-4.265,3.461-7.726,7.726-7.726
						S176.831,362.14,176.831,366.404z"/>
					<g>
						<g>
							<g>
								<circle style="fill:#FFBC8A;" cx="361.334" cy="177.083" r="20.575"/>
							</g>
							<g>
								<circle style="fill:#FFBC8A;" cx="180.423" cy="177.083" r="20.575"/>
							</g>
						</g>
						<path style="fill:#756F6F;" d="M349.149,253.105c-15.916,26.733-45.101,44.504-78.273,44.504s-62.357-17.771-78.273-44.504
							H349.149z"/>
						<path style="fill:#FDD1A7;" d="M270.878,285.246L270.878,285.246c-41.857,0-76.387-32.77-78.575-74.569l-5.337-101.959H354.79
							l-5.337,101.959C347.265,252.476,312.735,285.246,270.878,285.246z"/>
						<g>
							<path style="fill:#5B5555;" d="M270.878,147.132c0,0,60.442-28.21,80.254,12.85c1.055,2.187,3.944,2.703,5.71,1.037
								l26.967-25.444l-15.117-42.979h-97.814V147.132z"/>
							<path style="fill:#756F6F;" d="M270.878,85.185c0,0,18.39-26.677,64.771-26.677c42.408,0,70.086,44.604,52.438,83.74
								c-1.71,3.793-7.197,3.447-8.345-0.552c-4.171-14.532-16.201-37.837-50.472-37.837c-49.796,0-58.392,43.273-58.392,43.273
								V85.185z"/>
							<path style="fill:#5B5555;" d="M270.878,147.132c0,0-60.442-28.21-80.254,12.85c-1.055,2.187-3.944,2.703-5.71,1.037
								l-26.967-25.444l15.117-42.979h97.814V147.132z"/>
							<path style="fill:#756F6F;" d="M270.878,85.185c0,0-18.39-26.677-64.771-26.677c-42.408,0-70.086,44.604-52.438,83.74
								c1.71,3.793,7.197,3.447,8.345-0.552c4.171-14.532,16.201-37.837,50.472-37.837c49.796,0,58.392,43.273,58.392,43.273V85.185
								z"/>
						</g>
						<g>
							<g>
								<g>
									<path style="fill:#904D29;" d="M235.887,209.212c-4.267,0-7.726-3.459-7.726-7.726s3.459-7.77,7.726-7.77
										c4.267,0,7.726,3.415,7.726,7.683v0.087C243.614,205.754,240.154,209.212,235.887,209.212z"/>
									<path style="fill:#904D29;" d="M305.871,209.212c-4.267,0-7.726-3.459-7.726-7.726s3.459-7.77,7.726-7.77
										c4.267,0,7.726,3.415,7.726,7.683v0.087C313.597,205.754,310.138,209.212,305.871,209.212z"/>
								</g>
							</g>
							<path style="fill:#F5A871;" d="M270.879,252.512c-12.443,0-23.537-8.355-26.978-20.318c-1.18-4.101,1.189-8.381,5.289-9.561
								c4.1-1.181,8.381,1.188,9.561,5.29c1.547,5.379,6.534,9.137,12.127,9.137c5.594,0,10.58-3.758,12.128-9.137
								c1.18-4.101,5.458-6.47,9.561-5.29c4.101,1.18,6.469,5.461,5.29,9.561C294.417,244.157,283.322,252.512,270.879,252.512z"/>
						</g>
					</g>
				</g>
				<g>
					<g>
						<path style="fill:#B6DCFF;" d="M493.323,360.178v38.063c-8.239,0-16.155,1.424-23.502,4.044
							c-9.881,3.521-18.728,9.188-25.999,16.459c-7.745,7.746-13.687,17.294-17.124,27.964c-2.193,6.787-3.379,14.02-3.379,21.528
							h-24.774c0-7.508-1.186-14.741-3.379-21.528c-3.436-10.669-9.378-20.218-17.123-27.964
							c-7.271-7.271-16.117-12.937-25.999-16.459c-7.347-2.62-15.263-4.044-23.502-4.044v-38.063H493.323z"/>
						<path style="fill:#65BAFC;" d="M464.562,360.178c4.414,8.391,6.91,17.94,6.91,28.058c0,4.831-0.57,9.539-1.652,14.048
							c7.347-2.62,15.263-4.044,23.502-4.044v-38.063H464.562z M395.167,446.707c2.193,6.787,3.379,14.02,3.379,21.528h24.774
							c0-7.508,1.186-14.741,3.379-21.528c-5.031,1.357-10.318,2.079-15.766,2.079C405.484,448.786,400.197,448.064,395.167,446.707
							z M328.542,360.178v38.063c8.239,0,16.155,1.424,23.502,4.044c-1.082-4.509-1.652-9.217-1.652-14.048
							c0-10.119,2.496-19.667,6.91-28.058H328.542z"/>
						<g>
							<g>
								<path style="fill:#1475CC;" d="M410.933,287.172c-55.816,0-101.067,45.251-101.067,101.067s45.251,101.067,101.067,101.067
									S512,444.055,512,388.239S466.749,287.172,410.933,287.172z M410.933,463.02c-41.303,0-74.781-33.478-74.781-74.781
									s33.478-74.781,74.781-74.781s74.781,33.478,74.781,74.781S452.236,463.02,410.933,463.02z"/>
							</g>
						</g>
					</g>
					<g>
						<ellipse style="fill:#1475CC;" cx="410.933" cy="396.285" rx="15.662" ry="12.577"/>
					</g>
					<g>
						<path style="fill:#1475CC;" d="M456.494,391.435h-5.22c-4.267,0-7.726-3.459-7.726-7.726s3.459-7.726,7.726-7.726h5.22
							c4.267,0,7.726,3.459,7.726,7.726S460.761,391.435,456.494,391.435z"/>
						<path style="fill:#1475CC;" d="M370.592,391.435h-5.221c-4.267,0-7.726-3.459-7.726-7.726s3.459-7.726,7.726-7.726h5.221
							c4.267,0,7.726,3.459,7.726,7.726S374.859,391.435,370.592,391.435z"/>
					</g>
				</g>
			</g>
		</g>
	</g>
	<path style="fill:#756F6F;" d="M281.518,323.394v165.911h-15.453V323.394c0-4.265,3.461-7.726,7.726-7.726
		C278.056,315.668,281.518,319.13,281.518,323.394z"/>
	<path style="fill:#756F6F;" d="M245.183,462.808c-4.267,0-7.726-3.459-7.726-7.726s3.459-7.77,7.726-7.77
		c4.267,0,7.726,3.417,7.726,7.684v0.086C252.909,459.349,249.45,462.808,245.183,462.808z"/>
	<path style="fill:#756F6F;" d="M245.183,409.929c-4.267,0-7.726-3.459-7.726-7.726s3.459-7.77,7.726-7.77
		c4.267,0,7.726,3.417,7.726,7.684v0.086C252.909,406.47,249.45,409.929,245.183,409.929z"/>
	<path style="fill:#FAC574;" d="M233.336,372.799h-28.572c-4.267,0-7.726-3.459-7.726-7.726c0-4.268,3.459-7.726,7.726-7.726h28.572
		c4.267,0,7.726,3.459,7.726,7.726C241.062,369.34,237.603,372.799,233.336,372.799z"/>
</g>
<g>
</g>
<g>
</g>
<g>
</g>
<g>
</g>
<g>
</g>
<g>
</g>
<g>
</g>
<g>
</g>
<g>
</g>
<g>
</g>
<g>
</g>
<g>
</g>
<g>
</g>
<g>
</g>
<g>
</g>
</svg>
