<?xml version="1.0" encoding="iso-8859-1"?>
<!-- Generator: Adobe Illustrator 23.0.3, SVG Export Plug-In . SVG Version: 6.00 Build 0)  -->
<svg version="1.1" id="Capa_1" xmlns="http://www.w3.org/2000/svg" xmlns:xlink="http://www.w3.org/1999/xlink" x="0px" y="0px"
	 viewBox="0 0 512 512" style="enable-background:new 0 0 512 512;" xml:space="preserve">
<g>
	<g>
		<path style="fill:#E84649;" d="M218.94,166.407h-57.529v-57.529c0-7.133-5.782-12.915-12.915-12.915H83.358
			c-7.133,0-12.915,5.782-12.915,12.915v57.529H12.915C5.782,166.407,0,172.189,0,179.321v65.139
			c0,7.133,5.782,12.915,12.915,12.915h57.529v57.529c0,7.133,5.782,12.915,12.915,12.915h65.139
			c7.133,0,12.915-5.782,12.915-12.915v-57.529h57.529c7.133,0,12.915-5.782,12.915-12.915v-65.139
			C231.855,172.189,226.072,166.407,218.94,166.407z"/>
	</g>
	<g>
		<g>
			<g>
				<path style="fill:#E19A77;" d="M501.261,465.111H290.476c-5.931,0-10.739-4.808-10.739-10.739V177.18
					c0-5.931,4.808-10.739,10.739-10.739h210.784c5.931,0,10.739,4.808,10.739,10.739v277.191
					C512,460.303,507.192,465.111,501.261,465.111z"/>
				<path style="fill:#D77F4F;" d="M512,177.181v277.194c0,5.928-4.811,10.739-10.739,10.739h-29.642
					c5.928,0,10.739-4.811,10.739-10.739V177.181c0-5.928-4.811-10.739-10.739-10.739h29.642
					C507.189,166.441,512,171.252,512,177.181z"/>
				<g>
					<path style="fill:#FFF5F5;" d="M472.01,434.896H319.726c-5.714,0-10.346-4.632-10.346-10.346V176.787
						c0-5.714,4.632-10.346,10.346-10.346H472.01c5.714,0,10.346,4.632,10.346,10.346V424.55
						C482.356,430.264,477.724,434.896,472.01,434.896z"/>
				</g>
				<g>
					<path style="fill:#E0D3CE;" d="M482.351,176.789v247.759c0,5.718-4.625,10.343-10.343,10.343h-16.73
						c5.717,0,10.343-4.625,10.343-10.343V176.789c0-5.717-4.625-10.353-10.343-10.353h16.73
						C477.726,166.436,482.351,171.072,482.351,176.789z"/>
				</g>
				<path style="fill:#756F6F;" d="M424.149,200.608h-56.561c-5.931,0-10.739-4.808-10.739-10.739v-23.428h78.04v23.428
					C434.888,195.8,430.08,200.608,424.149,200.608z"/>
			</g>
			<g>
				<path style="fill:#E0D3CE;" d="M446.01,305.902h-90.236c-4.267,0-7.726-3.459-7.726-7.726s3.459-7.726,7.726-7.726h90.236
					c4.267,0,7.726,3.459,7.726,7.726S450.277,305.902,446.01,305.902z"/>
				<path style="fill:#E0D3CE;" d="M446.01,336.632h-90.236c-4.267,0-7.726-3.459-7.726-7.726s3.459-7.726,7.726-7.726h90.236
					c4.267,0,7.726,3.459,7.726,7.726S450.277,336.632,446.01,336.632z"/>
				<path style="fill:#E0D3CE;" d="M446.01,367.362h-90.236c-4.267,0-7.726-3.459-7.726-7.726s3.459-7.726,7.726-7.726h90.236
					c4.267,0,7.726,3.459,7.726,7.726S450.277,367.362,446.01,367.362z"/>
				<path style="fill:#E0D3CE;" d="M446.01,398.092h-90.236c-4.267,0-7.726-3.459-7.726-7.726c0-4.268,3.459-7.726,7.726-7.726
					h90.236c4.267,0,7.726,3.459,7.726,7.726C453.736,394.633,450.277,398.092,446.01,398.092z"/>
			</g>
		</g>
		<g>
			<g>
				<path style="fill:#FAC574;" d="M340.474,269.735H171.521c-15.437,0-27.951-12.514-27.951-27.951V140.478
					c0-51.427,41.69-93.118,93.118-93.118h38.62c51.427,0,93.117,41.69,93.117,93.118v101.306
					C368.425,257.221,355.911,269.735,340.474,269.735z"/>
				<path style="fill:#E8B76B;" d="M368.43,140.474v101.313c0,15.434-12.514,27.949-27.959,27.949H320.26
					c15.435,0,27.949-12.514,27.949-27.949V140.474c0-51.424-41.684-93.118-93.118-93.118h20.221
					C326.736,47.356,368.43,89.05,368.43,140.474z"/>
			</g>
			<path style="fill:#F9B2B3;" d="M372.338,477.396c0,5.707-4.636,10.343-4.172,10.343h-211.97
				c-11.899,0-16.534-4.636-16.534-10.343V332.821c0-35.686,22.242-66.158,53.611-78.345c9.436-3.668,19.697-5.676,30.421-5.676
				h64.613c10.724,0,20.985,2.009,30.421,5.676c31.369,12.187,53.611,42.66,53.611,78.345V477.396z"/>
			<path style="fill:#F37D7E;" d="M263.726,274.471v213.268h-15.453V274.471c0-4.265,3.461-7.726,7.726-7.726
				C260.265,266.745,263.726,270.206,263.726,274.471z"/>
			<path style="fill:#F37D7E;" d="M318.728,254.475c-15.123,17.977-37.756,29.267-62.728,29.267s-47.605-11.291-62.728-29.267
				c9.436-3.668,19.697-5.676,30.421-5.676h64.613C299.031,248.799,309.291,250.808,318.728,254.475z"/>
			<path style="fill:#F37D7E;" d="M372.335,332.826v144.566c0,5.714-4.632,10.346-10.346,10.346h-12.115V332.826
				c0-46.413-37.618-84.031-84.031-84.031h22.461C334.713,248.795,372.335,286.417,372.335,332.826z"/>
			<g>
				<path style="fill:#F37D7E;" d="M256,243.339v28.041l-14.587,11.044l-17.111,12.96c-6.428,4.873-15.71,0.835-16.534-7.191
					l-2.256-21.902l-2.359-22.952H256z"/>
				<path style="fill:#ED6264;" d="M256,243.339v28.041l-14.587,11.044c-13.32-2.4-25.59-8.046-35.902-16.133l-2.359-22.952H256z"/>
				<path style="fill:#F37D7E;" d="M308.848,243.339l-2.359,22.952l-2.256,21.902c-0.824,8.025-10.106,12.063-16.534,7.191
					l-17.111-12.96L256,271.381v-28.041H308.848z"/>
			</g>
			<path style="fill:#ED6264;" d="M308.848,243.339l-2.359,22.952c-10.312,8.087-22.582,13.732-35.902,16.133L256,271.381v-28.041
				H308.848z"/>
			<g>
				<path style="fill:#FDD1A7;" d="M176.475,124.539l10.468,85.707c4.263,34.901,33.896,61.135,69.056,61.135l0,0
					c35.16,0,64.794-26.234,69.056-61.135l10.468-85.707H176.475z"/>
			</g>
			<path style="fill:#FAC574;" d="M348.067,134.088c-0.021,0.124-0.031,0.258-0.052,0.381c-0.999,7.376-3.163,14.629-6.449,21.479
				c-26.97,12.97-60.296,8.262-82.672-14.093c-1.422-1.432-2.771-2.905-4.049-4.43c-1.298,1.525-2.648,2.998-4.08,4.43
				c-22.365,22.355-55.692,27.063-82.662,14.093c-12.96-26.97-8.272-60.307,14.093-82.661
				c19.852-19.842,48.326-25.765,73.328-17.791c1.906-0.855,3.915-1.525,6.006-1.947c8.211-1.69,16.658-1.947,24.93-0.762
				c0.01-0.01,0.021-0.01,0.021,0c2.029,0.288,4.059,0.67,6.068,1.133c12.795,2.946,24.951,9.395,34.913,19.368
				C344.06,89.883,350.921,112.496,348.067,134.088z"/>
			<path style="fill:#E8B76B;" d="M348.067,134.088c-0.021,0.124-0.031,0.258-0.052,0.381c-2.4-37.787-27.351-69.444-61.533-81.683
				c2.029,0.288,4.059,0.67,6.068,1.133c12.795,2.946,24.951,9.395,34.913,19.368C344.06,89.883,350.921,112.496,348.067,134.088z"
				/>
			<path style="fill:#E8B76B;" d="M310.242,170.81c-20.223,0-40.187-7.633-55.407-22.133
				c-24.073,22.936-60.013,28.689-90.076,14.235c-3.846-1.849-5.465-6.466-3.616-10.312c1.849-3.845,6.465-5.465,10.311-3.616
				c24.743,11.897,54.419,6.834,73.848-12.596c1.252-1.253,2.479-2.586,3.646-3.961c1.468-1.729,3.622-2.726,5.891-2.726l0,0
				c2.269,0,4.423,0.997,5.891,2.727c1.198,1.411,2.422,2.744,3.639,3.961c19.428,19.429,49.105,24.49,73.847,12.595
				c3.845-1.847,8.463-0.23,10.311,3.616c1.849,3.846,0.23,8.463-3.616,10.312C333.856,168.227,322.005,170.81,310.242,170.81z"/>
			<path style="fill:#F37D7E;" d="M332.872,365.529v122.21h-15.453v-122.21c0-4.265,3.461-7.726,7.726-7.726
				S332.872,361.264,332.872,365.529z"/>
			<path style="fill:#F37D7E;" d="M196.968,365.529v122.21h-15.453v-122.21c0-4.265,3.461-7.726,7.726-7.726
				C193.506,357.803,196.968,361.264,196.968,365.529z"/>
			<path style="fill:#F37D7E;" d="M310.777,93.918H201.223V20.805c0-5.714,4.632-10.346,10.346-10.346h88.863
				c5.714,0,10.346,4.632,10.346,10.346V93.918z"/>
			<path style="fill:#F9B2B3;" d="M360.563,93.922c0,4.265-3.461,7.726-7.726,7.726H156.763c-4.275,0-7.726-3.461-7.726-7.726
				c0-4.275,3.451-7.726,7.726-7.726h196.074C357.102,86.195,360.563,89.646,360.563,93.922z"/>
			<path style="fill:#F37D7E;" d="M360.563,93.922c0,4.265-3.461,7.726-7.726,7.726h-13.094c-2.493-5.46-5.511-10.631-8.983-15.453
				h22.077C357.102,86.195,360.563,89.646,360.563,93.922z"/>
			<line style="fill:#FF6672;" x1="246.974" y1="363.37" x2="246.974" y2="363.459"/>
			<path style="fill:#FFF5F5;" d="M285.575,374.29c-4.267,0-7.726-3.459-7.726-7.726s3.459-7.771,7.726-7.771
				s7.726,3.413,7.726,7.681v0.09C293.301,370.831,289.842,374.29,285.575,374.29z"/>
			<path style="fill:#FFF5F5;" d="M285.575,411.894c-4.267,0-7.726-3.459-7.726-7.726s3.459-7.772,7.726-7.772
				s7.726,3.414,7.726,7.682v0.09C293.301,408.436,289.842,411.894,285.575,411.894z"/>
			<path style="fill:#FFF5F5;" d="M285.575,449.499c-4.267,0-7.726-3.459-7.726-7.726s3.459-7.771,7.726-7.771
				s7.726,3.413,7.726,7.681v0.09C293.301,446.04,289.842,449.499,285.575,449.499z"/>
			<g>
				<g>
					<circle style="fill:#DAEDFF;" cx="208.7" cy="191.359" r="36.028"/>
					<circle style="fill:#DAEDFF;" cx="303.3" cy="191.359" r="36.028"/>
				</g>
			</g>
			<g>
				<g>
					<line style="fill:#F69583;" x1="298.058" y1="240.763" x2="298.058" y2="240.854"/>
				</g>
			</g>
			<g>
				<g>
					<g>
						<path style="fill:#904D29;" d="M219.351,199.242c-4.267,0-7.726-3.459-7.726-7.726s3.459-7.772,7.726-7.772
							s7.726,3.413,7.726,7.681v0.091C227.077,195.784,223.618,199.242,219.351,199.242z"/>
						<path style="fill:#904D29;" d="M292.649,199.242c-4.267,0-7.726-3.459-7.726-7.726s3.459-7.772,7.726-7.772
							s7.726,3.413,7.726,7.681v0.091C300.375,195.784,296.916,199.242,292.649,199.242z"/>
					</g>
				</g>
				<path style="fill:#F69583;" d="M256,244.593c-12.871,0-24.345-8.642-27.904-21.015c-1.179-4.101,1.189-8.381,5.29-9.561
					c4.101-1.184,8.381,1.189,9.561,5.29c1.665,5.79,7.033,9.834,13.053,9.834c6.02,0,11.388-4.044,13.053-9.834
					c1.18-4.1,5.459-6.468,9.561-5.29c4.101,1.18,6.469,5.461,5.29,9.561C280.345,235.951,268.871,244.593,256,244.593z"/>
			</g>
			<path style="fill:#FFF5F5;" d="M303.3,147.605c-19.03,0-35.253,12.216-41.261,29.215h-12.079
				c-6.008-16.999-22.23-29.215-41.261-29.215c-24.126,0-43.754,19.628-43.754,43.755c0,24.126,19.628,43.754,43.754,43.754
				c23.82,0,43.241-19.136,43.731-42.84h7.139c0.49,23.704,19.911,42.84,43.731,42.84c24.126,0,43.754-19.628,43.754-43.754
				C347.054,167.232,327.427,147.605,303.3,147.605z M208.7,219.66c-15.606,0-28.301-12.696-28.301-28.301
				c0-15.606,12.696-28.302,28.301-28.302s28.301,12.696,28.301,28.302C237.001,206.964,224.305,219.66,208.7,219.66z M303.3,219.66
				c-15.606,0-28.301-12.696-28.301-28.301c0-15.606,12.696-28.302,28.301-28.302c15.606,0,28.301,12.696,28.301,28.302
				C331.602,206.964,318.906,219.66,303.3,219.66z"/>
			<g>
				<path style="fill:#E84649;" d="M446.01,245.185h-3.395v-3.395c0-4.268-3.459-7.726-7.726-7.726
					c-4.267,0-7.726,3.459-7.726,7.726v3.395h-3.396c-4.267,0-7.726,3.459-7.726,7.726s3.459,7.726,7.726,7.726h3.396v3.396
					c0,4.268,3.459,7.726,7.726,7.726c4.267,0,7.726-3.459,7.726-7.726v-3.396h3.395c4.267,0,7.726-3.459,7.726-7.726
					S450.277,245.185,446.01,245.185z"/>
				<path style="fill:#E84649;" d="M256,34.596c-4.267,0-7.726,3.504-7.726,7.772s3.459,7.726,7.726,7.726
					c4.267,0,7.726-3.459,7.726-7.726v-0.091C263.726,38.009,260.267,34.596,256,34.596z"/>
				<path style="fill:#E84649;" d="M275.033,49.226c-4.267,0-7.726,3.504-7.726,7.772s3.459,7.726,7.726,7.726
					c4.267,0,7.726-3.459,7.726-7.726v-0.091C282.759,52.64,279.3,49.226,275.033,49.226z"/>
				<path style="fill:#E84649;" d="M236.967,49.226c-4.267,0-7.726,3.504-7.726,7.772s3.459,7.726,7.726,7.726
					s7.726-3.459,7.726-7.726v-0.091C244.694,52.64,241.234,49.226,236.967,49.226z"/>
			</g>
			<g>
				<path style="fill:#C99D5C;" d="M178.938,501.541H48.678c-6.207,0-11.005-5.449-10.219-11.606l7.791-61.048h135.117l7.791,61.048
					C189.943,496.092,185.145,501.541,178.938,501.541z"/>
				<g>
					<g>
						<path style="fill:#E84649;" d="M113.894,500.76L113.894,500.76c-10.204,0-18.477-8.272-18.477-18.477V446.78h36.953v35.504
							C132.37,492.488,124.098,500.76,113.894,500.76z"/>
					</g>
					<path style="fill:#FBCC85;" d="M177.665,453.032H50.129c-16.236,0-28.258-15.072-24.652-30.895l16.627-72.988
						c4.183-18.327,20.48-31.328,39.281-31.328h65.015c18.801,0,35.109,13.001,39.281,31.328l16.637,72.988
						C205.923,437.961,193.89,453.032,177.665,453.032z"/>
					<path style="fill:#E8B76B;" d="M177.657,453.033h-18.469c16.227,0,28.251-15.07,24.654-30.9l-16.634-72.98
						c-4.182-18.334-20.482-31.338-39.285-31.338h18.48c18.803,0,35.103,13.005,39.275,31.338l16.634,72.98
						C205.919,437.964,193.895,453.033,177.657,453.033z"/>
					<path style="fill:#E8B76B;" d="M170.948,428.38c3.414,0,6.181,2.767,6.181,6.181v16.524c0,0.659-0.021,1.308-0.072,1.947
						h-12.393c0.072-0.639,0.103-1.288,0.103-1.947v-16.524C164.767,431.148,167.535,428.38,170.948,428.38L170.948,428.38z"/>
					<path style="fill:#E8B76B;" d="M56.835,428.38c3.414,0,6.181,2.767,6.181,6.181v16.524c0,0.659,0.031,1.308,0.103,1.947H50.726
						c-0.051-0.649-0.072-1.298-0.072-1.947v-16.524C50.654,431.148,53.421,428.38,56.835,428.38L56.835,428.38z"/>
					<path style="fill:#FBCC85;" d="M140.278,468.637l-17.635-5.987c-5.673-1.926-11.824-1.926-17.497,0l-17.635,5.987
						c-12.02,4.081-24.493-4.857-24.493-17.551v-22.701c0-17.279,14.007-31.286,31.286-31.286h39.181
						c17.279,0,31.286,14.007,31.286,31.286v22.701C164.771,463.78,152.298,472.717,140.278,468.637z"/>
					<g>
						<path style="fill:#5B5555;" d="M142.315,403.339c-4.267,0-7.726-3.459-7.726-7.726s3.459-7.772,7.726-7.772
							c4.267,0,7.726,3.413,7.726,7.681v0.091C150.041,399.88,146.582,403.339,142.315,403.339z"/>
						<path style="fill:#5B5555;" d="M85.472,403.339c-4.267,0-7.726-3.459-7.726-7.726s3.459-7.772,7.726-7.772
							c4.267,0,7.726,3.413,7.726,7.681v0.091C93.199,399.88,89.739,403.339,85.472,403.339z"/>
					</g>
					<g>
						<path style="fill:#756F6F;" d="M127.891,459.804l-6.988,3.6c-4.398,2.266-9.62,2.266-14.017,0l-6.988-3.6
							c-2.751-1.417-4.48-4.252-4.48-7.347v-5.724c0-7.043,5.71-12.753,12.753-12.753h11.447c7.043,0,12.753,5.71,12.753,12.753
							v5.724C132.37,455.552,130.641,458.387,127.891,459.804z"/>
					</g>
					<g>
						<path style="fill:#5B5555;" d="M132.368,446.738v5.718c0,3.101-1.731,5.934-4.481,7.345l-6.985,3.606
							c-3.74,1.926-8.066,2.215-11.981,0.865c0.69-0.237,1.38-0.525,2.04-0.865l6.985-3.606c2.751-1.411,4.481-4.244,4.481-7.345
							v-5.718c0-7.046-5.707-12.754-12.754-12.754h9.941C126.661,433.984,132.368,439.692,132.368,446.738z"/>
					</g>
				</g>
			</g>
		</g>
	</g>
</g>
<g>
</g>
<g>
</g>
<g>
</g>
<g>
</g>
<g>
</g>
<g>
</g>
<g>
</g>
<g>
</g>
<g>
</g>
<g>
</g>
<g>
</g>
<g>
</g>
<g>
</g>
<g>
</g>
<g>
</g>
</svg>
