<?xml version="1.0" encoding="iso-8859-1"?>
<!-- Generator: Adobe Illustrator 23.0.3, SVG Export Plug-In . SVG Version: 6.00 Build 0)  -->
<svg version="1.1" id="Capa_1" xmlns="http://www.w3.org/2000/svg" xmlns:xlink="http://www.w3.org/1999/xlink" x="0px" y="0px"
	 viewBox="0 0 512 512" style="enable-background:new 0 0 512 512;" xml:space="preserve">
<g>
	<g>
		<path style="fill:#9E9797;" d="M37.298,410.298c-4.246,0-7.688-3.442-7.688-7.688v-40.983c0-4.246,3.442-7.688,7.688-7.688
			s7.688,3.442,7.688,7.688v40.983C44.986,406.856,41.544,410.298,37.298,410.298z"/>
		<path style="fill:#9E9797;" d="M226.264,466.622v6.766c0,5.689-4.613,10.302-10.302,10.302H10.302
			C4.613,483.689,0,479.077,0,473.387v-6.766c0-5.689,4.613-10.302,10.302-10.302h205.66
			C221.652,456.32,226.264,460.933,226.264,466.622z"/>
		<path style="fill:#756F6F;" d="M226.264,466.622v6.766c0,5.689-4.613,10.302-10.302,10.302h-84.148v-27.37h84.148
			C221.652,456.32,226.264,460.933,226.264,466.622z"/>
		<g>
			<rect x="63.88" y="285.203" style="fill:#9E9797;" width="117.457" height="61.001"/>
			<rect x="131.818" y="285.203" style="fill:#756F6F;" width="49.519" height="61.001"/>
			<path style="fill:#E0D3CE;" d="M64.293,366.736h-53.99C4.613,366.736,0,362.123,0,356.433v-63.485c0-11.045,8.954-20,20-20
				h44.293c5.69,0,10.303,4.613,10.303,10.303v73.182C74.596,362.123,69.983,366.736,64.293,366.736z"/>
			<path style="fill:#E84649;" d="M49.455,323.392c-4.246,0-7.688-3.442-7.688-7.688V299.69c0-4.246,3.442-7.688,7.688-7.688
				s7.688,3.442,7.688,7.688v16.014C57.143,319.95,53.701,323.392,49.455,323.392z"/>
		</g>
		<g>
			<path style="fill:#C99D5C;" d="M324.117,47.328c0,0,59.83-1.588,59.83,73.87V222.89c0,16.641-13.49,30.131-30.132,30.131h-64.767
				V47.328H324.117z"/>
			<path style="fill:#C99D5C;" d="M227.468,47.328c0,0-59.83-1.588-59.83,73.87V222.89c0,16.641,13.49,30.131,30.131,30.131h47.999
				V47.328H227.468z"/>
			<g>
				<g>
					<circle style="fill:#FFBC8A;" cx="366.275" cy="165.108" r="23.096"/>
				</g>
				<g>
					<circle style="fill:#FFBC8A;" cx="187.155" cy="165.108" r="23.096"/>
				</g>
			</g>
			<path style="fill:#5592D7;" d="M402.413,331.681v156.211c0,6.171-5.003,11.173-11.173,11.173H162.187
				c-6.171,0-11.173-5.003-11.173-11.173V331.681c0-38.328,23.741-71.099,57.312-84.425c10.364-4.111,21.66-6.366,33.479-6.366
				h69.818c11.819,0,23.115,2.255,33.479,6.366C378.672,260.582,402.413,293.354,402.413,331.681z"/>
			<path style="fill:#1475CC;" d="M345.101,247.256c-16.124,20.204-40.931,32.977-68.383,32.977
				c-27.451,0-52.268-12.773-68.393-32.977c10.364-4.111,21.66-6.366,33.479-6.366h69.818
				C323.441,240.89,334.738,243.146,345.101,247.256z"/>
			<path style="fill:#1475CC;" d="M217.223,373.863v125.203h-15.376V373.863c0-4.244,3.444-7.688,7.688-7.688
				C213.779,366.175,217.223,369.619,217.223,373.863z"/>
			<path style="fill:#FDD1A7;" d="M151.014,405.511v82.378c0,6.171,5.008,11.179,11.179,11.179h39.652v-93.557H151.014z"/>
			<path style="fill:#1475CC;" d="M402.415,331.685v156.204c0,6.171-5.008,11.179-11.179,11.179h-13.091V331.685
				c0-50.149-40.647-90.796-90.796-90.796h24.27C361.769,240.889,402.415,281.536,402.415,331.685z"/>
			<path style="fill:#FDD1A7;" d="M402.415,405.511v82.378c0,6.171-5.008,11.179-11.179,11.179h-39.652v-93.557H402.415z"/>
			<path style="fill:#FFBC8A;" d="M402.415,405.511v82.378c0,6.171-5.008,11.179-11.179,11.179h-13.091v-93.557H402.415z"/>
			<g>
				<path style="fill:#A4E540;" d="M232.968,240.942v206.624c0,5.689-4.613,10.302-10.302,10.302h-10.527
					c-5.689,0-10.302-4.613-10.302-10.302V240.942c0-0.851,0.102-1.681,0.307-2.481c1.107-4.459,5.136-7.77,9.943-7.77h10.63
					C228.376,230.691,232.968,235.283,232.968,240.942z"/>
			</g>
			<g>
				<path style="fill:#A4E540;" d="M352.061,240.942v76.286c0,5.689-4.613,10.302-10.302,10.302h-10.528
					c-5.689,0-10.302-4.613-10.302-10.302v-76.286c0-5.658,4.592-10.251,10.251-10.251h10.63c4.613,0,8.508,3.044,9.8,7.237
					C351.908,238.881,352.061,239.896,352.061,240.942z"/>
			</g>
			<g>
				<path style="fill:#9AD63B;" d="M232.968,240.942v206.624c0,5.689-4.613,10.302-10.302,10.302h-10.527
					c-0.287,0-0.574-0.01-0.861-0.041c5.279-0.441,9.431-4.869,9.431-10.261V240.942c0-5.382-4.152-9.8-9.431-10.22
					c0.267-0.02,0.533-0.031,0.81-0.031h10.63C228.376,230.691,232.968,235.283,232.968,240.942z"/>
			</g>
			<g>
				<path style="fill:#9AD63B;" d="M352.061,240.942v76.286c0,5.689-4.613,10.302-10.302,10.302h-10.528
					c-0.287,0-0.574-0.01-0.861-0.041c5.279-0.441,9.431-4.869,9.431-10.261v-76.286c0-5.382-4.152-9.8-9.431-10.22
					c0.267-0.02,0.533-0.031,0.81-0.031h10.63C347.469,230.691,352.061,235.283,352.061,240.942z"/>
			</g>
			<path style="fill:#9AD63B;" d="M232.968,240.942v27.544c-12.557-7.268-23.197-17.6-30.824-30.024
				c1.107-4.459,5.136-7.77,9.943-7.77h10.63C228.376,230.691,232.968,235.283,232.968,240.942z"/>
			<path style="fill:#9AD63B;" d="M351.61,237.928c-7.555,12.506-18.144,22.92-30.68,30.28v-27.267
				c0-5.658,4.592-10.251,10.251-10.251h10.63C346.423,230.691,350.319,233.735,351.61,237.928z"/>
			<path style="fill:#FDD1A7;" d="M226.385,109.271c-18.92,0-33.575,16.554-31.281,35.334l6.995,57.272
				c4.606,37.71,36.625,66.057,74.616,66.057l0,0c37.991,0,70.01-28.346,74.616-66.057l6.995-57.272
				c2.294-18.78-12.361-35.334-31.281-35.334H226.385z"/>
			<g>
				<g>
					<circle style="fill:#DAEDFF;" cx="226.266" cy="177.084" r="38.425"/>
					<circle style="fill:#DAEDFF;" cx="327.162" cy="177.084" r="38.425"/>
				</g>
			</g>
			<g>
				<g>
					<line style="fill:#F69583;" x1="328.952" y1="227.566" x2="328.952" y2="227.663"/>
				</g>
			</g>
			<g>
				<g>
					<g>
						<path style="fill:#1475CC;" d="M237.627,184.941c-4.246,0-7.688-3.442-7.688-7.688s3.442-7.737,7.688-7.737
							c4.246,0,7.688,3.394,7.688,7.64v0.097C245.315,181.499,241.873,184.941,237.627,184.941z"/>
						<path style="fill:#1475CC;" d="M315.803,184.941c-4.246,0-7.688-3.442-7.688-7.688s3.442-7.737,7.688-7.737
							c4.246,0,7.688,3.394,7.688,7.64v0.097C323.491,181.499,320.049,184.941,315.803,184.941z"/>
					</g>
				</g>
				<path style="fill:#F5A871;" d="M276.715,233.308c-13.482,0-25.502-9.052-29.23-22.014c-1.174-4.08,1.183-8.34,5.263-9.514
					c4.08-1.179,8.34,1.183,9.513,5.264c1.844,6.411,7.787,10.888,14.453,10.888s12.609-4.478,14.453-10.888
					c1.173-4.08,5.433-6.438,9.514-5.264c4.08,1.173,6.437,5.433,5.264,9.514C302.217,224.256,290.198,233.308,276.715,233.308z"/>
			</g>
			<path style="fill:#756F6F;" d="M327.161,130.971c-20.193,0-37.384,13.052-43.61,31.159h-13.676
				c-6.227-18.106-23.417-31.159-43.61-31.159c-25.427,0-46.113,20.687-46.113,46.113s20.686,46.113,46.113,46.113
				c25.285,0,45.874-20.459,46.102-45.692h8.691c0.228,25.232,20.817,45.692,46.103,45.692c25.427,0,46.113-20.687,46.113-46.113
				S352.588,130.971,327.161,130.971z M226.265,207.822c-16.948,0-30.737-13.788-30.737-30.737s13.788-30.737,30.737-30.737
				s30.737,13.788,30.737,30.737S243.214,207.822,226.265,207.822z M327.161,207.822c-16.949,0-30.737-13.788-30.737-30.737
				s13.788-30.737,30.737-30.737c16.949,0,30.737,13.788,30.737,30.737S344.11,207.822,327.161,207.822z"/>
			<path style="fill:#1475CC;" d="M351.877,373.863v125.203h-15.376V373.863c0-4.244,3.444-7.688,7.688-7.688
				C348.433,366.175,351.877,369.619,351.877,373.863z"/>
			<path style="fill:#FAC574;" d="M276.964,116.105H173.798c-6.174,0-11.179-5.005-11.179-11.179V91.729
				c0-43.515,35.276-78.792,78.792-78.792h80.313c16.129,0,29.204,13.075,29.204,29.204v0
				C350.928,82.991,317.813,116.105,276.964,116.105z"/>
			<path style="fill:#E8B76B;" d="M350.926,42.141c0,20.432-8.275,38.918-21.667,52.299c-13.381,13.392-31.867,21.667-52.299,21.667
				h-23.258c20.421,0,38.907-8.275,52.299-21.667c13.381-13.381,21.656-31.867,21.656-52.299c0-16.128-13.069-29.208-29.197-29.208
				h23.269C337.857,12.932,350.926,26.013,350.926,42.141z"/>
			<g>
				<g>
					<path style="fill:#FFF5F5;" d="M455.353,499.068H435.38c-5.014,0-9.079-4.065-9.079-9.079V465.94
						c0-5.014,4.065-9.079,9.079-9.079h19.974c5.014,0,9.079,4.065,9.079,9.079v24.049
						C464.432,495.003,460.367,499.068,455.353,499.068z"/>
					<path style="fill:#E0D3CE;" d="M464.43,465.935v24.058c0,5.012-4.059,9.072-9.072,9.072h-16.217
						c5.013,0,9.082-4.06,9.082-9.072v-24.058c0-5.013-4.07-9.072-9.082-9.072h16.217
						C460.371,456.863,464.43,460.922,464.43,465.935z"/>
					<path style="fill:#FFF5F5;" d="M455.353,309.443H435.38c-5.014,0-9.079-4.065-9.079-9.079v-24.049
						c0-5.014,4.065-9.079,9.079-9.079h19.974c5.014,0,9.079,4.065,9.079,9.079v24.049
						C464.432,305.378,460.367,309.443,455.353,309.443z"/>
					<g>
						<path style="fill:#E0D3CE;" d="M464.43,276.317v24.048c0,5.012-4.059,9.082-9.072,9.082h-16.217
							c5.013,0,9.082-4.07,9.082-9.082v-24.048c0-5.013-4.07-9.082-9.082-9.082h16.217
							C460.371,267.235,464.43,271.304,464.43,276.317z"/>
					</g>
				</g>
				<path style="fill:#E84649;" d="M500.381,477.212H390.352c-5.447,0-9.667-4.762-9.013-10.17l20.567-169.962
					c0.552-4.559,4.421-7.988,11.063-7.984h68.895c2.542-0.004,6.411,3.425,6.963,7.984l20.567,169.962
					C510.049,472.449,505.828,477.212,500.381,477.212z"/>
				<path style="fill:#D73337;" d="M500.378,477.211h-19.547c5.447,0,9.669-4.757,9.015-10.168l-20.573-169.966
					c-0.545-4.558-4.412-7.98-9.006-7.98h19.547c4.594,0,8.462,3.423,9.015,7.98l20.564,169.966
					C510.047,472.453,505.826,477.211,500.378,477.211z"/>
				<path style="fill:#D73337;" d="M505.822,432.589l-19.661,3.926l-99.36,19.856c-0.513,0.103-1.015,0.154-1.517,0.154
					c-3.588,0-6.796-2.532-7.524-6.181c-0.841-4.172,1.866-8.221,6.027-9.051l100.519-20.081l18.503-3.7
					c4.162-0.841,8.211,1.865,9.041,6.038C512.68,427.71,509.984,431.759,505.822,432.589z"/>
				<path style="fill:#D73337;" d="M509.246,403.59c-0.461,3.916-3.783,6.796-7.627,6.796c-0.297,0-0.595-0.021-0.902-0.051
					l-17.98-2.091l-88.802-10.333c-4.213-0.492-7.237-4.316-6.745-8.528c0.492-4.213,4.305-7.237,8.529-6.745l85.112,9.902
					l21.67,2.522C506.714,395.554,509.738,399.367,509.246,403.59z"/>
				<path style="fill:#D73337;" d="M496.72,360.414l-19.415,2.932l-81.329,12.28c-0.39,0.062-0.779,0.092-1.158,0.092
					c-3.741,0-7.011-2.737-7.596-6.54c-0.625-4.203,2.255-8.118,6.458-8.754l81.77-12.352l18.974-2.86
					c4.182-0.646,8.118,2.245,8.754,6.448C503.803,355.863,500.922,359.778,496.72,360.414z"/>
				<path style="fill:#D73337;" d="M491.625,331.65l-17.816,2.85l-72.319,11.583c-0.41,0.072-0.82,0.103-1.22,0.103
					c-3.711,0-6.981-2.696-7.585-6.468c-0.677-4.192,2.183-8.139,6.376-8.815l72.903-11.676l17.232-2.757
					c4.213-0.676,8.139,2.184,8.805,6.376C498.678,327.038,495.818,330.974,491.625,331.65z"/>
			</g>
		</g>
	</g>
	<path style="fill:#C82E32;" d="M491.625,331.65l-17.816,2.85l-1.845-15.274l17.232-2.757c4.213-0.676,8.139,2.184,8.805,6.376
		C498.678,327.038,495.818,330.974,491.625,331.65z"/>
	<path style="fill:#C82E32;" d="M496.72,360.414l-19.415,2.932l-1.855-15.273l18.974-2.86c4.182-0.646,8.118,2.245,8.754,6.448
		C503.803,355.863,500.922,359.778,496.72,360.414z"/>
	<path style="fill:#C82E32;" d="M500.717,410.335l-17.98-2.091l-1.906-15.704l21.67,2.522c4.213,0.492,7.237,4.305,6.745,8.529
		c-0.461,3.916-3.783,6.796-7.627,6.796C501.322,410.386,501.025,410.366,500.717,410.335z"/>
	<path style="fill:#C82E32;" d="M505.822,432.589l-19.661,3.926l-1.855-15.305l18.503-3.7c4.162-0.841,8.211,1.865,9.041,6.038
		C512.68,427.71,509.984,431.759,505.822,432.589z"/>
</g>
<g>
</g>
<g>
</g>
<g>
</g>
<g>
</g>
<g>
</g>
<g>
</g>
<g>
</g>
<g>
</g>
<g>
</g>
<g>
</g>
<g>
</g>
<g>
</g>
<g>
</g>
<g>
</g>
<g>
</g>
</svg>
