<?xml version="1.0" encoding="iso-8859-1"?>
<!-- Generator: Adobe Illustrator 23.0.3, SVG Export Plug-In . SVG Version: 6.00 Build 0)  -->
<svg version="1.1" id="Capa_1" xmlns="http://www.w3.org/2000/svg" xmlns:xlink="http://www.w3.org/1999/xlink" x="0px" y="0px"
	 viewBox="0 0 512 512" style="enable-background:new 0 0 512 512;" xml:space="preserve">
<g>
	<g>
		<g>
			<circle style="fill:#9E9797;" cx="98.985" cy="65.049" r="22.683"/>
			<path style="fill:#756F6F;" d="M121.672,65.053c0,12.523-10.159,22.682-22.692,22.682c-3.359,0-6.556-0.731-9.428-2.05
				c7.814-3.583,13.244-11.478,13.244-20.632c0-9.164-5.43-17.06-13.244-20.642c2.872-1.319,6.069-2.05,9.428-2.05
				C111.514,42.361,121.672,52.52,121.672,65.053z"/>
			<polygon style="fill:#E84649;" points="180.057,114.731 180.057,118.466 129.467,140.285 17.912,188.4 17.912,114.731 			"/>
			<polygon style="fill:#FFF5F5;" points="180.068,112.376 180.068,184.807 180.057,184.807 17.902,254.742 17.902,182.311 
				180.057,112.376 			"/>
			<polygon style="fill:#E84649;" points="129.467,200.538 180.057,178.718 180.057,249.718 17.912,319.653 17.912,248.653 			"/>
			<polygon style="fill:#E84649;" points="180.057,353.631 180.057,436.362 17.912,436.362 17.912,423.565 			"/>
			<rect x="129.47" y="114.734" style="fill:#D73337;" width="50.592" height="321.63"/>
			<g>
				<polygon style="fill:#2EA8FC;" points="180.068,240.584 180.068,311.574 180.057,311.574 129.467,333.394 17.902,381.509 
					17.902,310.519 129.467,262.404 180.057,240.584 				"/>
				<polygon style="fill:#FFF5F5;" points="180.068,302.44 180.068,364.307 180.057,364.307 129.467,386.126 17.902,434.241 
					17.902,372.375 129.467,324.26 180.057,302.44 				"/>
				<polygon style="fill:#E0D3CE;" points="129.467,324.26 180.057,302.44 180.057,364.307 129.467,386.126 				"/>
				<polygon style="fill:#0086F9;" points="129.467,262.404 180.057,240.584 180.057,302.44 129.467,324.26 				"/>
				<polygon style="fill:#2EA8FC;" points="180.057,114.731 180.057,118.455 129.467,140.275 17.912,188.4 17.912,114.731 				"/>
				<polygon style="fill:#0086F9;" points="180.057,114.731 180.057,118.455 129.467,140.275 129.467,114.731 				"/>
				<polygon style="fill:#E0D3CE;" points="180.057,118.466 180.057,178.718 129.467,200.538 129.467,140.285 				"/>
			</g>
			<g>
				<path style="fill:#CDBFBB;" d="M197.97,437.712v19.201c0,5.034-4.08,9.113-9.113,9.113H9.113c-5.034,0-9.113-4.08-9.113-9.113
					v-19.201c0-5.034,4.08-9.113,9.113-9.113h179.743C193.89,428.599,197.97,432.678,197.97,437.712z"/>
				<path style="fill:#9E9797;" d="M197.97,437.712v19.201c0,5.034-4.08,9.113-9.113,9.113h-59.39v-37.428h59.39
					C193.89,428.599,197.97,432.678,197.97,437.712z"/>
				<path style="fill:#CDBFBB;" d="M197.97,94.18v19.211c0,5.034-4.08,9.103-9.113,9.103H9.113c-5.034,0-9.113-4.07-9.113-9.103
					V94.18c0-5.024,4.08-9.103,9.113-9.103h179.743C193.89,85.077,197.97,89.156,197.97,94.18z"/>
				<path style="fill:#9E9797;" d="M197.97,94.18v19.211c0,5.034-4.08,9.103-9.113,9.103h-59.39V85.077h59.39
					C193.89,85.077,197.97,89.156,197.97,94.18z"/>
			</g>
		</g>
		<g>
			<g>
				<g>
					<path style="fill:#FBCC85;" d="M374.914,253.385H162.306c-5.682,0-10.288-4.606-10.288-10.288V139.733
						c0-64.392,52.2-116.592,116.592-116.592h0c64.392,0,116.592,52.2,116.592,116.592v103.364
						C385.202,248.779,380.596,253.385,374.914,253.385z"/>
					<path style="fill:#E8B76B;" d="M385.202,139.737v103.365c0,5.679-4.609,10.288-10.288,10.288h-20.103
						c5.689,0,10.288-4.609,10.288-10.288V139.737c0-32.201-13.055-61.346-34.145-82.447
						c-18.878-18.868-44.207-31.306-72.396-33.703c3.313-0.298,6.667-0.442,10.051-0.442c32.201,0,61.346,13.055,82.447,34.145
						C372.147,78.391,385.202,107.536,385.202,139.737z"/>
				</g>
				<path style="fill:#2EA8FC;" d="M384.289,327.203v143.756c0,5.683-4.607,10.291-10.28,10.291H163.221
					c-5.683,0-10.291-4.608-10.291-10.291V327.203c0-34.749,21.211-64.535,51.383-77.13c9.895-4.14,20.764-6.424,32.171-6.424
					h64.251c11.407,0,22.276,2.283,32.181,6.424C363.089,262.678,384.289,292.464,384.289,327.203z"/>
				<path style="fill:#0086F9;" d="M384.291,327.207V470.96c0,5.682-4.606,10.288-10.288,10.288h-12.047v-154.04
					c0-46.151-37.407-83.558-83.558-83.558h22.335C346.881,243.649,384.291,281.06,384.291,327.207z"/>
				<path style="fill:#FFBC8A;" d="M309.717,253.818l-14.604,23.352l-21.263,34.018c-2.385,3.816-7.942,3.816-10.327,0
					l-21.223-33.957l-14.644-23.413l41.031-16.441L309.717,253.818z"/>
				<path style="fill:#0086F9;" d="M332.917,250.073c-14.979,19.293-38.372,31.542-64.302,31.542
					c-25.93,0-49.322-12.25-64.302-31.542c9.895-4.14,20.764-6.424,32.171-6.424h64.251
					C312.142,243.649,323.012,245.933,332.917,250.073z"/>
				<path style="fill:#F5A871;" d="M309.717,253.818l-14.604,23.352c-8.332,2.882-17.253,4.445-26.498,4.445
					c-9.184,0-18.034-1.532-26.315-4.384l-14.644-23.413l41.031-16.441L309.717,253.818z"/>
				<path style="fill:#FDD1A7;" d="M214.47,123.423c-13.254,0-23.52,11.596-21.913,24.752l7.386,60.472
					c4.239,34.704,33.705,60.791,68.668,60.791l0,0c34.962,0,64.429-26.087,68.668-60.791l7.386-60.472
					c1.607-13.156-8.659-24.752-21.913-24.752H214.47z"/>
				<line style="fill:#F69583;" x1="316.685" y1="231.389" x2="316.685" y2="231.478"/>
				<path style="fill:#F69583;" d="M223.624,217.752c-4.177,0-7.564-3.386-7.564-7.564c0-4.177,3.386-7.608,7.564-7.608
					s7.564,3.342,7.564,7.519v0.089C231.188,214.365,227.801,217.752,223.624,217.752z"/>
				<path style="fill:#F69583;" d="M313.598,217.752c-4.177,0-7.564-3.386-7.564-7.564c0-4.177,3.386-7.608,7.564-7.608
					c4.177,0,7.564,3.342,7.564,7.519v0.089C321.162,214.365,317.775,217.752,313.598,217.752z"/>
				<path style="fill:#0086F9;" d="M232.639,193.596c-4.204,0-7.611-3.407-7.611-7.611s3.407-7.656,7.611-7.656
					s7.611,3.363,7.611,7.567v0.089C240.251,190.189,236.843,193.596,232.639,193.596z"/>
				<path style="fill:#0086F9;" d="M304.583,193.596c-4.204,0-7.612-3.407-7.612-7.611s3.407-7.656,7.612-7.656
					s7.611,3.363,7.611,7.567v0.089C312.194,190.189,308.787,193.596,304.583,193.596z"/>
				<path style="fill:#F69583;" d="M268.612,238.108c-12.646,0-23.92-8.491-27.416-20.647c-1.162-4.041,1.171-8.258,5.211-9.419
					c4.038-1.163,8.257,1.171,9.419,5.211c1.631,5.672,6.889,9.632,12.786,9.632c5.897,0,11.154-3.96,12.785-9.632
					c1.162-4.041,5.378-6.369,9.419-5.211c4.04,1.162,6.373,5.379,5.211,9.419C292.53,229.618,281.257,238.108,268.612,238.108z"/>
				<path style="fill:#0086F9;" d="M209.123,342.67v138.58H193.9V342.67c0-4.201,3.41-7.611,7.611-7.611
					C205.723,335.058,209.123,338.468,209.123,342.67z"/>
				<path style="fill:#0086F9;" d="M348.789,342.67v138.58h-15.223V342.67c0-4.201,3.41-7.611,7.611-7.611
					C345.379,335.058,348.789,338.468,348.789,342.67z"/>
				<path style="fill:#FBCC85;" d="M351.695,152.446c-3.189,1.821-33.765,3.508-67.92,4.167L268.61,134.71l-15.36,22.191
					c-32.623-0.031-62.118-1.255-67.725-4.455c-5.679-13.981-4.208-29.639,0.689-44.639h164.791
					C355.902,122.807,357.373,138.465,351.695,152.446z"/>
				<path style="fill:#E8B76B;" d="M253.25,164.513c-0.003,0-0.005,0-0.007,0c-62.035-0.06-68.904-3.98-71.49-5.456
					c-3.651-2.083-4.923-6.731-2.838-10.383c2.062-3.616,6.642-4.898,10.279-2.897c2.913,1.254,18.789,3.337,60.074,3.502
					l13.083-18.902c1.421-2.054,3.76-3.279,6.258-3.279c2.499,0,4.837,1.225,6.259,3.278l12.837,18.542
					c36.156-0.784,57.083-2.433,60.892-3.426c3.529-1.576,7.752-0.25,9.709,3.18c2.084,3.65,0.814,8.299-2.837,10.384
					c-1.725,0.985-3.874,2.211-25.669,3.506c-12.448,0.74-28.74,1.329-45.878,1.66c-2.56,0.057-4.953-1.182-6.404-3.277
					l-8.906-12.863l-9.102,13.151C258.086,163.287,255.747,164.513,253.25,164.513z M347.932,145.83
					c-0.003,0.002-0.007,0.004-0.01,0.006C347.925,145.834,347.929,145.832,347.932,145.83z M189.256,145.812
					c0.014,0.008,0.028,0.015,0.042,0.024C189.284,145.828,189.271,145.82,189.256,145.812z"/>
			</g>
			<path style="fill:#0086F9;" d="M276.216,346.851V481.25h-15.223V346.851c0-4.202,3.41-7.611,7.611-7.611
				C272.816,339.24,276.216,342.649,276.216,346.851z"/>
			<path style="fill:#0086F9;" d="M299.99,388.598c-4.204,0-7.611-3.407-7.611-7.612s3.407-7.656,7.611-7.656
				s7.612,3.364,7.612,7.568v0.088C307.602,385.19,304.194,388.598,299.99,388.598z"/>
			<path style="fill:#0086F9;" d="M299.99,438.464c-4.204,0-7.611-3.407-7.611-7.611s3.407-7.656,7.611-7.656
				s7.612,3.363,7.612,7.567v0.089C307.602,435.057,304.194,438.464,299.99,438.464z"/>
		</g>
	</g>
	<g>
		<g>
			<g>
				<path style="fill:#CDBFBB;" d="M476.161,453.299c-2.622,0-5.173-1.356-6.587-3.787l-47.722-82.079
					c-2.113-3.634-0.88-8.292,2.754-10.405c3.63-2.113,8.292-0.882,10.405,2.754l47.723,82.079c2.113,3.634,0.88,8.292-2.754,10.405
					C478.776,452.967,477.46,453.299,476.161,453.299z"/>
				<path style="fill:#F69583;" d="M485.936,488.858c-14.373,0-26.065-11.693-26.065-26.064c0-14.372,11.693-26.064,26.065-26.064
					c14.372,0,26.064,11.693,26.064,26.064C512,477.166,500.307,488.858,485.936,488.858z M485.936,451.953
					c-5.978,0-10.842,4.863-10.842,10.841c0,5.978,4.864,10.841,10.842,10.841c5.978,0,10.841-4.863,10.841-10.841
					C496.777,456.816,491.914,451.953,485.936,451.953z"/>
			</g>
			<path style="fill:#E0D3CE;" d="M437.134,453.299c-1.299,0-2.615-0.332-3.819-1.033c-3.634-2.113-4.867-6.771-2.754-10.405
				l47.723-82.079c2.112-3.633,6.773-4.869,10.405-2.754c3.634,2.113,4.867,6.771,2.754,10.405l-47.723,82.079
				C442.308,451.943,439.756,453.299,437.134,453.299z"/>
			<path style="fill:#F69583;" d="M427.359,488.858c-14.372,0-26.064-11.693-26.064-26.064c0-14.372,11.693-26.064,26.064-26.064
				c14.372,0,26.064,11.693,26.064,26.064C453.423,477.166,441.73,488.858,427.359,488.858z M427.359,451.953
				c-5.978,0-10.841,4.863-10.841,10.841c0,5.978,4.863,10.841,10.841,10.841c5.978,0,10.841-4.863,10.841-10.841
				C438.2,456.816,433.337,451.953,427.359,451.953z"/>
		</g>
		<path style="fill:#F69583;" d="M482.477,298.68h-34.778c-4.979,0-9.043-3.95-9.25-8.879h37.261c4.204,0,7.611-3.407,7.611-7.611
			s-3.407-7.612-7.611-7.612h-37.28v-9.944h37.28c4.204,0,7.611-3.407,7.611-7.611c0-4.204-3.407-7.612-7.611-7.612h-37.28v-9.944
			h37.28c4.204,0,7.611-3.407,7.611-7.611s-3.407-7.611-7.611-7.611h-37.28v-9.943h37.28c4.204,0,7.611-3.407,7.611-7.611
			s-3.407-7.611-7.611-7.611h-37.28v-9.944h37.28c4.204,0,7.611-3.407,7.611-7.611s-3.407-7.611-7.611-7.611h-37.261
			c0.207-4.929,4.271-8.879,9.25-8.879h34.778c4.204,0,7.611-3.407,7.611-7.611s-3.407-7.611-7.611-7.611h-34.778
			c-13.505,0-24.493,10.987-24.493,24.493v115.107c0,13.505,10.987,24.493,24.493,24.493h34.778c4.204,0,7.611-3.407,7.611-7.611
			S486.681,298.68,482.477,298.68z"/>
	</g>
</g>
<g>
</g>
<g>
</g>
<g>
</g>
<g>
</g>
<g>
</g>
<g>
</g>
<g>
</g>
<g>
</g>
<g>
</g>
<g>
</g>
<g>
</g>
<g>
</g>
<g>
</g>
<g>
</g>
<g>
</g>
</svg>
