<?xml version="1.0" encoding="iso-8859-1"?>
<!-- Generator: Adobe Illustrator 23.0.3, SVG Export Plug-In . SVG Version: 6.00 Build 0)  -->
<svg version="1.1" id="Capa_1" xmlns="http://www.w3.org/2000/svg" xmlns:xlink="http://www.w3.org/1999/xlink" x="0px" y="0px"
	 viewBox="0 0 512 512" style="enable-background:new 0 0 512 512;" xml:space="preserve">
<g>
	<g>
		<g>
			<path style="fill:#9E9797;" d="M474.333,490.902h-23.368c-5.577,0-10.098-4.521-10.098-10.098v-27.408h43.565v27.408
				C484.431,486.381,479.91,490.902,474.333,490.902z"/>
			<g>
				<path style="fill:#CDBFBB;" d="M289.702,462.795h212.195c5.577,0,10.098-4.521,10.098-10.098V231.23
					c0-5.577-4.521-10.098-10.098-10.098H289.702c-5.577,0-10.098,4.521-10.098,10.098v221.467
					C279.604,458.274,284.125,462.795,289.702,462.795z"/>
				<path style="fill:#9E9797;" d="M512,231.226v221.47c0,5.574-4.524,10.098-10.098,10.098h-20.197
					c5.574,0,10.098-4.524,10.098-10.098v-221.47c0-5.574-4.524-10.098-10.098-10.098h20.197
					C507.476,221.127,512,225.652,512,231.226z"/>
				<circle style="fill:#EFE2DD;" cx="395.8" cy="337.327" r="79.633"/>
				<path style="fill:#9E9797;" d="M475.434,345.053h-48.117c-4.268,0-7.726-3.459-7.726-7.726c0-4.267,3.459-7.726,7.726-7.726
					h48.117c4.268,0,7.726,3.459,7.726,7.726C483.16,341.594,479.701,345.053,475.434,345.053z"/>
				<circle style="fill:#CDBFBB;" cx="369.012" cy="337.327" r="21.251"/>
			</g>
		</g>
		<g>
			<g>
				<path style="fill:#00B232;" d="M186.486,414.259H31.367c-4.118,0-7.456-3.338-7.456-7.456v-89.547
					c0-4.118,3.338-7.456,7.456-7.456h155.119c4.118,0,7.456,3.338,7.456,7.456v89.547
					C193.942,410.921,190.604,414.259,186.486,414.259z"/>
				<circle style="fill:#BDEB73;" cx="108.926" cy="362.029" r="27.063"/>
				<g>
					<path style="fill:#BDEB73;" d="M47.039,347.696c-4.268,0-7.726-3.459-7.726-7.726v-8.163c0-4.267,3.459-7.726,7.726-7.726
						s7.726,3.459,7.726,7.726v8.163C54.766,344.237,51.307,347.696,47.039,347.696z"/>
				</g>
			</g>
			<g>
				<circle style="fill:#9E552E;" cx="242.068" cy="50.693" r="48.139"/>
				<path style="fill:#824022;" d="M221.709,60.153c-4.15,0-7.579-3.293-7.717-7.472c-0.255-7.739,2.738-15.317,8.213-20.791
					c3.017-3.018,7.909-3.016,10.927,0.001c3.017,3.018,3.017,7.91-0.001,10.927c-2.499,2.498-3.811,5.821-3.694,9.355
					c0.141,4.265-3.203,7.836-7.468,7.977C221.882,60.151,221.796,60.153,221.709,60.153z"/>
				<path style="fill:#824022;" d="M262.434,59.48c-4.268,0-7.726-3.459-7.726-7.726c0-3.376-1.315-6.55-3.701-8.937
					c-3.018-3.017-3.018-7.909-0.001-10.927c3.018-3.018,7.91-3.018,10.927-0.001c5.306,5.305,8.228,12.36,8.228,19.864
					C270.16,56.021,266.701,59.48,262.434,59.48z"/>
				<g>
					<g>
						<circle style="fill:#FFBC8A;" cx="324.601" cy="174.4" r="21.283"/>
					</g>
					<g>
						<circle style="fill:#FFBC8A;" cx="159.536" cy="174.4" r="21.283"/>
					</g>
				</g>
				<path style="fill:#1475CC;" d="M357.905,336.653V480.6c0,5.687-4.615,10.302-10.302,10.302H136.53
					c-5.687,0-10.302-4.615-10.302-10.302V336.653c0-35.541,22.149-65.901,53.405-78.026c9.385-3.647,19.594-5.645,30.267-5.645
					h64.335c10.673,0,20.882,1.998,30.267,5.645C335.757,270.752,357.905,301.112,357.905,336.653z"/>
				<path style="fill:#0057A1;" d="M304.501,258.627c-15.072,17.863-37.591,29.072-62.429,29.072
					c-24.838,0-47.368-11.208-62.439-29.072c9.385-3.647,19.594-5.645,30.267-5.645h64.335
					C284.907,252.982,295.116,254.98,304.501,258.627z"/>
				<g>
					<g>
						<path style="fill:#0057A1;" d="M311.063,381.703v109.199H295.61V381.703c0-4.265,3.462-7.726,7.726-7.726
							C307.602,373.976,311.063,377.438,311.063,381.703z"/>
						<path style="fill:#0057A1;" d="M184.691,381.703v109.199h-15.453V381.703c0-4.265,3.461-7.726,7.726-7.726
							C181.24,373.976,184.691,377.438,184.691,381.703z"/>
					</g>
				</g>
				<path style="fill:#0057A1;" d="M242.068,400.054c-4.268,0-7.726-3.459-7.726-7.726v-69.322c0-4.267,3.459-7.726,7.726-7.726
					c4.268,0,7.726,3.459,7.726,7.726v69.322C249.795,396.595,246.336,400.054,242.068,400.054z"/>
				<path style="fill:#0057A1;" d="M357.905,336.653V480.6c0,5.687-4.615,10.302-10.302,10.302H335.54V336.653
					c0-46.214-37.457-83.671-83.671-83.671h22.365C320.448,252.982,357.905,290.439,357.905,336.653z"/>
				<path style="fill:#FDD1A7;" d="M357.905,404.686V480.6c0,5.687-4.615,10.302-10.302,10.302h-36.54v-86.216H357.905z"/>
				<path style="fill:#FFBC8A;" d="M357.905,404.686V480.6c0,5.687-4.615,10.302-10.302,10.302H335.54v-86.216H357.905z"/>
				<path style="fill:#FFBC8A;" d="M236.318,327.702l-35.495-47.321l41.245-27.503l41.245,27.503l-35.495,47.321
					C244.943,331.535,239.193,331.535,236.318,327.702z"/>
				<g>
					<path style="fill:#FF9846;" d="M237.57,287.575c-1.741,2.823-3.822,5.491-6.274,7.943
						c-11.208,11.219-27.083,14.907-41.362,11.095c-3.018-11.322-1.329-23.653,5.089-33.872c1.679-2.658,3.678-5.182,5.996-7.5
						c7.119-7.108,16.091-11.198,25.353-12.259c3.276-0.381,6.593-0.381,9.869,0c2.071,0.237,4.121,0.628,6.15,1.164
						C245.379,265.313,243.772,277.459,237.57,287.575z"/>
					<path style="fill:#FF872A;" d="M237.57,287.575c-15.71-0.865-30.339-6.202-42.546-14.835c1.679-2.658,3.678-5.182,5.996-7.5
						c7.119-7.108,16.091-11.198,25.353-12.259h9.869c2.071,0.237,4.121,0.628,6.15,1.164
						C245.379,265.313,243.772,277.459,237.57,287.575z"/>
					<path style="fill:#FF9846;" d="M294.199,306.613c-14.278,3.812-30.153,0.124-41.362-11.095
						c-2.452-2.452-4.533-5.12-6.274-7.943c-6.191-10.127-7.799-22.262-4.821-33.429c2.03-0.536,4.08-0.927,6.15-1.164
						c3.276-0.381,6.593-0.381,9.869,0c9.261,1.061,18.244,5.151,25.353,12.259c2.318,2.318,4.316,4.842,5.985,7.51
						C295.528,282.97,297.228,295.291,294.199,306.613z"/>
					<path style="fill:#FF872A;" d="M289.1,272.751c-12.197,8.623-26.826,13.969-42.536,14.824
						c-6.191-10.127-7.799-22.262-4.821-33.429c2.03-0.536,4.08-0.927,6.15-1.164h9.869c9.261,1.061,18.244,5.151,25.353,12.259
						C285.432,267.559,287.431,270.082,289.1,272.751z"/>
				</g>
				<path style="fill:#FDD1A7;" d="M162.884,129.125l10.424,85.34c4.245,34.752,33.751,60.874,68.761,60.874l0,0
					c35.01,0,64.516-26.122,68.761-60.874l10.424-85.34H162.884z"/>
				<g>
					<g>
						<line style="fill:#F69583;" x1="290.207" y1="209.799" x2="290.207" y2="209.888"/>
					</g>
				</g>
				<g>
					<path style="fill:#AC5E33;" d="M169.746,71.838c-22.264,22.264-26.938,55.447-14.035,82.305
						c26.851,12.91,60.041,8.229,82.305-14.035c22.271-22.271,26.951-55.46,14.041-82.312
						C225.2,44.893,192.017,49.567,169.746,71.838z"/>
					<path style="fill:#C86D3D;" d="M314.391,71.838c22.264,22.264,26.938,55.447,14.035,82.305
						c-26.851,12.91-60.041,8.229-82.305-14.035c-17.836-17.836-24.389-42.674-19.661-65.652
						c2.297-11.163,11.115-19.979,22.278-22.276C271.718,47.452,296.554,54.001,314.391,71.838z"/>
					<path style="fill:#AC5E33;" d="M328.422,154.146c-6.202,2.977-12.733,5.027-19.398,6.13
						c14.598-24.982,13.269-57.371-5.81-81.374c-13.3-16.72-32.502-25.971-52.282-27.135c22.355-3.894,46.193,2.802,63.459,20.068
						C336.653,94.107,341.33,127.289,328.422,154.146z"/>
				</g>
				<g>
					<g>
						<g>
							<path style="fill:#F69583;" d="M197.02,223.582c-4.183,0-7.574-3.391-7.574-7.574c0-4.183,3.391-7.618,7.574-7.618
								c4.183,0,7.574,3.346,7.574,7.529v0.089C204.594,220.191,201.203,223.582,197.02,223.582z"/>
						</g>
						<g>
							<path style="fill:#F69583;" d="M287.117,223.582c-4.183,0-7.574-3.391-7.574-7.574c0-4.183,3.391-7.618,7.574-7.618
								c4.183,0,7.574,3.346,7.574,7.529v0.089C294.69,220.191,291.299,223.582,287.117,223.582z"/>
						</g>
					</g>
					<g>
						<g>
							<path style="fill:#9E552E;" d="M206.048,199.498c-4.268,0-7.726-3.459-7.726-7.726s3.459-7.771,7.726-7.771
								s7.726,3.414,7.726,7.682v0.089C213.775,196.039,210.316,199.498,206.048,199.498z"/>
							<path style="fill:#9E552E;" d="M278.089,199.498c-4.268,0-7.726-3.459-7.726-7.726s3.459-7.771,7.726-7.771
								s7.726,3.414,7.726,7.682v0.089C285.815,196.039,282.356,199.498,278.089,199.498z"/>
						</g>
					</g>
					<path style="fill:#F69583;" d="M242.068,244.071c-12.708,0-24.039-8.533-27.553-20.752c-1.179-4.101,1.189-8.382,5.29-9.561
						c4.101-1.178,8.381,1.189,9.561,5.29c1.621,5.635,6.844,9.57,12.702,9.57c5.858,0,11.081-3.936,12.702-9.57
						c1.18-4.101,5.465-6.47,9.561-5.29c4.101,1.18,6.469,5.46,5.29,9.561C266.108,235.538,254.777,244.071,242.068,244.071z"/>
				</g>
			</g>
		</g>
		<g>
			<path style="fill:#52CC61;" d="M207.111,509.445H9.499c-5.246,0-9.499-4.253-9.499-9.499V393.587
				c0-5.246,4.253-9.499,9.499-9.499h197.613c5.246,0,9.499,4.253,9.499,9.499v106.359
				C216.61,505.192,212.358,509.445,207.111,509.445z"/>
			<path style="fill:#00B232;" d="M216.606,393.591v106.356c0,5.244-4.244,9.498-9.498,9.498h-19.141
				c5.244,0,9.498-4.255,9.498-9.498V393.591c0-5.254-4.255-9.498-9.498-9.498h19.141
				C212.362,384.093,216.606,388.337,216.606,393.591z"/>
			<circle style="fill:#BDEB73;" cx="108.305" cy="446.767" r="34.477"/>
			<g>
				<path style="fill:#BDEB73;" d="M29.465,426.391c-4.268,0-7.726-3.459-7.726-7.726v-10.399c0-4.267,3.459-7.726,7.726-7.726
					s7.726,3.459,7.726,7.726v10.399C37.191,422.932,33.732,426.391,29.465,426.391z"/>
				<path style="fill:#BDEB73;" d="M187.146,492.994c-4.268,0-7.726-3.459-7.726-7.726v-10.399c0-4.267,3.459-7.726,7.726-7.726
					s7.726,3.459,7.726,7.726v10.399C194.872,489.535,191.413,492.994,187.146,492.994z"/>
			</g>
		</g>
	</g>
</g>
<g>
</g>
<g>
</g>
<g>
</g>
<g>
</g>
<g>
</g>
<g>
</g>
<g>
</g>
<g>
</g>
<g>
</g>
<g>
</g>
<g>
</g>
<g>
</g>
<g>
</g>
<g>
</g>
<g>
</g>
</svg>
