<?xml version="1.0" encoding="iso-8859-1"?>
<!-- Generator: Adobe Illustrator 23.0.3, SVG Export Plug-In . SVG Version: 6.00 Build 0)  -->
<svg version="1.1" id="Capa_1" xmlns="http://www.w3.org/2000/svg" xmlns:xlink="http://www.w3.org/1999/xlink" x="0px" y="0px"
	 viewBox="0 0 512 512" style="enable-background:new 0 0 512 512;" xml:space="preserve">
<g>
	<g>
		<g>
			<path style="fill:#FFF5F5;" d="M468.617,77.374v225.452c0,5.625-4.416,10.221-9.979,10.504c-0.179,0.011-0.357,0.011-0.536,0.011
				H281.24c-5.804,0-10.515-4.711-10.515-10.515V77.374c0-5.804,4.711-10.515,10.515-10.515h176.862
				C463.906,66.859,468.617,71.57,468.617,77.374z"/>
			<path style="fill:#E0D3CE;" d="M468.617,77.642v225.452c0,5.625-4.416,10.221-9.979,10.504h-24.284
				c5.804,0,10.515-4.7,10.515-10.515V77.642c0-5.815-4.711-10.515-10.515-10.515h23.748
				C463.906,67.127,468.617,71.838,468.617,77.642z"/>
		</g>
		<g>
			<path style="fill:#E0D3CE;" d="M342.222,117.161h-30.499c-4.268,0-7.726-3.459-7.726-7.726c0-4.268,3.459-7.726,7.726-7.726
				h30.499c4.268,0,7.726,3.459,7.726,7.726C349.949,113.702,346.49,117.161,342.222,117.161z"/>
			<path style="fill:#E0D3CE;" d="M398.923,153.417h-87.199c-4.268,0-7.726-3.459-7.726-7.726s3.459-7.726,7.726-7.726h87.199
				c4.268,0,7.726,3.459,7.726,7.726S403.19,153.417,398.923,153.417z"/>
			<path style="fill:#E0D3CE;" d="M419.326,185.323H311.723c-4.268,0-7.726-3.459-7.726-7.726c0-4.268,3.459-7.726,7.726-7.726
				h107.603c4.268,0,7.726,3.459,7.726,7.726C427.052,181.864,423.594,185.323,419.326,185.323z"/>
		</g>
	</g>
	<g>
		<path style="fill:#9E552E;" d="M212.176,101.5H38.724l-19.43,91.02c-6.581,30.829,16.925,59.882,48.448,59.882h115.416
			c31.523,0,55.029-29.053,48.448-59.882L212.176,101.5z"/>
	</g>
	<circle style="fill:#FFBC8A;" cx="214.832" cy="145.064" r="23.049"/>
	<circle style="fill:#FFBC8A;" cx="36.071" cy="145.064" r="23.049"/>
	<path style="fill:#1475CC;" d="M250.901,318.213V474.11c0,6.15-4.996,11.157-11.157,11.157H11.157C4.996,485.267,0,480.26,0,474.11
		V318.213c0-40.27,26.27-74.41,62.614-86.195c6.799-2.215,13.949-3.647,21.345-4.172c2.194-0.165,4.42-0.247,6.655-0.247h69.671
		c2.235,0,4.461,0.082,6.655,0.247c7.397,0.525,14.546,1.957,21.345,4.172C224.631,243.803,250.901,277.943,250.901,318.213z"/>
	<path style="fill:#0057A1;" d="M250.899,318.215v155.89c0,6.158-4.998,11.157-11.157,11.157h-16.155V318.215
		c0-50.048-40.565-90.613-90.613-90.613h27.311C210.334,227.602,250.899,268.167,250.899,318.215z"/>
	<path style="fill:#0057A1;" d="M205.45,285.177c1.117,3.46,0.327,7.253-2.078,9.98l-63.257,71.711l-14.67,17.431l-14.659-17.421
		l-63.258-71.722c-2.405-2.727-3.195-6.519-2.077-9.979l15.237-47.195l1.927-5.965c6.799-2.215,13.949-3.647,21.345-4.172
		c2.194-0.165,4.42-0.247,6.655-0.247h69.671c2.235,0,4.461,0.082,6.655,0.247c7.397,0.525,14.546,1.957,21.345,4.172l1.926,5.965
		L205.45,285.177z"/>
	<path style="fill:#004480;" d="M190.213,237.982c-16.081,17.74-39.281,28.752-64.757,28.752s-48.676-11.013-64.768-28.752
		l1.927-5.965c6.799-2.215,13.949-3.647,21.345-4.172c2.194-0.165,4.42-0.247,6.655-0.247h69.671c2.235,0,4.461,0.082,6.655,0.247
		c7.397,0.525,14.546,1.957,21.345,4.172L190.213,237.982z"/>
	<path style="fill:#FFF5F5;" d="M166.941,227.845l-6.058,31.369l-20.768,107.654l-9.127,35.758c-1.463,5.738-9.612,5.738-11.085,0
		l-9.117-35.747L90.007,259.204l-6.047-31.359c2.194-0.165,4.42-0.247,6.655-0.247h69.671
		C162.521,227.598,164.746,227.68,166.941,227.845z"/>
	<path style="fill:#E0D3CE;" d="M166.941,227.845l-6.058,31.369c-10.868,4.852-22.88,7.52-35.428,7.52
		c-12.558,0-24.58-2.678-35.449-7.531l-6.047-31.359c2.194-0.165,4.42-0.247,6.655-0.247h69.671
		C162.521,227.598,164.746,227.68,166.941,227.845z"/>
	<path style="fill:#FDD1A7;" d="M40.365,101.5l10.62,86.954c4.597,37.635,36.551,65.924,74.466,65.924
		c37.914,0,69.869-28.289,74.466-65.924l10.621-86.954H40.365z"/>
	<line style="fill:#F69583;" x1="177.584" y1="183.4" x2="177.584" y2="183.497"/>
	<path style="fill:#AC5E33;" d="M47.128,33.993C23.017,58.104,17.955,94.04,31.929,123.127
		c29.079,13.981,65.023,8.912,89.134-15.199c24.118-24.118,29.187-60.062,15.206-89.141C107.183,4.813,71.247,9.874,47.128,33.993z"
		/>
	<path style="fill:#C86D3D;" d="M203.774,33.993c24.111,24.111,29.173,60.047,15.199,89.134
		c-29.079,13.981-65.023,8.912-89.134-15.199c-19.315-19.315-26.413-46.215-21.293-71.099c2.488-12.089,12.037-21.637,24.127-24.124
		C157.561,7.584,184.458,14.676,203.774,33.993z"/>
	<path style="fill:#AC5E33;" d="M218.969,123.13c-6.716,3.224-13.79,5.444-21.008,6.638c15.809-27.055,14.37-62.131-6.292-88.125
		c-14.403-18.107-35.199-28.126-56.619-29.386c24.21-4.217,50.026,3.035,68.724,21.733C227.883,58.11,232.949,94.045,218.969,123.13
		z"/>
	<path style="fill:#F69583;" d="M76.666,198.327c-4.53,0-8.202-3.672-8.202-8.202c0-4.53,3.672-8.25,8.202-8.25
		c4.53,0,8.202,3.624,8.202,8.154v0.097C84.868,194.654,81.195,198.327,76.666,198.327z"/>
	<path style="fill:#F69583;" d="M174.237,198.327c-4.53,0-8.202-3.672-8.202-8.202c0-4.53,3.672-8.25,8.202-8.25
		s8.202,3.624,8.202,8.154v0.097C182.439,194.654,178.767,198.327,174.237,198.327z"/>
	<path style="fill:#904D29;" d="M86.443,171.604c-4.268,0-7.726-3.459-7.726-7.726c0-4.268,3.459-7.775,7.726-7.775
		c4.268,0,7.726,3.41,7.726,7.678v0.097C94.169,168.145,90.71,171.604,86.443,171.604z"/>
	<path style="fill:#904D29;" d="M164.461,171.604c-4.268,0-7.726-3.459-7.726-7.726c0-4.268,3.459-7.775,7.726-7.775
		c4.268,0,7.726,3.41,7.726,7.678v0.097C172.187,168.145,168.728,171.604,164.461,171.604z"/>
	<path style="fill:#F69583;" d="M125.452,219.875c-13.48,0-25.497-9.051-29.223-22.011c-1.179-4.101,1.189-8.381,5.291-9.56
		c4.095-1.18,8.381,1.189,9.56,5.291c1.833,6.375,7.743,10.828,14.372,10.828c6.628,0,12.538-4.453,14.372-10.829
		c1.181-4.102,5.464-6.466,9.561-5.29c4.101,1.18,6.469,5.461,5.29,9.561C150.947,210.824,138.93,219.875,125.452,219.875z"/>
	<path style="fill:#0057A1;" d="M208.066,360.306v124.961h-15.453V360.306c0-4.265,3.451-7.726,7.726-7.726
		C204.604,352.579,208.066,356.041,208.066,360.306z"/>
	<path style="fill:#0057A1;" d="M58.288,360.306v124.961H42.835V360.306c0-4.265,3.461-7.726,7.726-7.726
		C54.837,352.579,58.288,356.041,58.288,360.306z"/>
	<path style="fill:#C86D3D;" d="M499.679,360.059v128.556c0,6.789-5.501,12.29-12.29,12.29H251.951
		c-6.789,0-12.29-5.501-12.29-12.29V360.059H499.679z"/>
	<path style="fill:#AC5E33;" d="M499.68,360.06v128.555c0,6.785-5.507,12.291-12.291,12.291h-25.492
		c6.785,0,12.291-5.507,12.291-12.291V360.06H499.68z"/>
	<path style="fill:#AC5E33;" d="M499.679,360.059v17.822c-3.76,1.308-7.809,2.019-12.012,2.019H251.673
		c-4.203,0-8.252-0.711-12.012-2.019v-17.822H499.679z"/>
	<path style="fill:#FBCC85;" d="M415.718,313.515c-4.268,0-7.726-3.459-7.726-7.726v-33.264c0-0.891-0.725-1.616-1.617-1.616
		h-70.952c-0.891,0-1.616,0.724-1.616,1.616v33.264c0,4.268-3.459,7.726-7.726,7.726s-7.726-3.459-7.726-7.726v-33.264
		c0-9.411,7.657-17.068,17.068-17.068h70.952c9.412,0,17.069,7.657,17.069,17.068v33.264
		C423.445,310.056,419.986,313.515,415.718,313.515z"/>
	<path style="fill:#DB885D;" d="M487.669,367.535H251.672c-13.438,0-24.331-10.893-24.331-24.331v-30.709
		c0-6.788,5.503-12.291,12.291-12.291h260.076c6.788,0,12.291,5.503,12.291,12.291v30.709
		C512,356.642,501.107,367.535,487.669,367.535z"/>
	<path style="fill:#C86D3D;" d="M511.996,312.493v30.716c0,13.435-10.89,24.325-24.325,24.325h-25.492
		c13.434,0,24.337-10.89,24.337-24.325v-30.716c0-6.785-5.507-12.291-12.291-12.291h25.48
		C506.501,300.202,511.996,305.708,511.996,312.493z"/>
	<path style="fill:#FBCC85;" d="M370.9,416.661L370.9,416.661c-11.088,0-20.076-8.988-20.076-20.076v-38.063
		c0-4.81,3.899-8.709,8.709-8.709h22.735c4.81,0,8.709,3.899,8.709,8.709v38.063C390.976,407.672,381.987,416.661,370.9,416.661z"/>
	<path style="fill:#E8B76B;" d="M390.976,358.524v38.061c0,11.085-8.989,20.073-20.073,20.073c-3.66,0-7.091-0.98-10.042-2.69
		c6.006-3.473,10.042-9.958,10.042-17.383v-38.061c0-4.807-3.9-8.707-8.707-8.707h20.073
		C387.076,349.817,390.976,353.717,390.976,358.524z"/>
</g>
<g>
</g>
<g>
</g>
<g>
</g>
<g>
</g>
<g>
</g>
<g>
</g>
<g>
</g>
<g>
</g>
<g>
</g>
<g>
</g>
<g>
</g>
<g>
</g>
<g>
</g>
<g>
</g>
<g>
</g>
</svg>
