<?xml version="1.0" encoding="iso-8859-1"?>
<!-- Generator: Adobe Illustrator 23.0.3, SVG Export Plug-In . SVG Version: 6.00 Build 0)  -->
<svg version="1.1" id="Capa_1" xmlns="http://www.w3.org/2000/svg" xmlns:xlink="http://www.w3.org/1999/xlink" x="0px" y="0px"
	 viewBox="0 0 512 512" style="enable-background:new 0 0 512 512;" xml:space="preserve">
<g>
	<g>
		<g>
			<g>
				<g>
					<path style="fill:#E84649;" d="M461.718,80.741h-55.48v-55.48c0-6.879-5.576-12.455-12.455-12.455h-62.819
						c-6.879,0-12.455,5.576-12.455,12.455v55.48h-55.48c-6.879,0-12.455,5.576-12.455,12.455v62.819
						c0,6.879,5.576,12.455,12.455,12.455h55.48v55.48c0,6.879,5.576,12.455,12.455,12.455h62.819
						c6.879,0,12.455-5.576,12.455-12.455v-55.48h55.48c6.879,0,12.455-5.576,12.455-12.455V93.195
						C474.173,86.317,468.596,80.741,461.718,80.741z"/>
				</g>
				<g>
					<g>
						<path style="fill:#E19A77;" d="M501.643,477.252H298.366c-5.72,0-10.357-4.637-10.357-10.357V208.627
							c0-5.72,4.637-10.357,10.357-10.357h203.278c5.72,0,10.357,4.637,10.357,10.357v258.268
							C512,472.615,507.363,477.252,501.643,477.252z"/>
						<path style="fill:#D77F4F;" d="M512,208.628v258.271c0,5.717-4.64,10.357-10.357,10.357h-28.586
							c5.717,0,10.357-4.64,10.357-10.357V208.628c0-5.717-4.64-10.357-10.357-10.357h28.586C507.36,198.271,512,202.91,512,208.628
							z"/>
						<g>
							<path style="fill:#FFF5F5;" d="M473.435,448.113H326.574c-5.51,0-9.978-4.467-9.978-9.978V208.248
								c0-5.51,4.467-9.978,9.978-9.978h146.861c5.51,0,9.978,4.467,9.978,9.978v229.887
								C483.412,443.646,478.945,448.113,473.435,448.113z"/>
						</g>
						<path style="fill:#756F6F;" d="M427.278,231.221h-54.547c-5.72,0-10.357-4.637-10.357-10.357V198.27h75.261v22.593
							C437.635,226.584,432.998,231.221,427.278,231.221z"/>
					</g>
					<g>
						<path style="fill:#E84649;" d="M448.361,264.884h-3v-2.999c0-4.267-3.459-7.726-7.726-7.726s-7.726,3.459-7.726,7.726v2.999
							h-3c-4.267,0-7.726,3.459-7.726,7.726c0,4.267,3.459,7.726,7.726,7.726h3v3c0,4.267,3.459,7.726,7.726,7.726
							s7.726-3.459,7.726-7.726v-3h3c4.267,0,7.726-3.459,7.726-7.726C456.087,268.343,452.628,264.884,448.361,264.884z"/>
						<path style="fill:#CDBFBB;" d="M448.361,323.988h-87.023c-4.267,0-7.726-3.459-7.726-7.726c0-4.267,3.459-7.726,7.726-7.726
							h87.023c4.267,0,7.726,3.459,7.726,7.726C456.087,320.529,452.628,323.988,448.361,323.988z"/>
						<path style="fill:#CDBFBB;" d="M448.361,353.624h-87.023c-4.267,0-7.726-3.459-7.726-7.726c0-4.267,3.459-7.726,7.726-7.726
							h87.023c4.267,0,7.726,3.459,7.726,7.726C456.087,350.164,452.628,353.624,448.361,353.624z"/>
						<path style="fill:#CDBFBB;" d="M448.361,383.26h-87.023c-4.267,0-7.726-3.459-7.726-7.726c0-4.267,3.459-7.726,7.726-7.726
							h87.023c4.267,0,7.726,3.459,7.726,7.726C456.087,379.8,452.628,383.26,448.361,383.26z"/>
						<path style="fill:#CDBFBB;" d="M448.361,412.895h-87.023c-4.267,0-7.726-3.459-7.726-7.726c0-4.267,3.459-7.726,7.726-7.726
							h87.023c4.267,0,7.726,3.459,7.726,7.726C456.087,409.436,452.628,412.895,448.361,412.895z"/>
					</g>
				</g>
			</g>
			<g>
				<path style="fill:#B0E5B1;" d="M320.077,319.912v171.515c0,5.481-4.44,9.931-9.931,9.931H9.931c-5.481,0-9.931-4.45-9.931-9.931
					V319.912c0-41.722,31.06-76.192,71.33-81.539c3.575-0.474,7.222-0.721,10.93-0.721h155.557c3.709,0,7.355,0.247,10.93,0.721
					C289.017,243.72,320.077,278.19,320.077,319.912z"/>
				<path style="fill:#77D47D;" d="M160.04,427.941c-4.267,0-7.726-3.459-7.726-7.726V279.55c0-4.267,3.459-7.726,7.726-7.726
					s7.726,3.459,7.726,7.726v140.664C167.766,424.481,164.307,427.941,160.04,427.941z"/>
				<path style="fill:#77D47D;" d="M320.075,319.907v171.521c0,5.48-4.438,9.928-9.928,9.928h-21.295
					c5.48,0,9.928-4.448,9.928-9.928V319.907c0-45.429-36.832-82.261-82.261-82.261h21.295
					C283.253,237.646,320.075,274.478,320.075,319.907z"/>
				<g>
					<path style="fill:#77D47D;" d="M62.831,351.982v149.376H47.378V351.982c0-4.265,3.451-7.726,7.726-7.726
						C59.369,344.256,62.831,347.717,62.831,351.982z"/>
					<path style="fill:#77D47D;" d="M272.534,351.982v149.376h-15.453V351.982c0-4.265,3.451-7.726,7.726-7.726
						C269.073,344.256,272.534,347.717,272.534,351.982z"/>
				</g>
				<g>
					<g>
						<circle style="fill:#FFBC8A;" cx="261.028" cy="158.717" r="22.97"/>
					</g>
					<g>
						<circle style="fill:#FFBC8A;" cx="59.051" cy="158.717" r="22.97"/>
					</g>
					<path style="fill:#77D47D;" d="M248.748,238.374c-16.823,31.946-50.335,53.538-88.709,53.538
						c-38.364,0-71.876-21.593-88.709-53.538c3.575-0.474,7.222-0.721,10.93-0.721h155.557
						C241.526,237.652,245.173,237.9,248.748,238.374z"/>
					<path style="fill:#FDD1A7;" d="M160.04,279.55L160.04,279.55c-46.731,0-85.282-36.586-87.725-83.253L66.356,82.465h187.367
						l-5.959,113.832C245.322,242.964,206.771,279.55,160.04,279.55z"/>
					<g>
						<g>
							<g>
								<g>
									<g>
										<line style="fill:none;" x1="211.143" y1="193.885" x2="211.143" y2="193.98"/>
									</g>
								</g>
							</g>
						</g>
					</g>
					<g>
						<g>
							<g>
								<path style="fill:#AC5E33;" d="M119.091,196.103c-4.267,0-7.726-3.459-7.726-7.726c0-4.267,3.459-7.777,7.726-7.777
									c4.267,0,7.726,3.408,7.726,7.676v0.102C126.817,192.644,123.358,196.103,119.091,196.103z"/>
								<path style="fill:#AC5E33;" d="M200.989,196.103c-4.267,0-7.726-3.459-7.726-7.726c0-4.267,3.459-7.777,7.726-7.777
									s7.726,3.408,7.726,7.676v0.102C208.715,192.644,205.256,196.103,200.989,196.103z"/>
							</g>
						</g>
						<path style="fill:#F5A871;" d="M160.04,246.775c-13.979,0-26.442-9.386-30.307-22.826c-1.179-4.101,1.189-8.381,5.29-9.561
							c4.1-1.181,8.381,1.189,9.561,5.29c1.971,6.856,8.327,11.644,15.456,11.644c7.129,0,13.485-4.788,15.456-11.644
							c1.18-4.1,5.457-6.47,9.561-5.29c4.101,1.18,6.469,5.46,5.29,9.561C186.482,237.388,174.019,246.775,160.04,246.775z"/>
					</g>
					<path style="fill:#DB885D;" d="M96.926,123.849c-5.64,0-10.243,4.608-10.242,10.248c0.001,7.429-1.435,17.168-7.965,23.059
						c-6.205,5.598-16.182,1.642-17.04-6.671c-1.353-13.093-2.703-36.342-0.123-66.389c2.058-23.976,21.813-42.572,45.872-43.049
						h104.226c24.06,0.477,43.814,19.073,45.872,43.049c2.579,30.047,1.229,53.296-0.123,66.389
						c-0.859,8.312-10.835,12.268-17.04,6.671c-6.531-5.891-7.966-15.63-7.965-23.059c0.001-5.64-4.602-10.248-10.242-10.248H96.926
						z"/>
					<path style="fill:#AC5E33;" d="M257.401,150.482c-0.855,8.314-10.837,12.27-17.039,6.676c-0.989-0.896-1.865-1.875-2.627-2.926
						c0.587-1.113,0.979-2.369,1.123-3.75c1.35-13.094,2.699-36.334,0.124-66.385c-2.06-23.972-21.809-42.567-45.874-43.051h18.543
						c24.065,0.484,43.814,19.079,45.874,43.051C260.1,114.148,258.751,137.388,257.401,150.482z"/>
				</g>
				<g>
					<path style="fill:#E3F6C5;" d="M214.151,86.905H105.929V14.683c0-5.644,4.576-10.22,10.22-10.22h87.781
						c5.644,0,10.22,4.576,10.22,10.22V86.905z"/>
					<path style="fill:#E84649;" d="M173.954,37.957h-6.188v-6.188c0-4.267-3.459-7.726-7.726-7.726s-7.726,3.459-7.726,7.726v6.188
						h-6.188c-4.267,0-7.726,3.459-7.726,7.726s3.459,7.726,7.726,7.726h6.188v6.189c0,4.267,3.459,7.726,7.726,7.726
						s7.726-3.459,7.726-7.726V53.41h6.188c4.267,0,7.726-3.459,7.726-7.726S178.221,37.957,173.954,37.957z"/>
					<path style="fill:#B0E5B1;" d="M263.51,86.906c0,4.265-3.461,7.726-7.726,7.726H64.304c-4.275,0-7.726-3.461-7.726-7.726
						c0-4.265,3.451-7.726,7.726-7.726h191.48C260.049,79.18,263.51,82.641,263.51,86.906z"/>
					<path style="fill:#77D47D;" d="M263.51,86.906c0,4.265-3.461,7.726-7.726,7.726h-16.04c-0.206-3.41-0.453-6.923-0.762-10.539
						c-0.144-1.669-0.371-3.307-0.68-4.914h17.482C260.049,79.18,263.51,82.641,263.51,86.906z"/>
				</g>
			</g>
		</g>
		<g>
			<path style="fill:#E3F6C5;" d="M197.967,340.443c-4.267,0-7.726-3.459-7.726-7.726c0-4.267,3.459-7.771,7.726-7.771
				s7.726,3.415,7.726,7.682v0.089C205.694,336.984,202.234,340.443,197.967,340.443z"/>
			<path style="fill:#E3F6C5;" d="M197.967,377.59c-4.267,0-7.726-3.459-7.726-7.726c0-4.267,3.459-7.771,7.726-7.771
				s7.726,3.415,7.726,7.682v0.089C205.694,374.131,202.234,377.59,197.967,377.59z"/>
			<path style="fill:#E3F6C5;" d="M197.967,414.737c-4.267,0-7.726-3.459-7.726-7.726c0-4.267,3.459-7.77,7.726-7.77
				s7.726,3.415,7.726,7.682v0.088C205.694,411.278,202.234,414.737,197.967,414.737z"/>
		</g>
		<g>
			<path style="fill:#E84649;" d="M166.805,500.846L166.805,500.846c-8.921-8.921-8.921-23.386,0-32.307l26.919-26.919
				c8.921-8.921,23.386-8.921,32.307,0l0,0c8.921,8.921,8.921,23.386,0,32.307l-26.919,26.919
				C190.191,509.768,175.727,509.768,166.805,500.846z"/>
			<path style="fill:#D73337;" d="M232.718,457.771c0,5.852-2.225,11.693-6.686,16.153l-26.919,26.918
				c-8.921,8.922-23.385,8.922-32.306,0c-1.762-1.762-3.173-3.729-4.234-5.841c8.571,4.337,19.306,2.926,26.465-4.234l26.919-26.919
				c4.461-4.461,6.686-10.302,6.686-16.153c0-3.544-0.814-7.088-2.452-10.312c2.112,1.061,4.08,2.472,5.841,4.234
				C230.493,446.079,232.718,451.92,232.718,457.771z"/>
			<path style="fill:#E3F6C5;" d="M212.578,487.389l-13.464,13.464c-8.921,8.911-23.385,8.911-32.306,0
				c-1.762-1.762-3.173-3.739-4.234-5.851c-4.337-8.571-2.926-19.306,4.224-26.465l13.464-13.465l22.242,22.242L212.578,487.389z"/>
			<path style="fill:#D3F1A3;" d="M212.578,487.389l-13.464,13.464c-8.921,8.911-23.385,8.911-32.306,0
				c-1.762-1.762-3.173-3.739-4.234-5.851c8.571,4.337,19.306,2.926,26.465-4.234l13.464-13.454L212.578,487.389z"/>
		</g>
		<g>
			<path style="fill:#E84649;" d="M373.145,493.437L373.145,493.437c-8.244,9.551-22.67,10.61-32.22,2.366l-28.818-24.875
				c-9.551-8.244-10.61-22.67-2.366-32.22l0,0c8.244-9.551,22.67-10.61,32.22-2.366l28.818,24.875
				C380.33,469.461,381.389,483.886,373.145,493.437z"/>
			<path style="fill:#E3F6C5;" d="M373.142,493.436c-1.72,1.998-3.719,3.626-5.882,4.873c-8.18,4.718-18.79,4.018-26.331-2.503
				l-14.423-12.434l22.139-25.641l7.726-8.952l14.412,12.445C380.333,469.453,381.383,483.886,373.142,493.436z"/>
		</g>
	</g>
	<path style="fill:#D73337;" d="M373.142,493.436c-1.72,1.998-3.719,3.626-5.882,4.873c5.388-9.303,3.585-21.428-4.862-28.711
		l-28.814-24.879c-4.316-3.729-9.622-5.553-14.917-5.553c-3.956,0-7.901,1.03-11.414,3.039c0.711-1.216,1.535-2.39,2.493-3.492
		c4.512-5.233,10.889-7.922,17.297-7.922c5.285,0,10.601,1.823,14.917,5.553l28.824,24.868
		C380.333,469.464,381.394,483.886,373.142,493.436z"/>
	<path style="fill:#D3F1A3;" d="M373.142,493.436c-1.72,1.998-3.719,3.626-5.882,4.873c5.388-9.303,3.585-21.428-4.862-28.711
		l-13.753-11.868l7.726-8.952l14.412,12.445C380.333,469.453,381.383,483.886,373.142,493.436z"/>
</g>
<g>
</g>
<g>
</g>
<g>
</g>
<g>
</g>
<g>
</g>
<g>
</g>
<g>
</g>
<g>
</g>
<g>
</g>
<g>
</g>
<g>
</g>
<g>
</g>
<g>
</g>
<g>
</g>
<g>
</g>
</svg>
