<?xml version="1.0" encoding="iso-8859-1"?>
<!-- Generator: Adobe Illustrator 23.0.3, SVG Export Plug-In . SVG Version: 6.00 Build 0)  -->
<svg version="1.1" id="Capa_1" xmlns="http://www.w3.org/2000/svg" xmlns:xlink="http://www.w3.org/1999/xlink" x="0px" y="0px"
	 viewBox="0 0 512 512" style="enable-background:new 0 0 512 512;" xml:space="preserve">
<g>
	<g>
		<g>
			<g>
				<path style="fill:#65BAFC;" d="M265.415,29.65l70.393,142.633c1.529,3.099,4.485,5.246,7.905,5.743l159.286,23.146
					c8.249,1.199,11.878,11.07,6.371,17.327l-98.072,111.418c-2.097,2.382-3.003,5.584-2.467,8.712l27.161,158.361
					c1.436,8.371-7.144,14.893-14.826,11.271l-160.688-75.774c-2.836-1.337-6.12-1.337-8.956,0L90.834,508.26
					c-7.682,3.622-16.261-2.9-14.826-11.271l27.161-158.361c0.536-3.127-0.37-6.33-2.467-8.712L2.63,218.498
					c-5.507-6.257-1.878-16.128,6.371-17.327l159.286-23.146c3.42-0.497,6.376-2.645,7.905-5.743L246.585,29.65
					C250.436,21.847,261.564,21.847,265.415,29.65z"/>
			</g>
			<path style="fill:#65BAFC;" d="M131.696,93.858c0-0.031,0.005-0.062,0.005-0.093V10.442c0-2.409-1.124-4.681-3.04-6.142
				c-1.916-1.462-4.402-1.947-6.727-1.31L50.455,22.564c-3.358,0.92-5.686,3.971-5.686,7.452v65.691
				c-0.195-0.039-0.386-0.085-0.583-0.12c-6.085-1.094-13.192-0.326-20.013,2.156c-16.003,5.824-25.041,18.54-21.024,29.578
				c2.766,7.598,10.779,11.827,20.725,11.827c4.504,0,9.405-0.868,14.392-2.683c13.717-4.992,22.308-15.048,21.955-24.77V35.911
				l56.027-15.342v57.368c-6.004-1.213-13.202-0.609-20.597,2.083c-16.002,5.825-25.04,18.54-21.024,29.578
				c2.766,7.598,10.779,11.827,20.725,11.827c4.504,0,9.405-0.868,14.392-2.683C123.517,113.731,132.121,103.616,131.696,93.858z"/>
			<path style="fill:#E84649;" d="M457.308,55.431c0-4.267-3.459-7.726-7.726-7.726s-7.726,3.459-7.726,7.726v65.644
				c-6.004-1.213-13.201-0.609-20.596,2.082c-6.821,2.483-12.758,6.465-16.717,11.213c-4.862,5.831-6.433,12.526-4.307,18.366
				c2.766,7.597,10.78,11.827,20.725,11.827c4.504,0,9.404-0.868,14.392-2.683c6.821-2.483,12.758-6.465,16.716-11.212
				c3.372-4.044,5.158-8.502,5.229-12.803c0.002-0.064,0.01-0.127,0.01-0.191V55.431z"/>
			<g>
				<g>
					<path style="fill:#E84649;" d="M362.448,289.397H149.552c-5.69,0-10.302-4.612-10.302-10.302V163.839
						c0-64.479,52.271-116.75,116.75-116.75h0c64.479,0,116.75,52.271,116.75,116.75v115.256
						C372.75,284.784,368.138,289.397,362.448,289.397z"/>
					<path style="fill:#D73337;" d="M372.75,163.843V279.1c0,5.687-4.615,10.302-10.302,10.302h-20.13
						c5.697,0,10.302-4.615,10.302-10.302V163.843c0-32.245-13.073-61.43-34.192-82.559c-18.904-18.894-44.267-31.348-72.494-33.749
						c3.317-0.299,6.676-0.443,10.065-0.443c32.245,0,61.43,13.073,82.559,34.192C359.677,102.414,372.75,131.598,372.75,163.843z"
						/>
					<path style="fill:#E84649;" d="M371.844,355.031v143.947c0,5.697-4.615,10.302-10.302,10.302H150.468
						c-5.697,0-10.302-4.605-10.302-10.302V355.031c0-46.214,37.457-83.671,83.661-83.671h64.345
						C334.376,271.36,371.844,308.817,371.844,355.031z"/>
					<path style="fill:#D73337;" d="M371.838,355.034v143.947c0,5.69-4.612,10.302-10.302,10.302h-12.063V355.034
						c0-46.214-37.457-83.671-83.671-83.671h22.365C334.377,271.363,371.838,308.824,371.838,355.034z"/>
					<path style="fill:#FFBC8A;" d="M371.833,355.031H140.156c0-35.541,22.149-65.901,53.405-78.026
						c9.385-3.647,19.594-5.645,30.267-5.645h64.335c10.683,0,20.892,1.999,30.277,5.645
						C349.685,289.141,371.833,319.5,371.833,355.031z"/>
					<path style="fill:#F5A871;" d="M371.838,355.034h-22.365c0-46.214-37.457-83.671-83.671-83.671h22.365
						C334.381,271.363,371.838,308.82,371.838,355.034z"/>
					<path style="fill:#F5A871;" d="M318.439,277.005c-15.061,17.874-37.591,29.082-62.439,29.082
						c-24.838,0-47.368-11.208-62.439-29.082c9.385-3.647,19.594-5.645,30.267-5.645h64.335
						C298.845,271.36,309.054,273.358,318.439,277.005z"/>
					<path style="fill:#FDD1A7;" d="M201.787,147.506c-13.272,0-23.552,11.612-21.943,24.786l7.396,60.554
						c4.245,34.752,33.751,60.874,68.761,60.874l0,0c35.01,0,64.516-26.122,68.761-60.874l7.396-60.554
						c1.609-13.174-8.671-24.786-21.943-24.786H201.787z"/>
					<line style="fill:#F69583;" x1="304.14" y1="228.18" x2="304.14" y2="228.269"/>
					<path style="fill:#F69583;" d="M210.953,241.963c-4.183,0-7.574-3.391-7.574-7.574c0-4.183,3.391-7.618,7.574-7.618
						c4.183,0,7.574,3.346,7.574,7.529v0.089C218.527,238.572,215.136,241.963,210.953,241.963z"/>
					<path style="fill:#F69583;" d="M301.05,241.963c-4.183,0-7.574-3.391-7.574-7.574c0-4.183,3.391-7.618,7.574-7.618
						c4.183,0,7.574,3.346,7.574,7.529v0.089C308.623,238.572,305.232,241.963,301.05,241.963z"/>
					<path style="fill:#904D29;" d="M219.981,217.88c-4.267,0-7.726-3.459-7.726-7.726c0-4.267,3.459-7.771,7.726-7.771
						s7.726,3.415,7.726,7.682v0.089C227.707,214.42,224.248,217.88,219.981,217.88z"/>
					<path style="fill:#904D29;" d="M292.022,217.88c-4.268,0-7.726-3.459-7.726-7.726c0-4.267,3.459-7.771,7.726-7.771
						s7.726,3.415,7.726,7.682v0.089C299.749,214.42,296.29,217.88,292.022,217.88z"/>
					<path style="fill:#F69583;" d="M256.001,262.452c-12.709,0-24.039-8.533-27.554-20.752c-1.179-4.101,1.189-8.382,5.29-9.561
						c4.101-1.179,8.381,1.189,9.561,5.29c1.62,5.635,6.844,9.57,12.703,9.57c5.859,0,11.082-3.935,12.702-9.569
						c1.179-4.102,5.461-6.47,9.56-5.291c4.101,1.179,6.47,5.459,5.291,9.56C280.041,253.919,268.711,262.452,256.001,262.452z"/>
					<path style="fill:#E84649;" d="M339.197,176.569c-3.194,1.823-33.811,3.513-68.013,4.172L256,158.809l-15.381,22.221
						c-32.667-0.031-62.202-1.257-67.817-4.461c-5.687-14-4.213-29.679,0.69-44.7h165.015
						C343.411,146.89,344.884,162.569,339.197,176.569z"/>
					<path style="fill:#D73337;" d="M240.619,188.756h-0.007c-58.97-0.055-68.194-3.603-71.201-5.231
						c-3.701-2.004-5.406-6.559-3.555-10.339c1.962-4.007,6.832-5.495,10.665-3.389c2.934,1.253,18.826,3.331,60.056,3.497
						l12.953-18.713c0.997-1.44,2.401-2.59,4.069-3.121c3.361-1.071,6.859,0.216,8.752,2.952l12.823,18.521
						c36.123-0.785,57.056-2.432,60.885-3.424c3.886-1.732,8.595,0.003,10.302,4.166c1.584,3.862-0.339,8.212-4.103,10.017
						c-1.903,0.913-6.062,1.99-24.982,3.114c-12.463,0.741-28.78,1.331-45.944,1.662c-0.049,0.001-0.1,0.002-0.15,0.002
						c-2.531,0-4.906-1.241-6.351-3.328l-3.749-5.415c-2.458-3.55-7.707-3.55-10.164,0.001l-3.947,5.702
						C245.529,187.512,243.155,188.756,240.619,188.756z M335.377,169.853c-0.004,0.002-0.008,0.004-0.011,0.007
						C335.369,169.857,335.373,169.855,335.377,169.853z M176.591,169.835c0.014,0.008,0.028,0.016,0.042,0.024
						C176.619,169.851,176.605,169.843,176.591,169.835z"/>
				</g>
				<g>
					<g>
						<g>
							<path style="fill:#CDBFBB;" d="M287.585,345.234v53.394c0,9.488-7.695,17.184-17.183,17.184h-28.804
								c-9.488,0-17.183-7.696-17.183-17.184v-53.394c0-9.488,7.695-17.183,17.183-17.183h28.804
								C279.89,328.051,287.585,335.746,287.585,345.234z"/>
						</g>
						<g>
							<path style="fill:#756F6F;" d="M247.614,384.443c0,4.265-3.451,7.726-7.726,7.726h-15.473v-15.453h15.473
								C244.163,376.716,247.614,380.178,247.614,384.443z"/>
							<path style="fill:#756F6F;" d="M247.614,359.409c0,4.265-3.451,7.726-7.726,7.726h-15.473v-15.453h15.473
								C244.163,351.683,247.614,355.144,247.614,359.409z"/>
						</g>
						<g>
							<path style="fill:#756F6F;" d="M287.585,376.716v15.453h-14.278c-4.265,0-7.726-3.461-7.726-7.726
								c0-4.265,3.461-7.726,7.726-7.726H287.585z"/>
							<path style="fill:#756F6F;" d="M287.585,351.683v15.453h-14.278c-4.265,0-7.726-3.461-7.726-7.726
								c0-4.265,3.461-7.726,7.726-7.726H287.585z"/>
						</g>
					</g>
				</g>
				<path style="fill:#756F6F;" d="M256.001,469.016c-4.267,0-7.726-3.459-7.726-7.726v-49.475c0-4.267,3.459-7.726,7.726-7.726
					c4.267,0,7.727,3.459,7.727,7.726v49.475C263.728,465.557,260.269,469.016,256.001,469.016z"/>
				<path style="fill:#FFF5F5;" d="M267.793,509.283h-23.587v-46.877c0-2.893,2.345-5.238,5.238-5.238h13.112
					c2.893,0,5.238,2.345,5.238,5.238V509.283z"/>
			</g>
		</g>
		<g>
			<path style="fill:#D73337;" d="M193.798,395.6v113.68h-15.453V395.6c0-4.265,3.461-7.726,7.726-7.726
				C190.347,387.873,193.798,391.335,193.798,395.6z"/>
			<path style="fill:#D73337;" d="M333.655,395.6v113.68h-15.453V395.6c0-4.265,3.451-7.726,7.726-7.726
				C330.194,387.873,333.655,391.335,333.655,395.6z"/>
		</g>
	</g>
	<g>
		<g>
			<path style="fill:#2EA8FC;" d="M411.3,329.915c-2.102,2.38-3.008,5.583-2.472,8.715l27.166,158.359
				c1.432,8.365-7.149,14.896-14.824,11.27l-16.308-7.685c1.113-2.009,1.597-4.419,1.154-6.995l-27.877-162.49
				c-0.546-3.214,0.381-6.5,2.534-8.942l100.628-114.329c2.462-2.792,3.142-6.294,2.431-9.447l19.264,2.802
				c8.252,1.195,11.878,11.064,6.377,17.328L411.3,329.915z"/>
		</g>
	</g>
</g>
<g>
</g>
<g>
</g>
<g>
</g>
<g>
</g>
<g>
</g>
<g>
</g>
<g>
</g>
<g>
</g>
<g>
</g>
<g>
</g>
<g>
</g>
<g>
</g>
<g>
</g>
<g>
</g>
<g>
</g>
</svg>
