<?xml version="1.0" encoding="iso-8859-1"?>
<!-- Generator: Adobe Illustrator 23.0.3, SVG Export Plug-In . SVG Version: 6.00 Build 0)  -->
<svg version="1.1" id="Capa_1" xmlns="http://www.w3.org/2000/svg" xmlns:xlink="http://www.w3.org/1999/xlink" x="0px" y="0px"
	 viewBox="0 0 512 512" style="enable-background:new 0 0 512 512;" xml:space="preserve">
<g>
	<g>
		<circle style="fill:#5B5555;" cx="376.812" cy="169.171" r="29.133"/>
	</g>
	<circle style="fill:#E0D3CE;" cx="413.502" cy="391.706" r="36.69"/>
	<path style="fill:#CDBFBB;" d="M450.189,391.704c0,20.264-16.421,36.695-36.685,36.695c-3.328,0-6.552-0.443-9.612-1.277
		c15.597-4.224,27.073-18.481,27.073-35.418s-11.476-31.184-27.073-35.407c3.06-0.834,6.284-1.277,9.612-1.277
		C433.768,355.019,450.189,371.44,450.189,391.704z"/>
	<g>
		<path style="fill:#5B5555;" d="M466.006,252.372c-30.865,0-55.886-14-55.886-31.27s25.021-31.27,55.886-31.27V252.372z"/>
		<path style="fill:#E0D3CE;" d="M482.218,221.106c0,17.266-7.253,31.266-16.215,31.266c-2.071,0-4.049-0.752-5.862-2.112
			c-6.057-4.523-10.343-15.875-10.343-29.154c0-13.289,4.286-24.632,10.343-29.164c1.813-1.36,3.791-2.112,5.862-2.112
			C474.965,189.83,482.218,203.83,482.218,221.106z"/>
		<path style="fill:#CDBFBB;" d="M470.494,221.106c0,13.279-4.296,24.632-10.353,29.154c-6.057-4.523-10.343-15.875-10.343-29.154
			c0-13.289,4.286-24.632,10.343-29.164C466.198,196.474,470.494,207.817,470.494,221.106z"/>
	</g>
	<path style="fill:#E0D3CE;" d="M283.053,344.092h-40.388v-82.91h68.576v54.721C311.242,331.472,298.621,344.092,283.053,344.092z"
		/>
	<path style="fill:#CDBFBB;" d="M311.238,261.18v54.723c0,15.566-12.62,28.186-28.186,28.186H265.23
		c15.566,0,28.186-12.62,28.186-28.186V261.18H311.238z"/>
	<g>
		
			<ellipse transform="matrix(1 -0.0022 0.0022 1 -0.5019 0.6844)" style="fill:#FAC574;" cx="311.552" cy="229.014" rx="93.881" ry="63.84"/>
		<path style="fill:#D8AA64;" d="M405.434,228.811c0.072,35.258-41.898,63.928-93.741,64.042c-6.012,0.01-11.9-0.36-17.603-1.081
			c43.72-5.528,76.817-31.645,76.745-62.961c-0.072-31.161-32.973-57.052-76.416-62.559c5.508-0.7,11.19-1.071,16.996-1.081
			C363.258,165.058,405.352,193.553,405.434,228.811z"/>
	</g>
	<g id="XMLID_723_">
		<g id="XMLID_736_">
			<g id="XMLID_737_">
				<g id="XMLID_740_">
					<path style="fill:#756F6F;" d="M434.438,298.133c-6.748-1.473-13.753-2.246-20.933-2.246c-11.198,0-21.974,1.875-32.008,5.336
						c-38.652,13.32-66.488,50.046-66.488,93.159c0,54.322,44.184,98.506,98.496,98.506c54.311,0,98.496-44.184,98.496-98.506
						C512,347.252,478.725,307.755,434.438,298.133z M413.504,465.259c-39.085,0-70.876-31.791-70.876-70.877
						c0-28.186,16.545-52.591,40.445-63.985c9.22-4.409,19.543-6.882,30.432-6.882c7.86,0,15.432,1.288,22.499,3.667
						c28.083,9.416,48.377,35.984,48.377,67.199C484.381,433.468,452.579,465.259,413.504,465.259z"/>
				</g>
			</g>
		</g>
		<path style="fill:#5B5555;" d="M436.004,327.184c-7.067-2.38-14.639-3.667-22.499-3.667c-10.889,0-21.211,2.472-30.432,6.882
			l-1.576-29.175c10.034-3.461,20.81-5.336,32.008-5.336c7.18,0,14.185,0.773,20.933,2.246L436.004,327.184z"/>
		<path style="fill:#FAC574;" d="M426.67,383.947c0,7.747-6.294,14.124-14.144,14.124c-7.52,0-13.722-5.872-14.124-13.382
			l-12.414-229.555l-1.154-21.273h28.33l1.226,22.746l12.259,226.557C426.66,383.432,426.67,383.689,426.67,383.947z"/>
	</g>
	<g>
		<path style="fill:#756F6F;" d="M279.911,328.09v155.784c0,4.966-4.038,9.014-9.024,9.014H9.024c-4.986,0-9.024-4.049-9.024-9.014
			V328.09c0-30.648,18.471-57,44.885-68.517c4.255-1.854,8.705-3.317,13.341-4.358c5.295-1.195,10.817-1.823,16.473-1.823h130.514
			c4.079,0,8.087,0.309,11.981,0.948c1.514,0.247,3.008,0.536,4.481,0.876c4.626,1.041,9.086,2.503,13.351,4.358
			c0.031,0.01,0.051,0.021,0.082,0.041C261.47,271.132,279.911,297.473,279.911,328.09z"/>
		<path style="fill:#5B5555;" d="M221.674,255.215c-15.412,29.546-46.327,49.531-81.724,49.531
			c-35.397,0-66.302-19.986-81.724-49.531c5.295-1.195,10.817-1.823,16.473-1.823h130.514c4.079,0,8.087,0.309,11.981,0.948
			C218.707,254.587,220.201,254.875,221.674,255.215z"/>
		<rect x="229.171" y="380.588" style="fill:#DB885D;" width="50.739" height="27.32"/>
		<rect x="229.171" y="435.227" style="fill:#DB885D;" width="50.739" height="27.32"/>
		<rect x="101.214" y="253.391" style="fill:#E84649;" width="77.481" height="239.494"/>
		<path style="fill:#FFBC8A;" d="M178.695,253.392v29.484c0,5.182-1.02,10.116-2.864,14.629
			c-5.769,14.144-19.656,24.117-35.881,24.117c-10.693,0-20.377-4.337-27.382-11.353c-3.616-3.616-6.521-7.943-8.489-12.754
			c-1.854-4.512-2.864-9.457-2.864-14.639v-29.484H178.695z"/>
		<path style="fill:#F5A871;" d="M178.695,253.392v29.484c0,5.182-1.02,10.116-2.864,14.629
			c-11.044,4.667-23.169,7.242-35.881,7.242c-12.702,0-24.827-2.575-35.871-7.232c-1.854-4.512-2.864-9.457-2.864-14.639v-29.484
			H178.695z"/>
		<path style="fill:#5B5555;" d="M279.906,328.098V483.87c0,4.975-4.031,9.016-9.016,9.016h-20.785c4.984,0,9.025-4.041,9.025-9.016
			V328.098c0-30.649-18.47-57-44.887-68.513c-5.613-2.459-11.579-4.231-17.821-5.232c-3.907-0.638-7.92-0.963-11.999-0.963h20.776
			c4.088,0,8.101,0.324,12.008,0.963c6.242,1.001,12.208,2.773,17.821,5.232C261.446,271.098,279.906,297.449,279.906,328.098z"/>
		<rect x="259.13" y="380.591" style="fill:#C86D3D;" width="20.776" height="27.314"/>
		<rect x="259.13" y="435.227" style="fill:#C86D3D;" width="20.776" height="27.323"/>
		<path style="fill:#5B5555;" d="M236.9,357.801v135.088h-15.453V357.801c0-4.265,3.451-7.726,7.726-7.726
			C233.439,350.074,236.9,353.536,236.9,357.801z"/>
		<path style="fill:#5B5555;" d="M58.463,363.91v128.979H43.01V363.91c0-4.265,3.461-7.726,7.726-7.726
			S58.463,359.645,58.463,363.91z"/>
		<path style="fill:#756F6F;" d="M272.424,151.582c0,73.161-59.309,120.107-132.47,120.107S7.485,224.743,7.485,151.582
			s59.309-132.47,132.47-132.47S272.424,78.421,272.424,151.582z"/>
		<path style="fill:#5B5555;" d="M272.424,151.581c0,73.163-59.306,120.109-132.47,120.109c-3.631,0-7.233-0.114-10.798-0.353
			c68.103-4.384,121.663-50.234,121.663-119.756c0-69.523-53.56-126.542-121.663-132.031c3.564-0.295,7.167-0.438,10.798-0.438
			C213.118,19.112,272.424,78.418,272.424,151.581z"/>
		<path style="fill:#FDD1A7;" d="M139.954,292.389L139.954,292.389c-42.441,0-77.452-33.227-79.671-75.609l-3.039-58.056
			c-1.29-24.64,18.341-45.325,43.015-45.325h79.39c24.673,0,44.304,20.685,43.015,45.325l-3.039,58.056
			C217.406,259.162,182.395,292.389,139.954,292.389z"/>
		<rect x="123.235" y="190.376" style="fill:#5B5555;" width="35.541" height="15.453"/>
		<path style="fill:#006AC3;" d="M125.713,183.422v21.984c0,14.258-11.559,25.806-25.806,25.806H77.562
			c-0.453,0-0.896-0.01-1.339-0.031c-4.079-0.216-7.932-1.37-11.301-3.286c-2.143-1.195-4.11-2.699-5.81-4.461
			c-4.553-4.656-7.356-11.002-7.356-18.028v-21.984c0-3.42,2.771-6.181,6.181-6.181h61.595c2.874,0,5.295,1.968,5.985,4.636
			C125.641,182.371,125.713,182.886,125.713,183.422z"/>
		<path style="fill:#5592D7;" d="M115.583,177.236l-50.663,50.663c-2.144-1.201-4.107-2.707-5.813-4.46l46.193-46.202H115.583z"/>
		<path style="fill:#5592D7;" d="M125.713,183.422v21.984c0,14.258-11.559,25.806-25.806,25.806H77.562
			c-0.453,0-0.896-0.01-1.339-0.031v-0.01l49.294-49.294C125.641,182.371,125.713,182.886,125.713,183.422z"/>
		<path style="fill:#006AC3;" d="M228.149,183.421V205.4c0,14.255-11.556,25.811-25.811,25.811H180
			c-4.677,0-9.07-1.243-12.857-3.434c-4.53-2.603-8.19-6.536-10.45-11.272c-1.605-3.366-2.505-7.123-2.505-11.105v-21.978
			c0-3.414,2.767-6.181,6.181-6.181h61.598C225.382,177.24,228.149,180.008,228.149,183.421z"/>
		<path style="fill:#5592D7;" d="M217.68,177.24l-50.536,50.536c-4.53-2.603-8.19-6.536-10.45-11.272l39.265-39.265H217.68z"/>
		<path style="fill:#F5A871;" d="M139.954,265.749c-10.463,0-20.212-5.642-25.441-14.724c-2.129-3.698-0.857-8.423,2.841-10.551
			c3.697-2.129,8.422-0.856,10.551,2.841c2.479,4.307,7.096,6.982,12.048,6.982s9.569-2.675,12.048-6.981
			c2.129-3.699,6.853-4.971,10.551-2.842c3.698,2.129,4.97,6.852,2.842,10.55C160.166,260.107,150.418,265.749,139.954,265.749z"/>
		<path style="fill:#5B5555;" d="M65.968,106.471h147.973c6.005,0,10.514,5.487,9.349,11.378l-3.436,17.383
			c-1.681,8.505-9.14,14.634-17.809,14.634H77.864c-8.669,0-16.128-6.129-17.809-14.634l-3.436-17.383
			C55.454,111.958,59.963,106.471,65.968,106.471z"/>
		<g>
			<circle style="fill:#FAC574;" cx="93.461" cy="377.467" r="17.234"/>
			<circle style="fill:#5592D7;" cx="219.262" cy="356.956" r="13"/>
			<circle style="fill:#E84649;" cx="61.048" cy="328.653" r="13.2"/>
			<path style="fill:#5592D7;" d="M196.866,394.251c-4.267,0-7.726-3.459-7.726-7.726s3.459-7.768,7.726-7.768
				s7.726,3.417,7.726,7.684v0.083C204.592,390.792,201.133,394.251,196.866,394.251z"/>
			<path style="fill:#FAC574;" d="M206.349,330.068c-4.267,0-7.726-3.459-7.726-7.726s3.459-7.769,7.726-7.769
				s7.726,3.417,7.726,7.684v0.085C214.075,326.609,210.616,330.068,206.349,330.068z"/>
			<path style="fill:#D73337;" d="M74.245,328.655c0,7.283-5.903,13.197-13.197,13.197c-1.308,0-2.575-0.185-3.771-0.546
				c5.439-1.628,9.416-6.676,9.416-12.651s-3.976-11.023-9.416-12.651c1.195-0.361,2.462-0.546,3.771-0.546
				C68.342,315.458,74.245,321.361,74.245,328.655z"/>
			<path style="fill:#D8AA64;" d="M110.693,377.465c0,9.519-7.716,17.235-17.235,17.235c-1.298,0-2.555-0.144-3.77-0.422
				c7.706-1.72,13.454-8.592,13.454-16.813s-5.748-15.092-13.454-16.813c1.216-0.278,2.472-0.422,3.77-0.422
				C102.977,360.23,110.693,367.946,110.693,377.465z"/>
			<path style="fill:#1475CC;" d="M204.594,386.438v0.082c0,4.275-3.461,7.726-7.726,7.726c-0.824,0-1.617-0.134-2.369-0.381
				c3.111-0.989,5.357-3.894,5.357-7.345v-0.082c0-3.431-2.246-6.325-5.347-7.314c0.742-0.237,1.535-0.371,2.359-0.371
				C201.133,378.753,204.594,382.173,204.594,386.438z"/>
			<path style="fill:#D8AA64;" d="M214.072,322.257v0.082c0,4.265-3.451,7.726-7.726,7.726c-0.824,0-1.617-0.134-2.369-0.381
				c3.111-0.989,5.357-3.904,5.357-7.345v-0.082c0-3.431-2.246-6.325-5.347-7.314c0.742-0.237,1.535-0.371,2.359-0.371
				C210.621,314.572,214.072,317.992,214.072,322.257z"/>
			<path style="fill:#1475CC;" d="M232.265,356.954c0,7.18-5.821,13.001-13.001,13.001c-1.319,0-2.586-0.196-3.781-0.567
				c5.336-1.617,9.22-6.573,9.22-12.434s-3.884-10.817-9.22-12.434c1.195-0.371,2.462-0.567,3.781-0.567
				C226.444,343.953,232.265,349.774,232.265,356.954z"/>
		</g>
	</g>
	<path style="fill:#FFF5F5;" d="M330.621,211.749h-18.985c-4.268,0-7.726-3.459-7.726-7.726s3.459-7.726,7.726-7.726h18.985
		c4.268,0,7.726,3.459,7.726,7.726S334.888,211.749,330.621,211.749z"/>
	<polygon style="fill:#D8AA64;" points="414.39,156.606 385.988,155.133 384.835,133.86 413.164,133.86 	"/>
	<path style="fill:#E0D3CE;" d="M421.334,144.587l-75.463-3.913c-6.447-0.334-11.503-5.659-11.503-12.115v0
		c0-6.947,5.822-12.475,12.76-12.115l75.463,3.913c6.447,0.334,11.503,5.659,11.503,12.115v0
		C434.094,139.418,428.272,144.946,421.334,144.587z"/>
</g>
<g>
</g>
<g>
</g>
<g>
</g>
<g>
</g>
<g>
</g>
<g>
</g>
<g>
</g>
<g>
</g>
<g>
</g>
<g>
</g>
<g>
</g>
<g>
</g>
<g>
</g>
<g>
</g>
<g>
</g>
</svg>
