<?xml version="1.0" encoding="iso-8859-1"?>
<!-- Generator: Adobe Illustrator 23.0.3, SVG Export Plug-In . SVG Version: 6.00 Build 0)  -->
<svg version="1.1" id="Capa_1" xmlns="http://www.w3.org/2000/svg" xmlns:xlink="http://www.w3.org/1999/xlink" x="0px" y="0px"
	 viewBox="0 0 512 512" style="enable-background:new 0 0 512 512;" xml:space="preserve">
<g>
	<g>
		<g>
			<g>
				<path style="fill:#0097FA;" d="M512,338.657H324.836v-223.96h157.442c16.415,0,29.722,13.307,29.722,29.722V338.657z"/>
				<g>
					<path style="fill:#65BAFC;" d="M424.214,209.785l2.866-2.866c3.017-3.018,3.017-7.909,0-10.927
						c-3.018-3.017-7.909-3.017-10.928,0l-2.865,2.865l-2.865-2.865c-3.017-3.017-7.908-3.018-10.928,0
						c-3.017,3.017-3.017,7.909,0,10.927l2.866,2.866l-2.866,2.866c-3.017,3.018-3.017,7.909,0,10.927
						c1.509,1.509,3.487,2.263,5.464,2.263c1.977,0,3.955-0.755,5.464-2.263l2.865-2.865l2.865,2.865
						c1.509,1.509,3.486,2.263,5.464,2.263c1.977,0,3.955-0.755,5.464-2.263c3.017-3.017,3.017-7.909,0-10.927L424.214,209.785z"/>
					<path style="fill:#65BAFC;" d="M413.287,176.064c4.268,0,7.726-3.459,7.726-7.726v-14.337c0-4.267-3.459-7.726-7.726-7.726
						s-7.726,3.459-7.726,7.726v14.337C405.56,172.605,409.019,176.064,413.287,176.064z"/>
					<path style="fill:#65BAFC;" d="M421.616,253.496h-51.273c-4.268,0-7.726,3.459-7.726,7.726c0,4.267,3.459,7.726,7.726,7.726
						h51.273c4.268,0,7.726-3.459,7.726-7.726C429.342,256.956,425.883,253.496,421.616,253.496z"/>
					<path style="fill:#65BAFC;" d="M421.616,279.787h-24.592c-4.268,0-7.726,3.459-7.726,7.726s3.459,7.726,7.726,7.726h24.592
						c4.268,0,7.726-3.459,7.726-7.726S425.883,279.787,421.616,279.787z"/>
				</g>
				<g>
					<path style="fill:#006AC3;" d="M464.52,192.778c0-5.69,4.612-10.302,10.302-10.302h7.459c16.414,0,29.719-13.306,29.719-29.719
						v192.446c0,16.414-13.306,29.719-29.719,29.719h-7.459c-5.69,0-10.302-4.612-10.302-10.302V192.778z"/>
				</g>
			</g>
			<g>
				<g>
					<path style="fill:#0097FA;" d="M0,441.57h187.164V217.61H29.722C13.307,217.61,0,230.917,0,247.333L0,441.57z"/>
					<path style="fill:#65BAFC;" d="M103.615,349.512h-21.16c-4.267,0-7.726-3.459-7.726-7.726c0-4.267,3.459-7.726,7.726-7.726
						h21.16c4.267,0,7.726,3.459,7.726,7.726C111.342,346.053,107.882,349.512,103.615,349.512z"/>
					<path style="fill:#65BAFC;" d="M103.615,403.412h-21.16c-4.267,0-7.726-3.459-7.726-7.726c0-4.267,3.459-7.726,7.726-7.726
						h21.16c4.267,0,7.726,3.459,7.726,7.726C111.342,399.953,107.882,403.412,103.615,403.412z"/>
					<g>
						<path style="fill:#006AC3;" d="M47.48,295.691c0-5.69-4.612-10.302-10.302-10.302h-7.459C13.306,285.389,0,272.084,0,255.67
							l0,192.446c0,16.414,13.306,29.719,29.719,29.719h7.459c5.69,0,10.302-4.612,10.302-10.302V295.691z"/>
					</g>
				</g>
			</g>
		</g>
		<g>
			<circle style="fill:#FFBC8A;" cx="354.345" cy="168.392" r="22.369"/>
			<circle style="fill:#FFBC8A;" cx="157.653" cy="168.392" r="22.369"/>
			<g>
				<path style="fill:#BDEB73;" d="M406.07,327.912v167.033c0,5.34-4.329,9.668-9.668,9.668H115.598
					c-5.34,0-9.668-4.329-9.668-9.668V327.912c0-32.867,19.804-61.119,48.123-73.467c9.792-4.272,20.615-6.636,31.98-6.636h139.935
					c4.376,0,8.677,0.343,12.863,1.03c6.694,1.077,13.091,2.984,19.117,5.607c0.029,0.009,0.048,0.019,0.076,0.038
					C386.304,266.841,406.07,295.074,406.07,327.912z"/>
				<path style="fill:#9AD63B;" d="M406.071,327.916v167.031c0,5.337-4.332,9.669-9.669,9.669h-22.287
					c5.337,0,9.669-4.332,9.669-9.669V327.916c0-32.865-19.802-61.117-48.122-73.464c-6.024-2.63-12.425-4.535-19.116-5.608
					c-4.187-0.687-8.489-1.035-12.869-1.035h22.287c4.38,0,8.683,0.348,12.869,1.035c6.691,1.073,13.092,2.978,19.115,5.608
					C386.269,266.798,406.071,295.051,406.071,327.916z"/>
				<path style="fill:#FFF5F5;" d="M358.019,254.487v250.128H154.053V254.445c4.523-1.968,9.261-3.544,14.186-4.656
					c5.717-1.298,11.682-1.978,17.791-1.978h139.94c4.378,0,8.674,0.34,12.857,1.03c1.659,0.268,3.307,0.587,4.924,0.948
					c4.924,1.113,9.663,2.679,14.196,4.656C357.978,254.456,357.998,254.466,358.019,254.487z"/>
				<path style="fill:#E0D3CE;" d="M358.019,254.487v250.128h-18.76V248.913c6.542,1.082,12.795,2.967,18.687,5.532
					C357.978,254.456,357.998,254.466,358.019,254.487z"/>
				<g>
					<rect x="202.039" y="274.019" style="fill:#BDEB73;" width="107.922" height="98.145"/>
				</g>
			</g>
			<path style="fill:#E0D3CE;" d="M343.751,249.789c-16.04,32.379-49.418,54.435-87.751,54.435s-71.711-22.056-87.761-54.435
				c5.717-1.298,11.682-1.978,17.791-1.978h139.94c4.378,0,8.674,0.34,12.857,1.03C340.485,249.109,342.133,249.428,343.751,249.789
				z"/>
			<path style="fill:#9AD63B;" d="M309.961,274.019v14.011c-15.494,10.25-34.058,16.194-53.961,16.194s-38.467-5.944-53.961-16.184
				v-14.021H309.961z"/>
			<path style="fill:#FDD1A7;" d="M255.999,291.863L255.999,291.863c-45.508,0-83.05-35.628-85.429-81.074l-3.259-62.252
				c-1.383-26.421,19.667-48.601,46.124-48.601h85.128c26.457,0,47.507,22.181,46.124,48.601l-3.259,62.252
				C339.05,256.235,301.507,291.863,255.999,291.863z"/>
			<g>
				<g>
					<g>
						<g>
							<line style="fill:none;" x1="305.765" y1="233.545" x2="305.765" y2="233.637"/>
						</g>
					</g>
				</g>
			</g>
			<g>
				<g>
					<path style="fill:#0097FA;" d="M216.122,205.001c-4.267,0-7.726-3.459-7.726-7.726s3.459-7.776,7.726-7.776
						s7.726,3.41,7.726,7.677v0.099C223.848,201.542,220.389,205.001,216.122,205.001z"/>
					<path style="fill:#0097FA;" d="M295.877,205.001c-4.268,0-7.726-3.459-7.726-7.726s3.459-7.776,7.726-7.776
						s7.726,3.41,7.726,7.677v0.099C303.604,201.542,300.145,205.001,295.877,205.001z"/>
				</g>
			</g>
			<path style="fill:#F5A871;" d="M255.999,254.347c-13.703,0-25.92-9.201-29.709-22.375c-1.179-4.101,1.189-8.382,5.29-9.561
				c4.099-1.178,8.382,1.189,9.561,5.29c1.895,6.591,8.005,11.194,14.858,11.194s12.962-4.603,14.858-11.194
				c1.18-4.101,5.465-6.469,9.561-5.29c4.101,1.18,6.469,5.46,5.29,9.561C281.919,245.146,269.702,254.347,255.999,254.347z"/>
			<path style="fill:#FFF5F5;" d="M361.983,139.92H150.016V113.19c0-52.817,42.817-95.634,95.634-95.634h20.698
				c52.817,0,95.634,42.817,95.634,95.634V139.92z"/>
			<path style="fill:#E0D3CE;" d="M361.98,113.192v26.726h-22.283v-26.726c0-52.556-42.383-95.197-94.834-95.626
				c0.267-0.009,0.524-0.009,0.791-0.009h20.691C319.168,17.557,361.98,60.369,361.98,113.192z"/>
			<path style="fill:#CDBFBB;" d="M363.048,153.587H148.951c-7.548,0-13.667-6.119-13.667-13.667v0
				c0-7.548,6.119-13.667,13.667-13.667h214.097c7.548,0,13.667,6.119,13.667,13.667v0
				C376.715,147.468,370.596,153.587,363.048,153.587z"/>
			<path style="fill:#9E9797;" d="M376.712,139.919c0,3.776-1.526,7.189-4.005,9.669c-2.47,2.469-5.883,3.995-9.659,3.995H340.67
				c3.776,0,7.189-1.526,9.668-3.995c2.479-2.479,4.005-5.893,4.005-9.669c0-7.542-6.121-13.663-13.673-13.663h22.378
				C370.6,126.255,376.712,132.377,376.712,139.919z"/>
			<path style="fill:#E0D3CE;" d="M265.63,93.835h-19.26c-5.46,0-9.886-4.426-9.886-9.886V17.271c0-5.46,4.426-9.886,9.886-9.886
				h19.26c5.46,0,9.886,4.426,9.886,9.886v66.678C275.516,89.409,271.089,93.835,265.63,93.835z"/>
			<g>
				<path style="fill:#E0D3CE;" d="M315.685,483.478c-4.268,0-7.726-3.459-7.726-7.726v-13.25H204.04v13.25
					c0,4.267-3.459,7.726-7.726,7.726c-4.267,0-7.726-3.459-7.726-7.726v-20.977c0-4.267,3.459-7.726,7.726-7.726h119.371
					c4.268,0,7.726,3.459,7.726,7.726v20.977C323.411,480.019,319.953,483.478,315.685,483.478z"/>
			</g>
			<g>
				<g>
					<path style="fill:#FFF5F5;" d="M353.99,372.168h-42.167c-5.266,0-9.535-4.269-9.535-9.535v-18.907
						c0-5.266,4.269-9.535,9.535-9.535h42.167c5.266,0,9.535,4.269,9.535,9.535v18.907
						C363.524,367.899,359.256,372.168,353.99,372.168z"/>
					<path style="fill:#E0D3CE;" d="M363.52,343.721v18.914c0,5.264-4.265,9.529-9.529,9.529h-20.428
						c5.274,0,9.539-4.265,9.539-9.529v-18.914c0-5.264-4.265-9.529-9.539-9.529h20.428
						C359.255,334.192,363.52,338.457,363.52,343.721z"/>
					<path style="fill:#CDBFBB;" d="M353.99,379.894h-42.167c-9.518,0-17.262-7.743-17.262-17.261v-18.907
						c0-9.518,7.743-17.261,17.262-17.261h42.167c9.517,0,17.261,7.743,17.261,17.261v18.907
						C371.25,372.151,363.507,379.894,353.99,379.894z M311.823,341.917c-0.997,0-1.809,0.811-1.809,1.808v18.907
						c0,0.997,0.812,1.808,1.809,1.808h42.167c0.997,0,1.808-0.811,1.808-1.808v-18.907c0-0.997-0.811-1.808-1.808-1.808H311.823z"
						/>
				</g>
				<g>
					<path style="fill:#FFF5F5;" d="M200.176,372.168h-42.167c-5.266,0-9.535-4.269-9.535-9.535v-18.907
						c0-5.266,4.269-9.535,9.535-9.535h42.167c5.266,0,9.535,4.269,9.535,9.535v18.907
						C209.711,367.899,205.442,372.168,200.176,372.168z"/>
					<path style="fill:#CDBFBB;" d="M200.176,379.894h-42.167c-9.518,0-17.261-7.743-17.261-17.261v-18.907
						c0-9.518,7.743-17.261,17.261-17.261h42.167c9.518,0,17.261,7.743,17.261,17.261v18.907
						C217.437,372.151,209.694,379.894,200.176,379.894z M158.009,341.917c-0.997,0-1.808,0.811-1.808,1.808v18.907
						c0,0.997,0.811,1.808,1.808,1.808h42.167c0.997,0,1.808-0.811,1.808-1.808v-18.907c0-0.997-0.811-1.808-1.808-1.808H158.009z"
						/>
				</g>
			</g>
			<g>
				<path style="fill:#E0D3CE;" d="M332.649,355.233c-4.268,0-7.726-3.459-7.726-7.726v-11.442c0-4.267,3.459-7.726,7.726-7.726
					s7.726,3.459,7.726,7.726v11.442C340.375,351.774,336.917,355.233,332.649,355.233z"/>
				<path style="fill:#E0D3CE;" d="M179.35,355.233c-4.267,0-7.726-3.459-7.726-7.726v-11.442c0-4.267,3.459-7.726,7.726-7.726
					s7.726,3.459,7.726,7.726v11.442C187.076,351.774,183.617,355.233,179.35,355.233z"/>
			</g>
		</g>
	</g>
	<path style="fill:#65BAFC;" d="M93.787,258.31H66.447c-4.267,0-7.726-3.459-7.726-7.726s3.459-7.726,7.726-7.726h27.341
		c4.267,0,7.726,3.459,7.726,7.726S98.054,258.31,93.787,258.31z"/>
</g>
<g>
</g>
<g>
</g>
<g>
</g>
<g>
</g>
<g>
</g>
<g>
</g>
<g>
</g>
<g>
</g>
<g>
</g>
<g>
</g>
<g>
</g>
<g>
</g>
<g>
</g>
<g>
</g>
<g>
</g>
</svg>
