<?xml version="1.0" encoding="iso-8859-1"?>
<!-- Generator: Adobe Illustrator 23.0.3, SVG Export Plug-In . SVG Version: 6.00 Build 0)  -->
<svg version="1.1" id="Capa_1" xmlns="http://www.w3.org/2000/svg" xmlns:xlink="http://www.w3.org/1999/xlink" x="0px" y="0px"
	 viewBox="0 0 512 512" style="enable-background:new 0 0 512 512;" xml:space="preserve">
<g>
	<g>
		<g>
			<g>
				<path style="fill:#756F6F;" d="M398.569,178.891c-59.01,0-106.851,47.841-106.851,106.851c0,17.274,4.104,33.599,11.396,48.037
					c5.455,10.849,12.716,20.646,21.389,28.979h148.133c8.673-8.333,15.933-18.13,21.389-28.979
					c7.291-14.438,11.396-30.763,11.396-48.037C505.419,226.732,457.578,178.891,398.569,178.891z M398.569,299.416
					c-7.229,0-13.139-5.61-13.623-12.716c-0.031-0.32-0.041-0.64-0.041-0.959c0-7.539,6.115-13.664,13.664-13.664
					c7.549,0,13.675,6.126,13.675,13.664c0,0.32-0.01,0.639-0.041,0.959C411.718,293.806,405.798,299.416,398.569,299.416z"/>
				<path style="fill:#5B5555;" d="M412.202,286.701c-0.485,7.105-6.404,12.716-13.633,12.716c-7.229,0-13.139-5.61-13.623-12.716
					c-33.382,3.805-62.63,21.471-81.832,47.078c5.455,10.849,12.716,20.646,21.389,28.979h148.133
					c8.673-8.333,15.933-18.13,21.389-28.979C474.832,308.172,445.585,290.506,412.202,286.701z"/>
				<path style="fill:#5B5555;" d="M505.419,285.743c0,30.257-12.581,57.583-32.789,77.015h-21.128
					c20.209-19.432,32.789-46.758,32.789-77.015c0-55.449-42.235-101.033-96.274-106.333c3.472-0.347,6.995-0.521,10.559-0.521
					C457.578,178.889,505.419,226.73,505.419,285.743z"/>
				<g>
					<path style="fill:#E84649;" d="M398.569,242.026c-24.153,0-43.726,19.574-43.726,43.716c0,2.795,0.258,5.538,0.763,8.188
						c3.836,20.234,21.605,35.538,42.963,35.538c21.358,0,39.127-15.304,42.963-35.538c0.505-2.65,0.763-5.394,0.763-8.188
						C442.295,261.599,422.721,242.026,398.569,242.026z M398.569,299.416c-7.229,0-13.139-5.61-13.623-12.716
						c-0.031-0.32-0.041-0.64-0.041-0.959c0-7.539,6.115-13.664,13.664-13.664c7.549,0,13.675,6.126,13.675,13.664
						c0,0.32-0.01,0.639-0.041,0.959C411.718,293.806,405.798,299.416,398.569,299.416z"/>
				</g>
			</g>
			<g>
				<path style="fill:#D73337;" d="M412.202,286.701c-0.485,7.105-6.404,12.716-13.633,12.716c-7.229,0-13.139-5.61-13.623-12.716
					c-10.22,1.155-20.058,3.63-29.34,7.229c3.836,20.234,21.605,35.538,42.963,35.538c21.358,0,39.127-15.304,42.963-35.538
					C432.261,290.331,422.422,287.856,412.202,286.701z"/>
				<path style="fill:#9E9797;" d="M398.574,298.29c-59.015,0-106.853,47.838-106.853,106.853
					c0,59.015,47.838,106.853,106.853,106.853c59.005,0,106.843-47.838,106.843-106.853
					C505.417,346.128,457.579,298.29,398.574,298.29z M398.574,418.812c-7.554,0-13.668-6.124-13.668-13.668
					c0-7.544,6.114-13.668,13.668-13.668c7.544,0,13.668,6.124,13.668,13.668C412.242,412.688,406.118,418.812,398.574,418.812z"/>
				<path style="fill:#756F6F;" d="M505.419,405.146c0,59.012-47.841,106.853-106.843,106.853c-3.564,0-7.087-0.174-10.559-0.521
					c54.039-5.3,96.274-50.884,96.274-106.333c0-55.459-42.235-101.033-96.274-106.333c3.472-0.347,6.995-0.521,10.559-0.521
					C457.578,298.293,505.419,346.123,505.419,405.146z"/>
				<g>
					<path style="fill:#ED6264;" d="M398.574,361.422c-24.156,0-43.731,19.576-43.731,43.721c0,24.145,19.576,43.721,43.731,43.721
						c24.145,0,43.721-19.576,43.721-43.721C442.295,380.998,422.719,361.422,398.574,361.422z M398.574,418.812
						c-7.554,0-13.668-6.124-13.668-13.668c0-7.544,6.114-13.668,13.668-13.668c7.544,0,13.668,6.124,13.668,13.668
						C412.242,412.688,406.118,418.812,398.574,418.812z"/>
				</g>
			</g>
		</g>
		<path style="fill:#2EA8FC;" d="M472.399,113.588c0-0.029,0.004-0.056,0.004-0.085V36.88c0-2.412-1.125-4.686-3.043-6.149
			c-1.917-1.462-4.407-1.947-6.735-1.31l-65.733,17.999c-3.361,0.92-5.692,3.975-5.692,7.46v59.609
			c-5.477-0.944-11.922-0.322-18.526,2.08c-6.375,2.32-11.93,6.05-15.64,10.5c-4.619,5.539-6.102,11.921-4.069,17.508
			c2.637,7.245,10.245,11.287,19.661,11.287c4.213,0,8.788-0.809,13.44-2.502c12.879-4.688,20.934-14.179,20.603-23.39v-69.19
			l50.264-13.763v51.174c-5.477-0.944-11.922-0.323-18.526,2.08c-15.053,5.48-23.526,17.52-19.71,28.008
			c2.637,7.245,10.245,11.287,19.661,11.287c4.213,0,8.788-0.809,13.44-2.502C464.718,132.361,472.783,122.826,472.399,113.588z"/>
	</g>
	<g>
		<g>
			<g>
				<path style="fill:#F37D7E;" d="M255.699,263.512H18.079c-6.35,0-11.498-5.148-11.498-11.498V130.308
					C6.581,58.341,64.921,0,136.889,0h0c71.967,0,130.308,58.341,130.308,130.308v121.706
					C267.197,258.364,262.049,263.512,255.699,263.512z"/>
				<path style="fill:#ED6264;" d="M267.198,130.312v121.707c0,6.347-5.151,11.498-11.498,11.498h-22.467
					c6.359,0,11.498-5.151,11.498-11.498V130.312c0-35.989-14.591-68.563-38.162-92.146C185.469,17.078,157.16,3.177,125.655,0.498
					c3.702-0.333,7.451-0.494,11.234-0.494c35.989,0,68.564,14.591,92.146,38.162C252.606,61.749,267.198,94.323,267.198,130.312z"
					/>
			</g>
			<path style="fill:#2EA8FC;" d="M266.181,339.835v160.673c0,6.337-5.146,11.492-11.492,11.492H19.096
				c-6.347,0-11.492-5.155-11.492-11.492V339.835c0-34.908,19.161-65.36,47.541-81.367c12.173-6.867,26.879-11.112,41.134-11.883
				c1.582-0.09,3.143-0.13,4.705-0.13c0,0,71.807,0,71.817,0c1.462,0,2.923,0.03,4.395,0.11
				c14.405,0.681,28.991,4.715,41.444,11.903C247.02,274.475,266.181,304.928,266.181,339.835z"/>
			<path style="fill:#F69798;" d="M96.278,246.585V512H55.144V258.468C67.317,251.6,82.023,247.356,96.278,246.585z"/>
			<path style="fill:#0086F9;" d="M266.18,339.837v160.664c0,6.35-5.148,11.498-11.498,11.498h-13.464V339.837
				c0-51.581-41.807-93.388-93.388-93.388h24.962C224.368,246.449,266.18,288.261,266.18,339.837z"/>
			<g>
				<g>
					<path style="fill:#F69798;" d="M218.64,258.468V512h-41.444V246.565C191.601,247.246,206.186,251.28,218.64,258.468z"/>
					<path style="fill:#ED6264;" d="M218.641,258.464v20.492c-10.911-12.695-25.194-22.42-41.447-27.793v-4.61
						C192.22,247.254,206.297,251.482,218.641,258.464z"/>
					<path style="fill:#ED6264;" d="M177.194,246.553c10.705,0.495,20.925,2.785,30.371,6.59
						c-16.521,21.11-42.221,34.507-70.673,34.507c-28.463,0-54.152-13.396-70.674-34.507c9.364-3.764,19.481-6.054,30.062-6.569
						c0.103-0.01,0.206-0.021,0.309-0.021c1.444-0.072,2.919-0.103,4.393-0.103h71.818
						C174.266,246.45,175.74,246.481,177.194,246.553z"/>
					<path style="fill:#DAEDFF;" d="M177.195,246.555V512H96.278V246.575c0.1-0.01,0.21-0.02,0.31-0.02
						c1.442-0.07,2.923-0.1,4.395-0.1h71.817C174.262,246.455,175.744,246.485,177.195,246.555z"/>
					<path style="fill:#B6DCFF;" d="M177.194,246.553v31.506c-12.159,6.146-25.875,9.591-40.302,9.591
						c-14.551,0-28.37-3.496-40.612-9.746v-31.33c0.103-0.01,0.206-0.021,0.309-0.021c1.444-0.072,2.919-0.103,4.393-0.103h71.818
						C174.266,246.45,175.74,246.481,177.194,246.553z"/>
				</g>
				<rect x="96.271" y="375.288" style="fill:#E84649;" width="80.926" height="49.608"/>
			</g>
			<g>
				<g>
					<path style="fill:#2EA8FC;" d="M65.919,165.742v47.181H41.282c-4.62,0-8.364-3.744-8.364-8.364v-30.454
						c0-4.62,3.744-8.364,8.364-8.364H65.919z"/>
				</g>
				<g>
					<path style="fill:#2EA8FC;" d="M240.556,174.106v30.454c0,4.62-3.754,8.364-8.364,8.364h-24.637v-47.181h24.637
						C236.802,165.742,240.556,169.485,240.556,174.106z"/>
				</g>
			</g>
			<path style="fill:#0086F9;" d="M42.592,165.742h23.328v47.181H48.46c-0.227-1.351-0.433-2.723-0.598-4.094L42.592,165.742z"/>
			<path style="fill:#0086F9;" d="M231.182,165.742l-5.26,43.087c-0.165,1.372-0.371,2.743-0.598,4.094h-17.769v-47.181H231.182z"/>
			<path style="fill:#FDD1A7;" d="M76.38,112.078c-14.813,0-26.287,12.961-24.491,27.664l8.255,67.587
				c4.737,38.787,37.671,67.943,76.746,67.943l0,0c39.075,0,72.009-29.156,76.746-67.943l8.255-67.587
				c1.796-14.704-9.678-27.664-24.491-27.664H76.38z"/>
			<line style="fill:#F69583;" x1="190.619" y1="232.746" x2="190.619" y2="232.846"/>
			<path style="fill:#F69583;" d="M86.611,217.505c-4.669,0-8.453-3.785-8.453-8.453s3.785-8.503,8.453-8.503
				c4.669,0,8.453,3.735,8.453,8.403v0.1C95.064,213.72,91.279,217.505,86.611,217.505z"/>
			<path style="fill:#F69583;" d="M187.17,217.505c-4.669,0-8.453-3.785-8.453-8.453s3.785-8.503,8.453-8.503
				c4.669,0,8.453,3.735,8.453,8.403v0.1C195.623,213.72,191.839,217.505,187.17,217.505z"/>
			<path style="fill:#0086F9;" d="M96.687,189.735c-4.272,0-7.735-3.462-7.735-7.735c0-4.272,3.463-7.784,7.735-7.784
				c4.272,0,7.735,3.413,7.735,7.685V182C104.422,186.272,100.959,189.735,96.687,189.735z"/>
			<path style="fill:#0086F9;" d="M177.094,189.735c-4.272,0-7.735-3.462-7.735-7.735c0-4.272,3.463-7.784,7.735-7.784
				s7.735,3.413,7.735,7.685V182C184.829,186.272,181.366,189.735,177.094,189.735z"/>
			<path style="fill:#F69583;" d="M136.89,239.485c-13.79,0-26.085-9.26-29.899-22.519c-1.18-4.106,1.19-8.39,5.295-9.572
				c4.107-1.181,8.391,1.19,9.572,5.295c1.918,6.669,8.099,11.326,15.032,11.326c6.933,0,13.115-4.657,15.032-11.326
				c1.181-4.105,5.464-6.474,9.572-5.295c4.105,1.181,6.476,5.466,5.295,9.572C162.976,230.225,150.681,239.485,136.89,239.485z"/>
			<path style="fill:#F37D7E;" d="M229.748,144.517c-3.565,2.035-37.737,3.921-75.911,4.657l-16.948-24.479l-17.167,24.801
				c-36.461-0.035-69.426-1.403-75.692-4.979c-6.347-15.626-4.703-33.126,0.77-49.891h184.178
				C234.451,111.39,236.095,128.891,229.748,144.517z"/>
			<path style="fill:#ED6264;" d="M53.052,138.951c8.498,1.286,27.319,2.67,62.624,2.8l14.737-21.292
				c0.998-1.442,2.405-2.593,4.075-3.124c3.365-1.071,6.864,0.218,8.76,2.956l14.584,21.066c32.617-0.701,54.195-2.029,63.74-3.108
				c3.057-0.346,5.999,1.244,7.401,3.982c0.034,0.066,0.068,0.132,0.101,0.198c2.456,4.797-0.621,10.587-5.975,11.2
				c-4.014,0.46-9.699,0.939-17.87,1.424c-13.898,0.826-32.097,1.484-51.244,1.854c-2.575,0.054-5.033-1.2-6.508-3.331
				l-10.588-15.294l-10.808,15.614c-1.445,2.087-3.822,3.333-6.36,3.333h-0.007c-39.809-0.037-59.197-1.482-69.024-3.01
				c-5.253-0.817-8.143-6.55-5.656-11.249h0C46.576,140.056,49.792,138.458,53.052,138.951z M225.924,137.794
				c-0.004,0.002-0.007,0.004-0.011,0.006C225.917,137.798,225.92,137.796,225.924,137.794z"/>
		</g>
	</g>
</g>
<g>
</g>
<g>
</g>
<g>
</g>
<g>
</g>
<g>
</g>
<g>
</g>
<g>
</g>
<g>
</g>
<g>
</g>
<g>
</g>
<g>
</g>
<g>
</g>
<g>
</g>
<g>
</g>
<g>
</g>
</svg>
