<?xml version="1.0" encoding="iso-8859-1"?>
<!-- Generator: Adobe Illustrator 23.0.3, SVG Export Plug-In . SVG Version: 6.00 Build 0)  -->
<svg version="1.1" id="Capa_1" xmlns="http://www.w3.org/2000/svg" xmlns:xlink="http://www.w3.org/1999/xlink" x="0px" y="0px"
	 viewBox="0 0 512 512" style="enable-background:new 0 0 512 512;" xml:space="preserve">
<g>
	<g>
		<g>
			<g>
				<g>
					<circle style="fill:#AC5E33;" cx="165.007" cy="236.516" r="44.974"/>
				</g>
				<g>
					<circle style="fill:#AC5E33;" cx="346.177" cy="236.516" r="44.974"/>
				</g>
				<g>
					<path style="fill:#9E552E;" d="M391.149,236.519c0,24.838-20.13,44.967-44.978,44.967c-3.966,0-7.809-0.515-11.466-1.473
						c19.295-5.069,33.512-22.623,33.512-43.494s-14.216-38.436-33.512-43.494c3.657-0.968,7.5-1.484,11.466-1.484
						C371.02,191.542,391.149,211.682,391.149,236.519z"/>
				</g>
			</g>
			<g>
				<g>
					<circle style="fill:#FFBC8A;" cx="341.832" cy="175.516" r="22.127"/>
				</g>
				<g>
					<circle style="fill:#FFBC8A;" cx="170.225" cy="175.516" r="22.127"/>
				</g>
			</g>
			<path style="fill:#006AC3;" d="M376.449,342.978v149.644c0,5.913-4.78,10.714-10.703,10.714H146.317
				c-5.924,0-10.714-4.801-10.714-10.714V342.978c0-31.729,16.977-59.483,42.351-74.678c9.436-5.656,20.037-9.57,31.359-11.301
				c4.327-0.669,8.757-1.01,13.269-1.01h66.9c4.512,0,8.932,0.34,13.258,1.01c11.322,1.731,21.922,5.645,31.369,11.301
				C359.482,283.495,376.449,311.249,376.449,342.978z"/>
			<path style="fill:#0057A1;" d="M376.457,342.975v149.652c0,5.915-4.795,10.71-10.71,10.71h-12.542V342.975
				c0-48.046-38.942-86.987-86.987-86.987h23.252C337.511,255.987,376.457,294.933,376.457,342.975z"/>
			<path style="fill:#FFF5F5;" d="M334.108,268.3v235.036H177.953V268.3c4.09-2.452,8.386-4.574,12.877-6.325
				c9.828-3.863,20.542-5.985,31.75-5.985h66.9c11.208,0,21.912,2.122,31.75,5.985C325.712,263.726,330.018,265.849,334.108,268.3z"
				/>
			<g>
				<path style="fill:#006AC3;" d="M302.739,256.999v82.404c0,11.239-9.117,20.356-20.356,20.356h-52.714
					c-11.239,0-20.356-9.117-20.356-20.356v-82.404c4.327-0.669,8.757-1.01,13.269-1.01h66.9
					C293.993,255.99,298.413,256.33,302.739,256.999z"/>
			</g>
			<path style="fill:#FFBC8A;" d="M275.749,255.99v51.179c0,11.559-9.375,20.923-20.923,20.923
				c-11.559,0-20.933-9.364-20.933-20.923V255.99H275.749z"/>
			<path style="fill:#E0D3CE;" d="M321.231,261.975c-15.576,18.924-39.157,30.844-65.2,30.844c-26.043,0-49.624-11.919-65.2-30.844
				c9.828-3.863,20.542-5.985,31.75-5.985h66.9C300.689,255.99,311.393,258.112,321.231,261.975z"/>
			<path style="fill:#0057A1;" d="M302.739,256.999v21.685c-13.434,8.952-29.535,14.134-46.708,14.134
				c-17.173,0-33.275-5.182-46.719-14.144v-21.675c4.327-0.669,8.757-1.01,13.269-1.01h66.9
				C293.993,255.99,298.413,256.33,302.739,256.999z"/>
			<path style="fill:#F5A871;" d="M275.749,255.99v34.49c-6.336,1.535-12.949,2.339-19.718,2.339c-7.644,0-15.072-1.02-22.139-2.957
				V255.99H275.749z"/>
			<path style="fill:#FDD1A7;" d="M173.706,128.447l10.837,88.723c4.413,36.129,35.089,63.286,71.486,63.286l0,0
				c36.397,0,67.073-27.157,71.486-63.286l10.837-88.723H173.706z"/>
			<g>
				<g>
					<line style="fill:#F69583;" x1="306.075" y1="243.223" x2="306.075" y2="243.316"/>
				</g>
			</g>
			<path style="fill:#C86D3D;" d="M345.804,154.459c-8.27,3.978-24.972,6.783-45.095,8.405c-2.044,0.165-3.995-0.885-4.968-2.69
				l-6.176-11.461c-2.021-3.75-7.461-3.566-9.224,0.312l-5.6,12.321c-0.818,1.8-2.589,2.98-4.565,3.024
				c-42.219,0.942-88.231-2.362-103.927-9.912c-13.42-27.921-8.557-62.419,14.587-85.574c20.553-20.542,50.027-26.668,75.913-18.421
				c1.971-0.889,4.048-1.564,6.212-2.014c23.894-4.916,49.716,1.896,68.255,20.435C354.362,92.041,359.224,126.538,345.804,154.459z
				"/>
			<path style="fill:#AC5E33;" d="M345.801,154.455c-4.286,2.071-10.848,3.812-18.976,5.254
				c14.021-29.515,8.818-65.87-15.597-90.306c-11.857-11.857-26.527-19.182-41.856-21.984c22.015-2.586,44.957,4.574,61.842,21.469
				C354.362,92.036,359.224,126.537,345.801,154.455z"/>
			<g>
				<g>
					<g>
						<path style="fill:#F69583;" d="M209.195,226.647c-4.349,0-7.874-3.525-7.874-7.874s3.525-7.92,7.874-7.92
							c4.349,0,7.874,3.479,7.874,7.827v0.093C217.069,223.122,213.544,226.647,209.195,226.647z"/>
					</g>
					<g>
						<path style="fill:#F69583;" d="M302.862,226.647c-4.349,0-7.874-3.525-7.874-7.874s3.525-7.92,7.874-7.92
							c4.349,0,7.874,3.479,7.874,7.827v0.093C310.736,223.122,307.211,226.647,302.862,226.647z"/>
					</g>
				</g>
				<g>
					<g>
						<path style="fill:#AC5E33;" d="M218.58,201.303c-4.267,0-7.726-3.459-7.726-7.726s3.459-7.773,7.726-7.773
							c4.267,0,7.726,3.412,7.726,7.68v0.093C226.307,197.844,222.848,201.303,218.58,201.303z"/>
						<path style="fill:#AC5E33;" d="M293.477,201.303c-4.268,0-7.726-3.459-7.726-7.726s3.459-7.773,7.726-7.773
							s7.726,3.412,7.726,7.68v0.093C301.203,197.844,297.744,201.303,293.477,201.303z"/>
					</g>
				</g>
				<path style="fill:#F69583;" d="M256.029,247.642c-13.077,0-24.735-8.781-28.351-21.352c-1.179-4.102,1.189-8.382,5.29-9.561
					c4.1-1.183,8.381,1.189,9.561,5.29c1.722,5.989,7.274,10.171,13.5,10.171c6.226,0,11.777-4.182,13.499-10.171
					c1.179-4.102,5.459-6.469,9.561-5.29c4.101,1.179,6.469,5.46,5.29,9.561C280.764,238.861,269.106,247.642,256.029,247.642z"/>
			</g>
			<path style="fill:#FFF5F5;" d="M343.774,68.526c-0.056,8.662-3.261,16.571-8.528,22.641c-2.604,3.001-6.742,4.212-10.557,3.101
				c-19.859-5.787-43.41-9.138-68.66-9.138s-48.802,3.351-68.66,9.138c-3.815,1.112-7.953-0.099-10.557-3.101
				c-5.267-6.069-8.471-13.978-8.528-22.639c-0.123-18.977,15.34-34.816,34.315-35.125c6.938-0.113,13.412,1.797,18.894,5.177
				c2.405-16.912,16.946-29.919,34.536-29.919s32.131,13.006,34.536,29.919c5.482-3.38,11.955-5.29,18.892-5.177
				C328.432,33.711,343.896,49.549,343.774,68.526z"/>
			<path style="fill:#E0D3CE;" d="M343.768,68.774c-0.113,8.554-3.301,16.364-8.508,22.378c-2.615,3.02-6.793,4.219-10.628,3.1
				c-3.761-1.097-7.655-2.106-11.673-3.02c6.665-6.346,10.807-15.319,10.807-25.25c0-14.35-8.664-26.682-21.047-32.049
				c3.432-0.601,7.045-0.717,10.737-0.242C330.896,35.935,344.002,51.192,343.768,68.774z"/>
			<path style="fill:#CDBFBB;" d="M281.442,470.669h-50.827c-11.83,0-21.42-9.59-21.42-21.42v-14.835
				c0-5.915,4.795-10.71,10.71-10.71h72.247c5.915,0,10.71,4.795,10.71,10.71v14.835
				C302.862,461.079,293.272,470.669,281.442,470.669z"/>
		</g>
		<g>
			<g>
				<path style="fill:#C86D3D;" d="M55.386,503.337L55.386,503.337c-9.006,0-16.307-7.301-16.307-16.307V157.858h32.614V487.03
					C71.693,496.036,64.392,503.337,55.386,503.337z"/>
				<path style="fill:#AC5E33;" d="M71.69,157.855v329.174c0,9.004-7.294,16.308-16.308,16.308c-2.967,0-5.759-0.793-8.149-2.184
					c4.873-2.823,8.149-8.087,8.149-14.124V157.855H71.69z"/>
				<g>
					<path style="fill:#FAC574;" d="M110.775,63.511v97.795c0,23.385-18.966,42.34-42.351,42.34H42.351
						C18.955,203.646,0,184.691,0,161.306V63.511c0-5.913,4.801-10.703,10.714-10.703h89.348
						C105.975,52.807,110.775,57.597,110.775,63.511z"/>
					<path style="fill:#D8AA64;" d="M83.434,52.807v33.955c0,4.275-3.461,7.726-7.726,7.726c-4.275,0-7.726-3.451-7.726-7.726
						V52.807H83.434z"/>
					<path style="fill:#D8AA64;" d="M53.837,52.807v69.29c0,4.265-3.451,7.726-7.726,7.726c-4.265,0-7.726-3.462-7.726-7.726v-69.29
						H53.837z"/>
					<path style="fill:#D8AA64;" d="M110.775,63.511v97.795c0,23.385-18.966,42.34-42.351,42.34H49.542
						c23.385,0,42.34-18.955,42.34-42.34V63.511c0-5.913-4.79-10.704-10.703-10.704h18.883
						C105.975,52.807,110.775,57.597,110.775,63.511z"/>
					<path style="fill:#FDE5C2;" d="M110.775,63.511v26.95c0-5.913-4.801-10.714-10.714-10.714H10.714
						C4.801,79.746,0,84.547,0,90.46v-26.95c0-5.913,4.801-10.714,10.714-10.714h89.348
						C105.975,52.797,110.775,57.597,110.775,63.511z"/>
					<rect x="67.982" y="52.807" style="fill:#FBCC85;" width="15.453" height="26.939"/>
					<rect x="38.385" y="52.807" style="fill:#FBCC85;" width="15.453" height="26.939"/>
					<path style="fill:#FBCC85;" d="M110.775,63.511v26.95c0-5.913-4.801-10.714-10.714-10.714h-8.18V63.511
						c0-5.913-4.79-10.704-10.703-10.704l0.01-0.01h18.873C105.975,52.797,110.775,57.597,110.775,63.511z"/>
				</g>
			</g>
		</g>
		<g>
			<rect x="427.39" y="297.166" style="fill:#CDBFBB;" width="28.382" height="60.756"/>
			<rect x="442.028" y="297.166" style="fill:#B9ACAC;" width="13.744" height="60.756"/>
			<path style="fill:#E84649;" d="M495.471,503.337H431.34c-7.226,0-13.083-5.857-13.083-13.083V365.643
				c0-7.226,5.857-13.083,13.083-13.083h35.862c22.838,0,41.352,18.514,41.352,41.352v96.342
				C508.554,497.48,502.697,503.337,495.471,503.337z"/>
			<path style="fill:#D73337;" d="M508.551,393.908v96.348c0,7.219-5.858,13.077-13.077,13.077h-25.158
				c7.229,0,13.088-5.858,13.088-13.077v-96.348c0-22.834-18.518-41.352-41.352-41.352H467.2
				C490.044,352.556,508.551,371.074,508.551,393.908z"/>
			<path style="fill:#E84649;" d="M484.16,333.993c-0.609,0-1.226-0.072-1.843-0.223c-4.145-1.015-6.682-5.197-5.668-9.342
				l5.355-21.874c1.015-4.146,5.203-6.681,9.342-5.668c4.145,1.015,6.682,5.197,5.668,9.342l-5.355,21.874
				C490.795,331.63,487.637,333.993,484.16,333.993z"/>
			<path style="fill:#FFF5F5;" d="M501.29,304.391h-72.323c-5.915,0-10.71-4.795-10.71-10.71v-4.313
				c0-13.539,10.975-24.514,24.514-24.514h58.519c5.915,0,10.71,4.795,10.71,10.71v18.116
				C512,299.595,507.205,304.391,501.29,304.391z"/>
			<path style="fill:#E0D3CE;" d="M512,275.561v18.121c0,5.912-4.798,10.71-10.71,10.71h-25.158c5.923,0,10.71-4.798,10.71-10.71
				v-18.121c0-5.912-4.787-10.71-10.71-10.71h25.158C507.202,264.851,512,269.65,512,275.561z"/>
		</g>
	</g>
	<g>
		<circle style="fill:#B6DCFF;" cx="430.625" cy="177.305" r="32.781"/>
		<path style="fill:#8ECBFD;" d="M463.401,177.3c0,18.111-14.673,32.784-32.773,32.784c-3.417,0-6.726-0.525-9.821-1.489
			c13.302-4.177,22.952-16.611,22.952-31.295c0-14.684-9.65-27.107-22.952-31.274c3.095-0.975,6.405-1.499,9.821-1.499
			C448.728,144.527,463.401,159.2,463.401,177.3z"/>
	</g>
	<g>
		<circle style="fill:#B6DCFF;" cx="479.709" cy="103.882" r="22.981"/>
		<path style="fill:#8ECBFD;" d="M502.686,103.882c0,12.692-10.282,22.984-22.973,22.984c-3.513,0-6.844-0.793-9.821-2.206
			c7.776-3.684,13.152-11.599,13.152-20.778s-5.376-17.093-13.152-20.778c2.977-1.414,6.308-2.206,9.821-2.206
			C492.404,80.899,502.686,91.191,502.686,103.882z"/>
	</g>
</g>
<g>
</g>
<g>
</g>
<g>
</g>
<g>
</g>
<g>
</g>
<g>
</g>
<g>
</g>
<g>
</g>
<g>
</g>
<g>
</g>
<g>
</g>
<g>
</g>
<g>
</g>
<g>
</g>
<g>
</g>
</svg>
