<?xml version="1.0" encoding="iso-8859-1"?>
<!-- Generator: Adobe Illustrator 23.0.3, SVG Export Plug-In . SVG Version: 6.00 Build 0)  -->
<svg version="1.1" id="Capa_1" xmlns="http://www.w3.org/2000/svg" xmlns:xlink="http://www.w3.org/1999/xlink" x="0px" y="0px"
	 viewBox="0 0 512 512" style="enable-background:new 0 0 512 512;" xml:space="preserve">
<g>
	<g>
		<g>
			<g>
				<g>
					<path style="fill:#FF872A;" d="M361.787,492.094h-38.699c-7.093,0-12.843-5.75-12.843-12.843s5.75-12.843,12.843-12.843h38.699
						c14.163,0,25.685-11.522,25.685-25.685V261.493c0-28.326,23.044-51.37,51.37-51.37c28.326,0,51.37,23.044,51.37,51.37v101.144
						c0,7.092-5.75,12.843-12.843,12.843c-7.093,0-12.843-5.75-12.843-12.843V261.493c0-14.163-11.522-25.685-25.685-25.685
						c-14.163,0-25.685,11.522-25.685,25.685v179.231C413.158,469.05,390.113,492.094,361.787,492.094z"/>
				</g>
			</g>
			<path style="fill:#CDBFBB;" d="M483.427,457.42h-12.114c-5.451,0-9.953-4.257-10.258-9.699l-3.118-55.662h38.866l-3.118,55.662
				C493.38,453.163,488.878,457.42,483.427,457.42z"/>
			<path style="fill:#9E9797;" d="M496.804,392.061l-3.121,55.659c-0.307,5.444-4.81,9.701-10.254,9.701h-12.116
				c-0.727,0-1.443-0.072-2.129-0.225c4.441-0.931,7.859-4.758,8.125-9.476l3.121-55.659H496.804z"/>
			<path style="fill:#9E9797;" d="M490.257,402.974h-25.774c-10.126,0-18.335-8.209-18.335-18.335v0
				c0-10.126,8.209-18.335,18.335-18.335h25.774c10.126,0,18.335,8.209,18.335,18.335v0
				C508.593,394.765,500.384,402.974,490.257,402.974z"/>
			<path style="fill:#756F6F;" d="M508.593,384.642c0,5.065-2.047,9.64-5.372,12.955c-3.316,3.326-7.9,5.372-12.966,5.372h-18.379
				c5.065,0,9.65-2.047,12.966-5.372c3.326-3.316,5.372-7.89,5.372-12.955c0-10.131-8.207-18.338-18.338-18.338h18.379
				C500.386,366.304,508.593,374.511,508.593,384.642z"/>
			<path style="fill:#CDBFBB;" d="M504.325,335.876h-39.797c-4.239,0-7.675-3.436-7.675-7.675c0-4.239,3.436-7.675,7.675-7.675
				h39.797c4.239,0,7.675,3.436,7.675,7.675C512,332.44,508.564,335.876,504.325,335.876z"/>
		</g>
		<g>
			<path style="fill:#FF872A;" d="M300.904,136.734H89.509v-26.658c0-52.675,42.702-95.377,95.377-95.377h20.642
				c52.675,0,95.377,42.702,95.377,95.377V136.734z"/>
			<path style="fill:#F36717;" d="M300.902,110.078v26.654h-22.223v-26.654c0-52.415-42.269-94.94-94.579-95.368
				c0.266-0.009,0.523-0.009,0.789-0.009h20.635C258.205,14.701,300.902,57.397,300.902,110.078z"/>
			<path style="fill:#FAC574;" d="M214.673,14.413v66.496c0,5.454-4.421,9.865-9.865,9.865h-19.208
				c-5.444,0-9.855-4.411-9.855-9.865V14.413c0-5.444,4.411-9.855,9.855-9.855h19.208C210.252,4.559,214.673,8.969,214.673,14.413z"
				/>
		</g>
		<path style="fill:#E8B76B;" d="M214.673,65.845v15.063c0,5.454-4.421,9.865-9.865,9.865h-19.208c-5.444,0-9.855-4.411-9.855-9.865
			V65.845c6.304-0.112,12.792-0.164,19.464-0.164C201.882,65.682,208.37,65.733,214.673,65.845z"/>
		<path style="fill:#F36717;" d="M390.414,149.62c0,57.702-87.397,137.305-195.207,137.305S0,207.322,0,149.62
			s87.397-71.654,195.207-71.654S390.414,91.917,390.414,149.62z"/>
		<path style="fill:#E0530B;" d="M281.365,210.122H109.977c-26.251,0-47.532-21.281-47.532-47.533v0
			c0-26.251,21.281-47.532,47.532-47.532h171.388c26.251,0,47.532,21.281,47.532,47.532v0
			C328.898,188.841,307.617,210.122,281.365,210.122z"/>
		<path style="fill:#E0530B;" d="M390.414,149.615c0,57.709-87.401,137.313-195.207,137.313c-22.182,0-43.5-3.37-63.37-9.226
			c11.867,1.983,24.123,3.062,36.658,3.062c107.806,0,195.207-79.604,195.207-137.313c0-29.26-22.469-47.261-58.675-57.905
			C356.571,94.752,390.414,113.708,390.414,149.615z"/>
		<g>
			<g>
				<path style="fill:#0057A1;" d="M319.82,331.214v166.577c0,5.331-4.318,9.65-9.64,9.65H80.229c-5.321,0-9.63-4.318-9.63-9.65
					V331.214c0-32.777,19.74-60.949,47.984-73.27c3.725-1.627,7.593-2.968,11.584-4.011c6.488-1.699,13.293-2.599,20.313-2.599
					h89.459c4.37,0,8.647,0.338,12.822,1.023c2.804,0.45,5.557,1.044,8.248,1.791c3.725,1.003,7.337,2.282,10.817,3.797
					c0.031,0.01,0.051,0.02,0.072,0.041C300.111,270.306,319.82,298.468,319.82,331.214z"/>
				<path style="fill:#004480;" d="M261.009,254.148c-15.063,19.852-38.897,32.501-65.339,32.501
					c-26.535,0-50.44-12.74-65.503-32.716c6.488-1.699,13.293-2.599,20.313-2.599h89.459c4.37,0,8.647,0.338,12.822,1.023
					C255.565,252.807,258.318,253.401,261.009,254.148z"/>
				<path style="fill:#004480;" d="M128.642,343.996v162.913c0,0.174-0.01,0.358-0.031,0.532h-15.288
					c-0.02-0.174-0.031-0.358-0.031-0.532V343.996c0-4.236,3.438-7.675,7.675-7.675
					C125.204,336.321,128.642,339.759,128.642,343.996z"/>
				<path style="fill:#004480;" d="M277.117,343.996v162.913c0,0.174-0.01,0.358-0.031,0.532h-15.288
					c-0.02-0.174-0.031-0.358-0.031-0.532V343.996c0-4.236,3.438-7.675,7.675-7.675
					C273.688,336.321,277.117,339.759,277.117,343.996z"/>
				<path style="fill:#004480;" d="M319.819,331.221v166.573c0,5.332-4.315,9.647-9.637,9.647h-22.233
					c5.332,0,9.647-4.315,9.647-9.637V331.221c0-32.774-19.747-60.956-47.99-73.264c-6.01-2.63-12.391-4.531-19.069-5.599
					c-4.171-0.678-8.466-1.027-12.832-1.027h22.223c4.377,0,8.661,0.349,12.843,1.027c6.668,1.068,13.048,2.969,19.058,5.599
					C300.072,270.265,319.819,298.446,319.819,331.221z"/>
				<path style="fill:#A4E540;" d="M319.82,460.593v37.198c0,5.331-4.318,9.65-9.64,9.65H80.229c-5.321,0-9.63-4.318-9.63-9.65
					v-37.198H319.82z"/>
				<path style="fill:#8EC737;" d="M319.819,460.592v37.202c0,5.332-4.315,9.647-9.637,9.647h-22.233
					c5.332,0,9.647-4.315,9.647-9.637v-37.213H319.819z"/>
				<rect x="70.599" y="354.014" style="fill:#A4E540;" width="249.221" height="49.324"/>
				<rect x="297.596" y="354.019" style="fill:#8EC737;" width="22.223" height="49.315"/>
				<g>
					<g>
						<path style="fill:#FCD79F;" d="M346.512,253.89c-5.789-1.698-13.36-4.477-20.938-8.869
							c-15.771-9.139-36.249-4.287-45.573,11.376c-9.397,15.785-4.14,36.179,11.68,45.464c14.476,8.497,47.016,5.146,61.67-34.241
							C355.476,261.909,352.359,255.605,346.512,253.89z"/>
						<path style="fill:#FBCC85;" d="M353.354,267.625c-9.169,24.632-25.338,35.172-39.715,37.526
							c9.844-5.608,19.208-15.8,25.389-32.409c2.118-5.72-0.993-12.024-6.846-13.733c-5.782-1.699-13.354-4.482-20.937-8.872
							c-6.57-3.807-13.958-5.188-21.009-4.359c10.295-6.672,24.028-7.306,35.335-0.757c7.583,4.39,15.155,7.174,20.937,8.872
							C352.362,255.601,355.473,261.904,353.354,267.625z"/>
						<circle style="fill:#FBCC85;" cx="278.439" cy="224.472" r="35.89"/>
						<path style="fill:#E8B76B;" d="M301.052,252.336c-9.005,7.307-20.477,9.537-30.945,7.041c5.076-1.197,9.957-3.53,14.275-7.041
							c15.391-12.485,17.744-35.09,5.25-50.481c-5.178-6.385-12.106-10.53-19.535-12.29c12.996-3.111,27.22,1.218,36.205,12.29
							C318.797,217.246,316.443,239.852,301.052,252.336z"/>
					</g>
				</g>
			</g>
			<rect x="178.253" y="260.461" style="fill:#FF872A;" width="33.903" height="246.98"/>
			<path style="fill:#F36717;" d="M212.156,260.461v24.509c-5.342,1.105-10.847,1.678-16.486,1.678
				c-5.966,0-11.789-0.645-17.417-1.872v-24.314H212.156z"/>
		</g>
		<g>
			<g>
				<g>
					<g>
						<circle style="fill:#FFBC8A;" cx="278.741" cy="172.769" r="21.422"/>
					</g>
					<g>
						<circle style="fill:#FFBC8A;" cx="112.601" cy="172.769" r="21.422"/>
					</g>
					<path style="fill:#FDD1A7;" d="M115.971,127.2l10.491,85.896c4.272,34.978,33.971,61.27,69.209,61.27l0,0
						c35.238,0,64.936-26.292,69.209-61.27l10.491-85.896H115.971z"/>
					<g>
						<line style="fill:#F69583;" x1="244.123" y1="208.399" x2="244.123" y2="208.489"/>
					</g>
					<path style="fill:#E8B76B;" d="M207.203,115.057c-3.551,8.432-8.739,16.332-15.606,23.199c-1.504,1.504-3.06,2.927-4.656,4.267
						c-22.206,18.696-52.978,21.981-78.192,9.855c-3.009-6.263-5.065-12.874-6.171-19.607c-1.525-9.282,5.618-17.714,15.012-17.714
						H207.203z"/>
					<path style="fill:#C99D5C;" d="M207.203,115.057c-3.551,8.432-8.739,16.332-15.606,23.199c-1.504,1.504-3.06,2.927-4.656,4.267
						c-5.894-6.785-10.632-14.398-14.122-22.708l-1.995-4.758H207.203z"/>
					<path style="fill:#E8B76B;" d="M184.139,115.057c3.544,8.43,8.743,16.331,15.61,23.198
						c22.409,22.409,55.815,27.12,82.841,14.126c3.011-6.267,5.069-12.877,6.177-19.612c1.525-9.275-5.617-17.712-15.017-17.712
						H184.139z"/>
					<g>
						<g>
							<path style="fill:#F69583;" d="M150.33,222.272c-4.21,0-7.623-3.413-7.623-7.623c0-4.21,3.413-7.668,7.623-7.668
								s7.623,3.368,7.623,7.578v0.09C157.953,218.859,154.54,222.272,150.33,222.272z"/>
						</g>
						<g>
							<path style="fill:#F69583;" d="M241.013,222.272c-4.21,0-7.623-3.413-7.623-7.623c0-4.21,3.413-7.668,7.623-7.668
								s7.623,3.368,7.623,7.578v0.09C248.636,218.859,245.223,222.272,241.013,222.272z"/>
						</g>
					</g>
					<g>
						<g>
							<path style="fill:#904D29;" d="M159.416,197.929c-4.239,0-7.675-3.436-7.675-7.675c0-4.239,3.436-7.72,7.675-7.72
								c4.239,0,7.675,3.391,7.675,7.63v0.09C167.091,194.493,163.655,197.929,159.416,197.929z"/>
							<path style="fill:#904D29;" d="M231.926,197.929c-4.239,0-7.675-3.436-7.675-7.675c0-4.239,3.436-7.72,7.675-7.72
								s7.675,3.391,7.675,7.63v0.09C239.601,194.493,236.165,197.929,231.926,197.929z"/>
						</g>
					</g>
					<path style="fill:#F69583;" d="M195.671,242.793c-12.747,0-24.111-8.559-27.635-20.813c-1.171-4.074,1.181-8.327,5.255-9.498
						c4.075-1.172,8.326,1.181,9.497,5.255c1.643,5.715,6.941,9.707,12.883,9.707c5.942,0,11.24-3.991,12.883-9.707
						c1.172-4.072,5.424-6.425,9.497-5.255c4.074,1.171,6.426,5.423,5.255,9.498C219.782,234.233,208.418,242.793,195.671,242.793z"
						/>
				</g>
			</g>
		</g>
		<g>
			<g>
				<g>
					<g>
						<g>
							<line style="fill:none;" x1="244.838" y1="237.102" x2="244.838" y2="237.194"/>
						</g>
					</g>
				</g>
			</g>
		</g>
	</g>
	<rect x="113.292" y="354.014" style="fill:#8EC737;" width="15.35" height="49.324"/>
	<path style="fill:#8EC737;" d="M113.292,460.593h15.35v46.316c0,0.174-0.01,0.358-0.031,0.532h-15.288
		c-0.02-0.174-0.031-0.358-0.031-0.532V460.593z"/>
	<rect x="261.767" y="354.014" style="fill:#8EC737;" width="15.35" height="49.324"/>
	<path style="fill:#8EC737;" d="M261.767,460.593h15.35v46.316c0,0.174-0.01,0.358-0.031,0.532h-15.288
		c-0.02-0.174-0.031-0.358-0.031-0.532V460.593z"/>
</g>
<g>
</g>
<g>
</g>
<g>
</g>
<g>
</g>
<g>
</g>
<g>
</g>
<g>
</g>
<g>
</g>
<g>
</g>
<g>
</g>
<g>
</g>
<g>
</g>
<g>
</g>
<g>
</g>
<g>
</g>
</svg>
