<?xml version="1.0" encoding="iso-8859-1"?>
<!-- Generator: Adobe Illustrator 23.0.3, SVG Export Plug-In . SVG Version: 6.00 Build 0)  -->
<svg version="1.1" id="Capa_1" xmlns="http://www.w3.org/2000/svg" xmlns:xlink="http://www.w3.org/1999/xlink" x="0px" y="0px"
	 viewBox="0 0 512 512" style="enable-background:new 0 0 512 512;" xml:space="preserve">
<g>
	<g>
		<g>
			<g>
				<g>
					<path style="fill:#52CC61;" d="M379.032,316.628V479.95c0,5.217-4.232,9.459-9.459,9.459H83.706
						c-5.216,0-9.459-4.242-9.459-9.459V316.628c0-42.787,34.333-77.576,76.957-78.307c0.457-0.02,0.913-0.02,1.38-0.02h148.12
						c0.467,0,0.924,0,1.38,0.02C344.699,239.052,379.032,273.841,379.032,316.628z"/>
					<path style="fill:#00B232;" d="M379.027,316.629v163.321c0,5.218-4.225,9.453-9.453,9.453h-20.277
						c5.218,0,9.453-4.235,9.453-9.453V316.629c0-43.257-35.071-78.328-78.328-78.328h20.277
						C343.965,238.301,379.027,273.372,379.027,316.629z"/>
					<g>
						<g>
							<path style="fill:#FF872A;" d="M171.726,237.743v158.553c0,4.201-3.41,7.611-7.612,7.611c-4.212,0-7.611-3.41-7.611-7.611
								V237.743c0-4.201,3.4-7.611,7.611-7.611C168.316,230.131,171.726,233.541,171.726,237.743z"/>
							<path style="fill:#FF872A;" d="M296.787,237.743v158.553c0,4.201-3.41,7.611-7.612,7.611c-4.212,0-7.611-3.41-7.611-7.611
								V237.743c0-4.201,3.4-7.611,7.611-7.611C293.378,230.131,296.787,233.541,296.787,237.743z"/>
						</g>
					</g>
					<g>
						<path style="fill:#00B232;" d="M149.165,368.031v121.378h-15.223V368.031c0-4.202,3.41-7.612,7.611-7.612
							C145.755,360.42,149.165,363.83,149.165,368.031z"/>
					</g>
					<path style="fill:#00B232;" d="M319.338,368.031v121.378h-15.223V368.031c0-4.202,3.41-7.612,7.612-7.612
						C315.928,360.42,319.338,363.83,319.338,368.031z"/>
					<path style="fill:#00B232;" d="M302.085,238.321c-2.882,3.674-6.049,7.145-9.479,10.412
						c-17.892,16.969-41.315,26.316-65.966,26.316c-30.537,0-57.858-14.31-75.435-36.728c0.457-0.02,0.913-0.02,1.38-0.02h148.12
						C301.172,238.301,301.628,238.301,302.085,238.321z"/>
					<path style="fill:#F36717;" d="M171.726,237.743v20.013c-5.531-3.867-10.636-8.312-15.223-13.244v-6.769
						c0-4.201,3.4-7.611,7.611-7.611C168.316,230.131,171.726,233.541,171.726,237.743z"/>
					<path style="fill:#F36717;" d="M296.787,237.743v6.759c-1.34,1.451-2.74,2.862-4.181,4.232
						c-3.481,3.298-7.175,6.313-11.042,9.022v-20.013c0-4.201,3.4-7.611,7.611-7.611
						C293.378,230.131,296.787,233.541,296.787,237.743z"/>
					<rect x="133.942" y="392.774" style="fill:#FBCC85;" width="185.396" height="96.636"/>
					<g>
						<rect x="133.942" y="392.774" style="fill:#E8B76B;" width="15.223" height="96.636"/>
					</g>
					<rect x="304.115" y="392.774" style="fill:#E8B76B;" width="15.223" height="96.636"/>
				</g>
			</g>
			<g>
				<g>
					<g>
						<path style="fill:#FFA964;" d="M445.734,325.118c8.625,8.625,12.021,20.497,10.186,31.682
							c-0.419,2.554-2.436,4.572-4.99,4.992c-11.183,1.838-23.062-1.557-31.687-10.182c-8.625-8.625-12.02-20.503-10.186-31.689
							c0.419-2.556,2.439-4.575,4.995-4.993C425.239,313.098,437.11,316.493,445.734,325.118z"/>
					</g>
					<g>
						<g>
							<path style="fill:#FF872A;" d="M450.889,361.795c-4.154,0.678-8.404,0.635-12.544-0.127
								c4.3-10.623,3.538-23.102-3.147-33.462c-4.095-6.342-9.821-10.984-16.281-13.74c9.675-0.283,19.428,3.264,26.816,10.652
								c8.625,8.625,12.018,20.491,10.186,31.676C455.497,359.364,453.458,361.376,450.889,361.795z"/>
						</g>
					</g>
				</g>
				<g>
					<g>
						<path style="fill:#FFA964;" d="M445.734,391.782c8.625,8.625,12.021,20.497,10.186,31.682
							c-0.419,2.554-2.436,4.572-4.99,4.992c-11.183,1.838-23.062-1.557-31.687-10.182c-8.625-8.625-12.02-20.503-10.186-31.689
							c0.419-2.556,2.439-4.575,4.995-4.993C425.239,379.762,437.11,383.157,445.734,391.782z"/>
					</g>
					<g>
						<path style="fill:#FF872A;" d="M450.889,428.465c-4.151,0.677-8.397,0.635-12.545-0.127c4.3-10.623,3.547-23.112-3.147-33.471
							c-4.095-6.342-9.821-10.984-16.281-13.74c9.675-0.283,19.428,3.264,26.816,10.652c8.626,8.625,12.018,20.499,10.186,31.686
							C455.497,426.033,453.458,428.046,450.889,428.465z"/>
					</g>
				</g>
				<g>
					<g>
						<path style="fill:#FFA964;" d="M445.734,258.455c8.625,8.625,12.021,20.497,10.186,31.682
							c-0.419,2.554-2.436,4.572-4.99,4.992c-11.183,1.838-23.062-1.557-31.687-10.182c-8.625-8.625-12.02-20.503-10.186-31.689
							c0.419-2.556,2.439-4.575,4.995-4.993C425.239,246.435,437.11,249.83,445.734,258.455z"/>
					</g>
					<g>
						<path style="fill:#FF872A;" d="M450.889,295.136c-4.154,0.678-8.404,0.635-12.544-0.127c4.3-10.623,3.547-23.103-3.147-33.471
							c-4.095-6.333-9.821-10.984-16.281-13.731c9.675-0.283,19.438,3.274,26.816,10.652c8.626,8.617,12.018,20.489,10.186,31.676
							C455.497,292.704,453.458,294.717,450.889,295.136z"/>
					</g>
				</g>
				<g>
					<path style="fill:#8EC737;" d="M456.402,512c-4.204,0-7.611-3.407-7.611-7.612v-260.31c0-4.204,3.407-7.611,7.611-7.611
						s7.612,3.407,7.612,7.611v260.31C464.014,508.593,460.607,512,456.402,512z"/>
				</g>
				<g>
					<g>
						<path style="fill:#FFA964;" d="M467.071,258.455c-8.625,8.625-12.021,20.497-10.186,31.682
							c0.419,2.554,2.436,4.572,4.99,4.992c11.183,1.838,23.062-1.557,31.687-10.182c8.625-8.625,12.02-20.503,10.186-31.689
							c-0.419-2.556-2.439-4.575-4.995-4.993C487.567,246.435,475.696,249.83,467.071,258.455z"/>
					</g>
					<g>
						<g>
							<g>
								<path style="fill:#FF872A;" d="M493.56,284.943c-8.17,8.17-19.252,11.649-29.904,10.427
									c5.277-1.837,10.242-5.004,14.444-9.489c9.548-10.222,12.685-24.696,9.421-37.713c3.731-0.543,7.529-0.511,11.25,0.099
									c2.549,0.418,4.558,2.438,4.977,4.987C505.587,264.441,502.186,276.316,493.56,284.943z"/>
							</g>
						</g>
					</g>
				</g>
				<g>
					<g>
						<path style="fill:#FFA964;" d="M467.071,325.119c-8.625,8.625-12.021,20.497-10.186,31.682
							c0.419,2.554,2.436,4.572,4.99,4.992c11.183,1.838,23.062-1.557,31.687-10.182c8.625-8.625,12.02-20.503,10.186-31.689
							c-0.419-2.556-2.439-4.575-4.995-4.993C487.567,313.099,475.696,316.494,467.071,325.119z"/>
					</g>
					<g>
						<g>
							<g>
								<path style="fill:#FF872A;" d="M493.56,351.607c-8.17,8.17-19.252,11.649-29.904,10.427
									c5.277-1.837,10.242-5.004,14.444-9.489c9.548-10.222,12.685-24.696,9.421-37.713c3.731-0.543,7.529-0.511,11.25,0.099
									c2.549,0.418,4.558,2.438,4.977,4.987C505.587,331.106,502.186,342.981,493.56,351.607z"/>
							</g>
						</g>
					</g>
				</g>
				<g>
					<g>
						<path style="fill:#FFA964;" d="M467.071,391.784c-8.625,8.625-12.021,20.497-10.186,31.682
							c0.419,2.554,2.436,4.572,4.99,4.992c11.183,1.838,23.062-1.557,31.687-10.182c8.625-8.625,12.02-20.503,10.186-31.689
							c-0.419-2.556-2.439-4.575-4.995-4.993C487.567,379.764,475.696,383.159,467.071,391.784z"/>
					</g>
					<g>
						<g>
							<g>
								<path style="fill:#FF872A;" d="M493.56,418.272c-8.17,8.17-19.252,11.649-29.904,10.427
									c5.277-1.837,10.242-5.004,14.444-9.489c9.548-10.222,12.685-24.696,9.421-37.713c3.731-0.543,7.529-0.511,11.25,0.099
									c2.549,0.418,4.558,2.438,4.977,4.987C505.587,397.77,502.186,409.645,493.56,418.272z"/>
							</g>
						</g>
					</g>
				</g>
			</g>
			<g>
				<g>
					<path style="fill:#FBCC85;" d="M316.826,30.001v62.897c0,4.458-3.177,8.275-7.56,9.091c-23.888,4.444-52.232,7.02-82.624,7.02
						s-58.736-2.576-82.624-7.02c-4.382-0.815-7.56-4.633-7.56-9.091V30.001c0-22.129,23.162-36.626,43.062-26.946
						c14.855,7.226,30.689,14.893,47.122,14.893s32.267-7.667,47.122-14.893C293.664-6.624,316.826,7.873,316.826,30.001z"/>
					<path style="fill:#E8B76B;" d="M316.826,30.003v62.895c0,4.454-3.179,8.28-7.559,9.093c-6.404,1.192-13.132,2.246-20.127,3.151
						c1.793-1.691,2.883-4.085,2.883-6.7v-68.44c0-12.559-7.467-22.659-17.558-27.271C294.204-6.278,316.826,8.129,316.826,30.003z"
						/>
				</g>
				<g>
					<ellipse style="fill:#E8B76B;" cx="226.642" cy="117.353" rx="179.777" ry="52.646"/>
					<path style="fill:#C99D5C;" d="M406.417,117.358c0,15.958-24.261,30.269-62.574,39.918
						c20.879-11.263,33.166-25.036,33.166-39.918s-12.276-28.654-33.144-39.918C382.167,87.089,406.417,101.389,406.417,117.358z"/>
				</g>
				<path style="fill:#FFBC8A;" d="M258.984,231.268v43.792c0,17.862-14.482,32.334-32.344,32.334
					c-17.862,0-32.334-14.472-32.334-32.334v-43.792H258.984z"/>
				<path style="fill:#F5A871;" d="M258.984,231.268v38.179c-10.26,3.684-21.17,5.602-32.344,5.602
					c-11.336,0-22.226-1.969-32.334-5.592v-38.19H258.984z"/>
				<g>
					<g>
						<circle style="fill:#FFBC8A;" cx="322.803" cy="147.815" r="21.872"/>
					</g>
					<g>
						<circle style="fill:#FFBC8A;" cx="130.481" cy="147.815" r="21.872"/>
					</g>
				</g>
				<path style="fill:#FDD1A7;" d="M304.443,120.46c4.575,0.785,7.856,4.839,7.687,9.478l-1.96,53.658
					c-1.159,22.222-10.921,42.034-25.949,56.301c-15.028,14.258-35.331,22.973-57.581,22.973c-44.49,0-81.203-34.84-83.53-79.274
					l-1.96-53.658c-0.169-4.639,3.112-8.693,7.687-9.478c22.841-3.919,49.422-6.163,77.803-6.163S281.601,116.541,304.443,120.46z"
					/>
				<g>
					<g>
						<g>
							<g>
								<line style="fill:#904D29;" x1="275.302" y1="181.302" x2="275.302" y2="181.392"/>
							</g>
						</g>
					</g>
				</g>
				<g>
					<g>
						<path style="fill:#904D29;" d="M187.651,183.668c-4.204,0-7.611-3.407-7.611-7.611s3.408-7.66,7.611-7.66
							c4.204,0,7.611,3.359,7.611,7.563v0.097C195.262,180.261,191.854,183.668,187.651,183.668z"/>
						<path style="fill:#904D29;" d="M265.633,183.668c-4.204,0-7.612-3.407-7.612-7.611s3.407-7.66,7.612-7.66
							s7.612,3.359,7.612,7.563v0.097C273.245,180.261,269.837,183.668,265.633,183.668z"/>
					</g>
				</g>
				<path style="fill:#F5A871;" d="M226.642,231.917c-13.424,0-25.391-9.014-29.103-21.919c-1.162-4.041,1.171-8.258,5.212-9.419
					c4.039-1.167,8.257,1.171,9.419,5.211c1.846,6.42,7.797,10.904,14.473,10.904c6.675,0,12.627-4.484,14.473-10.904
					c1.162-4.039,5.378-6.372,9.419-5.211c4.04,1.163,6.373,5.38,5.211,9.419C252.033,222.904,240.065,231.917,226.642,231.917z"/>
			</g>
		</g>
		<g>
			<g>
				<path style="fill:#EFE2DD;" d="M121.023,284.851L121.023,284.851c-7.137,0-12.922,5.785-12.922,12.922v72.106
					c0,6.716-5.445,12.161-12.161,12.161h0c-6.716,0-12.161-5.445-12.161-12.161v-72.106c0-7.137-5.785-12.922-12.922-12.922h0
					c-7.137,0-12.922,5.785-12.922,12.922v72.106c0,6.716-5.445,12.161-12.161,12.161h0c-6.716,0-12.161-5.445-12.161-12.161
					l0-71.741c0-6.958-5.347-12.945-12.298-13.272c-7.421-0.349-13.547,5.564-13.547,12.907v105.2
					c0,17.168,13.917,31.085,31.085,31.085h64.007c17.168,0,31.085-13.917,31.085-31.085v-105.2
					C133.945,290.636,128.16,284.851,121.023,284.851z"/>
			</g>
			<g>
				<path style="fill:#CDBFBB;" d="M133.942,297.772v105.201c0,17.171-13.914,31.085-31.085,31.085H88.801
					c17.161,0,31.085-13.914,31.085-31.085V297.772c0-4.547-2.344-8.535-5.896-10.839c2.02-1.319,4.435-2.081,7.033-2.081
					C128.157,284.853,133.942,290.637,133.942,297.772z"/>
			</g>
			<path style="fill:#9E9797;" d="M75.572,504.388h-9.005c-5.397,0-9.773-4.375-9.773-9.773v-74.004
				c0-7.884,6.391-14.275,14.275-14.275h0c7.884,0,14.275,6.391,14.275,14.275v74.004C85.345,500.013,80.969,504.388,75.572,504.388
				z"/>
			<path style="fill:#756F6F;" d="M85.34,420.611v74.004c0,5.399-4.374,9.773-9.773,9.773h-9.002c-0.67,0-1.319-0.071-1.949-0.203
				c4.445-0.903,7.794-4.851,7.794-9.57v-74.004c0-3.948-1.593-7.51-4.181-10.098c-1.055-1.055-2.273-1.948-3.623-2.629
				c1.938-0.995,4.141-1.553,6.465-1.553c3.938,0,7.51,1.604,10.088,4.181C83.747,413.101,85.34,416.664,85.34,420.611z"/>
		</g>
		<path style="fill:#FF872A;" d="M276.977,448.703h-100.67c-4.204,0-7.611-3.407-7.611-7.611s3.408-7.612,7.611-7.612h100.67
			c4.204,0,7.612,3.407,7.612,7.612S281.181,448.703,276.977,448.703z"/>
	</g>
	<g>
		<path style="fill:#756F6F;" d="M415.736,54.856c0,4.204,3.407,7.611,7.612,7.611h10.643c4.204,0,7.611-3.407,7.611-7.611
			c0-2.599-1.304-4.89-3.291-6.263c1.59-1.891,3.97-3.097,6.628-3.097c4.774,0,8.658,3.884,8.658,8.658
			c0,4.204,3.407,7.611,7.611,7.611s7.612-3.407,7.612-7.611c0-13.168-10.713-23.881-23.881-23.881
			c-6.282,0-12.002,2.442-16.27,6.422c-4.268-3.98-9.988-6.422-16.27-6.422c-13.168,0-23.881,10.713-23.881,23.881
			c0,4.204,3.407,7.611,7.611,7.611s7.612-3.407,7.612-7.611c0-4.774,3.884-8.658,8.658-8.658c2.658,0,5.038,1.206,6.627,3.098
			C417.04,49.967,415.736,52.258,415.736,54.856z"/>
		<path style="fill:#756F6F;" d="M77.454,202.454c-6.282,0-12.002,2.442-16.27,6.422c-4.268-3.98-9.988-6.422-16.27-6.422
			c-13.168,0-23.881,10.713-23.881,23.881c0,4.204,3.408,7.611,7.611,7.611s7.611-3.407,7.611-7.611
			c0-4.774,3.884-8.658,8.658-8.658c2.658,0,5.038,1.206,6.627,3.098c-1.987,1.373-3.291,3.665-3.291,6.263
			c0,4.204,3.408,7.611,7.611,7.611h10.644c4.204,0,7.611-3.407,7.611-7.611c0-2.599-1.304-4.89-3.291-6.263
			c1.59-1.891,3.969-3.097,6.627-3.097c4.774,0,8.658,3.884,8.658,8.658c0,4.204,3.408,7.611,7.611,7.611s7.611-3.407,7.611-7.611
			C101.335,213.167,90.622,202.454,77.454,202.454z"/>
		<path style="fill:#756F6F;" d="M472.67,170.675c-6.282,0-12.002,2.442-16.27,6.421c-4.268-3.979-9.987-6.421-16.27-6.421
			c-13.168,0-23.881,10.713-23.881,23.881c0,4.204,3.407,7.611,7.611,7.611s7.612-3.407,7.612-7.611
			c0-4.774,3.884-8.658,8.658-8.658c2.658,0,5.038,1.206,6.627,3.097c-1.987,1.373-3.291,3.665-3.291,6.263
			c0,4.204,3.407,7.611,7.612,7.611h10.644c4.204,0,7.611-3.407,7.611-7.611c0-2.599-1.304-4.89-3.291-6.263
			c1.59-1.891,3.969-3.097,6.627-3.097c4.774,0,8.658,3.884,8.658,8.658c0,4.204,3.407,7.611,7.612,7.611s7.611-3.407,7.611-7.611
			C496.551,181.388,485.838,170.675,472.67,170.675z"/>
	</g>
</g>
<g>
</g>
<g>
</g>
<g>
</g>
<g>
</g>
<g>
</g>
<g>
</g>
<g>
</g>
<g>
</g>
<g>
</g>
<g>
</g>
<g>
</g>
<g>
</g>
<g>
</g>
<g>
</g>
<g>
</g>
</svg>
