<?xml version="1.0" encoding="iso-8859-1"?>
<!-- Generator: Adobe Illustrator 23.0.3, SVG Export Plug-In . SVG Version: 6.00 Build 0)  -->
<svg version="1.1" id="Capa_1" xmlns="http://www.w3.org/2000/svg" xmlns:xlink="http://www.w3.org/1999/xlink" x="0px" y="0px"
	 viewBox="0 0 512 512" style="enable-background:new 0 0 512 512;" xml:space="preserve">
<g>
	<g>
		<g>
			<path style="fill:#1475CC;" d="M381.229,321.334v165.962c0,5.305-4.296,9.601-9.601,9.601H81.137
				c-5.305,0-9.612-4.296-9.612-9.601V321.334c0-43.391,34.727-78.665,77.902-79.571c0.567-0.01,1.133-0.021,1.7-0.021h150.51
				c0.567,0,1.133,0.01,1.7,0.021C346.512,242.67,381.229,277.943,381.229,321.334z"/>
			<path style="fill:#0057A1;" d="M381.228,321.334v165.96c0,5.302-4.294,9.606-9.606,9.606h-20.604
				c5.302,0,9.606-4.303,9.606-9.606v-165.96c0-43.956-35.638-79.594-79.594-79.594h20.605
				C345.6,241.74,381.228,277.377,381.228,321.334z"/>
			<path style="fill:#0057A1;" d="M303.337,241.763c-2.998,3.873-6.315,7.541-9.931,10.972
				c-18.183,17.245-41.98,26.743-67.024,26.743c-31.215,0-59.122-14.711-76.954-37.715c0.567-0.01,1.133-0.021,1.7-0.021h150.51
				C302.204,241.742,302.77,241.753,303.337,241.763z"/>
			<path style="fill:#FEF0DC;" d="M170.567,244.678v154.517c0,4.265-3.462,7.726-7.726,7.726c-4.265,0-7.726-3.461-7.726-7.726
				V244.678c0-4.275,3.461-7.726,7.726-7.726C167.106,236.952,170.567,240.403,170.567,244.678z"/>
			<path style="fill:#FCD79F;" d="M170.567,244.678v17.214c-5.625-3.925-10.807-8.437-15.453-13.454v-3.76
				c0-4.275,3.461-7.726,7.726-7.726C167.106,236.952,170.567,240.403,170.567,244.678z"/>
			<path style="fill:#FEF0DC;" d="M297.65,244.678v154.517c0,4.265-3.461,7.726-7.726,7.726c-4.265,0-7.726-3.461-7.726-7.726
				V244.678c0-4.275,3.462-7.726,7.726-7.726C294.189,236.952,297.65,240.403,297.65,244.678z"/>
			<path style="fill:#FCD79F;" d="M297.65,244.678v3.781c-1.37,1.463-2.781,2.885-4.244,4.275
				c-3.534,3.348-7.283,6.408-11.208,9.158v-17.214c0-4.275,3.462-7.726,7.726-7.726C294.189,236.952,297.65,240.403,297.65,244.678
				z"/>
			<path style="fill:#0057A1;" d="M147.64,370.56V496.9h-15.46V370.56c0-4.27,3.46-7.73,7.73-7.73
				C144.18,362.83,147.64,366.29,147.64,370.56z"/>
			<path style="fill:#0057A1;" d="M320.572,373.564v123.333h-15.453V373.564c0-4.265,3.462-7.726,7.726-7.726
				C317.121,365.838,320.572,369.299,320.572,373.564z"/>
			<rect x="132.186" y="398.712" style="fill:#FBCC85;" width="188.389" height="98.188"/>
			<rect x="132.19" y="398.71" style="fill:#E8B76B;" width="15.45" height="98.19"/>
			<rect x="305.119" y="398.711" style="fill:#E8B76B;" width="15.453" height="98.186"/>
			<g>
				<path style="fill:#FBCC85;" d="M318.022,30.486l0,63.913c0,4.53-3.229,8.409-7.682,9.238
					c-24.274,4.516-53.076,7.134-83.959,7.134s-59.685-2.617-83.959-7.134c-4.453-0.829-7.682-4.708-7.682-9.238V30.486
					c0-22.486,23.537-37.218,43.757-27.382c15.095,7.342,31.185,15.133,47.884,15.133s32.789-7.791,47.884-15.133
					C294.486-6.731,318.022,8,318.022,30.486z"/>
				<path style="fill:#E8B76B;" d="M318.022,30.487v63.911c0,4.526-3.23,8.414-7.682,9.24c-6.507,1.211-13.344,2.282-20.452,3.202
					c1.822-1.719,2.93-4.151,2.93-6.808V30.487c0-12.762-7.588-23.025-17.842-27.711C295.034-6.379,318.022,8.26,318.022,30.487z"/>
				<ellipse style="fill:#E8B76B;" cx="226.381" cy="119.249" rx="182.681" ry="53.496"/>
				<path style="fill:#C99D5C;" d="M409.061,119.254c0,16.216-24.653,30.758-63.585,40.562
					c21.217-11.445,33.702-25.44,33.702-40.562s-12.474-29.117-33.68-40.562C384.419,88.496,409.061,103.027,409.061,119.254z"/>
				<path style="fill:#FFBC8A;" d="M259.245,235.005v44.493c0,18.152-14.721,32.863-32.863,32.863
					c-18.152,0-32.863-14.711-32.863-32.863v-44.493H259.245z"/>
				<circle style="fill:#FFBC8A;" cx="324.096" cy="150.203" r="22.226"/>
				<circle style="fill:#FFBC8A;" cx="128.666" cy="150.203" r="22.226"/>
				<path style="fill:#F5A871;" d="M259.245,235.005v38.786c-10.425,3.729-21.521,5.687-32.863,5.687
					c-11.517,0-22.581-1.999-32.863-5.687v-38.786H259.245z"/>
				<path style="fill:#FDD1A7;" d="M305.439,122.407c4.649,0.798,7.983,4.917,7.811,9.631l-1.992,54.525
					c-1.178,22.581-11.097,42.713-26.368,57.211c-15.271,14.489-35.902,23.344-58.511,23.344c-45.209,0-82.515-35.403-84.879-80.555
					l-1.992-54.525c-0.172-4.714,3.162-8.833,7.811-9.631c23.211-3.982,50.221-6.263,79.06-6.263S282.228,118.424,305.439,122.407z"
					/>
				<line style="fill:none;" x1="275.827" y1="184.231" x2="275.827" y2="184.323"/>
				<path style="fill:#0086F9;" d="M186.76,186.627c-4.268,0-7.726-3.459-7.726-7.726s3.459-7.776,7.726-7.776
					s7.726,3.41,7.726,7.678v0.098C194.486,183.168,191.027,186.627,186.76,186.627z"/>
				<path style="fill:#0086F9;" d="M266.003,186.627c-4.268,0-7.726-3.459-7.726-7.726s3.459-7.776,7.726-7.776
					s7.726,3.41,7.726,7.678v0.098C273.729,183.168,270.271,186.627,266.003,186.627z"/>
				<path style="fill:#F5A871;" d="M226.381,235.656c-13.637,0-25.795-9.156-29.565-22.267c-1.179-4.101,1.189-8.381,5.29-9.561
					c4.1-1.181,8.381,1.189,9.561,5.29c1.877,6.527,7.928,11.086,14.714,11.086c6.787,0,12.837-4.558,14.714-11.086
					c1.18-4.102,5.465-6.467,9.561-5.29c4.101,1.18,6.469,5.461,5.29,9.561C252.176,226.5,240.018,235.656,226.381,235.656z"/>
			</g>
			<g>
				<path style="fill:#EFE2DD;" d="M7.176,367.176c2.806-54.164,26.187-100.698,59.674-125.469
					c3.701-2.738,8.774-2.737,12.475,0.002c33.486,24.783,56.858,71.305,59.663,125.468c0.31,5.987-4.514,10.994-10.509,10.994
					H17.685C11.691,378.17,6.866,373.163,7.176,367.176z"/>
				<path style="fill:#CDBFBB;" d="M138.984,367.18c0.315,5.984-4.511,10.989-10.505,10.989h-22.787
					c5.994,0,10.821-5.005,10.505-10.989c-2.65-51.337-23.786-95.819-54.503-121.414c1.683-1.419,3.407-2.766,5.153-4.059
					c3.701-2.734,8.781-2.734,12.482,0C112.81,266.492,136.187,313.014,138.984,367.18z"/>
				<g>
					<path style="fill:#9E9797;" d="M80.982,511.996h-15.8c-2.779,0-5.032-2.253-5.032-5.032V347.69
						c0-7.142,5.79-12.932,12.932-12.932h0c7.142,0,12.932,5.79,12.932,12.932v159.275
						C86.013,509.743,83.761,511.996,80.982,511.996z"/>
				</g>
				<g>
					<path style="fill:#756F6F;" d="M86.01,347.686v159.276c0,2.782-2.246,5.038-5.027,5.038H69.589
						c2.781,0,5.037-2.256,5.037-5.038V347.686c0-3.564-1.442-6.799-3.791-9.138c-0.999-0.999-2.163-1.833-3.441-2.472
						c1.721-0.845,3.647-1.319,5.687-1.319c3.565,0,6.799,1.452,9.138,3.791S86.01,344.122,86.01,347.686z"/>
				</g>
			</g>
			<path style="fill:#77D47D;" d="M445.395,341.271c8.766,8.766,12.216,20.831,10.349,32.198c-0.426,2.593-2.473,4.641-5.066,5.067
				c-11.365,1.87-23.438-1.58-32.204-10.346c-8.765-8.765-12.215-20.838-10.35-32.205c0.426-2.595,2.476-4.644,5.07-5.068
				C424.566,329.056,436.63,332.506,445.395,341.271z"/>
			<path style="fill:#0AC444;" d="M450.638,378.546c-4.22,0.689-8.536,0.646-12.752-0.128c4.369-10.794,3.605-23.486-3.198-34.012
				c-4.161-6.445-9.98-11.162-16.544-13.962c9.831-0.288,19.742,3.317,27.249,10.824c8.766,8.766,12.214,20.834,10.35,32.202
				C455.315,376.077,453.246,378.12,450.638,378.546z"/>
			<path style="fill:#BDEB73;" d="M456.236,418.923c-4.268,0-7.726-3.459-7.726-7.726v-107c0-4.268,3.459-7.726,7.726-7.726
				s7.726,3.459,7.726,7.726v107C463.963,415.464,460.504,418.923,456.236,418.923z"/>
			<path style="fill:#77D47D;" d="M467.077,341.273c-8.766,8.766-12.216,20.831-10.349,32.198c0.426,2.593,2.473,4.641,5.066,5.067
				c11.365,1.87,23.438-1.58,32.204-10.346c8.765-8.765,12.215-20.838,10.35-32.205c-0.426-2.595-2.476-4.644-5.07-5.068
				C487.907,329.058,475.842,332.508,467.077,341.273z"/>
			<path style="fill:#0AC444;" d="M493.994,368.189c-8.302,8.302-19.563,11.837-30.388,10.596
				c5.363-1.867,10.407-5.085,14.677-9.643c9.702-10.387,12.89-25.095,9.573-38.322c3.792-0.552,7.654-0.52,11.437,0.101
				c2.587,0.425,4.626,2.475,5.052,5.062C506.216,347.353,502.76,359.422,493.994,368.189z"/>
			<path style="fill:#EFE2DD;" d="M478.657,511.996h-44.841c-5.242,0-9.621-3.991-10.107-9.21l-7.247-77.886
				c-0.554-5.952,4.13-11.091,10.107-11.091h59.334c5.977,0,10.661,5.139,10.107,11.091l-7.247,77.886
				C488.278,508.004,483.898,511.996,478.657,511.996z"/>
			<path style="fill:#CDBFBB;" d="M496.01,424.898l-7.248,77.886c-0.487,5.217-4.862,9.217-10.11,9.217H459.58
				c5.238,0,9.623-3.999,10.11-9.217l7.248-77.886c0.548-5.948-4.131-11.084-10.11-11.084H485.9
				C491.879,413.813,496.568,418.949,496.01,424.898z"/>
			<circle style="fill:#ED6264;" cx="456.233" cy="290.202" r="27.984"/>
			<path style="fill:#D73337;" d="M484.222,290.198c0,15.463-12.53,27.993-27.993,27.993c-3.389,0-6.639-0.608-9.643-1.706
				c10.706-3.927,18.339-14.213,18.339-26.286c0-12.062-7.632-22.348-18.339-26.275c3.004-1.099,6.253-1.706,9.643-1.706
				C471.692,262.217,484.222,274.747,484.222,290.198z"/>
		</g>
		<path style="fill:#8ECBFD;" d="M484.222,203.554c0,15.458-12.531,27.988-27.988,27.988s-27.988-12.531-27.988-27.988
			c0-11.995,16.854-39.213,24.405-50.805c1.689-2.593,5.479-2.593,7.167,0C467.368,164.341,484.222,191.559,484.222,203.554z"/>
		<path style="fill:#65BAFC;" d="M484.217,203.552c0,15.458-12.529,27.988-27.988,27.988c-3.764,0-7.357-0.745-10.637-2.103
			c10.185-4.176,17.35-14.19,17.35-25.884c0-8.977-9.44-26.478-17.35-39.571c2.663-4.407,5.153-8.316,7.054-11.234
			c1.688-2.592,5.48-2.592,7.168-0.001C467.364,164.339,484.217,191.557,484.217,203.552z"/>
	</g>
	<g>
		<path style="fill:#FEF0DC;" d="M187.181,496.904L187.181,496.904c-12.393,0-22.44-10.047-22.44-22.44v-29.291
			c0-5.606,4.545-10.151,10.151-10.151h24.579c5.606,0,10.151,4.545,10.151,10.151v29.291
			C209.621,486.857,199.574,496.904,187.181,496.904z"/>
		<path style="fill:#FEF0DC;" d="M265.79,496.904L265.79,496.904c-12.393,0-22.44-10.047-22.44-22.44v-29.291
			c0-5.606,4.545-10.151,10.151-10.151h24.579c5.606,0,10.151,4.545,10.151,10.151v29.291
			C288.23,486.857,278.183,496.904,265.79,496.904z"/>
	</g>
</g>
<g>
</g>
<g>
</g>
<g>
</g>
<g>
</g>
<g>
</g>
<g>
</g>
<g>
</g>
<g>
</g>
<g>
</g>
<g>
</g>
<g>
</g>
<g>
</g>
<g>
</g>
<g>
</g>
<g>
</g>
</svg>
