<?xml version="1.0" encoding="iso-8859-1"?>
<!-- Generator: Adobe Illustrator 23.0.3, SVG Export Plug-In . SVG Version: 6.00 Build 0)  -->
<svg version="1.1" id="Capa_1" xmlns="http://www.w3.org/2000/svg" xmlns:xlink="http://www.w3.org/1999/xlink" x="0px" y="0px"
	 viewBox="0 0 512 512" style="enable-background:new 0 0 512 512;" xml:space="preserve">
<g>
	<g>
		<g>
			<path style="fill:#E84649;" d="M498.736,199.135h-59.084v-59.084c0-7.325-5.938-13.264-13.264-13.264H359.49
				c-7.325,0-13.264,5.938-13.264,13.264v59.084h-59.084c-7.325,0-13.264,5.938-13.264,13.264v66.899
				c0,7.325,5.938,13.264,13.264,13.264h59.084v59.084c0,7.325,5.938,13.264,13.264,13.264h66.899
				c7.325,0,13.264-5.938,13.264-13.264v-59.084h59.084c7.325,0,13.264-5.938,13.264-13.264v-66.899
				C512,205.073,506.062,199.135,498.736,199.135z"/>
		</g>
		<g>
			<path style="fill:#8ECBFD;" d="M469.412,131.791c0,2.648-0.258,5.223-0.752,7.726c-3.595,18.409-19.831,32.317-39.291,32.317
				c-19.47,0-35.696-13.907-39.291-32.317c-0.495-2.503-0.752-5.079-0.752-7.726c0-2.648,0.258-5.223,0.752-7.726
				c3.595-18.42,19.821-32.317,39.291-32.317c19.46,0,35.696,13.897,39.291,32.317C469.155,126.568,469.412,129.143,469.412,131.791
				z"/>
			<path style="fill:#2EA8FC;" d="M469.407,131.784c0,22.12-17.926,40.046-40.036,40.046c-3.744,0-7.36-0.51-10.791-1.47
				c16.867-4.714,29.245-20.199,29.245-38.576c0-18.367-12.378-33.852-29.245-38.566c3.43-0.96,7.047-1.47,10.791-1.47
				C451.481,91.748,469.407,109.673,469.407,131.784z"/>
			<path style="fill:#2EA8FC;" d="M469.412,131.791c0,2.648-0.258,5.223-0.752,7.726h-78.582c-0.495-2.503-0.752-5.079-0.752-7.726
				c0-2.648,0.258-5.223,0.752-7.726h78.582C469.155,126.568,469.412,129.143,469.412,131.791z"/>
		</g>
		<g>
			<g>
				<g>
					<path style="fill:#DAEDFF;" d="M36.563,166.655c-4.267,0-7.726-3.459-7.726-7.726V45.44c0-4.267,3.459-7.726,7.726-7.726
						s7.726,3.459,7.726,7.726v113.489C44.289,163.196,40.83,166.655,36.563,166.655z"/>
					<path style="fill:#65BAFC;" d="M53.203,197.204h-33.28v-31.586c0-5.403,4.38-9.784,9.784-9.784h13.713
						c5.403,0,9.784,4.38,9.784,9.784V197.204z"/>
					<g>
						<path style="fill:#DAEDFF;" d="M55.506,410.134H17.62c-6.489,0-11.75-5.261-11.75-11.75V194.138
							c0-6.489,5.261-11.75,11.75-11.75h37.886c6.489,0,11.75,5.261,11.75,11.75v204.246
							C67.255,404.874,61.995,410.134,55.506,410.134z"/>
						<path style="fill:#8ECBFD;" d="M67.252,194.142v204.241c0,6.486-5.254,11.75-11.75,11.75H35.671
							c6.496,0,11.75-5.264,11.75-11.75V194.142c0-6.496-5.254-11.75-11.75-11.75h19.831
							C61.998,182.392,67.252,187.645,67.252,194.142z"/>
						<path style="fill:#9E9797;" d="M36.563,471.201c-4.267,0-7.726-3.459-7.726-7.726V295.688c0-4.267,3.459-7.726,7.726-7.726
							s7.726,3.459,7.726,7.726v167.787C44.289,467.742,40.83,471.201,36.563,471.201z"/>
						<path style="fill:#F69798;" d="M67.252,194.142V311.75H5.87V194.142c0-6.496,5.264-11.75,11.75-11.75h37.882
							C61.998,182.392,67.252,187.645,67.252,194.142z"/>
						<path style="fill:#ED6264;" d="M67.252,194.142V311.75H47.421V194.142c0-6.496-5.254-11.75-11.75-11.75h19.831
							C61.998,182.392,67.252,187.645,67.252,194.142z"/>
						<path style="fill:#DAEDFF;" d="M63.342,493.704H9.784c-5.403,0-9.784-4.38-9.784-9.784v-13.597
							c0-5.403,4.38-9.784,9.784-9.784h53.559c5.403,0,9.784,4.38,9.784,9.784v13.597C73.126,489.324,68.745,493.704,63.342,493.704
							z"/>
						<path style="fill:#8ECBFD;" d="M73.122,470.321v13.599c0,5.401-4.373,9.784-9.784,9.784H41.678
							c5.401,0,9.784-4.383,9.784-9.784v-13.599c0-5.4-4.383-9.784-9.784-9.784h21.661
							C68.749,460.538,73.122,464.921,73.122,470.321z"/>
					</g>
				</g>
			</g>
			<g>
				<path style="fill:#F69798;" d="M459.729,481.125c-14.907,14.907-38.045,16.565-54.775,4.965
					c-2.091-1.442-4.09-3.101-5.954-4.965c-1.865-1.865-3.523-3.863-4.976-5.954c-11.59-16.74-9.931-39.878,4.976-54.785
					c14.907-14.907,38.045-16.565,54.775-4.966c2.091,1.442,4.09,3.101,5.954,4.966c1.865,1.865,3.523,3.863,4.976,5.954
					C476.294,443.081,474.635,466.219,459.729,481.125z"/>
				<path style="fill:#ED6264;" d="M459.73,481.126c-11.045,11.045-26.619,14.819-40.752,11.31
					c7.321-1.823,14.26-5.586,19.984-11.31c16.779-16.779,16.779-43.966,0-60.735c-5.724-5.724-12.663-9.497-19.984-11.32
					c14.133-3.509,29.706,0.265,40.752,11.32C476.509,437.16,476.509,464.347,459.73,481.126z"/>
				<path style="fill:#ED6264;" d="M464.704,426.34l-59.75,59.75c-2.091-1.442-4.09-3.101-5.954-4.965
					c-1.865-1.865-3.523-3.863-4.976-5.954l59.75-59.75c2.091,1.442,4.09,3.101,5.954,4.966
					C461.593,422.251,463.252,424.249,464.704,426.34z"/>
			</g>
			<g>
				<g>
					<path style="fill:#AC5E33;" d="M320.615,245.664H134.97c-16.962,0-30.712-13.75-30.712-30.712v-94.335
						c0-56.508,45.809-102.316,102.316-102.316h42.435c56.508,0,102.316,45.809,102.316,102.316v94.335
						C351.327,231.914,337.577,245.664,320.615,245.664z"/>
					<path style="fill:#904D29;" d="M351.332,120.613v94.342c0,16.959-13.751,30.71-30.722,30.71h-22.208
						c16.959,0,30.71-13.751,30.71-30.71v-94.342c0-56.504-45.802-102.317-102.317-102.317h22.219
						C305.519,18.296,351.332,64.109,351.332,120.613z"/>
					<path style="fill:#B0E5B1;" d="M355.619,323.487v158.844c0,6.284-5.089,11.373-11.363,11.373H111.332
						c-6.274,0-11.363-5.089-11.363-11.373V323.487c0-37.468,22.314-69.723,54.363-84.197c11.579-5.233,24.436-8.138,37.962-8.138
						h71c13.526,0,26.383,2.905,37.962,8.138C333.305,253.765,355.619,286.019,355.619,323.487z"/>
					<g>
						<path style="fill:#77D47D;" d="M154.991,387.163v106.541h-15.453V387.163c0-4.265,3.461-7.726,7.726-7.726
							C151.529,379.436,154.991,382.898,154.991,387.163z"/>
						<path style="fill:#77D47D;" d="M315.936,432.418v61.285h-15.453v-61.285c0-4.265,3.461-7.726,7.726-7.726
							C312.475,424.692,315.936,428.154,315.936,432.418z"/>
					</g>
					<path style="fill:#77D47D;" d="M355.62,323.488v158.847c0,6.278-5.09,11.368-11.368,11.368H330.94V323.488
						c0-50.998-41.335-92.332-92.332-92.332h24.68C314.282,231.156,355.62,272.495,355.62,323.488z"/>
					<g>
						<path style="fill:#77D47D;" d="M301.256,239.29c-16.081,23.632-43.195,38.941-73.462,38.941s-57.381-15.309-73.462-38.941
							c11.579-5.233,24.436-8.138,37.962-8.138h71C276.82,231.152,289.677,234.057,301.256,239.29z"/>
						<path style="fill:#CDBFBB;" d="M322.292,365.838v40.424c0,4.265-3.461,7.726-7.726,7.726c-4.265,0-7.726-3.461-7.726-7.726
							v-40.424c0-11.559-9.406-20.974-20.974-20.974s-20.985,9.416-20.985,20.974v40.424c0,4.265-3.461,7.726-7.726,7.726
							c-4.265,0-7.726-3.461-7.726-7.726v-40.424c0-17.431,12.321-32.039,28.711-35.593v-62.202c0-1.751-0.144-3.503-0.412-5.233
							c-0.659-4.049-2.05-7.953-4.141-11.507c-2.153-3.688-0.927-8.417,2.761-10.58c3.678-2.153,8.417-0.927,10.57,2.761
							c1.576,2.689,2.895,5.522,3.915,8.448c1.823,5.161,2.761,10.611,2.761,16.112v62.202
							C309.982,333.799,322.292,348.407,322.292,365.838z"/>
						<path style="fill:#CDBFBB;" d="M207.303,343.988c0,4.265-3.461,7.726-7.726,7.726c-22.365,0-40.558-18.193-40.558-40.548
							v-43.124c0-6.305,1.236-12.537,3.606-18.337c0.865-2.132,1.896-4.213,3.07-6.222c2.163-3.688,6.892-4.914,10.57-2.761
							c3.688,2.163,4.914,6.892,2.761,10.58c-1.772,3.008-3.039,6.274-3.771,9.663c-0.525,2.318-0.783,4.687-0.783,7.077v43.124
							c0,13.835,11.27,25.095,25.106,25.095C203.842,336.261,207.303,339.723,207.303,343.988z"/>
						<path style="fill:#9E9797;" d="M179.025,251.302c-1.772,3.008-3.039,6.274-3.771,9.663c-4.553-3.338-8.787-7.119-12.63-11.26
							c0.865-2.132,1.896-4.213,3.07-6.222c2.163-3.688,6.892-4.914,10.57-2.761C179.952,242.886,181.178,247.614,179.025,251.302z"
							/>
						<path style="fill:#9E9797;" d="M290.83,251.931c-4.007,4.038-8.396,7.685-13.104,10.879c-0.659-4.049-2.05-7.953-4.141-11.507
							c-2.153-3.688-0.927-8.417,2.761-10.58c3.678-2.153,8.417-0.927,10.57,2.761C288.492,246.172,289.811,249.005,290.83,251.931z
							"/>
						<path style="fill:#FDD1A7;" d="M140.412,104.519l11.502,94.174c4.684,38.349,37.245,67.175,75.878,67.175l0,0
							c38.634,0,71.195-28.826,75.878-67.175l11.503-94.174H140.412z"/>
						<path style="fill:#AC5E33;" d="M328.953,115.01c-1.077,8.251-3.461,16.363-7.139,24.018
							c-29.633,14.255-66.256,9.087-90.835-15.481c-1.57-1.57-3.048-3.197-4.458-4.87c-1.421,1.673-2.911,3.3-4.48,4.87
							c-24.568,24.568-61.191,29.736-90.824,15.481c-14.244-29.633-9.087-66.256,15.481-90.824
							c21.818-21.806,53.101-28.315,80.58-19.549c2.086-0.94,4.297-1.673,6.589-2.143c11.253-2.315,22.895-2.177,34.09,0.413
							c14.06,3.231,27.41,10.325,38.365,21.279C324.553,66.435,332.093,91.29,328.953,115.01z"/>
						<path style="fill:#904D29;" d="M328.953,115.01c-2.12-39.453-26.596-72.971-60.996-88.085
							c14.06,3.231,27.41,10.325,38.365,21.279C324.553,66.435,332.093,91.29,328.953,115.01z"/>
						<path style="fill:#904D29;" d="M131.436,138.83c1.671-3.613,5.831-5.411,9.569-4.043c26.048,9.53,55.657,3.208,75.572-16.707
							c1.335-1.335,2.643-2.751,3.89-4.211c0.912-1.068,2.04-1.957,3.359-2.436c3.162-1.148,6.537-0.16,8.582,2.249
							c1.334,1.571,2.693,3.051,4.04,4.398c19.941,19.941,49.605,26.254,75.678,16.668c3.694-1.358,7.813,0.393,9.518,3.939l0,0
							c1.98,4.118-0.03,9.044-4.322,10.614c-9.724,3.557-19.857,5.295-29.93,5.296c-22.263,0-44.236-8.49-60.879-24.615
							c-24.158,23.405-59.55,30.728-90.75,19.341C131.53,147.779,129.544,142.919,131.436,138.83L131.436,138.83z"/>
						<g>
							<line style="fill:#F69583;" x1="280.914" y1="193.544" x2="280.914" y2="193.642"/>
						</g>
						<g>
							<g>
								<path style="fill:#F69583;" d="M178.081,208.754c-4.616,0-8.358-3.742-8.358-8.358s3.742-8.407,8.358-8.407
									s8.358,3.692,8.358,8.308v0.098C186.439,205.012,182.697,208.754,178.081,208.754z"/>
							</g>
							<g>
								<path style="fill:#F69583;" d="M277.504,208.754c-4.616,0-8.358-3.742-8.358-8.358s3.742-8.407,8.358-8.407
									s8.358,3.692,8.358,8.308v0.098C285.862,205.012,282.12,208.754,277.504,208.754z"/>
							</g>
						</g>
						<g>
							<g>
								<path style="fill:#904D29;" d="M188.044,181.377c-4.267,0-7.726-3.459-7.726-7.726s3.459-7.776,7.726-7.776
									s7.726,3.41,7.726,7.677v0.099C195.77,177.918,192.311,181.377,188.044,181.377z"/>
								<path style="fill:#904D29;" d="M267.542,181.377c-4.267,0-7.726-3.459-7.726-7.726s3.459-7.776,7.726-7.776
									s7.726,3.41,7.726,7.677v0.099C275.268,177.918,271.809,181.377,267.542,181.377z"/>
							</g>
						</g>
						<path style="fill:#F69583;" d="M227.793,230.564c-13.671,0-25.858-9.179-29.637-22.321c-1.179-4.101,1.189-8.381,5.29-9.561
							c4.103-1.177,8.381,1.189,9.561,5.29c1.886,6.558,7.966,11.139,14.786,11.139c6.819,0,12.899-4.58,14.786-11.139
							c1.18-4.101,5.46-6.469,9.561-5.29c4.101,1.18,6.469,5.46,5.29,9.561C253.649,221.385,241.462,230.564,227.793,230.564z"/>
					</g>
					<line style="fill:#FF6672;" x1="225.479" y1="355.634" x2="225.479" y2="355.732"/>
				</g>
				<g>
					<g>
						<g>
							<path style="fill:#FFF5F5;" d="M267.476,440.142h-20.641c-4.446,0-8.663-2.147-11.28-5.745
								c-2.611-3.589-3.354-8.248-1.99-12.464c3.732-11.529,12.992-18.978,23.59-18.978s19.858,7.449,23.59,18.977
								c1.365,4.217,0.621,8.877-1.989,12.465C276.139,437.995,271.922,440.142,267.476,440.142z"/>
						</g>
					</g>
					<g>
						<g>
							<path style="fill:#FFF5F5;" d="M324.888,440.142h-20.641c-4.446,0-8.663-2.147-11.28-5.745
								c-2.611-3.589-3.354-8.248-1.99-12.464c3.731-11.529,12.991-18.978,23.59-18.978c10.599,0,19.858,7.449,23.59,18.978
								c1.365,4.216,0.621,8.876-1.989,12.464C333.552,437.994,329.335,440.142,324.888,440.142z"/>
						</g>
					</g>
				</g>
				<g>
					<circle style="fill:#FFF5F5;" cx="204.675" cy="343.99" r="27.854"/>
					<path style="fill:#CDBFBB;" d="M204.675,351.717c-4.267,0-7.726-3.459-7.726-7.726c0-4.267,3.459-7.776,7.726-7.776
						s7.726,3.409,7.726,7.676v0.1C212.401,348.258,208.942,351.717,204.675,351.717z"/>
				</g>
			</g>
		</g>
	</g>
	<g>
		<g>
			<path style="fill:#E0D3CE;" d="M336.169,434.396c-2.617,3.595-6.83,5.748-11.28,5.748h-12.022c4.45,0,8.664-2.153,11.281-5.748
				c2.617-3.585,3.358-8.252,1.988-12.465c-2.998-9.282-9.591-15.916-17.575-18.152c1.926-0.546,3.946-0.824,6.006-0.824
				c10.601,0,19.862,7.448,23.591,18.976C339.527,426.145,338.775,430.811,336.169,434.396z"/>
		</g>
	</g>
	<g>
		<g>
			<path style="fill:#E0D3CE;" d="M278.757,434.396c-2.617,3.595-6.83,5.748-11.28,5.748h-12.022c4.45,0,8.664-2.153,11.28-5.748
				c2.617-3.585,3.358-8.252,1.988-12.465c-2.998-9.282-9.591-15.916-17.575-18.152c1.926-0.546,3.946-0.824,6.006-0.824
				c10.601,0,19.862,7.448,23.591,18.976C282.105,426.145,281.363,430.811,278.757,434.396z"/>
		</g>
	</g>
</g>
<g>
</g>
<g>
</g>
<g>
</g>
<g>
</g>
<g>
</g>
<g>
</g>
<g>
</g>
<g>
</g>
<g>
</g>
<g>
</g>
<g>
</g>
<g>
</g>
<g>
</g>
<g>
</g>
<g>
</g>
</svg>
