<?xml version="1.0" encoding="iso-8859-1"?>
<!-- Generator: Adobe Illustrator 23.0.3, SVG Export Plug-In . SVG Version: 6.00 Build 0)  -->
<svg version="1.1" id="Capa_1" xmlns="http://www.w3.org/2000/svg" xmlns:xlink="http://www.w3.org/1999/xlink" x="0px" y="0px"
	 viewBox="0 0 512 512" style="enable-background:new 0 0 512 512;" xml:space="preserve">
<g>
	<g>
		<g>
			<path style="fill:#FF9846;" d="M512,444.49v20.14c0,5.69-4.612,10.302-10.302,10.302H10.302C4.612,474.932,0,470.319,0,464.63
				v-20.14c0-4.4,2.795-8.315,6.957-9.744l177.178-60.824h143.731l177.178,60.824C509.205,436.175,512,440.089,512,444.49z"/>
			<path style="fill:#FF771C;" d="M512,444.49v20.14c0,5.687-4.615,10.302-10.302,10.302h-20.604
				c5.687,0,10.302-4.615,10.302-10.302v-34.573l13.65,4.687C509.208,436.176,512,440.091,512,444.49z"/>
			<polygon style="fill:#ED6264;" points="0,333.152 202.678,266.852 309.322,266.852 512,333.152 512,413.26 327.865,350.05 
				184.135,350.05 0,413.26 			"/>
			<polygon style="fill:#E84649;" points="512,333.148 512,413.265 491.396,406.188 491.396,326.41 			"/>
			<polygon style="fill:#93DD96;" points="0,397.807 184.135,334.597 327.865,334.597 512,397.807 512,452.589 327.865,389.379 
				184.135,389.379 0,452.589 			"/>
			<g>
				<g>
					<path style="fill:#65BAFC;" d="M221.222,279.291L0,348.682V136.55c0-6.776,6.43-11.707,12.974-9.949l208.248,55.935V279.291z"
						/>
					<path style="fill:#FCD79F;" d="M61.093,190.769c-0.722,0-1.458-0.102-2.186-0.317l-25.131-7.404
						c-4.094-1.206-6.435-5.502-5.228-9.595c1.205-4.092,5.501-6.437,9.595-5.228l25.131,7.404c4.094,1.206,6.435,5.502,5.228,9.595
						C67.51,188.588,64.431,190.769,61.093,190.769z"/>
				</g>
				<g>
					<path style="fill:#65BAFC;" d="M290.778,279.291L512,348.682V136.55c0-6.776-6.43-11.707-12.974-9.949l-208.248,55.935V279.291
						z"/>
					<path style="fill:#2EA8FC;" d="M512,136.548v212.135l-20.604-6.459V136.548c0-2.812-1.102-5.295-2.864-7.129l10.497-2.823
						C505.572,124.845,512,129.769,512,136.548z"/>
					<path style="fill:#FCD79F;" d="M450.907,190.769c-3.339,0-6.418-2.18-7.408-5.545c-1.206-4.093,1.135-8.389,5.228-9.595
						l25.131-7.404c4.095-1.208,8.389,1.135,9.595,5.228c1.206,4.093-1.135,8.389-5.228,9.595l-25.131,7.404
						C452.365,190.666,451.63,190.769,450.907,190.769z"/>
				</g>
			</g>
		</g>
		<g>
			<path style="fill:#FCD79F;" d="M405.857,221.824c-4.268,0-7.726-3.459-7.726-7.726s3.459-7.772,7.726-7.772
				s7.726,3.414,7.726,7.681v0.091C413.583,218.365,410.125,221.824,405.857,221.824z"/>
			<path style="fill:#FCD79F;" d="M405.857,250.064c-4.268,0-7.726-3.459-7.726-7.726c0-4.267,3.459-7.772,7.726-7.772
				s7.726,3.414,7.726,7.681v0.091C413.583,246.605,410.125,250.064,405.857,250.064z"/>
			<path style="fill:#FCD79F;" d="M420.023,235.899h-0.091c-4.268,0-7.726-3.459-7.726-7.726s3.459-7.726,7.726-7.726
				s7.772,3.459,7.772,7.726S424.291,235.899,420.023,235.899z"/>
			<path style="fill:#FCD79F;" d="M391.783,235.899h-0.091c-4.268,0-7.726-3.459-7.726-7.726s3.459-7.726,7.726-7.726
				c4.268,0,7.772,3.459,7.772,7.726S396.05,235.899,391.783,235.899z"/>
		</g>
		<g>
			<path style="fill:#ED6264;" d="M75.043,250.18c-4.268,0-7.726-3.459-7.726-7.726s3.459-7.772,7.726-7.772
				c4.268,0,7.726,3.413,7.726,7.681v0.091C82.77,246.72,79.311,250.18,75.043,250.18z"/>
			<path style="fill:#ED6264;" d="M75.043,278.42c-4.268,0-7.726-3.459-7.726-7.726c0-4.267,3.459-7.772,7.726-7.772
				c4.268,0,7.726,3.414,7.726,7.681v0.091C82.77,274.961,79.311,278.42,75.043,278.42z"/>
			<path style="fill:#ED6264;" d="M89.208,264.254h-0.091c-4.268,0-7.726-3.459-7.726-7.726c0-4.267,3.459-7.726,7.726-7.726
				s7.772,3.459,7.772,7.726C96.889,260.795,93.476,264.254,89.208,264.254z"/>
			<path style="fill:#ED6264;" d="M60.968,264.254h-0.091c-4.268,0-7.726-3.459-7.726-7.726c0-4.267,3.459-7.726,7.726-7.726
				s7.772,3.459,7.772,7.726C68.649,260.795,65.235,264.254,60.968,264.254z"/>
		</g>
		<g>
			<path style="fill:#52CC61;" d="M371.833,342.316v143.947c0,5.687-4.605,10.302-10.302,10.302H150.468
				c-5.697,0-10.302-4.615-10.302-10.302V342.316c0-35.552,22.159-65.911,53.405-78.026c9.385-3.647,19.584-5.645,30.256-5.645
				h64.345c10.673,0,20.871,1.999,30.256,5.645C349.674,276.405,371.833,306.765,371.833,342.316z"/>
			<path style="fill:#00B232;" d="M201.524,370.512v126.053h-15.453V370.512c0-4.265,3.461-7.726,7.726-7.726
				C198.073,362.786,201.524,366.247,201.524,370.512z"/>
			<path style="fill:#00B232;" d="M325.918,370.512v126.053h-15.453V370.512c0-4.265,3.461-7.726,7.726-7.726
				C322.457,362.786,325.918,366.247,325.918,370.512z"/>
			<path style="fill:#00B232;" d="M371.837,342.311v143.947c0,5.69-4.612,10.302-10.302,10.302h-12.063V342.311
				c0-46.214-37.457-83.671-83.671-83.671h22.365C334.376,258.64,371.837,296.101,371.837,342.311z"/>
			<path style="fill:#FDD1A7;" d="M371.833,395.896v90.367c0,5.687-4.605,10.302-10.302,10.302H150.468
				c-5.697,0-10.302-4.615-10.302-10.302v-90.367h45.905v59.338h139.857v-59.338H371.833z"/>
			<rect x="186.071" y="455.234" style="fill:#FFBC8A;" width="15.453" height="41.331"/>
			<rect x="310.466" y="455.234" style="fill:#FFBC8A;" width="15.453" height="41.331"/>
			<rect x="140.162" y="426.466" style="fill:#E84649;" width="45.913" height="31.605"/>
			<path style="fill:#FFBC8A;" d="M371.833,395.898v90.36c0,5.687-4.605,10.302-10.302,10.302h-12.063V395.898H371.833z"/>
			<g>
				<path style="fill:#FCD79F;" d="M391.597,89.373c-4.902-3.38-11.741-7.454-19.82-10.53c-16.813-6.402-25.831-25.114-19.627-42
					c6.252-17.019,25.151-25.674,42.106-19.326c15.515,5.809,33.186,32.83,12.117,68.558
					C403.318,91.255,396.548,92.788,391.597,89.373z"/>
				<circle style="fill:#FBCC85;" cx="335.644" cy="63.177" r="31.777"/>
				<path style="fill:#FCD79F;" d="M120.403,89.373c4.902-3.38,11.741-7.454,19.82-10.53c16.813-6.402,25.831-25.114,19.627-42
					c-6.252-17.019-25.151-25.674-42.106-19.326c-15.515,5.809-33.186,32.83-12.117,68.558
					C108.682,91.255,115.452,92.788,120.403,89.373z"/>
				<circle style="fill:#FBCC85;" cx="176.356" cy="63.177" r="31.777"/>
				<circle style="fill:#9E9797;" cx="344.714" cy="180.058" r="27.36"/>
				<path style="fill:#756F6F;" d="M372.07,180.063c0,15.102-12.249,27.351-27.362,27.351c-2.277,0-4.492-0.278-6.604-0.814
					c11.909-2.946,20.748-13.712,20.748-26.537c0-12.836-8.839-23.601-20.748-26.548c2.112-0.536,4.327-0.814,6.604-0.814
					C359.822,152.701,372.07,164.95,372.07,180.063z"/>
				<circle style="fill:#FFBC8A;" cx="173.467" cy="180.058" r="21.283"/>
				<path style="fill:#00B232;" d="M318.429,264.29c-15.072,17.863-37.591,29.072-62.429,29.072s-47.357-11.208-62.429-29.072
					c9.385-3.647,19.584-5.645,30.256-5.645h64.345C298.845,258.645,309.044,260.644,318.429,264.29z"/>
				<path style="fill:#FDD1A7;" d="M176.816,134.783l10.424,85.34c4.245,34.752,33.751,60.873,68.761,60.873l0,0
					c35.01,0,64.516-26.122,68.761-60.873l10.424-85.34H176.816z"/>
				<line style="fill:#F69583;" x1="304.139" y1="215.457" x2="304.139" y2="215.546"/>
				<path style="fill:#E8B76B;" d="M342.353,159.804c-7.937,3.818-23.948,6.512-43.247,8.075c-2.044,0.165-3.996-0.885-4.969-2.69
					l-5.692-10.562c-2.021-3.75-7.461-3.566-9.224,0.312l-5.172,11.379c-0.818,1.8-2.589,2.98-4.565,3.023
					c-40.576,0.897-84.76-2.282-99.842-9.537c-12.908-26.857-8.231-60.039,14.031-82.311c19.769-19.759,48.12-25.651,73.019-17.719
					c1.895-0.855,3.894-1.504,5.975-1.937c22.983-4.728,47.821,1.823,65.653,19.656C350.585,99.765,355.262,132.948,342.353,159.804
					z"/>
				<path style="fill:#C99D5C;" d="M342.35,159.804c-4.45,2.143-11.456,3.935-20.15,5.357c13.155-28.649,7.922-63.645-15.669-87.246
					c-10.951-10.951-24.354-17.946-38.446-20.985c21.407-2.73,43.793,4.121,60.235,20.562
					C350.581,99.765,355.258,132.948,342.35,159.804z"/>
				<g>
					<path style="fill:#F69583;" d="M210.952,229.24c-4.183,0-7.574-3.391-7.574-7.574c0-4.183,3.391-7.618,7.574-7.618
						c4.183,0,7.574,3.346,7.574,7.529v0.089C218.526,225.849,215.135,229.24,210.952,229.24z"/>
				</g>
				<g>
					<path style="fill:#F69583;" d="M301.048,229.24c-4.183,0-7.574-3.391-7.574-7.574c0-4.183,3.391-7.618,7.574-7.618
						c4.183,0,7.574,3.346,7.574,7.529v0.089C308.622,225.849,305.231,229.24,301.048,229.24z"/>
				</g>
				<g>
					<path style="fill:#00B232;" d="M219.98,205.156c-4.268,0-7.726-3.459-7.726-7.726c0-4.267,3.459-7.771,7.726-7.771
						c4.268,0,7.726,3.414,7.726,7.682v0.089C227.706,201.697,224.247,205.156,219.98,205.156z"/>
					<path style="fill:#00B232;" d="M292.02,205.156c-4.268,0-7.726-3.459-7.726-7.726c0-4.267,3.459-7.771,7.726-7.771
						s7.726,3.414,7.726,7.682v0.089C299.746,201.697,296.288,205.156,292.02,205.156z"/>
				</g>
				<path style="fill:#F69583;" d="M256,249.729c-12.708,0-24.039-8.533-27.553-20.752c-1.179-4.101,1.189-8.382,5.29-9.561
					c4.1-1.176,8.381,1.189,9.561,5.29c1.621,5.635,6.844,9.57,12.702,9.57s11.081-3.936,12.702-9.57
					c1.181-4.101,5.464-6.469,9.561-5.29c4.101,1.18,6.469,5.46,5.29,9.561C280.039,241.196,268.708,249.729,256,249.729z"/>
				<path style="fill:#E8B76B;" d="M327.475,272.88c-4.224,0-8.468-0.849-12.483-2.569l-24.168-10.353
					c-3.923-1.68-5.74-6.222-4.06-10.144c1.68-3.923,6.222-5.74,10.145-4.06l24.168,10.353c5.101,2.185,10.68,1.685,15.31-1.368
					c4.63-3.054,7.286-7.986,7.286-13.533v-38.657c0-4.267,3.459-7.726,7.726-7.726c4.268,0,7.726,3.459,7.726,7.726v38.657
					c0,10.675-5.32,20.556-14.231,26.433C339.63,271.11,333.572,272.88,327.475,272.88z"/>
			</g>
			<path style="fill:#FFF5F5;" d="M295.126,379.109v16.011c0,6.553-6.031,11.416-12.444,10.069
				c-8.614-1.809-17.586-2.743-26.683-2.743c-9.096,0-18.068,0.934-26.683,2.743c-6.413,1.347-12.444-3.516-12.444-10.069v-16.011
				c0-4.944,3.507-9.211,8.366-10.126c10.022-1.888,20.344-2.861,30.76-2.861s20.738,0.973,30.76,2.861
				C291.619,369.899,295.126,374.165,295.126,379.109z"/>
			<path style="fill:#FFBC8A;" d="M263.726,484.203v12.362h-15.453v-12.362c0-4.275,3.461-7.726,7.726-7.726
				C260.265,476.477,263.726,479.928,263.726,484.203z"/>
		</g>
	</g>
	<polygon style="fill:#77D47D;" points="512,397.812 512,452.587 491.396,445.51 491.396,390.735 	"/>
</g>
<g>
</g>
<g>
</g>
<g>
</g>
<g>
</g>
<g>
</g>
<g>
</g>
<g>
</g>
<g>
</g>
<g>
</g>
<g>
</g>
<g>
</g>
<g>
</g>
<g>
</g>
<g>
</g>
<g>
</g>
</svg>
